#N canvas -8 -8 1920 1037 12;
#X obj 15 7 bng 15 250 50 0 empty empty empty 17 7 0 10 -262144 -1
-1;
#X obj 15 27 openpanel;
#X msg 15 51 read -resize \$1 sfbuffer;
#X obj 15 75 soundfiler;
#X floatatom 15 189 5 0 0 0 - - -;
#X floatatom 25 168 5 0 0 0 - - -;
#X obj 524 116 phasor~;
#X obj 524 160 *~, f 15;
#X obj 524 245 tabread~ sfbuffer;
#X obj 494 306 dac~;
#X obj 15 212 - 1;
#X obj 27 455 table sfbuffer;
#X obj 106 96 samplerate~;
#X obj 106 76 bng 15 250 50 0 empty empty empty 17 7 0 10 -262144 -1
-1;
#X floatatom 106 120 5 0 0 0 - - -;
#X obj 25 144 expr $f2/$f1;
#X floatatom 58 258 5 0 0 0 ms - -;
#X obj 58 281 expr $f1*$f2;
#X floatatom 159 310 5 0 0 0 - - -;
#X obj 159 286 / 1000;
#X floatatom 58 305 5 0 0 0 samples - -;
#X obj 58 328 expr $f1/$f2;
#X floatatom 58 352 5 0 0 0 ms - -;
#X obj 123 73 r pd-dsp-started;
#X obj 58 375 expr 1000/$f1;
#X floatatom 58 399 5 0 0 0 hz - -;
#X floatatom 572 39 5 0 0 0 duration - -;
#X obj 572 62 sig~;
#X obj 524 94 expr~ 1000/$v1;
#X obj 631 94 expr~ $v1*$f2;
#X obj 631 116 -~ 1;
#X text 522 54 in ms;
#X obj 646 65 / 1000;
#X obj 734 160 samphold~;
#X obj 298 57 samplerate~;
#X obj 298 37 bng 15 250 50 0 empty empty empty 17 7 0 10 -262144 -1
-1;
#X obj 316 34 r pd-dsp-started;
#X obj 298 81 s \$0-cSamp;
#X obj 646 41 r s \$0-cSamp;
#X obj 159 260 r s \$0-cSamp;
#X floatatom 734 117 5 0 0 0 offset_sp - -;
#X obj 734 138 sig~;
#X obj 524 214 +~;
#X obj 465 162 cos~;
#X obj 465 186 *~ -0.5;
#X obj 465 210 +~ 0.5;
#X obj 506 283 *~;
#X obj 750 67 hsl 128 15 0 127 0 0 empty empty empty -2 -8 0 10 -262144
-1 -1 0 1;
#X obj 119 169 s \$0-sampSize;
#X obj 747 41 r \$0-sampSize;
#X msg 119 145 range 0 \$1;
#X connect 0 0 1 0;
#X connect 1 0 2 0;
#X connect 2 0 3 0;
#X connect 3 0 4 0;
#X connect 3 0 15 0;
#X connect 3 0 50 0;
#X connect 4 0 10 0;
#X connect 6 0 33 1;
#X connect 6 0 7 0;
#X connect 6 0 43 0;
#X connect 7 0 42 0;
#X connect 8 0 46 1;
#X connect 12 0 14 0;
#X connect 13 0 12 0;
#X connect 14 0 15 1;
#X connect 15 0 5 0;
#X connect 16 0 17 0;
#X connect 17 0 20 0;
#X connect 19 0 18 0;
#X connect 19 0 17 1;
#X connect 19 0 21 1;
#X connect 20 0 21 0;
#X connect 21 0 22 0;
#X connect 22 0 24 0;
#X connect 23 0 12 0;
#X connect 24 0 25 0;
#X connect 26 0 27 0;
#X connect 27 0 28 0;
#X connect 27 0 29 0;
#X connect 28 0 6 0;
#X connect 29 0 30 0;
#X connect 30 0 7 1;
#X connect 32 0 29 1;
#X connect 33 0 42 1;
#X connect 34 0 37 0;
#X connect 35 0 34 0;
#X connect 36 0 34 0;
#X connect 38 0 32 0;
#X connect 39 0 19 0;
#X connect 40 0 41 0;
#X connect 41 0 33 0;
#X connect 42 0 8 0;
#X connect 43 0 44 0;
#X connect 44 0 45 0;
#X connect 45 0 46 0;
#X connect 47 0 40 0;
#X connect 49 0 47 0;
#X connect 50 0 48 0;
