#N canvas -8 -8 1920 1037 12;
#X obj 130 150 noise~;
#X obj 130 233 *~;
#X floatatom 361 279 5 0 0 0 - - -;
#X obj 129 367 *~ 0.9;
#X obj 145 442 dac~;
#X msg 165 179 1 \, 0 10;
#X obj 165 203 line~;
#X obj 329 50 notein, f 15;
#X obj 329 77 stripnote, f 10;
#X obj 329 101 mtof;
#X obj 329 149 t b f;
#X obj 174 279 delwrite~ ks-fb 500;
#X obj 173 330 delread4~ ks-fb;
#X obj 129 397 lop~ 5000;
#X obj 329 125 expr 1000 / $f1;
#X floatatom 236 364 5 0 1 0 - - -;
#X floatatom 514 126 5 0 0 0 - - -;
#X obj 514 149 / 127;
#X floatatom 514 333 5 0 0 0 - - -;
#X connect 0 0 1 0;
#X connect 1 0 11 0;
#X connect 2 0 12 0;
#X connect 3 0 13 0;
#X connect 5 0 6 0;
#X connect 6 0 1 1;
#X connect 7 0 8 0;
#X connect 7 1 8 1;
#X connect 8 0 9 0;
#X connect 8 1 16 0;
#X connect 9 0 14 0;
#X connect 10 0 5 0;
#X connect 10 1 2 0;
#X connect 12 0 3 0;
#X connect 13 0 4 0;
#X connect 13 0 4 1;
#X connect 13 0 11 0;
#X connect 14 0 10 0;
#X connect 15 0 3 1;
#X connect 16 0 17 0;
#X connect 17 0 18 0;
#X connect 18 0 15 0;
