#N canvas 696 192 864 677 12;
#X obj 100 274 *~ 0.1;
#X obj 100 309 dac~;
#X floatatom 170 254 5 0 0 0 - - -;
#X floatatom 103 217 5 0 0 0 - - -;
#X obj 100 250 osc~ 440;
#X obj 105 76 vsl 15 128 50 2000 0 0 empty empty Frequency 0 -9 0 10
-4032 -1 -1 4900 1;
#X obj 170 77 vsl 15 128 0 0.9 0 1 empty empty Amplitude 0 -9 0 10
-204786 -1 -1 1800 1;
#X obj 50 33 random 2000;
#X obj 70 15 bng 15 250 50 0 empty empty empty 17 7 0 10 -262144 -1
-1;
#X obj 211 193 tgl 15 0 empty empty Mute 17 7 0 10 -232576 -1 -1 0
1;
#X obj 211 216 select 1;
#X connect 0 0 1 0;
#X connect 0 0 1 1;
#X connect 2 0 0 1;
#X connect 3 0 4 0;
#X connect 4 0 0 0;
#X connect 5 0 3 0;
#X connect 6 0 2 0;
#X connect 6 0 9 0;
#X connect 7 0 5 0;
#X connect 8 0 7 0;
#X connect 9 0 10 0;
#X connect 10 0 6 0;
#X connect 10 1 2 0;
