#N canvas -8 -8 1936 1040 10;
#X obj 530 17 cnv 15 218 154 empty empty empty 20 12 0 14 #e0e0e0 #404040
0;
#X text 6 6 Inspiration from https://www.youtube.com/watch?v=ziQZJI0gDy4
;
#X text 6 30 Credits: GeoffPlaysGuitar;
#X text 5 52 modeled after https://maxforlive.com/library/device/6252/doomcompressor
by poulhoi;
#N canvas 0 0 450 300 (subpatch) 0;
#X array sampleToPlay 294912 float 0 black black;
#X coords 0 1 294911 -1 200 140 1;
#X restore 539 24 graph;
#X obj 38 262 dac~;
#X obj 38 237 *~ 0.08;
#N canvas -8 -8 1920 1057 tinySampler 0;
#X obj 40 218 phasor~;
#X text 182 271 resize phasor to sample lenght;
#X obj 141 156 soundfiler;
#X floatatom 153 179 10 0 0 0 - - -, f 10;
#X msg 141 135 read -resize amen.wav sampleToPlay;
#X text 210 156 Read sample \, load into array;
#X obj 40 80 loadbang;
#X obj 40 270 tabread4~ sampleToPlay;
#X obj 40 142 samplerate~;
#X floatatom 53 167 5 0 0 0 - - -, f 5;
#X obj 40 245 *~ 1, f 17;
#X obj 40 191 expr $f1 / $f2;
#X floatatom 92 219 5 0 0 0 - - -, f 5;
#X obj 40 111 b;
#X obj 96 81 bng 15 250 50 0 empty empty empty 17 7 0 10 #fcfcfc #000000
#000000;
#X obj 13 341 outlet~;
#X msg 4 81 0;
#X obj 4 52 sel 0 1;
#X obj 4 32 inlet;
#X connect 0 0 10 0;
#X connect 2 0 3 0;
#X connect 2 0 11 1;
#X connect 2 0 10 1;
#X connect 4 0 2 0;
#X connect 6 0 13 0;
#X connect 7 0 15 0;
#X connect 8 0 9 0;
#X connect 8 0 11 0;
#X connect 10 0 7 0;
#X connect 11 0 12 0;
#X connect 11 0 0 0;
#X connect 13 0 4 0;
#X connect 13 0 8 0;
#X connect 14 0 13 0;
#X connect 16 0 0 0;
#X connect 17 0 16 0;
#X connect 17 1 13 0;
#X connect 18 0 17 0;
#X restore 9 122 pd tinySampler;
#X obj 9 101 tgl 15 0 empty empty empty 17 7 0 10 #fcfcfc #000000 #000000
0 1;
#X obj 280 149 -~;
#X floatatom 307 129 5 0 1 0 - - -, f 5;
#X obj 282 177 /~;
#X floatatom 316 156 5 0 1 0 - - -, f 5;
#X obj 9 147 *~;
#X floatatom 129 157 5 0 1 0 - - -, f 5;
#X msg 129 181 \$1 50;
#X obj 129 206 vline~;
#X obj 207 148 env~;
#X floatatom 207 173 5 0 0 0 - - -, f 5;
#X obj 380 90 vsl 15 100 1 200 0 0 empty empty empty 0 -9 0 10 #fcfcfc
#000000 #000000 0 1;
#X msg 377 205 \$1 50;
#X floatatom 377 255 5 0 0 0 - - -, f 5;
#X obj 377 230 line;
#X obj 279 302 expr~;
#X obj 185 263 tgl 15 0 empty empty empty 17 7 0 10 #fcfcfc #000000
#000000 1 1;
#X obj 185 240 expr if( $f1 > $f2 \, 1 \, 0);
#X connect 6 0 5 0;
#X connect 6 0 5 1;
#X connect 7 0 13 0;
#X connect 7 0 17 0;
#X connect 8 0 7 0;
#X connect 9 0 11 0;
#X connect 10 0 9 1;
#X connect 12 0 11 1;
#X connect 13 0 6 0;
#X connect 14 0 15 0;
#X connect 15 0 16 0;
#X connect 16 0 13 1;
#X connect 17 0 18 0;
#X connect 18 0 25 0;
#X connect 19 0 20 0;
#X connect 20 0 22 0;
#X connect 21 0 25 1;
#X connect 22 0 21 0;
#X connect 25 0 24 0;
