#N canvas -1928 -8 1936 1040 10;
#X obj 293 137 delwrite~ \$0-fFeedback;
#X obj 359 202 delread~ \$0-fFeedback;
#X text 381 102 input;
#X obj 363 333 *~ 0;
#X obj 397 334 hsl 60 15 0 0.9 0 0 empty empty empty 16 -12 0 10 #fcfcfc
#000000 #000000 0 1;
#X msg 397 357 \$1 50;
#X obj 397 381 line;
#X text 399 315 FB ammount;
#X obj 330 386 +~;
#X obj 359 225 bp~ 440 1000;
#X obj 359 246 +~;
#X floatatom 512 159 5 0 0 0 - - -, f 5;
#X floatatom 552 159 5 0 0 0 - - -, f 5;
#X obj 552 183 clip 0 0.95;
#X floatatom 552 208 5 0 0 0 - - -, f 5;
#X obj 334 102 inlet~;
#X obj 328 417 outlet~;
#X obj 512 134 \$2;
#X obj 552 134 \$3;
#X text 519 56 freq;
#X text 566 55 fb;
#X obj 512 75 inlet;
#X obj 559 75 inlet;
#X connect 1 0 9 0;
#X connect 3 0 0 0;
#X connect 4 0 5 0;
#X connect 5 0 6 0;
#X connect 6 0 3 1;
#X connect 8 0 16 0;
#X connect 9 0 10 0;
#X connect 10 0 3 0;
#X connect 10 0 8 0;
#X connect 11 0 9 1;
#X connect 12 0 13 0;
#X connect 13 0 14 0;
#X connect 14 0 5 0;
#X connect 15 0 0 0;
#X connect 17 0 11 0;
#X connect 18 0 12 0;
#X connect 21 0 17 0;
#X connect 22 0 18 0;
