#N canvas -8 -8 1936 1040 10;
#X obj 30 48 adc~ 3;
#X obj 30 73 *~ 0.2;
#X obj 170 395 dac~;
#X obj 170 370 clip~ -0.95 0.95;
#X obj 121 231 1overTone;
#X msg 146 186 440;
#X msg 296 135 0.9;
#X obj 296 160 s generalFeedback;
#X obj 172 208 r generalFeedback;
#X obj 286 236 1overTone;
#X obj 337 213 r generalFeedback;
#X obj 553 161 expr 440/2;
#X obj 552 121 bng 15 250 50 0 empty empty empty 17 7 0 10 #fcfcfc
#000000 #000000;
#X floatatom 553 186 5 0 0 0 - - -, f 5;
#X msg 530 250 440;
#X floatatom 637 251 5 0 0 0 - - -, f 5;
#X floatatom 530 301 15 0 0 0 - - -, f 15;
#X obj 589 254 bng 15 250 50 0 empty empty empty 17 7 0 10 #fcfcfc
#000000 #000000;
#X obj 530 275 expr $f1+(($f1)*(1/$f2));
#X connect 0 0 1 0;
#X connect 1 0 4 0;
#X connect 3 0 2 0;
#X connect 3 0 2 1;
#X connect 4 0 3 0;
#X connect 5 0 4 1;
#X connect 6 0 7 0;
#X connect 8 0 4 2;
#X connect 10 0 9 2;
#X connect 11 0 13 0;
#X connect 12 0 11 0;
#X connect 14 0 18 0;
#X connect 15 0 17 0;
#X connect 15 0 18 1;
#X connect 17 0 14 0;
#X connect 18 0 16 0;
