#N canvas -8 -8 1936 1040 10;
#X obj 122 130 adc~ 1 2;
#X obj 122 182 *~;
#X obj 211 182 *~;
#X obj 79 69 hsl 90 15 0 0.99 0 0 empty empty empty -2 -8 0 10 #fcfcfc
#000000 #000000 154 1;
#X obj 226 106 clip 0 0.99;
#X obj 122 217 *~;
#X obj 211 217 *~;
#X obj 441 68 tgl 15 0 empty empty empty 17 7 0 10 #fcfcfc #000000
#000000 1 1;
#X text 461 68 MUTE;
#X text 178 69 VOLUME;
#X obj 122 253 clip~ 0 0.99;
#X obj 211 253 clip~ 0 0.99;
#X obj 122 294 dac~ 1 2, f 11;
#X msg 405 130 \; pd dsp 1;
#X obj 405 106 loadbang;
#X obj 226 155 line~;
#X msg 226 130 \$1 100;
#X obj 330 182 line~;
#X msg 330 155 \$1 100;
#X obj 330 227 env~;
#X floatatom 330 252 5 0 0 0 - - -, f 5;
#X obj 330 106 - 1;
#X obj 330 130 abs;
#X obj 66 171 env~;
#X floatatom 66 196 5 0 0 0 - - -, f 5;
#X obj 226 14 receive fromGUI;
#X obj 226 40 list trim;
#X obj 226 68 route /volSlider;
#X obj 330 68 route /muteButton;
#X msg 405 182 65 x 65 layout grid;
#X connect 0 0 1 0;
#X connect 0 1 2 0;
#X connect 1 0 5 0;
#X connect 2 0 6 0;
#X connect 4 0 16 0;
#X connect 5 0 10 0;
#X connect 6 0 11 0;
#X connect 10 0 12 0;
#X connect 11 0 12 1;
#X connect 14 0 13 0;
#X connect 15 0 2 1;
#X connect 15 0 1 1;
#X connect 15 0 23 0;
#X connect 16 0 15 0;
#X connect 17 0 6 1;
#X connect 17 0 5 1;
#X connect 17 0 19 0;
#X connect 18 0 17 0;
#X connect 19 0 20 0;
#X connect 21 0 22 0;
#X connect 22 0 18 0;
#X connect 23 0 24 0;
#X connect 25 0 26 0;
#X connect 26 0 27 0;
#X connect 26 0 28 0;
#X connect 27 0 4 0;
#X connect 27 0 3 0;
#X connect 28 0 21 0;
#X connect 28 0 7 0;
