#N canvas -8 -8 1920 1037 12;
#X obj 141 382 s kt;
#X obj 141 360 spigot;
#X obj 180 195 receive fromGUI, f 7;
#X obj 180 233 list trim, f 7;
#X obj 180 87 t b b b;
#X obj 180 68 bng 15 250 50 0 empty empty empty 17 7 0 10 -262144 -1
-1;
#X obj 180 44 metro 500;
#X obj 179 25 tgl 15 0 empty empty empty 17 7 0 10 -262144 -1 -1 0
1;
#X obj 180 823 tgl 15 0 empty empty empty 17 7 0 10 -262144 -1 -1 0
1;
#X obj 141 565 spigot;
#X obj 180 385 receive fromGUI, f 7;
#X obj 180 423 list trim, f 7;
#X obj 180 843 tgl 15 0 empty empty empty 17 7 0 10 -262144 -1 -1 0
1;
#X obj 141 755 spigot;
#X obj 180 590 receive fromGUI, f 7;
#X obj 180 628 list trim, f 7;
#X obj 180 863 tgl 15 0 empty empty empty 17 7 0 10 -262144 -1 -1 0
1;
#X obj 141 587 s st;
#X obj 141 777 s sh;
#X obj 141 110 b;
#X obj 141 140 b;
#X obj 141 170 b;
#X obj 80 55 inlet;
#X text 206 155 step4;
#X obj 180 272 route \$1;
#X obj 180 310 r \$2, f 7;
#X obj 180 462 route \$3;
#X obj 180 500 r \$4, f 7;
#X obj 180 667 route \$5;
#X obj 180 705 r \$6, f 7;
#X obj 278 778 inlet;
#X obj 327 777 inlet;
#X obj 377 776 inlet;
#X connect 1 0 0 0;
#X connect 2 0 3 0;
#X connect 3 0 24 0;
#X connect 4 0 19 0;
#X connect 4 1 20 0;
#X connect 4 2 21 0;
#X connect 5 0 4 0;
#X connect 6 0 5 0;
#X connect 7 0 6 0;
#X connect 8 0 1 1;
#X connect 9 0 17 0;
#X connect 10 0 11 0;
#X connect 11 0 26 0;
#X connect 12 0 9 1;
#X connect 13 0 18 0;
#X connect 14 0 15 0;
#X connect 15 0 28 0;
#X connect 16 0 13 1;
#X connect 19 0 1 0;
#X connect 20 0 9 0;
#X connect 21 0 13 0;
#X connect 22 0 4 0;
#X connect 24 0 8 0;
#X connect 25 0 8 0;
#X connect 26 0 12 0;
#X connect 27 0 12 0;
#X connect 28 0 16 0;
#X connect 29 0 16 0;
#X connect 30 0 8 0;
#X connect 31 0 12 0;
#X connect 32 0 16 0;
