#N canvas -8 -8 1920 1037 12;
#X obj 17 337 s kt;
#X obj 17 315 spigot;
#X obj 56 150 receive fromGUI, f 16;
#X obj 56 188 list trim, f 10;
#X obj 17 42 t b b b;
#X obj 17 520 spigot;
#X obj 56 340 receive fromGUI, f 16;
#X obj 56 378 list trim, f 11;
#X obj 17 710 spigot;
#X obj 56 545 receive fromGUI;
#X obj 56 583 list trim, f 10;
#X obj 17 542 s st;
#X obj 17 732 s sh;
#X obj 17 65 b;
#X obj 17 95 b;
#X obj 17 125 b;
#X obj 17 17 inlet;
#X obj 56 227 route \$1;
#X obj 56 265 r \$2, f 7;
#X obj 56 417 route \$3;
#X obj 56 455 r \$4, f 7;
#X obj 56 622 route \$5;
#X obj 56 660 r \$6, f 7;
#X obj 154 740 inlet;
#X obj 195 740 inlet;
#X obj 236 740 inlet;
#X obj 56 759 f;
#X obj 56 782 f;
#X obj 55 804 f;
#X connect 1 0 0 0;
#X connect 2 0 3 0;
#X connect 3 0 17 0;
#X connect 4 0 13 0;
#X connect 4 1 14 0;
#X connect 4 2 15 0;
#X connect 5 0 11 0;
#X connect 6 0 7 0;
#X connect 7 0 19 0;
#X connect 8 0 12 0;
#X connect 9 0 10 0;
#X connect 10 0 21 0;
#X connect 13 0 1 0;
#X connect 14 0 5 0;
#X connect 15 0 8 0;
#X connect 16 0 4 0;
#X connect 17 0 26 0;
#X connect 18 0 26 0;
#X connect 19 0 27 0;
#X connect 20 0 27 0;
#X connect 21 0 28 0;
#X connect 22 0 28 0;
#X connect 23 0 26 0;
#X connect 24 0 27 0;
#X connect 25 0 28 0;
#X connect 26 0 1 1;
#X connect 27 0 5 1;
#X connect 28 0 8 1;
