#N canvas -8 -8 1920 1037 12;
#X obj -698 519 +~;
#X obj -698 330 *~;
#X obj -202 318 hsl 128 15 0 0.85 0 0 empty empty empty -2 -8 0 10
-262144 -1 -1 25400 1;
#X obj -202 385 hsl 128 15 0 5000 0 0 empty empty empty -2 -8 0 10
-262144 -1 -1 254 1;
#X text -207 366 delay time;
#X floatatom -159 404 5 0 5000 0 - - -;
#X text -118 403 ms;
#X obj -536 530 *~;
#X obj -202 439 hsl 128 15 0 0.85 0 0 empty empty empty -2 -8 0 10
-262144 -1 -1 0 1;
#X text -204 421 delay volume;
#X obj -698 397 *~;
#X obj -202 351 hsl 128 15 0 0.85 0 0 empty empty empty -2 -8 0 10
-262144 -1 -1 25400 1;
#X obj -202 471 hsl 128 15 0 0.85 0 0 empty empty empty -2 -8 0 10
-262144 -1 -1 0 1;
#X text -205 453 feedback amount;
#X obj -373 521 *~;
#X obj -698 558 clip~ -0.98 0.98;
#X text -206 300 gain in;
#X text -204 333 gain out;
#X obj -698 595 +~;
#X text -463 459 v;
#X text -463 449 |;
#X text -465 603 |;
#X text -465 594 v;
#X text -465 584 |;
#X text -262 602 |;
#X text -262 588 |;
#X text -262 575 |;
#X text -262 562 |;
#X text -262 549 |;
#X text -262 536 |;
#X text -262 522 |;
#X text -262 509 |;
#X text -262 496 |;
#X text -262 483 |;
#X text -262 469 |;
#X text -262 456 |;
#X text -262 443 |;
#X text -262 430 |;
#X text -262 416 |;
#X text -262 403 |;
#X text -465 612 +------->------------>-------+;
#X obj -473 230 inlet~;
#X obj -478 651 outlet~;
#X text -365 394 <------<------+;
#X text -180 283 ------------;
#X text -155 273 delay;
#X obj 309 15 loadbang;
#X obj -544 424 delwrite~ \$0-delayBuffer 5000;
#X obj -536 480 delread~ \$0-delayBuffer 0;
#X obj -527 393 receive~ \$0-feedbackDelay;
#X obj -538 569 send~ \$0-feedbackDelay;
#X msg 316 132 50;
#X obj -1044 814 bng 15 250 50 0 empty empty empty 17 7 0 10 -262144
-1 -1;
#X obj -29 280 hsl 128 15 0 0.85 0 0 empty empty Dry -2 -8 0 10 -262144
-1 -1 25400 1;
#X obj -43 410 hsl 128 15 0 0.85 0 0 empty empty wet -2 -8 0 10 -262144
-1 -1 0 1;
#X floatatom -46 456 5 0 0 0 - - -;
#X obj -46 479 - 0.85;
#X floatatom -46 503 5 0 0 0 - - -;
#X obj -46 526 abs;
#X floatatom -46 550 5 0 0 0 - - -;
#X obj 107 116 hsl 128 15 0 0.85 0 0 empty empty dry/wet -2 -8 0 10
-262144 -1 -1 0 1;
#X obj 107 145 hsl 128 15 0 5000 0 0 empty empty delay_time -2 -8 0
10 -262144 -1 -1 254 1;
#X obj 107 174 hsl 128 15 0 0.85 0 0 empty empty feedback_ammount -2
-8 0 10 -262144 -1 -1 0 1;
#X msg 365 174 0;
#X obj 466 57 bng 15 250 50 0 empty empty empty 17 7 0 10 -262144 -1
-1;
#X msg -263 167 0.85;
#X obj -341 114 loadbang;
#X obj 104 26 inlet;
#X obj 111 50 inlet;
#X obj 119 72 inlet;
#X obj 226 103 bng 10 250 50 0 empty empty empty 17 7 0 10 -262144
-1 -1;
#X obj 226 133 bng 10 250 50 0 empty empty empty 17 7 0 10 -262144
-1 -1;
#X obj 226 162 bng 10 250 50 0 empty empty empty 17 7 0 10 -262144
-1 -1;
#X msg 300 98 0;
#X obj 210 103 bng 10 250 50 0 empty empty empty 17 7 0 10 -262144
-1 -1;
#X obj 161 26 inlet;
#X obj 168 50 inlet;
#X obj 176 72 inlet;
#X obj 225 72 inlet;
#X connect 0 0 15 0;
#X connect 1 0 10 0;
#X connect 1 0 47 0;
#X connect 2 0 1 1;
#X connect 3 0 5 0;
#X connect 5 0 48 0;
#X connect 7 0 0 0;
#X connect 8 0 7 1;
#X connect 10 0 0 0;
#X connect 11 0 10 1;
#X connect 12 0 14 1;
#X connect 14 0 50 0;
#X connect 15 0 18 0;
#X connect 18 0 42 0;
#X connect 41 0 1 0;
#X connect 46 0 51 0;
#X connect 46 0 63 0;
#X connect 46 0 73 0;
#X connect 48 0 7 0;
#X connect 48 0 14 0;
#X connect 49 0 47 0;
#X connect 51 0 61 0;
#X connect 53 0 11 0;
#X connect 54 0 8 0;
#X connect 54 0 55 0;
#X connect 55 0 56 0;
#X connect 56 0 57 0;
#X connect 57 0 58 0;
#X connect 58 0 59 0;
#X connect 59 0 53 0;
#X connect 60 0 54 0;
#X connect 61 0 3 0;
#X connect 62 0 12 0;
#X connect 63 0 62 0;
#X connect 64 0 51 0;
#X connect 64 0 63 0;
#X connect 64 0 73 0;
#X connect 65 0 2 0;
#X connect 66 0 65 0;
#X connect 67 0 60 0;
#X connect 68 0 61 0;
#X connect 69 0 62 0;
#X connect 70 0 73 0;
#X connect 71 0 51 0;
#X connect 72 0 63 0;
#X connect 73 0 60 0;
#X connect 74 0 64 0;
#X connect 75 0 70 0;
#X connect 76 0 71 0;
#X connect 77 0 72 0;
#X connect 78 0 74 0;
#X coords 0 518.5 1 517.5 145 95 0;
