#N canvas -8 -8 1920 1037 12;
#X obj 12 16 adc~ 1 2 3 4;
#N canvas 977 356 862 570 dryAmmount~ 0;
#X obj 64 209 *~;
#X obj 107 126 vsl 15 128 0 0.85 0 0 empty empty empty 0 -9 0 10 -262144
-1 -1 0 1;
#X text 101 104 dry;
#X obj 92 74 inlet~;
#X obj 65 272 outlet~;
#X connect 0 0 4 0;
#X connect 1 0 0 1;
#X connect 3 0 0 0;
#X coords 0 -1 1 1 30 165 2 100 100;
#X restore 20 63 pd dryAmmount~;
#N canvas 0 50 450 250 (subpatch) 0;
#X array see 100 float 2;
#X coords 0 1 100 -1 200 140 1 0 0;
#X restore 753 28 graph;
#X obj 646 130 tabwrite~ see;
#X obj 646 56 tgl 15 0 empty empty empty 17 7 0 10 -262144 -1 -1 1
1;
#X obj 646 79 metro 100;
#N canvas -1928 -8 1920 1037 simpleDistort 0;
#X obj 87 311 *~;
#X obj 240 259 noise~;
#X obj 197 259 hip~;
#X obj 154 260 lop~;
#X obj 123 260 *~;
#X floatatom 154 166 5 0 20000 0 - - -;
#X floatatom 197 167 5 0 20000 0 - - -;
#X obj 87 287 clip~ -1 1;
#X obj 53 179 *~;
#X text 103 129 amount;
#X obj 108 147 hsl 128 15 0 100 0 0 empty empty empty -2 -8 0 10 -262144
-1 -1 17300 1;
#X obj 109 190 hsl 128 15 0 1 0 0 empty empty empty -2 -8 0 10 -262144
-1 -1 25500 1;
#X text 106 166 noise;
#X obj 108 230 hsl 128 15 0 0.85 0 0 empty empty empty -2 -8 0 10 -262144
-1 -1 9900 1;
#X text 105 209 volume;
#X obj 51 27 inlet~;
#X obj 54 372 outlet~;
#X text 134 106 distortion;
#X text 128 116 ------------;
#X connect 0 0 16 0;
#X connect 1 0 2 0;
#X connect 2 0 3 0;
#X connect 3 0 4 0;
#X connect 4 0 7 0;
#X connect 5 0 3 1;
#X connect 6 0 2 1;
#X connect 7 0 0 0;
#X connect 8 0 7 0;
#X connect 10 0 8 1;
#X connect 11 0 4 1;
#X connect 13 0 0 1;
#X connect 15 0 8 0;
#X coords 0 -1 1 1 150 150 2 100 100;
#X restore 120 13 pd simpleDistort;
#N canvas 0 50 1031 653 soundOut 0;
#X obj 94 216 dac~;
#X obj 94 183 *~;
#X obj 115 131 hsl 60 15 0 0.85 0 0 empty empty empty -2 -8 0 10 -262144
-1 -1 9200 1;
#X text 111 109 output;
#X obj 94 53 inlet~;
#X connect 1 0 0 0;
#X connect 1 0 0 1;
#X connect 2 0 1 1;
#X connect 4 0 1 0;
#X coords 0 -1 1 1 85 60 2 100 100;
#X restore 12 270 pd soundOut;
#X obj 646 106 b;
#N canvas -1928 -8 1920 1037 bitCrush 0;
#X floatatom -28 211 5 0 0 0 - - -;
#X obj -151 224 *~;
#X obj -151 269 *~;
#X obj 110 206 hsl 128 15 0 0.85 0 0 empty empty empty -2 -8 0 10 -262144
-1 -1 25500 1;
#X text 108 188 volume;
#X obj 110 175 hsl 128 15 0.0001 0.075 0 0 empty empty empty -2 -8
0 10 -262144 -1 -1 0 1;
#X obj -221 183 expr~ round($v1 / $f2);
#X obj 110 145 hsl 128 15 1 16 0 0 empty empty empty -2 -8 0 10 -262144
-1 -1 3400 1;
#X text 108 127 resolution;
#X obj -47 80 int;
#X obj -47 106 expr pow(2 \, $f1) - 1;
#X floatatom -47 133 5 0 0 0 - - -;
#X obj -47 157 expr 1 / $f1;
#X obj -6 186 +;
#X obj 340 83 loadbang;
#X msg 340 107 16;
#X text 107 157 tune;
#X obj -150 147 inlet~;
#X obj -151 322 outlet~;
#X text 128 112 ------------;
#X text 139 102 bit-crush;
#X connect 0 0 1 1;
#X connect 0 0 6 1;
#X connect 1 0 2 0;
#X connect 2 0 18 0;
#X connect 3 0 2 1;
#X connect 5 0 13 0;
#X connect 6 0 1 0;
#X connect 7 0 9 0;
#X connect 9 0 10 0;
#X connect 10 0 11 0;
#X connect 11 0 12 0;
#X connect 12 0 13 0;
#X connect 13 0 0 0;
#X connect 14 0 15 0;
#X connect 15 0 7 0;
#X connect 17 0 6 0;
#X coords 0 -1 1 1 150 128 2 100 100;
#X restore 279 15 pd bitCrush;
#N canvas -1928 -8 1920 1037 simpleDelay 0;
#X obj -384 348 +~;
#X obj -384 159 *~;
#X obj 112 147 hsl 128 15 0 0.85 0 0 empty empty empty -2 -8 0 10 -262144
-1 -1 25500 1;
#X obj 112 214 hsl 128 15 0 5000 0 0 empty empty empty -2 -8 0 10 -262144
-1 -1 800 1;
#X text 107 195 delay time;
#X floatatom 155 233 5 0 5000 0 - - -;
#X text 196 232 ms;
#X obj -222 359 *~;
#X obj 112 268 hsl 128 15 0 0.85 0 0 empty empty empty -2 -8 0 10 -262144
-1 -1 25500 1;
#X text 110 250 delay volume;
#X obj -384 226 *~;
#X obj 112 180 hsl 128 15 0 0.85 0 0 empty empty empty -2 -8 0 10 -262144
-1 -1 25500 1;
#X obj -222 309 delread~ delayBuffer 0;
#X obj -230 253 delwrite~ delayBuffer 5000;
#X obj -224 398 send~ feedbackDelay;
#X obj 112 300 hsl 128 15 0 0.85 0 0 empty empty empty -2 -8 0 10 -262144
-1 -1 24600 1;
#X text 109 282 feedback amount;
#X obj -59 350 *~;
#X obj -213 222 receive~ feedbackDelay;
#X obj -384 387 clip~ -0.98 0.98;
#X text 108 129 gain in;
#X text 110 162 gain out;
#X obj -384 425 +~;
#X text -149 288 v;
#X text -149 278 |;
#X text -151 432 |;
#X text -151 423 v;
#X text -151 413 |;
#X text 52 431 |;
#X text 52 417 |;
#X text 52 404 |;
#X text 52 391 |;
#X text 52 378 |;
#X text 52 365 |;
#X text 52 351 |;
#X text 52 338 |;
#X text 52 325 |;
#X text 52 312 |;
#X text 52 298 |;
#X text 52 285 |;
#X text 52 272 |;
#X text 52 259 |;
#X text 52 245 |;
#X text 52 232 |;
#X text -151 441 +------->------------>-------+;
#X obj -159 59 inlet~;
#X obj -164 480 outlet~;
#X text -51 223 <------<------+;
#X text 134 112 ------------;
#X text 159 102 delay;
#X connect 0 0 19 0;
#X connect 1 0 10 0;
#X connect 1 0 13 0;
#X connect 2 0 1 1;
#X connect 3 0 5 0;
#X connect 5 0 12 0;
#X connect 7 0 0 0;
#X connect 8 0 7 1;
#X connect 10 0 0 0;
#X connect 11 0 10 1;
#X connect 12 0 7 0;
#X connect 12 0 17 0;
#X connect 15 0 17 1;
#X connect 17 0 14 0;
#X connect 18 0 13 0;
#X connect 19 0 22 0;
#X connect 22 0 46 0;
#X connect 45 0 1 0;
#X coords 0 -1 1 1 160 225 2 100 100;
#X restore 445 12 pd simpleDelay;
#N canvas -1928 -8 1920 1037 reverbSimple 0;
#X obj 12 140 *~;
#X obj 110 137 hsl 128 15 0 0.85 0 0 empty empty empty -2 -8 0 10 -262144
-1 -1 0 1;
#X text 107 118 volume;
#X obj 21 187 rev1~;
#X obj 20 231 *~;
#X obj 110 201 hsl 128 15 0 0.85 0 0 empty empty empty -2 -8 0 10 -262144
-1 -1 0 1;
#X text 107 183 output;
#X obj 110 169 hsl 128 15 1 127 0 0 empty empty empty -2 -8 0 10 -262144
-1 -1 0 1;
#X text 107 151 size;
#X obj 316 177 rev2~, f 11;
#X obj 53 48 inlet~;
#X obj 46 320 outlet~;
#X text 124 100 simple reverb;
#X text 116 108 ----------------;
#X connect 0 0 3 0;
#X connect 1 0 0 1;
#X connect 3 0 4 0;
#X connect 4 0 11 0;
#X connect 5 0 4 1;
#X connect 7 0 3 1;
#X connect 10 0 0 0;
#X coords 0 -1 1 1 150 120 2 100 100;
#X restore 279 153 pd reverbSimple;
#N canvas -1928 -8 1920 1037 monoReverb 0;
#X obj -60 132 *~;
#X obj 113 142 hsl 128 15 0 0.85 0 0 empty empty empty -2 -8 0 10 -262144
-1 -1 25500 1;
#X text 110 123 volume;
#X obj -60 372 *~;
#X obj 113 276 hsl 128 15 0 0.85 0 0 empty empty empty -2 -8 0 10 -262144
-1 -1 25500 1;
#X text 110 257 output;
#X obj -60 61 inlet~;
#X obj -60 430 outlet~;
#X text 119 113 ----------------;
#X obj 9 429 outlet~;
#X obj 9 373 *~;
#X obj 113 175 hsl 128 15 0 100 0 0 empty empty empty -2 -8 0 10 -262144
-1 -1 25500 1;
#X obj 113 208 hsl 128 15 0 127 0 0 empty empty empty -2 -8 0 10 -262144
-1 -1 10300 1;
#X obj 113 242 hsl 128 15 0 100 0 0 empty empty empty -2 -8 0 10 -262144
-1 -1 8400 1;
#X text 110 156 feedback ammount;
#X text 110 189 dampening freq;
#X text 110 223 dampening ammount;
#X obj 16 149 mtof;
#X floatatom -29 149 5 0 0 0 - - -;
#X obj -60 309 rev2~, f 11;
#X obj -7 60 loadbang;
#X msg -10 105 100;
#X msg 36 105 60;
#X text 133 105 mono reverb;
#X connect 0 0 19 0;
#X connect 1 0 0 1;
#X connect 3 0 7 0;
#X connect 4 0 3 1;
#X connect 4 0 10 1;
#X connect 6 0 0 0;
#X connect 10 0 9 0;
#X connect 11 0 19 2;
#X connect 12 0 17 0;
#X connect 13 0 19 4;
#X connect 17 0 18 0;
#X connect 18 0 19 3;
#X connect 19 0 3 0;
#X connect 19 1 10 0;
#X connect 20 0 21 0;
#X connect 20 0 22 0;
#X connect 21 0 19 1;
#X connect 22 0 12 0;
#X coords 0 -1 1 1 155 198 2 100 100;
#X restore 122 173 pd monoReverb;
#N canvas -1928 -8 1920 1037 basicChorus 0;
#X obj -228 377 *~, f 34;
#X obj 111 217 hsl 128 15 0 0.85 0 0 empty empty empty -2 -8 0 10 -262144
-1 -1 0 1;
#X text 108 198 volume;
#X obj -150 290 delread4~ \$0-chorusBuffer;
#X obj 111 150 hsl 128 15 0 2 0 0 empty empty empty -2 -8 0 10 -262144
-1 -1 0 1;
#X text 108 131 LFO;
#X obj -108 169 expr~ ($v1 + 1) / 2;
#X obj -108 197 *~;
#X floatatom -60 201 5 0 0 0 - - -;
#X obj -108 143 osc~;
#X obj -246 55 delwrite~ \$0-chorusBuffer 100;
#X obj -108 244 +~ 5;
#X obj -349 291 delread4~ \$0-chorusBuffer;
#X obj 111 183 hsl 128 15 0 127 0 0 empty empty empty -2 -8 0 10 -262144
-1 -1 0 1;
#X text 108 164 modulation;
#X text 113 115 ----------------;
#X text 128 106 basic chorus;
#X obj -246 11 inlet~;
#X obj -185 424 outlet~;
#X text -226 102 v;
#X text -226 92 |;
#X text -149 145 |;
#X text -149 132 |;
#X text -149 119 |;
#X text -149 225 |;
#X text -149 212 |;
#X text -149 199 |;
#X text -149 185 |;
#X text -149 172 |;
#X text -149 159 |;
#X text -149 250 v;
#X text -149 240 |;
#X text -324 145 |;
#X text -324 132 |;
#X text -324 119 |;
#X text -324 225 |;
#X text -324 212 |;
#X text -324 199 |;
#X text -324 185 |;
#X text -324 172 |;
#X text -324 159 |;
#X text -324 250 v;
#X text -324 240 |;
#X text -324 111 +-------------+----------+;
#X text -226 79 |;
#X connect 0 0 18 0;
#X connect 1 0 0 1;
#X connect 3 0 0 0;
#X connect 4 0 9 0;
#X connect 6 0 7 0;
#X connect 7 0 11 0;
#X connect 8 0 7 1;
#X connect 9 0 6 0;
#X connect 11 0 3 0;
#X connect 12 0 0 0;
#X connect 13 0 8 0;
#X connect 17 0 10 0;
#X coords 0 -1 1 1 150 140 2 100 100;
#X restore 283 276 pd basicChorus;
#X connect 4 0 5 0;
#X connect 5 0 8 0;
#X connect 8 0 3 0;
