#N canvas -1928 -8 1920 1037 12;
#X obj -384 348 +~;
#X obj -384 159 *~;
#X obj 112 147 hsl 128 15 0 0.85 0 0 empty empty empty -2 -8 0 10 -262144
-1 -1 25400 1;
#X obj 112 214 hsl 128 15 0 5000 0 0 empty empty empty -2 -8 0 10 -262144
-1 -1 0 1;
#X text 107 195 delay time;
#X floatatom 155 233 5 0 5000 0 - - -;
#X text 196 232 ms;
#X obj -222 359 *~;
#X obj 112 268 hsl 128 15 0 0.85 0 0 empty empty empty -2 -8 0 10 -262144
-1 -1 25400 1;
#X text 110 250 delay volume;
#X obj -384 226 *~;
#X obj 112 180 hsl 128 15 0 0.85 0 0 empty empty empty -2 -8 0 10 -262144
-1 -1 25400 1;
#X obj 112 300 hsl 128 15 0 0.85 0 0 empty empty empty -2 -8 0 10 -262144
-1 -1 0 1;
#X text 109 282 feedback amount;
#X obj -59 350 *~;
#X obj -384 387 clip~ -0.98 0.98;
#X text 108 129 gain in;
#X text 110 162 gain out;
#X obj -384 425 +~;
#X text -149 288 v;
#X text -149 278 |;
#X text -151 432 |;
#X text -151 423 v;
#X text -151 413 |;
#X text 52 431 |;
#X text 52 417 |;
#X text 52 404 |;
#X text 52 391 |;
#X text 52 378 |;
#X text 52 365 |;
#X text 52 351 |;
#X text 52 338 |;
#X text 52 325 |;
#X text 52 312 |;
#X text 52 298 |;
#X text 52 285 |;
#X text 52 272 |;
#X text 52 259 |;
#X text 52 245 |;
#X text 52 232 |;
#X text -151 441 +------->------------>-------+;
#X obj -159 59 inlet~;
#X obj -164 480 outlet~;
#X text -51 223 <------<------+;
#X text 134 112 ------------;
#X text 159 102 delay;
#X msg 8 93 0.85;
#X obj 7 63 loadbang;
#X msg -56 92 0.3;
#X obj -230 253 delwrite~ \$0-delayBuffer 5000;
#X obj -222 309 delread~ \$0-delayBuffer 0;
#X obj -213 222 receive~ \$0-feedbackDelay;
#X obj -224 398 send~ \$0-feedbackDelay;
#X connect 0 0 15 0;
#X connect 1 0 10 0;
#X connect 1 0 49 0;
#X connect 2 0 1 1;
#X connect 3 0 5 0;
#X connect 5 0 50 0;
#X connect 7 0 0 0;
#X connect 8 0 7 1;
#X connect 10 0 0 0;
#X connect 11 0 10 1;
#X connect 12 0 14 1;
#X connect 14 0 52 0;
#X connect 15 0 18 0;
#X connect 18 0 42 0;
#X connect 41 0 1 0;
#X connect 46 0 2 0;
#X connect 46 0 11 0;
#X connect 46 0 8 0;
#X connect 47 0 46 0;
#X connect 48 0 12 0;
#X connect 50 0 7 0;
#X connect 50 0 14 0;
#X connect 51 0 49 0;
