#N canvas -8 -8 1920 1037 12;
#X obj 234 132 s pattern_hat_1;
#X obj 37 234 send toGUI;
#X msg 124 180 list /h1 \$1;
#X obj 244 142 s pattern_hat_2;
#X obj 343 61 f;
#X obj 47 244 send toGUI;
#X msg 134 190 list /h2 \$1;
#X obj 254 152 s pattern_hat_3;
#X obj 353 71 f;
#X obj 57 254 send toGUI;
#X msg 144 200 list /h3 \$1;
#X obj 264 162 s pattern_hat_4;
#X obj 363 81 f;
#X obj 67 264 send toGUI;
#X msg 154 210 list /h4 \$1;
#X obj 274 172 s pattern_hat_5;
#X obj 373 91 f;
#X obj 77 274 send toGUI;
#X msg 164 220 list /h5 \$1;
#X obj 284 182 s pattern_hat_6;
#X obj 383 101 f;
#X obj 87 284 send toGUI;
#X msg 174 230 list /h6 \$1;
#X obj 294 192 s pattern_hat_7;
#X obj 393 111 f;
#X obj 97 294 send toGUI;
#X msg 184 240 list /h7 \$1;
#X obj 304 202 s pattern_hat_8;
#X obj 403 121 f;
#X obj 107 304 send toGUI;
#X msg 194 250 list /h8 \$1;
#X obj 314 212 s pattern_hat_9;
#X obj 413 131 f;
#X obj 117 314 send toGUI;
#X msg 204 260 list /h9 \$1;
#X obj 324 222 s pattern_hat_10;
#X obj 423 141 f;
#X obj 127 324 send toGUI;
#X msg 214 270 list /h10 \$1;
#X obj 334 232 s pattern_hat_11;
#X obj 433 151 f;
#X obj 137 334 send toGUI;
#X msg 224 280 list /h11 \$1;
#X obj 344 242 s pattern_hat_12;
#X obj 443 161 f;
#X obj 147 344 send toGUI;
#X msg 234 290 list /h12 \$1;
#X obj 354 252 s pattern_hat_13;
#X obj 453 171 f;
#X obj 157 354 send toGUI;
#X msg 244 300 list /h13 \$1;
#X obj 364 262 s pattern_hat_14;
#X obj 463 181 f;
#X obj 167 364 send toGUI;
#X msg 254 310 list /h14 \$1;
#X obj 374 272 s pattern_hat_15;
#X obj 473 191 f;
#X obj 177 374 send toGUI;
#X msg 264 320 list /h15 \$1;
#X obj 384 282 s pattern_hat_16;
#X obj 483 201 f;
#X obj 187 384 send toGUI;
#X msg 274 330 list /h16 \$1;
#X obj 394 292 s pattern_hat_17;
#X obj 493 211 f;
#X obj 197 394 send toGUI;
#X msg 284 340 list /hh1 \$1;
#X obj 404 302 s pattern_hat_18;
#X obj 503 221 f;
#X obj 207 404 send toGUI;
#X msg 294 350 list /hh2 \$1;
#X obj 414 312 s pattern_hat_19;
#X obj 513 231 f;
#X obj 217 414 send toGUI;
#X msg 304 360 list /hh3 \$1;
#X obj 424 322 s pattern_hat_20;
#X obj 523 241 f;
#X obj 227 424 send toGUI;
#X msg 314 370 list /hh4 \$1;
#X obj 434 332 s pattern_hat_21;
#X obj 533 251 f;
#X obj 237 434 send toGUI;
#X msg 324 380 list /hh5 \$1;
#X obj 444 342 s pattern_hat_22;
#X obj 543 261 f;
#X obj 247 444 send toGUI;
#X msg 334 390 list /hh6 \$1;
#X obj 454 352 s pattern_hat_23;
#X obj 553 271 f;
#X obj 257 454 send toGUI;
#X msg 344 400 list /hh7 \$1;
#X obj 464 362 s pattern_hat_24;
#X obj 563 281 f;
#X obj 267 464 send toGUI;
#X msg 354 410 list /hh8 \$1;
#X obj 474 372 s pattern_hat_25;
#X obj 573 291 f;
#X obj 277 474 send toGUI;
#X msg 364 420 list /hh9 \$1;
#X obj 484 382 s pattern_hat_26;
#X obj 583 301 f;
#X obj 287 484 send toGUI;
#X msg 374 430 list /hh10 \$1;
#X obj 494 392 s pattern_hat_27;
#X obj 593 311 f;
#X obj 297 494 send toGUI;
#X msg 384 440 list /hh11 \$1;
#X obj 504 402 s pattern_hat_28;
#X obj 603 321 f;
#X obj 307 504 send toGUI;
#X msg 394 450 list /hh12 \$1;
#X obj 514 412 s pattern_hat_29;
#X obj 613 331 f;
#X obj 317 514 send toGUI;
#X msg 404 460 list /hh13 \$1;
#X obj 524 422 s pattern_hat_30;
#X obj 623 341 f;
#X obj 327 524 send toGUI;
#X msg 414 470 list /hh14 \$1;
#X obj 534 432 s pattern_hat_31;
#X obj 633 351 f;
#X obj 337 534 send toGUI;
#X msg 424 480 list /hh15 \$1;
#X obj 544 442 s pattern_hat_32;
#X obj 643 361 f;
#X obj 347 544 send toGUI;
#X msg 434 490 list /hh16 \$1;
#X obj 333 51 f;
#X connect 2 0 1 0;
#X connect 4 0 3 0;
#X connect 4 0 6 0;
#X connect 6 0 5 0;
#X connect 8 0 7 0;
#X connect 8 0 10 0;
#X connect 10 0 9 0;
#X connect 12 0 11 0;
#X connect 12 0 14 0;
#X connect 14 0 13 0;
#X connect 16 0 15 0;
#X connect 16 0 18 0;
#X connect 18 0 17 0;
#X connect 20 0 19 0;
#X connect 20 0 22 0;
#X connect 22 0 21 0;
#X connect 24 0 23 0;
#X connect 24 0 26 0;
#X connect 26 0 25 0;
#X connect 28 0 27 0;
#X connect 28 0 30 0;
#X connect 30 0 29 0;
#X connect 32 0 31 0;
#X connect 32 0 34 0;
#X connect 34 0 33 0;
#X connect 36 0 35 0;
#X connect 36 0 38 0;
#X connect 38 0 37 0;
#X connect 40 0 39 0;
#X connect 40 0 42 0;
#X connect 42 0 41 0;
#X connect 44 0 43 0;
#X connect 44 0 46 0;
#X connect 46 0 45 0;
#X connect 48 0 47 0;
#X connect 48 0 50 0;
#X connect 50 0 49 0;
#X connect 52 0 51 0;
#X connect 52 0 54 0;
#X connect 54 0 53 0;
#X connect 56 0 55 0;
#X connect 56 0 58 0;
#X connect 58 0 57 0;
#X connect 60 0 59 0;
#X connect 60 0 62 0;
#X connect 62 0 61 0;
#X connect 64 0 63 0;
#X connect 64 0 66 0;
#X connect 66 0 65 0;
#X connect 68 0 67 0;
#X connect 68 0 70 0;
#X connect 70 0 69 0;
#X connect 72 0 71 0;
#X connect 72 0 74 0;
#X connect 74 0 73 0;
#X connect 76 0 75 0;
#X connect 76 0 78 0;
#X connect 78 0 77 0;
#X connect 80 0 79 0;
#X connect 80 0 82 0;
#X connect 82 0 81 0;
#X connect 84 0 83 0;
#X connect 84 0 86 0;
#X connect 86 0 85 0;
#X connect 88 0 87 0;
#X connect 88 0 90 0;
#X connect 90 0 89 0;
#X connect 92 0 91 0;
#X connect 92 0 94 0;
#X connect 94 0 93 0;
#X connect 96 0 95 0;
#X connect 96 0 98 0;
#X connect 98 0 97 0;
#X connect 100 0 99 0;
#X connect 100 0 102 0;
#X connect 102 0 101 0;
#X connect 104 0 103 0;
#X connect 104 0 106 0;
#X connect 106 0 105 0;
#X connect 108 0 107 0;
#X connect 108 0 110 0;
#X connect 110 0 109 0;
#X connect 112 0 111 0;
#X connect 112 0 114 0;
#X connect 114 0 113 0;
#X connect 116 0 115 0;
#X connect 116 0 118 0;
#X connect 118 0 117 0;
#X connect 120 0 119 0;
#X connect 120 0 122 0;
#X connect 122 0 121 0;
#X connect 124 0 123 0;
#X connect 124 0 126 0;
#X connect 126 0 125 0;
#X connect 127 0 0 0;
#X connect 127 0 2 0;
