#N canvas 602 58 1270 916 12;
#X obj 23 91 gemwin;
#X obj 189 124 gemhead;
#X msg 44 14 create;
#X msg 99 14 destroy;
#X obj 23 16 tgl 15 0 empty empty empty 17 7 0 10 -262144 -1 -1 1 1
;
#X obj 189 347 rectangle, f 27;
#X floatatom 330 320 5 0 0 0 - - -;
#X floatatom 375 320 5 0 0 0 - - -;
#X msg 213 319 draw line;
#X msg 213 287 draw fill;
#X obj 482 105 square;
#X obj 482 147 circle;
#X obj 482 191 triangle;
#X obj 189 217 translateXYZ;
#X floatatom 216 177 5 0 0 0 - - -;
#X floatatom 256 177 5 0 0 0 - - -;
#X floatatom 296 177 5 0 0 0 - - -;
#X connect 1 0 13 0;
#X connect 2 0 0 0;
#X connect 3 0 0 0;
#X connect 4 0 0 0;
#X connect 6 0 5 1;
#X connect 7 0 5 2;
#X connect 8 0 5 0;
#X connect 9 0 5 0;
#X connect 13 0 5 0;
#X connect 14 0 13 1;
#X connect 15 0 13 2;
#X connect 16 0 13 3;
