#N canvas -1810 17 1793 1002 10;
#X obj 105 105 notein, f 16;
#X floatatom 105 135 5 0 0 0 - - -, f 5;
#X floatatom 151 135 5 0 0 0 - - -, f 5;
#X floatatom 198 135 5 0 0 0 - - -, f 5;
#X obj 105 159 mtof;
#X floatatom 105 184 5 0 0 0 - - -, f 5;
#X obj 151 159 sel 0;
#X obj 105 208 t f b;
#X floatatom 105 233 5 0 0 0 - - -, f 5;
#X obj 151 184 bng 15 250 50 0 empty empty empty 17 7 0 10 #fcfcfc
#000000 #000000;
#X obj 105 453 dac~;
#X obj 105 428 *~ 0.3;
#X obj 105 257 osc~ 440;
#X obj 315 288 del;
#X msg 333 258 500;
#X obj 105 403 *~, f 16;
#X obj 404 125 ctlin 20;
#X text 405 105 attack knob;
#X obj 404 185 hsl 80 15 0 1000 0 0 empty empty empty -2 -8 0 10 #fcfcfc
#000000 #000000 249 1;
#X obj 404 155 mapper 0 127 0 1000;
#X msg 205 347 1 31.4961;
#X obj 205 375 vline~;
#X msg 404 205 set 1 \$1;
#X obj 404 235 s \$0_attVal;
#X obj 303 123 s \$0_noteTrg;
#X obj 215 325 r \$0_attVal;
#X obj 525 185 hsl 80 15 0 1000 0 0 empty empty empty -2 -8 0 10 #fcfcfc
#000000 #000000 0 1;
#X obj 525 155 mapper 0 127 0 1000;
#X msg 525 205 set 1 \$1;
#X obj 645 185 hsl 80 15 0 1000 0 0 empty empty empty -2 -8 0 10 #fcfcfc
#000000 #000000 1306 1;
#X obj 645 155 mapper 0 127 0 1000;
#X msg 645 205 set 1 \$1;
#X obj 765 185 hsl 80 15 0 1000 0 0 empty empty empty -2 -8 0 10 #fcfcfc
#000000 #000000 4603 1;
#X obj 765 155 mapper 0 127 0 1000;
#X text 526 105 decay knob;
#X text 646 105 sustain knob;
#X text 766 105 release knob;
#X obj 525 125 ctlin 21;
#X obj 645 125 ctlin 22;
#X obj 765 125 ctlin 23;
#X obj 525 235 s \$0_decVal;
#X obj 645 235 s \$0_susVal;
#X obj 765 235 s \$0_relVal;
#X obj 308 325 r \$0_relVal;
#X msg 295 346 0 582.677;
#X msg 765 205 set 0 \$1;
#X connect 0 0 1 0;
#X connect 0 1 2 0;
#X connect 0 2 3 0;
#X connect 1 0 4 0;
#X connect 2 0 6 0;
#X connect 4 0 5 0;
#X connect 5 0 7 0;
#X connect 6 0 9 0;
#X connect 6 1 20 0;
#X connect 6 1 24 0;
#X connect 7 0 8 0;
#X connect 8 0 12 0;
#X connect 9 0 13 0;
#X connect 9 0 44 0;
#X connect 11 0 10 0;
#X connect 11 0 10 1;
#X connect 12 0 15 0;
#X connect 14 0 13 1;
#X connect 15 0 11 0;
#X connect 16 0 19 0;
#X connect 18 0 22 0;
#X connect 19 0 18 0;
#X connect 20 0 21 0;
#X connect 21 0 15 1;
#X connect 22 0 23 0;
#X connect 25 0 20 0;
#X connect 26 0 28 0;
#X connect 27 0 26 0;
#X connect 28 0 40 0;
#X connect 29 0 31 0;
#X connect 30 0 29 0;
#X connect 31 0 41 0;
#X connect 32 0 45 0;
#X connect 33 0 32 0;
#X connect 37 0 27 0;
#X connect 38 0 30 0;
#X connect 39 0 33 0;
#X connect 43 0 44 0;
#X connect 44 0 21 0;
#X connect 45 0 42 0;
