#N canvas 1912 -8 1600 857 12;
#X obj 61 -322 s kt;
#X obj 61 -344 spigot;
#X obj 100 -509 receive fromGUI, f 16;
#X obj 100 -471 list trim, f 10;
#X obj 61 -617 t b b b;
#X obj 61 -139 spigot;
#X obj 100 -319 receive fromGUI, f 16;
#X obj 100 -281 list trim, f 11;
#X obj 61 51 spigot;
#X obj 100 -114 receive fromGUI;
#X obj 100 -76 list trim, f 10;
#X obj 61 -117 s st;
#X obj 61 73 s sh;
#X obj 61 -594 b;
#X obj 61 -564 b;
#X obj 61 -534 b;
#X obj 61 -642 inlet;
#X obj 100 -432 route \$1;
#X obj 100 -394 r \$2, f 7;
#X obj 100 -242 route \$3;
#X obj 100 -204 r \$4, f 7;
#X obj 100 -37 route \$5;
#X obj 100 1 r \$6, f 7;
#X obj 100 100 tgl 15 0 empty empty empty 17 7 0 10 -191407 -1 -1 0
1;
#X obj 100 115 tgl 15 0 empty empty empty 17 7 0 10 -191407 -1 -1 0
1;
#X obj 100 130 tgl 15 0 empty empty empty 17 7 0 10 -191407 -1 -1 0
1;
#X connect 1 0 0 0;
#X connect 2 0 3 0;
#X connect 3 0 17 0;
#X connect 4 0 13 0;
#X connect 4 1 14 0;
#X connect 4 2 15 0;
#X connect 5 0 11 0;
#X connect 6 0 7 0;
#X connect 7 0 19 0;
#X connect 8 0 12 0;
#X connect 9 0 10 0;
#X connect 10 0 21 0;
#X connect 13 0 1 0;
#X connect 14 0 5 0;
#X connect 15 0 8 0;
#X connect 16 0 4 0;
#X connect 17 0 23 0;
#X connect 18 0 23 0;
#X connect 19 0 24 0;
#X connect 20 0 24 0;
#X connect 21 0 25 0;
#X connect 22 0 25 0;
#X connect 23 0 1 1;
#X connect 24 0 5 1;
#X connect 25 0 8 1;
#X coords 0 -1 1 1 15 45 2 100 100;
