#N canvas -8 -8 1920 1037 12;
#X obj 0 -2295 inlet;
#X obj 0 -2161 f, f 1;
#X obj 0 -2133 f, f 1;
#X obj 0 -2103 f, f 1;
#X obj 0 0 tgl 15 0 empty empty empty 17 7 0 10 -99865 -1 -1 0 1;
#X obj 0 15 tgl 15 0 empty empty empty 17 7 0 10 -99865 -1 -1 0 1;
#X obj 0 30 tgl 15 0 empty empty empty 17 7 0 10 -99865 -1 -1 0 1;
#X obj 0 -2184 b, f 1;
#X obj 0 -2062 bonfire-bin/1step-v2 /k1 pattern_kick_1 /s1 pattern_snare_1
/h1 pattern_hat_1, f 1;
#X obj 0 -2234 sel 0 1 2 3 4 5 6 7 8 9 10 11 12 13 14 15 16 17 18 19
20 21 22 23 24 25 26 27 28 29 30 31 32, f 71;
#X obj 15 -2161 f, f 1;
#X obj 15 -2133 f, f 1;
#X obj 15 -2103 f, f 1;
#X obj 15 0 tgl 15 0 empty empty empty 17 7 0 10 -262144 -1 -1 0 1
;
#X obj 15 15 tgl 15 0 empty empty empty 17 7 0 10 -262144 -1 -1 0 1
;
#X obj 15 30 tgl 15 0 empty empty empty 17 7 0 10 -262144 -1 -1 0 1
;
#X obj 15 -2184 b, f 1;
#X obj 15 -2061 bonfire-bin/1step-v2 /k2 pattern_kick_2 /s2 pattern_snare_2
/h2 pattern_hat_2, f 1;
#X obj 30 -2161 f, f 1;
#X obj 30 -2133 f, f 1;
#X obj 30 -2103 f, f 1;
#X obj 30 0 tgl 15 0 empty empty empty 17 7 0 10 -262144 -1 -1 0 1
;
#X obj 30 15 tgl 15 0 empty empty empty 17 7 0 10 -262144 -1 -1 0 1
;
#X obj 30 30 tgl 15 0 empty empty empty 17 7 0 10 -262144 -1 -1 0 1
;
#X obj 30 -2184 b, f 1;
#X obj 30 -2061 bonfire-bin/1step-v2 /k3 pattern_kick_3 /s3 pattern_snare_3
/h3 pattern_hat_3, f 1;
#X obj 45 -2161 f, f 1;
#X obj 45 -2133 f, f 1;
#X obj 45 -2103 f, f 1;
#X obj 45 0 tgl 15 0 empty empty empty 17 7 0 10 -262144 -1 -1 0 1
;
#X obj 45 15 tgl 15 0 empty empty empty 17 7 0 10 -262144 -1 -1 0 1
;
#X obj 45 30 tgl 15 0 empty empty empty 17 7 0 10 -262144 -1 -1 0 1
;
#X obj 45 -2184 b, f 1;
#X obj 45 -2061 bonfire-bin/1step-v2 /k4 pattern_kick_4 /s4 pattern_snare_4
/h4 pattern_hat_4, f 1;
#X obj 60 -2161 f, f 1;
#X obj 60 -2133 f, f 1;
#X obj 60 -2103 f, f 1;
#X obj 60 0 tgl 15 0 empty empty empty 17 7 0 10 -191407 -1 -1 0 1
;
#X obj 60 15 tgl 15 0 empty empty empty 17 7 0 10 -191407 -1 -1 0 1
;
#X obj 60 30 tgl 15 0 empty empty empty 17 7 0 10 -191407 -1 -1 0 1
;
#X obj 60 -2184 b, f 1;
#X obj 60 -2061 bonfire-bin/1step-v2 /k5 pattern_kick_5 /s5 pattern_snare_5
/h5 pattern_hat_5, f 1;
#X obj 75 -2161 f, f 1;
#X obj 75 -2133 f, f 1;
#X obj 75 -2103 f, f 1;
#X obj 75 0 tgl 15 0 empty empty empty 17 7 0 10 -262144 -1 -1 0 1
;
#X obj 75 15 tgl 15 0 empty empty empty 17 7 0 10 -262144 -1 -1 0 1
;
#X obj 75 30 tgl 15 0 empty empty empty 17 7 0 10 -262144 -1 -1 0 1
;
#X obj 75 -2184 b, f 1;
#X obj 75 -2061 bonfire-bin/1step-v2 /k6 pattern_kick_6 /s6 pattern_snare_6
/h6 pattern_hat_6, f 1;
#X obj 90 -2161 f, f 1;
#X obj 90 -2133 f, f 1;
#X obj 90 -2103 f, f 1;
#X obj 90 0 tgl 15 0 empty empty empty 17 7 0 10 -262144 -1 -1 0 1
;
#X obj 90 15 tgl 15 0 empty empty empty 17 7 0 10 -262144 -1 -1 0 1
;
#X obj 90 30 tgl 15 0 empty empty empty 17 7 0 10 -262144 -1 -1 0 1
;
#X obj 90 -2184 b, f 1;
#X obj 90 -2061 bonfire-bin/1step-v2 /k7 pattern_kick_7 /s7 pattern_snare_7
/h7 pattern_hat_7, f 1;
#X obj 105 -2161 f, f 1;
#X obj 105 -2133 f, f 1;
#X obj 105 -2103 f, f 1;
#X obj 105 0 tgl 15 0 empty empty empty 17 7 0 10 -262144 -1 -1 0 1
;
#X obj 105 15 tgl 15 0 empty empty empty 17 7 0 10 -262144 -1 -1 0
1;
#X obj 105 30 tgl 15 0 empty empty empty 17 7 0 10 -262144 -1 -1 0
1;
#X obj 105 -2184 b, f 1;
#X obj 105 -2061 bonfire-bin/1step-v2 /k8 pattern_kick_8 /s8 pattern_snare_8
/h8 pattern_hat_8, f 1;
#X obj 120 -2161 f, f 1;
#X obj 120 -2133 f, f 1;
#X obj 120 -2103 f, f 1;
#X obj 120 0 tgl 15 0 empty empty empty 17 7 0 10 -191407 -1 -1 0 1
;
#X obj 120 15 tgl 15 0 empty empty empty 17 7 0 10 -191407 -1 -1 0
1;
#X obj 120 30 tgl 15 0 empty empty empty 17 7 0 10 -191407 -1 -1 0
1;
#X obj 120 -2184 b, f 1;
#X obj 120 -2061 bonfire-bin/1step-v2 /k9 pattern_kick_9 /s9 pattern_snare_9
/h9 pattern_hat_9, f 1;
#X obj 135 -2161 f, f 1;
#X obj 135 -2133 f, f 1;
#X obj 135 -2103 f, f 1;
#X obj 135 0 tgl 15 0 empty empty empty 17 7 0 10 -262144 -1 -1 0 1
;
#X obj 135 15 tgl 15 0 empty empty empty 17 7 0 10 -262144 -1 -1 0
1;
#X obj 135 30 tgl 15 0 empty empty empty 17 7 0 10 -262144 -1 -1 0
1;
#X obj 135 -2184 b, f 1;
#X obj 135 -2061 bonfire-bin/1step-v2 /k10 pattern_kick_10 /s10 pattern_snare_10
/h10 pattern_hat_10, f 1;
#X obj 150 -2161 f, f 1;
#X obj 150 -2133 f, f 1;
#X obj 150 -2103 f, f 1;
#X obj 150 0 tgl 15 0 empty empty empty 17 7 0 10 -262144 -1 -1 0 1
;
#X obj 150 15 tgl 15 0 empty empty empty 17 7 0 10 -262144 -1 -1 0
1;
#X obj 150 30 tgl 15 0 empty empty empty 17 7 0 10 -262144 -1 -1 0
1;
#X obj 150 -2184 b, f 1;
#X obj 150 -2061 bonfire-bin/1step-v2 /k11 pattern_kick_11 /s11 pattern_snare_11
/h11 pattern_hat_11, f 1;
#X obj 165 -2161 f, f 1;
#X obj 165 -2133 f, f 1;
#X obj 165 -2103 f, f 1;
#X obj 165 0 tgl 15 0 empty empty empty 17 7 0 10 -262144 -1 -1 0 1
;
#X obj 165 15 tgl 15 0 empty empty empty 17 7 0 10 -262144 -1 -1 0
1;
#X obj 165 30 tgl 15 0 empty empty empty 17 7 0 10 -262144 -1 -1 0
1;
#X obj 165 -2184 b, f 1;
#X obj 165 -2061 bonfire-bin/1step-v2 /k12 pattern_kick_12 /s12 pattern_snare_12
/h12 pattern_hat_12, f 1;
#X obj 180 -2161 f, f 1;
#X obj 180 -2133 f, f 1;
#X obj 180 -2103 f, f 1;
#X obj 180 0 tgl 15 0 empty empty empty 17 7 0 10 -191407 -1 -1 0 1
;
#X obj 180 15 tgl 15 0 empty empty empty 17 7 0 10 -191407 -1 -1 0
1;
#X obj 180 30 tgl 15 0 empty empty empty 17 7 0 10 -191407 -1 -1 0
1;
#X obj 180 -2184 b, f 1;
#X obj 180 -2061 bonfire-bin/1step-v2 /k13 pattern_kick_13 /s13 pattern_snare_13
/h13 pattern_hat_13, f 1;
#X obj 195 -2161 f, f 1;
#X obj 195 -2133 f, f 1;
#X obj 195 -2103 f, f 1;
#X obj 195 0 tgl 15 0 empty empty empty 17 7 0 10 -262144 -1 -1 0 1
;
#X obj 195 15 tgl 15 0 empty empty empty 17 7 0 10 -262144 -1 -1 0
1;
#X obj 195 30 tgl 15 0 empty empty empty 17 7 0 10 -262144 -1 -1 0
1;
#X obj 195 -2184 b, f 1;
#X obj 195 -2061 bonfire-bin/1step-v2 /k14 pattern_kick_14 /s14 pattern_snare_14
/h14 pattern_hat_14, f 1;
#X obj 210 -2161 f, f 1;
#X obj 210 -2133 f, f 1;
#X obj 210 -2103 f, f 1;
#X obj 210 0 tgl 15 0 empty empty empty 17 7 0 10 -262144 -1 -1 0 1
;
#X obj 210 15 tgl 15 0 empty empty empty 17 7 0 10 -262144 -1 -1 0
1;
#X obj 210 30 tgl 15 0 empty empty empty 17 7 0 10 -262144 -1 -1 0
1;
#X obj 210 -2184 b, f 1;
#X obj 210 -2061 bonfire-bin/1step-v2 /k15 pattern_kick_15 /s15 pattern_snare_15
/h15 pattern_hat_15, f 1;
#X obj 225 -2161 f, f 1;
#X obj 225 -2133 f, f 1;
#X obj 225 -2103 f, f 1;
#X obj 225 0 tgl 15 0 empty empty empty 17 7 0 10 -262144 -1 -1 0 1
;
#X obj 225 15 tgl 15 0 empty empty empty 17 7 0 10 -262144 -1 -1 0
1;
#X obj 225 30 tgl 15 0 empty empty empty 17 7 0 10 -262144 -1 -1 0
1;
#X obj 225 -2184 b, f 1;
#X obj 225 -2061 bonfire-bin/1step-v2 /k16 pattern_kick_16 /s16 pattern_snare_16
/h16 pattern_hat_16, f 1;
#X obj 240 -2161 f, f 1;
#X obj 240 -2133 f, f 1;
#X obj 240 -2103 f, f 1;
#X obj 240 0 tgl 15 0 empty empty empty 17 7 0 10 -99865 -1 -1 0 1
;
#X obj 240 15 tgl 15 0 empty empty empty 17 7 0 10 -99865 -1 -1 0 1
;
#X obj 240 30 tgl 15 0 empty empty empty 17 7 0 10 -99865 -1 -1 0 1
;
#X obj 240 -2184 b, f 1;
#X obj 240 -2061 bonfire-bin/1step-v2 /kk1 pattern_kick_17 /ss1 pattern_snare_17
/hh1 pattern_hat_17, f 1;
#X obj 255 -2161 f, f 1;
#X obj 255 -2133 f, f 1;
#X obj 255 -2103 f, f 1;
#X obj 255 0 tgl 15 0 empty empty empty 17 7 0 10 -262144 -1 -1 0 1
;
#X obj 255 15 tgl 15 0 empty empty empty 17 7 0 10 -262144 -1 -1 0
1;
#X obj 255 30 tgl 15 0 empty empty empty 17 7 0 10 -262144 -1 -1 0
1;
#X obj 255 -2184 b, f 1;
#X obj 255 -2061 bonfire-bin/1step-v2 /kk2 pattern_kick_18 /ss2 pattern_snare_18
/hh2 pattern_hat_18, f 1;
#X obj 270 -2161 f, f 1;
#X obj 270 -2133 f, f 1;
#X obj 270 -2103 f, f 1;
#X obj 270 0 tgl 15 0 empty empty empty 17 7 0 10 -262144 -1 -1 0 1
;
#X obj 270 15 tgl 15 0 empty empty empty 17 7 0 10 -262144 -1 -1 0
1;
#X obj 270 30 tgl 15 0 empty empty empty 17 7 0 10 -262144 -1 -1 0
1;
#X obj 270 -2184 b, f 1;
#X obj 270 -2061 bonfire-bin/1step-v2 /kk3 pattern_kick_19 /ss3 pattern_snare_19
/hh3 pattern_hat_19, f 1;
#X obj 285 -2161 f, f 1;
#X obj 285 -2133 f, f 1;
#X obj 285 -2103 f, f 1;
#X obj 285 0 tgl 15 0 empty empty empty 17 7 0 10 -262144 -1 -1 0 1
;
#X obj 285 15 tgl 15 0 empty empty empty 17 7 0 10 -262144 -1 -1 0
1;
#X obj 285 30 tgl 15 0 empty empty empty 17 7 0 10 -262144 -1 -1 0
1;
#X obj 285 -2184 b, f 1;
#X obj 285 -2061 bonfire-bin/1step-v2 /kk4 pattern_kick_20 /ss4 pattern_snare_20
/hh4 pattern_hat_20, f 1;
#X obj 300 -2161 f, f 1;
#X obj 300 -2133 f, f 1;
#X obj 300 -2103 f, f 1;
#X obj 300 0 tgl 15 0 empty empty empty 17 7 0 10 -191407 -1 -1 0 1
;
#X obj 300 15 tgl 15 0 empty empty empty 17 7 0 10 -191407 -1 -1 0
1;
#X obj 300 30 tgl 15 0 empty empty empty 17 7 0 10 -191407 -1 -1 0
1;
#X obj 300 -2184 b, f 1;
#X obj 300 -2061 bonfire-bin/1step-v2 /kk5 pattern_kick_21 /ss5 pattern_snare_21
/hh5 pattern_hat_21, f 1;
#X obj 315 -2161 f, f 1;
#X obj 315 -2133 f, f 1;
#X obj 315 -2103 f, f 1;
#X obj 315 0 tgl 15 0 empty empty empty 17 7 0 10 -262144 -1 -1 0 1
;
#X obj 315 15 tgl 15 0 empty empty empty 17 7 0 10 -262144 -1 -1 0
1;
#X obj 315 30 tgl 15 0 empty empty empty 17 7 0 10 -262144 -1 -1 0
1;
#X obj 315 -2184 b, f 1;
#X obj 315 -2061 bonfire-bin/1step-v2 /kk6 pattern_kick_22 /ss6 pattern_snare_22
/hh6 pattern_hat_22, f 1;
#X obj 330 -2161 f, f 1;
#X obj 330 -2133 f, f 1;
#X obj 330 -2103 f, f 1;
#X obj 330 0 tgl 15 0 empty empty empty 17 7 0 10 -262144 -1 -1 0 1
;
#X obj 330 15 tgl 15 0 empty empty empty 17 7 0 10 -262144 -1 -1 0
1;
#X obj 330 30 tgl 15 0 empty empty empty 17 7 0 10 -262144 -1 -1 0
1;
#X obj 330 -2184 b, f 1;
#X obj 330 -2061 bonfire-bin/1step-v2 /kk7 pattern_kick_23 /ss7 pattern_snare_23
/hh7 pattern_hat_23, f 1;
#X obj 345 -2161 f, f 1;
#X obj 345 -2133 f, f 1;
#X obj 345 -2103 f, f 1;
#X obj 345 0 tgl 15 0 empty empty empty 17 7 0 10 -262144 -1 -1 0 1
;
#X obj 345 15 tgl 15 0 empty empty empty 17 7 0 10 -262144 -1 -1 0
1;
#X obj 345 30 tgl 15 0 empty empty empty 17 7 0 10 -262144 -1 -1 0
1;
#X obj 345 -2184 b, f 1;
#X obj 345 -2061 bonfire-bin/1step-v2 /kk8 pattern_kick_24 /ss8 pattern_snare_24
/hh8 pattern_hat_24, f 1;
#X obj 360 -2161 f, f 1;
#X obj 360 -2133 f, f 1;
#X obj 360 -2103 f, f 1;
#X obj 360 0 tgl 15 0 empty empty empty 17 7 0 10 -191407 -1 -1 0 1
;
#X obj 360 15 tgl 15 0 empty empty empty 17 7 0 10 -191407 -1 -1 0
1;
#X obj 360 30 tgl 15 0 empty empty empty 17 7 0 10 -191407 -1 -1 0
1;
#X obj 360 -2184 b, f 1;
#X obj 360 -2061 bonfire-bin/1step-v2 /kk9 pattern_kick_25 /ss9 pattern_snare_25
/hh9 pattern_hat_25, f 1;
#X obj 375 -2161 f, f 1;
#X obj 375 -2133 f, f 1;
#X obj 375 -2103 f, f 1;
#X obj 375 0 tgl 15 0 empty empty empty 17 7 0 10 -262144 -1 -1 0 1
;
#X obj 375 15 tgl 15 0 empty empty empty 17 7 0 10 -262144 -1 -1 0
1;
#X obj 375 30 tgl 15 0 empty empty empty 17 7 0 10 -262144 -1 -1 0
1;
#X obj 375 -2184 b, f 1;
#X obj 375 -2061 bonfire-bin/1step-v2 /kk10 pattern_kick_26 /ss10 pattern_snare_26
/hh10 pattern_hat_26, f 1;
#X obj 390 -2161 f, f 1;
#X obj 390 -2133 f, f 1;
#X obj 390 -2103 f, f 1;
#X obj 390 0 tgl 15 0 empty empty empty 17 7 0 10 -262144 -1 -1 0 1
;
#X obj 390 15 tgl 15 0 empty empty empty 17 7 0 10 -262144 -1 -1 0
1;
#X obj 390 30 tgl 15 0 empty empty empty 17 7 0 10 -262144 -1 -1 0
1;
#X obj 390 -2184 b, f 1;
#X obj 390 -2061 bonfire-bin/1step-v2 /kk11 pattern_kick_27 /ss11 pattern_snare_27
/hh11 pattern_hat_27, f 1;
#X obj 405 -2161 f, f 1;
#X obj 405 -2133 f, f 1;
#X obj 405 -2103 f, f 1;
#X obj 405 0 tgl 15 0 empty empty empty 17 7 0 10 -262144 -1 -1 0 1
;
#X obj 405 15 tgl 15 0 empty empty empty 17 7 0 10 -262144 -1 -1 0
1;
#X obj 405 30 tgl 15 0 empty empty empty 17 7 0 10 -262144 -1 -1 0
1;
#X obj 405 -2184 b, f 1;
#X obj 405 -2061 bonfire-bin/1step-v2 /kk12 pattern_kick_28 /ss12 pattern_snare_28
/hh12 pattern_hat_28, f 1;
#X obj 420 -2161 f, f 1;
#X obj 420 -2133 f, f 1;
#X obj 420 -2103 f, f 1;
#X obj 420 0 tgl 15 0 empty empty empty 17 7 0 10 -191407 -1 -1 0 1
;
#X obj 420 15 tgl 15 0 empty empty empty 17 7 0 10 -191407 -1 -1 0
1;
#X obj 420 30 tgl 15 0 empty empty empty 17 7 0 10 -191407 -1 -1 0
1;
#X obj 420 -2184 b, f 1;
#X obj 420 -2061 bonfire-bin/1step-v2 /kk13 pattern_kick_29 /ss13 pattern_snare_29
/hh13 pattern_hat_29, f 1;
#X obj 435 -2161 f, f 1;
#X obj 435 -2133 f, f 1;
#X obj 435 -2103 f, f 1;
#X obj 435 0 tgl 15 0 empty empty empty 17 7 0 10 -262144 -1 -1 0 1
;
#X obj 435 15 tgl 15 0 empty empty empty 17 7 0 10 -262144 -1 -1 0
1;
#X obj 435 30 tgl 15 0 empty empty empty 17 7 0 10 -262144 -1 -1 0
1;
#X obj 435 -2184 b, f 1;
#X obj 435 -2061 bonfire-bin/1step-v2 /kk14 pattern_kick_30 /ss14 pattern_snare_30
/hh14 pattern_hat_30, f 1;
#X obj 450 -2161 f, f 1;
#X obj 450 -2133 f, f 1;
#X obj 450 -2103 f, f 1;
#X obj 450 0 tgl 15 0 empty empty empty 17 7 0 10 -262144 -1 -1 0 1
;
#X obj 450 15 tgl 15 0 empty empty empty 17 7 0 10 -262144 -1 -1 0
1;
#X obj 450 30 tgl 15 0 empty empty empty 17 7 0 10 -262144 -1 -1 0
1;
#X obj 450 -2184 b, f 1;
#X obj 450 -2061 bonfire-bin/1step-v2 /kk15 pattern_kick_31 /ss15 pattern_snare_31
/hh15 pattern_hat_31, f 1;
#X obj 465 -2161 f, f 1;
#X obj 465 -2133 f, f 1;
#X obj 465 -2103 f, f 1;
#X obj 465 0 tgl 15 0 empty empty empty 17 7 0 10 -262144 -1 -1 0 1
;
#X obj 465 15 tgl 15 0 empty empty empty 17 7 0 10 -262144 -1 -1 0
1;
#X obj 465 30 tgl 15 0 empty empty empty 17 7 0 10 -262144 -1 -1 0
1;
#X obj 465 -2184 b, f 1;
#X obj 465 -2061 bonfire-bin/1step-v2 /kk16 pattern_kick_32 /ss16 pattern_snare_32
/hh16 pattern_hat_32, f 1;
#X connect 0 0 9 0;
#X connect 1 0 8 1;
#X connect 2 0 8 2;
#X connect 3 0 8 3;
#X connect 4 0 1 0;
#X connect 5 0 2 0;
#X connect 6 0 3 0;
#X connect 7 0 8 0;
#X connect 9 0 7 0;
#X connect 9 1 16 0;
#X connect 9 2 24 0;
#X connect 9 3 32 0;
#X connect 9 4 40 0;
#X connect 9 5 48 0;
#X connect 9 6 56 0;
#X connect 9 7 64 0;
#X connect 9 8 72 0;
#X connect 9 9 80 0;
#X connect 9 10 88 0;
#X connect 9 11 96 0;
#X connect 9 12 104 0;
#X connect 9 13 112 0;
#X connect 9 14 120 0;
#X connect 9 15 128 0;
#X connect 9 16 136 0;
#X connect 9 17 144 0;
#X connect 9 18 152 0;
#X connect 9 19 160 0;
#X connect 9 20 168 0;
#X connect 9 21 176 0;
#X connect 9 22 184 0;
#X connect 9 23 192 0;
#X connect 9 24 200 0;
#X connect 9 25 208 0;
#X connect 9 26 216 0;
#X connect 9 27 224 0;
#X connect 9 28 232 0;
#X connect 9 29 240 0;
#X connect 9 30 248 0;
#X connect 9 31 256 0;
#X connect 10 0 17 1;
#X connect 11 0 17 2;
#X connect 12 0 17 3;
#X connect 13 0 10 0;
#X connect 14 0 11 0;
#X connect 15 0 12 0;
#X connect 16 0 17 0;
#X connect 18 0 25 1;
#X connect 19 0 25 2;
#X connect 20 0 25 3;
#X connect 21 0 18 0;
#X connect 22 0 19 0;
#X connect 23 0 20 0;
#X connect 24 0 25 0;
#X connect 26 0 33 1;
#X connect 27 0 33 2;
#X connect 28 0 33 3;
#X connect 29 0 26 0;
#X connect 30 0 27 0;
#X connect 31 0 28 0;
#X connect 32 0 33 0;
#X connect 34 0 41 1;
#X connect 35 0 41 2;
#X connect 36 0 41 3;
#X connect 37 0 34 0;
#X connect 38 0 35 0;
#X connect 39 0 36 0;
#X connect 40 0 41 0;
#X connect 42 0 49 1;
#X connect 43 0 49 2;
#X connect 44 0 49 3;
#X connect 45 0 42 0;
#X connect 46 0 43 0;
#X connect 47 0 44 0;
#X connect 48 0 49 0;
#X connect 50 0 57 1;
#X connect 51 0 57 2;
#X connect 52 0 57 3;
#X connect 53 0 50 0;
#X connect 54 0 51 0;
#X connect 55 0 52 0;
#X connect 56 0 57 0;
#X connect 58 0 65 1;
#X connect 59 0 65 2;
#X connect 60 0 65 3;
#X connect 61 0 58 0;
#X connect 62 0 59 0;
#X connect 63 0 60 0;
#X connect 64 0 65 0;
#X connect 66 0 73 1;
#X connect 67 0 73 2;
#X connect 68 0 73 3;
#X connect 69 0 66 0;
#X connect 70 0 67 0;
#X connect 71 0 68 0;
#X connect 72 0 73 0;
#X connect 74 0 81 1;
#X connect 75 0 81 2;
#X connect 76 0 81 3;
#X connect 77 0 74 0;
#X connect 78 0 75 0;
#X connect 79 0 76 0;
#X connect 80 0 81 0;
#X connect 82 0 89 1;
#X connect 83 0 89 2;
#X connect 84 0 89 3;
#X connect 85 0 82 0;
#X connect 86 0 83 0;
#X connect 87 0 84 0;
#X connect 88 0 89 0;
#X connect 90 0 97 1;
#X connect 91 0 97 2;
#X connect 92 0 97 3;
#X connect 93 0 90 0;
#X connect 94 0 91 0;
#X connect 95 0 92 0;
#X connect 96 0 97 0;
#X connect 98 0 105 1;
#X connect 99 0 105 2;
#X connect 100 0 105 3;
#X connect 101 0 98 0;
#X connect 102 0 99 0;
#X connect 103 0 100 0;
#X connect 104 0 105 0;
#X connect 106 0 113 1;
#X connect 107 0 113 2;
#X connect 108 0 113 3;
#X connect 109 0 106 0;
#X connect 110 0 107 0;
#X connect 111 0 108 0;
#X connect 112 0 113 0;
#X connect 114 0 121 1;
#X connect 115 0 121 2;
#X connect 116 0 121 3;
#X connect 117 0 114 0;
#X connect 118 0 115 0;
#X connect 119 0 116 0;
#X connect 120 0 121 0;
#X connect 122 0 129 1;
#X connect 123 0 129 2;
#X connect 124 0 129 3;
#X connect 125 0 122 0;
#X connect 126 0 123 0;
#X connect 127 0 124 0;
#X connect 128 0 129 0;
#X connect 130 0 137 1;
#X connect 131 0 137 2;
#X connect 132 0 137 3;
#X connect 133 0 130 0;
#X connect 134 0 131 0;
#X connect 135 0 132 0;
#X connect 136 0 137 0;
#X connect 138 0 145 1;
#X connect 139 0 145 2;
#X connect 140 0 145 3;
#X connect 141 0 138 0;
#X connect 142 0 139 0;
#X connect 143 0 140 0;
#X connect 144 0 145 0;
#X connect 146 0 153 1;
#X connect 147 0 153 2;
#X connect 148 0 153 3;
#X connect 149 0 146 0;
#X connect 150 0 147 0;
#X connect 151 0 148 0;
#X connect 152 0 153 0;
#X connect 154 0 161 1;
#X connect 155 0 161 2;
#X connect 156 0 161 3;
#X connect 157 0 154 0;
#X connect 158 0 155 0;
#X connect 159 0 156 0;
#X connect 160 0 161 0;
#X connect 162 0 169 1;
#X connect 163 0 169 2;
#X connect 164 0 169 3;
#X connect 165 0 162 0;
#X connect 166 0 163 0;
#X connect 167 0 164 0;
#X connect 168 0 169 0;
#X connect 170 0 177 1;
#X connect 171 0 177 2;
#X connect 172 0 177 3;
#X connect 173 0 170 0;
#X connect 174 0 171 0;
#X connect 175 0 172 0;
#X connect 176 0 177 0;
#X connect 178 0 185 1;
#X connect 179 0 185 2;
#X connect 180 0 185 3;
#X connect 181 0 178 0;
#X connect 182 0 179 0;
#X connect 183 0 180 0;
#X connect 184 0 185 0;
#X connect 186 0 193 1;
#X connect 187 0 193 2;
#X connect 188 0 193 3;
#X connect 189 0 186 0;
#X connect 190 0 187 0;
#X connect 191 0 188 0;
#X connect 192 0 193 0;
#X connect 194 0 201 1;
#X connect 195 0 201 2;
#X connect 196 0 201 3;
#X connect 197 0 194 0;
#X connect 198 0 195 0;
#X connect 199 0 196 0;
#X connect 200 0 201 0;
#X connect 202 0 209 1;
#X connect 203 0 209 2;
#X connect 204 0 209 3;
#X connect 205 0 202 0;
#X connect 206 0 203 0;
#X connect 207 0 204 0;
#X connect 208 0 209 0;
#X connect 210 0 217 1;
#X connect 211 0 217 2;
#X connect 212 0 217 3;
#X connect 213 0 210 0;
#X connect 214 0 211 0;
#X connect 215 0 212 0;
#X connect 216 0 217 0;
#X connect 218 0 225 1;
#X connect 219 0 225 2;
#X connect 220 0 225 3;
#X connect 221 0 218 0;
#X connect 222 0 219 0;
#X connect 223 0 220 0;
#X connect 224 0 225 0;
#X connect 226 0 233 1;
#X connect 227 0 233 2;
#X connect 228 0 233 3;
#X connect 229 0 226 0;
#X connect 230 0 227 0;
#X connect 231 0 228 0;
#X connect 232 0 233 0;
#X connect 234 0 241 1;
#X connect 235 0 241 2;
#X connect 236 0 241 3;
#X connect 237 0 234 0;
#X connect 238 0 235 0;
#X connect 239 0 236 0;
#X connect 240 0 241 0;
#X connect 242 0 249 1;
#X connect 243 0 249 2;
#X connect 244 0 249 3;
#X connect 245 0 242 0;
#X connect 246 0 243 0;
#X connect 247 0 244 0;
#X connect 248 0 249 0;
#X connect 250 0 257 1;
#X connect 251 0 257 2;
#X connect 252 0 257 3;
#X connect 253 0 250 0;
#X connect 254 0 251 0;
#X connect 255 0 252 0;
#X connect 256 0 257 0;
