#N canvas -8 -8 1920 1037 12;
#X obj 1367 506 bng 15 250 50 0 empty empty empty 17 7 0 10 -262144
-1 -1;
#X obj 411 240 hradio 10 1 0 4 empty empty empty 0 -8 0 10 -262144
-1 -1 1;
#X obj 570 248 hradio 10 1 0 3 empty empty empty 0 -8 0 10 -262144
-1 -1 0;
#X text 426 223 2 \, 4 \, 8 \, 16;
#X obj 332 279 sel 0 1 2 3;
#X msg 280 343 120;
#X msg 317 341 60;
#X msg 356 341 30;
#X msg 398 341 15;
#X text 280 318 1/2;
#X text 317 316 1/4;
#X text 355 319 1/8;
#X text 395 320 1/16;
#X floatatom 285 512 5 0 0 0 - - -;
#X obj 428 433 * 3;
#X floatatom 428 512 5 0 0 0 - - -;
#X obj 428 409 / 2;
#X text 230 512 straigt;
#X text 380 513 dotted;
#X floatatom 548 512 5 0 0 0 - - -;
#X text 494 513 triplet;
#X obj 548 409 / 3;
#X obj 548 433 * 2;
#X obj 720 334 sel 0 1 2;
#X obj 295 648 spigot;
#X obj 419 650 spigot;
#X obj 555 647 spigot;
#X obj 702 378 bng 15 250 50 0 empty empty empty 17 7 0 10 -262144
-1 -1;
#X obj 797 383 bng 15 250 50 0 empty empty empty 17 7 0 10 -262144
-1 -1;
#X obj 919 391 bng 15 250 50 0 empty empty empty 17 7 0 10 -262144
-1 -1;
#X obj 676 477 tgl 15 0 empty empty empty 17 7 0 10 -262144 -1 -1 0
1;
#X msg 730 425 0;
#X obj 676 425 del 1;
#X msg 677 451 1;
#X obj 786 478 tgl 15 0 empty empty empty 17 7 0 10 -262144 -1 -1 0
1;
#X msg 840 426 0;
#X obj 786 426 del 1;
#X msg 787 452 1;
#X obj 902 480 tgl 15 0 empty empty empty 17 7 0 10 -262144 -1 -1 0
1;
#X msg 956 428 0;
#X obj 902 428 del 1;
#X msg 903 454 1;
#X obj 402 1163 bng 15 250 50 0 empty empty empty 17 7 0 10 -262144
-1 -1;
#X obj 249 867 expr $f1;
#X floatatom 249 891 5 0 0 0 - - -;
#X text 544 243 sdt;
#X obj 251 930 expr $f1 / $f2;
#X floatatom 247 958 5 0 0 0 - - -;
#X obj 295 988 * 1000;
#X floatatom 295 1012 5 0 0 0 - - -;
#X text 134 173 BPM;
#X text 392 162 SELECTOR 1;
#X text 576 164 SELECTOR 2;
#X text 397 175 2 4 8 16;
#X text 532 180 straight dotted triplet;
#X obj 129 207 inlet;
#X obj 406 204 inlet;
#X obj 572 207 inlet;
#X floatatom 136 239 5 0 0 0 - - -;
#X text 348 235 BPM;
#X floatatom 111 517 5 0 0 0 - - -;
#X floatatom 390 872 5 0 0 0 - - -;
#X obj 297 1050 outlet;
#X connect 1 0 4 0;
#X connect 2 0 23 0;
#X connect 4 0 5 0;
#X connect 4 1 6 0;
#X connect 4 2 7 0;
#X connect 4 3 8 0;
#X connect 5 0 16 0;
#X connect 5 0 13 0;
#X connect 5 0 21 0;
#X connect 6 0 16 0;
#X connect 6 0 13 0;
#X connect 6 0 21 0;
#X connect 7 0 16 0;
#X connect 7 0 13 0;
#X connect 7 0 21 0;
#X connect 8 0 16 0;
#X connect 8 0 13 0;
#X connect 8 0 21 0;
#X connect 13 0 24 0;
#X connect 14 0 15 0;
#X connect 15 0 25 0;
#X connect 16 0 14 0;
#X connect 19 0 26 0;
#X connect 21 0 22 0;
#X connect 22 0 19 0;
#X connect 23 0 27 0;
#X connect 23 1 28 0;
#X connect 23 2 29 0;
#X connect 24 0 43 0;
#X connect 25 0 43 0;
#X connect 26 0 43 0;
#X connect 27 0 31 0;
#X connect 27 0 32 0;
#X connect 28 0 35 0;
#X connect 28 0 36 0;
#X connect 29 0 39 0;
#X connect 29 0 40 0;
#X connect 30 0 24 1;
#X connect 31 0 34 0;
#X connect 31 0 38 0;
#X connect 32 0 33 0;
#X connect 33 0 30 0;
#X connect 34 0 25 1;
#X connect 35 0 38 0;
#X connect 35 0 30 0;
#X connect 36 0 37 0;
#X connect 37 0 34 0;
#X connect 38 0 26 1;
#X connect 39 0 34 0;
#X connect 39 0 30 0;
#X connect 40 0 41 0;
#X connect 41 0 38 0;
#X connect 43 0 44 0;
#X connect 44 0 46 0;
#X connect 46 0 47 0;
#X connect 47 0 48 0;
#X connect 48 0 49 0;
#X connect 49 0 62 0;
#X connect 55 0 58 0;
#X connect 56 0 1 0;
#X connect 57 0 2 0;
#X connect 58 0 60 0;
#X connect 60 0 61 0;
#X connect 61 0 46 1;
