#N canvas 1912 -8 1600 857 12;
#N canvas 1912 -8 1600 857 printToGUIMobMuPlatWL 0;
#X floatatom 21 122 1 0 0 0 - - -;
#X obj 21 145 list, f 1;
#X msg 21 216 list /k1 \$1, f 13;
#X obj 21 79 unpack f f f f f f f f f f f f f f f f f f f f f f f f
f f f f f f f f, f 133;
#X floatatom 51 122 1 0 0 0 - - -;
#X obj 51 145 list, f 1;
#X floatatom 81 122 1 0 0 0 - - -;
#X obj 81 145 list, f 1;
#X floatatom 111 122 1 0 0 0 - - -;
#X obj 111 145 list, f 1;
#X floatatom 141 122 1 0 0 0 - - -;
#X obj 141 145 list, f 1;
#X floatatom 171 122 1 0 0 0 - - -;
#X obj 171 145 list, f 1;
#X floatatom 201 122 1 0 0 0 - - -;
#X obj 201 145 list, f 1;
#X floatatom 231 122 1 0 0 0 - - -;
#X obj 231 145 list, f 1;
#X floatatom 260 122 1 0 0 0 - - -;
#X obj 260 145 list, f 1;
#X floatatom 290 122 1 0 0 0 - - -;
#X obj 290 145 list, f 1;
#X floatatom 320 122 1 0 0 0 - - -;
#X obj 320 145 list, f 1;
#X floatatom 350 122 1 0 0 0 - - -;
#X obj 350 145 list, f 1;
#X floatatom 380 122 1 0 0 0 - - -;
#X obj 380 145 list, f 1;
#X floatatom 410 122 1 0 0 0 - - -;
#X obj 410 145 list, f 1;
#X floatatom 440 122 1 0 0 0 - - -;
#X obj 440 145 list, f 1;
#X floatatom 470 122 1 0 0 0 - - -;
#X obj 470 145 list, f 1;
#X floatatom 500 122 1 0 0 0 - - -;
#X obj 500 145 list, f 1;
#X floatatom 530 122 1 0 0 0 - - -;
#X obj 530 145 list, f 1;
#X floatatom 560 122 1 0 0 0 - - -;
#X obj 560 145 list, f 1;
#X floatatom 590 122 1 0 0 0 - - -;
#X obj 590 145 list, f 1;
#X floatatom 620 122 1 0 0 0 - - -;
#X obj 620 145 list, f 1;
#X floatatom 650 122 1 0 0 0 - - -;
#X obj 650 145 list, f 1;
#X floatatom 680 122 1 0 0 0 - - -;
#X obj 680 145 list, f 1;
#X floatatom 710 122 1 0 0 0 - - -;
#X obj 710 145 list, f 1;
#X floatatom 739 122 1 0 0 0 - - -;
#X obj 739 145 list, f 1;
#X floatatom 769 122 1 0 0 0 - - -;
#X obj 769 145 list, f 1;
#X floatatom 799 122 1 0 0 0 - - -;
#X obj 799 145 list, f 1;
#X floatatom 829 122 1 0 0 0 - - -;
#X obj 829 145 list, f 1;
#X floatatom 859 122 1 0 0 0 - - -;
#X obj 859 145 list, f 1;
#X floatatom 889 122 1 0 0 0 - - -;
#X obj 889 145 list, f 1;
#X floatatom 919 122 1 0 0 0 - - -;
#X obj 919 145 list, f 1;
#X floatatom 949 122 1 0 0 0 - - -;
#X obj 949 145 list, f 1;
#X msg 51 246 list /k2 \$1, f 13;
#X msg 81 276 list /k3 \$1, f 13;
#X msg 111 306 list /k4 \$1, f 13;
#X msg 141 336 list /k5 \$1, f 13;
#X msg 171 366 list /k6 \$1, f 13;
#X msg 201 396 list /k7 \$1, f 13;
#X msg 231 426 list /k8 \$1, f 13;
#X msg 260 456 list /k9 \$1, f 13;
#X msg 290 486 list /k10 \$1, f 13;
#X msg 320 516 list /k11 \$1, f 13;
#X msg 350 546 list /k12 \$1, f 13;
#X msg 380 576 list /k13 \$1, f 13;
#X msg 410 606 list /k14 \$1, f 13;
#X msg 440 636 list /k15 \$1, f 13;
#X msg 470 666 list /k16 \$1, f 13;
#X msg 500 696 list /kk1 \$1, f 13;
#X msg 530 726 list /kk2 \$1, f 13;
#X msg 560 756 list /kk3 \$1, f 13;
#X msg 590 786 list /kk4 \$1, f 13;
#X msg 620 816 list /kk5 \$1, f 13;
#X msg 650 846 list /kk6 \$1, f 13;
#X msg 680 876 list /kk7 \$1, f 13;
#X msg 710 906 list /kk8 \$1, f 13;
#X msg 739 936 list /kk9 \$1, f 13;
#X msg 769 966 list /kk10 \$1;
#X msg 799 996 list /kk11 \$1;
#X msg 829 1026 list /kk12 \$1;
#X msg 859 1056 list /kk13 \$1;
#X msg 889 1086 list /kk14 \$1;
#X msg 919 1116 list /kk15 \$1;
#X msg 949 1145 list /kk16 \$1;
#X obj 21 23 inlet;
#X floatatom 981 122 1 0 0 0 - - -;
#X obj 981 145 list, f 1;
#X msg 981 216 list /s1 \$1, f 13;
#X obj 981 79 unpack f f f f f f f f f f f f f f f f f f f f f f f
f f f f f f f f f, f 133;
#X floatatom 1011 122 1 0 0 0 - - -;
#X obj 1011 145 list, f 1;
#X floatatom 1041 122 1 0 0 0 - - -;
#X obj 1041 145 list, f 1;
#X floatatom 1071 122 1 0 0 0 - - -;
#X obj 1071 145 list, f 1;
#X floatatom 1101 122 1 0 0 0 - - -;
#X obj 1101 145 list, f 1;
#X floatatom 1131 122 1 0 0 0 - - -;
#X obj 1131 145 list, f 1;
#X floatatom 1161 122 1 0 0 0 - - -;
#X obj 1161 145 list, f 1;
#X floatatom 1191 122 1 0 0 0 - - -;
#X obj 1191 145 list, f 1;
#X floatatom 1220 122 1 0 0 0 - - -;
#X obj 1220 145 list, f 1;
#X floatatom 1250 122 1 0 0 0 - - -;
#X obj 1250 145 list, f 1;
#X floatatom 1280 122 1 0 0 0 - - -;
#X obj 1280 145 list, f 1;
#X floatatom 1310 122 1 0 0 0 - - -;
#X obj 1310 145 list, f 1;
#X floatatom 1340 122 1 0 0 0 - - -;
#X obj 1340 145 list, f 1;
#X floatatom 1370 122 1 0 0 0 - - -;
#X obj 1370 145 list, f 1;
#X floatatom 1400 122 1 0 0 0 - - -;
#X obj 1400 145 list, f 1;
#X floatatom 1430 122 1 0 0 0 - - -;
#X obj 1430 145 list, f 1;
#X floatatom 1460 122 1 0 0 0 - - -;
#X obj 1460 145 list, f 1;
#X floatatom 1490 122 1 0 0 0 - - -;
#X obj 1490 145 list, f 1;
#X floatatom 1520 122 1 0 0 0 - - -;
#X obj 1520 145 list, f 1;
#X floatatom 1550 122 1 0 0 0 - - -;
#X obj 1550 145 list, f 1;
#X floatatom 1580 122 1 0 0 0 - - -;
#X obj 1580 145 list, f 1;
#X floatatom 1610 122 1 0 0 0 - - -;
#X obj 1610 145 list, f 1;
#X floatatom 1640 122 1 0 0 0 - - -;
#X obj 1640 145 list, f 1;
#X floatatom 1670 122 1 0 0 0 - - -;
#X obj 1670 145 list, f 1;
#X floatatom 1699 122 1 0 0 0 - - -;
#X obj 1699 145 list, f 1;
#X floatatom 1729 122 1 0 0 0 - - -;
#X obj 1729 145 list, f 1;
#X floatatom 1759 122 1 0 0 0 - - -;
#X obj 1759 145 list, f 1;
#X floatatom 1789 122 1 0 0 0 - - -;
#X obj 1789 145 list, f 1;
#X floatatom 1819 122 1 0 0 0 - - -;
#X obj 1819 145 list, f 1;
#X floatatom 1849 122 1 0 0 0 - - -;
#X obj 1849 145 list, f 1;
#X floatatom 1879 122 1 0 0 0 - - -;
#X obj 1879 145 list, f 1;
#X floatatom 1909 122 1 0 0 0 - - -;
#X obj 1909 145 list, f 1;
#X msg 1011 246 list /s2 \$1, f 13;
#X msg 1041 276 list /s3 \$1, f 13;
#X msg 1071 306 list /s4 \$1, f 13;
#X msg 1101 336 list /s5 \$1, f 13;
#X msg 1131 366 list /s6 \$1, f 13;
#X msg 1161 396 list /s7 \$1, f 13;
#X msg 1191 426 list /s8 \$1, f 13;
#X msg 1220 456 list /s9 \$1, f 13;
#X msg 1250 486 list /s10 \$1, f 13;
#X msg 1280 516 list /s11 \$1, f 13;
#X msg 1310 546 list /s12 \$1, f 13;
#X msg 1340 576 list /s13 \$1, f 13;
#X msg 1370 606 list /s14 \$1, f 13;
#X msg 1400 636 list /s15 \$1, f 13;
#X msg 1430 666 list /s16 \$1, f 13;
#X msg 1460 696 list /ss1 \$1, f 13;
#X msg 1490 726 list /ss2 \$1, f 13;
#X msg 1520 756 list /ss3 \$1, f 13;
#X msg 1550 786 list /ss4 \$1, f 13;
#X msg 1580 816 list /ss5 \$1, f 13;
#X msg 1610 846 list /ss6 \$1, f 13;
#X msg 1640 876 list /ss7 \$1, f 13;
#X msg 1670 906 list /ss8 \$1, f 13;
#X msg 1699 936 list /ss9 \$1, f 13;
#X msg 1729 966 list /ss10 \$1;
#X msg 1759 996 list /ss11 \$1;
#X msg 1789 1026 list /ss12 \$1;
#X msg 1819 1056 list /ss13 \$1;
#X msg 1849 1086 list /ss14 \$1;
#X msg 1879 1116 list /ss15 \$1;
#X msg 1909 1145 list /ss16 \$1;
#X obj 981 27 inlet;
#X floatatom 1951 122 1 0 0 0 - - -;
#X obj 1951 145 list, f 1;
#X msg 1951 216 list /h1 \$1, f 13;
#X obj 1951 79 unpack f f f f f f f f f f f f f f f f f f f f f f f
f f f f f f f f f, f 133;
#X floatatom 1981 122 1 0 0 0 - - -;
#X obj 1981 145 list, f 1;
#X floatatom 2011 122 1 0 0 0 - - -;
#X obj 2011 145 list, f 1;
#X floatatom 2041 122 1 0 0 0 - - -;
#X obj 2041 145 list, f 1;
#X floatatom 2071 122 1 0 0 0 - - -;
#X obj 2071 145 list, f 1;
#X floatatom 2101 122 1 0 0 0 - - -;
#X obj 2101 145 list, f 1;
#X floatatom 2131 122 1 0 0 0 - - -;
#X obj 2131 145 list, f 1;
#X floatatom 2161 122 1 0 0 0 - - -;
#X obj 2161 145 list, f 1;
#X floatatom 2190 122 1 0 0 0 - - -;
#X obj 2190 145 list, f 1;
#X floatatom 2220 122 1 0 0 0 - - -;
#X obj 2220 145 list, f 1;
#X floatatom 2250 122 1 0 0 0 - - -;
#X obj 2250 145 list, f 1;
#X floatatom 2280 122 1 0 0 0 - - -;
#X obj 2280 145 list, f 1;
#X floatatom 2310 122 1 0 0 0 - - -;
#X obj 2310 145 list, f 1;
#X floatatom 2340 122 1 0 0 0 - - -;
#X obj 2340 145 list, f 1;
#X floatatom 2370 122 1 0 0 0 - - -;
#X obj 2370 145 list, f 1;
#X floatatom 2400 122 1 0 0 0 - - -;
#X obj 2400 145 list, f 1;
#X floatatom 2430 122 1 0 0 0 - - -;
#X obj 2430 145 list, f 1;
#X floatatom 2460 122 1 0 0 0 - - -;
#X obj 2460 145 list, f 1;
#X floatatom 2490 122 1 0 0 0 - - -;
#X obj 2490 145 list, f 1;
#X floatatom 2520 122 1 0 0 0 - - -;
#X obj 2520 145 list, f 1;
#X floatatom 2550 122 1 0 0 0 - - -;
#X obj 2550 145 list, f 1;
#X floatatom 2580 122 1 0 0 0 - - -;
#X obj 2580 145 list, f 1;
#X floatatom 2610 122 1 0 0 0 - - -;
#X obj 2610 145 list, f 1;
#X floatatom 2640 122 1 0 0 0 - - -;
#X obj 2640 145 list, f 1;
#X floatatom 2669 122 1 0 0 0 - - -;
#X obj 2669 145 list, f 1;
#X floatatom 2699 122 1 0 0 0 - - -;
#X obj 2699 145 list, f 1;
#X floatatom 2729 122 1 0 0 0 - - -;
#X obj 2729 145 list, f 1;
#X floatatom 2759 122 1 0 0 0 - - -;
#X obj 2759 145 list, f 1;
#X floatatom 2789 122 1 0 0 0 - - -;
#X obj 2789 145 list, f 1;
#X floatatom 2819 122 1 0 0 0 - - -;
#X obj 2819 145 list, f 1;
#X floatatom 2849 122 1 0 0 0 - - -;
#X obj 2849 145 list, f 1;
#X floatatom 2879 122 1 0 0 0 - - -;
#X obj 2879 145 list, f 1;
#X msg 1981 246 list /h2 \$1, f 13;
#X msg 2011 276 list /h3 \$1, f 13;
#X msg 2041 306 list /h4 \$1, f 13;
#X msg 2071 336 list /h5 \$1, f 13;
#X msg 2101 366 list /h6 \$1, f 13;
#X msg 2131 396 list /h7 \$1, f 13;
#X msg 2161 426 list /h8 \$1, f 13;
#X msg 2190 456 list /h9 \$1, f 13;
#X msg 2220 486 list /h10 \$1, f 13;
#X msg 2250 516 list /h11 \$1, f 13;
#X msg 2280 546 list /h12 \$1, f 13;
#X msg 2310 576 list /h13 \$1, f 13;
#X msg 2340 606 list /h14 \$1, f 13;
#X msg 2370 636 list /h15 \$1, f 13;
#X msg 2400 666 list /h16 \$1, f 13;
#X msg 2430 696 list /hh1 \$1, f 13;
#X msg 2460 726 list /hh2 \$1, f 13;
#X msg 2490 756 list /hh3 \$1, f 13;
#X msg 2520 786 list /hh4 \$1, f 13;
#X msg 2550 816 list /hh5 \$1, f 13;
#X msg 2580 846 list /hh6 \$1, f 13;
#X msg 2610 876 list /hh7 \$1, f 13;
#X msg 2640 906 list /hh8 \$1, f 13;
#X msg 2669 936 list /hh9 \$1, f 13;
#X msg 2699 966 list /hh10 \$1;
#X msg 2729 996 list /hh11 \$1;
#X msg 2759 1026 list /hh12 \$1;
#X msg 2789 1056 list /hh13 \$1;
#X msg 2819 1086 list /hh14 \$1;
#X msg 2849 1116 list /hh15 \$1;
#X msg 2879 1145 list /hh16 \$1;
#X obj 1951 27 inlet;
#X obj 949 1410 send toGUI;
#X obj 1909 1410 send toGUI;
#X obj 2879 1410 send toGUI;
#X connect 0 0 1 0;
#X connect 1 0 2 0;
#X connect 2 0 294 0;
#X connect 3 0 0 0;
#X connect 3 1 4 0;
#X connect 3 2 6 0;
#X connect 3 3 8 0;
#X connect 3 4 10 0;
#X connect 3 5 12 0;
#X connect 3 6 14 0;
#X connect 3 7 16 0;
#X connect 3 8 18 0;
#X connect 3 9 20 0;
#X connect 3 10 22 0;
#X connect 3 11 24 0;
#X connect 3 12 26 0;
#X connect 3 13 28 0;
#X connect 3 14 30 0;
#X connect 3 15 32 0;
#X connect 3 16 34 0;
#X connect 3 17 36 0;
#X connect 3 18 38 0;
#X connect 3 19 40 0;
#X connect 3 20 42 0;
#X connect 3 21 44 0;
#X connect 3 22 46 0;
#X connect 3 23 48 0;
#X connect 3 24 50 0;
#X connect 3 25 52 0;
#X connect 3 26 54 0;
#X connect 3 27 56 0;
#X connect 3 28 58 0;
#X connect 3 29 60 0;
#X connect 3 30 62 0;
#X connect 3 31 64 0;
#X connect 4 0 5 0;
#X connect 5 0 66 0;
#X connect 6 0 7 0;
#X connect 7 0 67 0;
#X connect 8 0 9 0;
#X connect 9 0 68 0;
#X connect 10 0 11 0;
#X connect 11 0 69 0;
#X connect 12 0 13 0;
#X connect 13 0 70 0;
#X connect 14 0 15 0;
#X connect 15 0 71 0;
#X connect 16 0 17 0;
#X connect 17 0 72 0;
#X connect 18 0 19 0;
#X connect 19 0 73 0;
#X connect 20 0 21 0;
#X connect 21 0 74 0;
#X connect 22 0 23 0;
#X connect 23 0 75 0;
#X connect 24 0 25 0;
#X connect 25 0 76 0;
#X connect 26 0 27 0;
#X connect 27 0 77 0;
#X connect 28 0 29 0;
#X connect 29 0 78 0;
#X connect 30 0 31 0;
#X connect 31 0 79 0;
#X connect 32 0 33 0;
#X connect 33 0 80 0;
#X connect 34 0 35 0;
#X connect 35 0 81 0;
#X connect 36 0 37 0;
#X connect 37 0 82 0;
#X connect 38 0 39 0;
#X connect 39 0 83 0;
#X connect 40 0 41 0;
#X connect 41 0 84 0;
#X connect 42 0 43 0;
#X connect 43 0 85 0;
#X connect 44 0 45 0;
#X connect 45 0 86 0;
#X connect 46 0 47 0;
#X connect 47 0 87 0;
#X connect 48 0 49 0;
#X connect 49 0 88 0;
#X connect 50 0 51 0;
#X connect 51 0 89 0;
#X connect 52 0 53 0;
#X connect 53 0 90 0;
#X connect 54 0 55 0;
#X connect 55 0 91 0;
#X connect 56 0 57 0;
#X connect 57 0 92 0;
#X connect 58 0 59 0;
#X connect 59 0 93 0;
#X connect 60 0 61 0;
#X connect 61 0 94 0;
#X connect 62 0 63 0;
#X connect 63 0 95 0;
#X connect 64 0 65 0;
#X connect 65 0 96 0;
#X connect 66 0 294 0;
#X connect 67 0 294 0;
#X connect 68 0 294 0;
#X connect 69 0 294 0;
#X connect 70 0 294 0;
#X connect 71 0 294 0;
#X connect 72 0 294 0;
#X connect 73 0 294 0;
#X connect 74 0 294 0;
#X connect 75 0 294 0;
#X connect 76 0 294 0;
#X connect 77 0 294 0;
#X connect 78 0 294 0;
#X connect 79 0 294 0;
#X connect 80 0 294 0;
#X connect 81 0 294 0;
#X connect 82 0 294 0;
#X connect 83 0 294 0;
#X connect 84 0 294 0;
#X connect 85 0 294 0;
#X connect 86 0 294 0;
#X connect 87 0 294 0;
#X connect 88 0 294 0;
#X connect 89 0 294 0;
#X connect 90 0 294 0;
#X connect 91 0 294 0;
#X connect 92 0 294 0;
#X connect 93 0 294 0;
#X connect 94 0 294 0;
#X connect 95 0 294 0;
#X connect 96 0 294 0;
#X connect 97 0 3 0;
#X connect 98 0 99 0;
#X connect 99 0 100 0;
#X connect 100 0 295 0;
#X connect 101 0 98 0;
#X connect 101 1 102 0;
#X connect 101 2 104 0;
#X connect 101 3 106 0;
#X connect 101 4 108 0;
#X connect 101 5 110 0;
#X connect 101 6 112 0;
#X connect 101 7 114 0;
#X connect 101 8 116 0;
#X connect 101 9 118 0;
#X connect 101 10 120 0;
#X connect 101 11 122 0;
#X connect 101 12 124 0;
#X connect 101 13 126 0;
#X connect 101 14 128 0;
#X connect 101 15 130 0;
#X connect 101 16 132 0;
#X connect 101 17 134 0;
#X connect 101 18 136 0;
#X connect 101 19 138 0;
#X connect 101 20 140 0;
#X connect 101 21 142 0;
#X connect 101 22 144 0;
#X connect 101 23 146 0;
#X connect 101 24 148 0;
#X connect 101 25 150 0;
#X connect 101 26 152 0;
#X connect 101 27 154 0;
#X connect 101 28 156 0;
#X connect 101 29 158 0;
#X connect 101 30 160 0;
#X connect 101 31 162 0;
#X connect 102 0 103 0;
#X connect 103 0 164 0;
#X connect 104 0 105 0;
#X connect 105 0 165 0;
#X connect 106 0 107 0;
#X connect 107 0 166 0;
#X connect 108 0 109 0;
#X connect 109 0 167 0;
#X connect 110 0 111 0;
#X connect 111 0 168 0;
#X connect 112 0 113 0;
#X connect 113 0 169 0;
#X connect 114 0 115 0;
#X connect 115 0 170 0;
#X connect 116 0 117 0;
#X connect 117 0 171 0;
#X connect 118 0 119 0;
#X connect 119 0 172 0;
#X connect 120 0 121 0;
#X connect 121 0 173 0;
#X connect 122 0 123 0;
#X connect 123 0 174 0;
#X connect 124 0 125 0;
#X connect 125 0 175 0;
#X connect 126 0 127 0;
#X connect 127 0 176 0;
#X connect 128 0 129 0;
#X connect 129 0 177 0;
#X connect 130 0 131 0;
#X connect 131 0 178 0;
#X connect 132 0 133 0;
#X connect 133 0 179 0;
#X connect 134 0 135 0;
#X connect 135 0 180 0;
#X connect 136 0 137 0;
#X connect 137 0 181 0;
#X connect 138 0 139 0;
#X connect 139 0 182 0;
#X connect 140 0 141 0;
#X connect 141 0 183 0;
#X connect 142 0 143 0;
#X connect 143 0 184 0;
#X connect 144 0 145 0;
#X connect 145 0 185 0;
#X connect 146 0 147 0;
#X connect 147 0 186 0;
#X connect 148 0 149 0;
#X connect 149 0 187 0;
#X connect 150 0 151 0;
#X connect 151 0 188 0;
#X connect 152 0 153 0;
#X connect 153 0 189 0;
#X connect 154 0 155 0;
#X connect 155 0 190 0;
#X connect 156 0 157 0;
#X connect 157 0 191 0;
#X connect 158 0 159 0;
#X connect 159 0 192 0;
#X connect 160 0 161 0;
#X connect 161 0 193 0;
#X connect 162 0 163 0;
#X connect 163 0 194 0;
#X connect 164 0 295 0;
#X connect 165 0 295 0;
#X connect 166 0 295 0;
#X connect 167 0 295 0;
#X connect 168 0 295 0;
#X connect 169 0 295 0;
#X connect 170 0 295 0;
#X connect 171 0 295 0;
#X connect 172 0 295 0;
#X connect 173 0 295 0;
#X connect 174 0 295 0;
#X connect 175 0 295 0;
#X connect 176 0 295 0;
#X connect 177 0 295 0;
#X connect 178 0 295 0;
#X connect 179 0 295 0;
#X connect 180 0 295 0;
#X connect 181 0 295 0;
#X connect 182 0 295 0;
#X connect 183 0 295 0;
#X connect 184 0 295 0;
#X connect 185 0 295 0;
#X connect 186 0 295 0;
#X connect 187 0 295 0;
#X connect 188 0 295 0;
#X connect 189 0 295 0;
#X connect 190 0 295 0;
#X connect 191 0 295 0;
#X connect 192 0 295 0;
#X connect 193 0 295 0;
#X connect 194 0 295 0;
#X connect 195 0 101 0;
#X connect 196 0 197 0;
#X connect 197 0 198 0;
#X connect 198 0 296 0;
#X connect 199 0 196 0;
#X connect 199 1 200 0;
#X connect 199 2 202 0;
#X connect 199 3 204 0;
#X connect 199 4 206 0;
#X connect 199 5 208 0;
#X connect 199 6 210 0;
#X connect 199 7 212 0;
#X connect 199 8 214 0;
#X connect 199 9 216 0;
#X connect 199 10 218 0;
#X connect 199 11 220 0;
#X connect 199 12 222 0;
#X connect 199 13 224 0;
#X connect 199 14 226 0;
#X connect 199 15 228 0;
#X connect 199 16 230 0;
#X connect 199 17 232 0;
#X connect 199 18 234 0;
#X connect 199 19 236 0;
#X connect 199 20 238 0;
#X connect 199 21 240 0;
#X connect 199 22 242 0;
#X connect 199 23 244 0;
#X connect 199 24 246 0;
#X connect 199 25 248 0;
#X connect 199 26 250 0;
#X connect 199 27 252 0;
#X connect 199 28 254 0;
#X connect 199 29 256 0;
#X connect 199 30 258 0;
#X connect 199 31 260 0;
#X connect 200 0 201 0;
#X connect 201 0 262 0;
#X connect 202 0 203 0;
#X connect 203 0 263 0;
#X connect 204 0 205 0;
#X connect 205 0 264 0;
#X connect 206 0 207 0;
#X connect 207 0 265 0;
#X connect 208 0 209 0;
#X connect 209 0 266 0;
#X connect 210 0 211 0;
#X connect 211 0 267 0;
#X connect 212 0 213 0;
#X connect 213 0 268 0;
#X connect 214 0 215 0;
#X connect 215 0 269 0;
#X connect 216 0 217 0;
#X connect 217 0 270 0;
#X connect 218 0 219 0;
#X connect 219 0 271 0;
#X connect 220 0 221 0;
#X connect 221 0 272 0;
#X connect 222 0 223 0;
#X connect 223 0 273 0;
#X connect 224 0 225 0;
#X connect 225 0 274 0;
#X connect 226 0 227 0;
#X connect 227 0 275 0;
#X connect 228 0 229 0;
#X connect 229 0 276 0;
#X connect 230 0 231 0;
#X connect 231 0 277 0;
#X connect 232 0 233 0;
#X connect 233 0 278 0;
#X connect 234 0 235 0;
#X connect 235 0 279 0;
#X connect 236 0 237 0;
#X connect 237 0 280 0;
#X connect 238 0 239 0;
#X connect 239 0 281 0;
#X connect 240 0 241 0;
#X connect 241 0 282 0;
#X connect 242 0 243 0;
#X connect 243 0 283 0;
#X connect 244 0 245 0;
#X connect 245 0 284 0;
#X connect 246 0 247 0;
#X connect 247 0 285 0;
#X connect 248 0 249 0;
#X connect 249 0 286 0;
#X connect 250 0 251 0;
#X connect 251 0 287 0;
#X connect 252 0 253 0;
#X connect 253 0 288 0;
#X connect 254 0 255 0;
#X connect 255 0 289 0;
#X connect 256 0 257 0;
#X connect 257 0 290 0;
#X connect 258 0 259 0;
#X connect 259 0 291 0;
#X connect 260 0 261 0;
#X connect 261 0 292 0;
#X connect 262 0 296 0;
#X connect 263 0 296 0;
#X connect 264 0 296 0;
#X connect 265 0 296 0;
#X connect 266 0 296 0;
#X connect 267 0 296 0;
#X connect 268 0 296 0;
#X connect 269 0 296 0;
#X connect 270 0 296 0;
#X connect 271 0 296 0;
#X connect 272 0 296 0;
#X connect 273 0 296 0;
#X connect 274 0 296 0;
#X connect 275 0 296 0;
#X connect 276 0 296 0;
#X connect 277 0 296 0;
#X connect 278 0 296 0;
#X connect 279 0 296 0;
#X connect 280 0 296 0;
#X connect 281 0 296 0;
#X connect 282 0 296 0;
#X connect 283 0 296 0;
#X connect 284 0 296 0;
#X connect 285 0 296 0;
#X connect 286 0 296 0;
#X connect 287 0 296 0;
#X connect 288 0 296 0;
#X connect 289 0 296 0;
#X connect 290 0 296 0;
#X connect 291 0 296 0;
#X connect 292 0 296 0;
#X connect 293 0 199 0;
#X restore 38 319 pd printToGUIMobMuPlatWL;
#X msg 38 189 0 0 0 0 0 0 0 0 0 0 0 0 0 0 0 0 0 0 0 0 0 0 0 0 0 0 0
0 0 0 0 0, f 65;
#X msg 38 162 1 1 1 1 1 1 1 1 1 1 1 1 1 1 1 1 1 1 1 1 1 1 1 1 1 1 1
1 1 1 1 1, f 65;
#X msg 121 241 0 0 0 0 0 0 0 0 0 0 0 0 0 0 0 0 0 0 0 0 0 0 0 0 0 0
0 0 0 0 0 0, f 65;
#X msg 121 214 1 1 1 1 1 1 1 1 1 1 1 1 1 1 1 1 1 1 1 1 1 1 1 1 1 1
1 1 1 1 1 1, f 65;
#X msg 203 293 0 0 0 0 0 0 0 0 0 0 0 0 0 0 0 0 0 0 0 0 0 0 0 0 0 0
0 0 0 0 0 0, f 65;
#X msg 203 266 1 1 1 1 1 1 1 1 1 1 1 1 1 1 1 1 1 1 1 1 1 1 1 1 1 1
1 1 1 1 1 1, f 65;
#N canvas 1912 -8 1600 857 printToInternalMatrix 0;
#X obj 26 15 inlet;
#X msg 26 41 \; pattern_kick_1 \$1 \; pattern_kick_2 \$2 \; pattern_kick_3
\$3 \; pattern_kick_4 \$4 \; pattern_kick_5 \$5 \; pattern_kick_6 \$6
\; pattern_kick_7 \$7 \; pattern_kick_8 \$8 \; pattern_kick_9 \$9 \;
pattern_kick_10 \$10 \; pattern_kick_11 \$11 \; pattern_kick_12 \$12
\; pattern_kick_13 \$13 \; pattern_kick_14 \$14 \; pattern_kick_15
\$15 \; pattern_kick_16 \$16 \; pattern_kick_17 \$17 \; pattern_kick_18
\$18 \; pattern_kick_19 \$19 \; pattern_kick_20 \$20 \; pattern_kick_21
\$21 \; pattern_kick_22 \$22 \; pattern_kick_23 \$23 \; pattern_kick_24
\$24 \; pattern_kick_25 \$25 \; pattern_kick_26 \$26 \; pattern_kick_27
\$27 \; pattern_kick_28 \$28 \; pattern_kick_29 \$29 \; pattern_kick_30
\$30 \; pattern_kick_31 \$31 \; pattern_kick_32 \$32 \;;
#X msg 191 41 \; pattern_snare_1 \$1 \; pattern_snare_2 \$2 \; pattern_snare_3
\$3 \; pattern_snare_4 \$4 \; pattern_snare_5 \$5 \; pattern_snare_6
\$6 \; pattern_snare_7 \$7 \; pattern_snare_8 \$8 \; pattern_snare_9
\$9 \; pattern_snare_10 \$10 \; pattern_snare_11 \$11 \; pattern_snare_12
\$12 \; pattern_snare_13 \$13 \; pattern_snare_14 \$14 \; pattern_snare_15
\$15 \; pattern_snare_16 \$16 \; pattern_snare_17 \$17 \; pattern_snare_18
\$18 \; pattern_snare_19 \$19 \; pattern_snare_20 \$20 \; pattern_snare_21
\$21 \; pattern_snare_22 \$22 \; pattern_snare_23 \$23 \; pattern_snare_24
\$24 \; pattern_snare_25 \$25 \; pattern_snare_26 \$26 \; pattern_snare_27
\$27 \; pattern_snare_28 \$28 \; pattern_snare_29 \$29 \; pattern_snare_30
\$30 \; pattern_snare_31 \$31 \; pattern_snare_32 \$32 \;, f 22;
#X msg 367 40 \; pattern_hat_1 \$1 \; pattern_hat_2 \$2 \; pattern_hat_3
\$3 \; pattern_hat_4 \$4 \; pattern_hat_5 \$5 \; pattern_hat_6 \$6
\; pattern_hat_7 \$7 \; pattern_hat_8 \$8 \; pattern_hat_9 \$9 \; pattern_hat_10
\$10 \; pattern_hat_11 \$11 \; pattern_hat_12 \$12 \; pattern_hat_13
\$13 \; pattern_hat_14 \$14 \; pattern_hat_15 \$15 \; pattern_hat_16
\$16 \; pattern_hat_17 \$17 \; pattern_hat_18 \$18 \; pattern_hat_19
\$19 \; pattern_hat_20 \$20 \; pattern_hat_21 \$21 \; pattern_hat_22
\$22 \; pattern_hat_23 \$23 \; pattern_hat_24 \$24 \; pattern_hat_25
\$25 \; pattern_hat_26 \$26 \; pattern_hat_27 \$27 \; pattern_hat_28
\$28 \; pattern_hat_29 \$29 \; pattern_hat_30 \$30 \; pattern_hat_31
\$31 \; pattern_hat_32 \$32 \;, f 22;
#X obj 191 15 inlet;
#X obj 367 15 inlet;
#X connect 0 0 1 0;
#X connect 4 0 2 0;
#X connect 5 0 3 0;
#X restore 38 351 pd printToInternalMatrix;
#X obj 5 226 bng 15 250 50 0 empty clear_pattern_w clear_pattern_w
17 7 0 10 -262144 -1 -1;
#X obj 5 250 bng 15 250 50 0 empty fill_pattern_w fill_pattern_w 17
7 0 10 -262144 -1 -1;
#X obj 38 123 inlet;
#X obj 121 122 inlet;
#X obj 203 123 inlet;
#X connect 1 0 0 0;
#X connect 1 0 7 0;
#X connect 2 0 0 0;
#X connect 2 0 7 0;
#X connect 3 0 0 1;
#X connect 3 0 7 1;
#X connect 4 0 0 1;
#X connect 4 0 7 1;
#X connect 5 0 0 2;
#X connect 5 0 7 2;
#X connect 6 0 0 2;
#X connect 6 0 7 2;
#X connect 8 0 1 0;
#X connect 8 0 3 0;
#X connect 8 0 5 0;
#X connect 9 0 2 0;
#X connect 9 0 4 0;
#X connect 9 0 6 0;
#X connect 10 0 0 0;
#X connect 10 0 7 0;
#X connect 11 0 0 1;
#X connect 11 0 7 1;
#X connect 12 0 0 2;
#X connect 12 0 7 2;
