#N canvas -8 -8 1920 1037 12;
#X obj 55 379 textfile;
#X msg 55 335 read presets/Impeach.txt;
#X msg 267 336 rewind;
#X obj 55 228 bng 15 250 50 0 empty empty empty 17 7 0 10 -262144 -1
-1;
#X obj 55 274 t b b b b b b;
#X obj 324 378 textfile;
#X msg 324 334 read presets/Impeach.txt;
#X msg 536 335 rewind;
#X msg 324 401 set \$1, f 17;
#X obj 324 273 t b b b b b b;
#X msg 79 432 Impeach;
#X msg 359 430 0;
#X obj 591 415 textfile;
#X msg 592 334 read presets/Impeach.txt;
#X msg 804 335 rewind;
#X obj 592 273 t b b b b b b;
#X obj 591 449 list prepend set;
#X obj 591 472 list trim;
#X msg 599 523 1 0 0 0 0 0 0 1 1 0 0 0 0 0 1 0 1 0 0 0 0 0 0 1 1 0
0 0 0 0 1 0, f 68;
#X msg 605 496 set;
#X obj 55 246 t b b;
#X obj 324 228 bng 15 250 50 0 empty empty empty 17 7 0 10 -262144
-1 -1;
#X obj 324 246 t b b;
#X obj 592 226 bng 15 250 50 0 empty empty empty 17 7 0 10 -262144
-1 -1;
#X obj 592 244 t b b;
#X obj 1091 415 textfile;
#X msg 1092 334 read presets/Impeach.txt;
#X msg 1304 335 rewind;
#X obj 1092 273 t b b b b b b;
#X obj 1091 449 list prepend set;
#X obj 1091 472 list trim;
#X msg 1097 535 0 0 0 0 1 0 0 0 0 0 0 0 1 0 0 0 0 0 0 0 1 0 0 0 0 0
0 0 1 0 0 0, f 68;
#X msg 1105 496 set;
#X obj 1092 226 bng 15 250 50 0 empty empty empty 17 7 0 10 -262144
-1 -1;
#X obj 1092 244 t b b;
#X obj 1601 415 textfile;
#X msg 1602 334 read presets/Impeach.txt;
#X msg 1814 335 rewind;
#X obj 1602 273 t b b b b b b;
#X obj 1601 449 list prepend set;
#X obj 1601 472 list trim;
#X msg 1623 532 1 0 1 0 1 0 1 1 1 0 0 0 1 0 1 0 1 0 1 0 1 0 1 1 1 0
1 0 1 0 1 0, f 68;
#X msg 1615 496 set;
#X obj 1602 226 bng 15 250 50 0 empty empty empty 17 7 0 10 -262144
-1 -1;
#X obj 1602 244 t b b;
#X obj 45 79 inlet;
#X obj 55 657 outlet;
#X obj 345 657 outlet;
#X obj 605 657 outlet;
#X obj 1095 657 outlet;
#X obj 1615 657 outlet;
#X obj 175 105 bng 30 250 50 0 empty empty empty 17 7 0 10 -262144
-1 -1;
#X msg 439 58 set;
#X obj 359 64 inlet;
#X msg 400 97 read presets/Impeach.txt;
#X msg 55 402 set \$1, f 17;
#X obj 1948 402 textfile;
#X msg 1948 358 read presets/Impeach.txt;
#X msg 2160 359 rewind;
#X msg 1948 425 set \$1, f 17;
#X obj 1948 252 bng 15 250 50 0 empty empty empty 17 7 0 10 -262144
-1 -1;
#X obj 1948 270 t b b;
#X obj 1948 297 t b b b b b b b, f 29;
#X obj 2527 820 bng 15 250 50 0 empty empty empty 17 7 0 10 -262144
-1 -1;
#X obj 55 157 t b b b b b b, f 272;
#X obj 1921 669 outlet;
#X connect 0 0 55 0;
#X connect 1 0 0 0;
#X connect 2 0 0 0;
#X connect 3 0 20 0;
#X connect 4 0 1 0;
#X connect 4 1 0 0;
#X connect 4 5 2 0;
#X connect 5 0 8 0;
#X connect 6 0 5 0;
#X connect 7 0 5 0;
#X connect 8 0 11 0;
#X connect 8 0 47 0;
#X connect 9 0 6 0;
#X connect 9 1 5 0;
#X connect 9 2 5 0;
#X connect 9 5 7 0;
#X connect 12 0 16 0;
#X connect 13 0 12 0;
#X connect 14 0 12 0;
#X connect 15 0 13 0;
#X connect 15 1 12 0;
#X connect 15 2 12 0;
#X connect 15 3 12 0;
#X connect 15 5 14 0;
#X connect 16 0 17 0;
#X connect 17 0 18 0;
#X connect 17 0 48 0;
#X connect 19 0 18 0;
#X connect 20 0 4 0;
#X connect 20 1 4 0;
#X connect 21 0 22 0;
#X connect 22 0 9 0;
#X connect 22 1 9 0;
#X connect 23 0 24 0;
#X connect 24 0 15 0;
#X connect 24 1 15 0;
#X connect 25 0 29 0;
#X connect 26 0 25 0;
#X connect 27 0 25 0;
#X connect 28 0 26 0;
#X connect 28 1 25 0;
#X connect 28 2 25 0;
#X connect 28 3 25 0;
#X connect 28 4 25 0;
#X connect 28 5 27 0;
#X connect 29 0 30 0;
#X connect 30 0 31 0;
#X connect 30 0 49 0;
#X connect 32 0 31 0;
#X connect 33 0 34 0;
#X connect 34 0 28 0;
#X connect 34 1 28 0;
#X connect 35 0 39 0;
#X connect 36 0 35 0;
#X connect 37 0 35 0;
#X connect 38 0 36 0;
#X connect 38 1 35 0;
#X connect 38 2 35 0;
#X connect 38 3 35 0;
#X connect 38 4 35 0;
#X connect 38 5 37 0;
#X connect 38 5 35 0;
#X connect 39 0 40 0;
#X connect 40 0 41 0;
#X connect 40 0 50 0;
#X connect 42 0 41 0;
#X connect 43 0 44 0;
#X connect 44 0 38 0;
#X connect 44 1 38 0;
#X connect 45 0 64 0;
#X connect 51 0 64 0;
#X connect 52 0 54 0;
#X connect 53 0 54 0;
#X connect 53 0 1 0;
#X connect 53 0 6 0;
#X connect 53 0 13 0;
#X connect 53 0 26 0;
#X connect 53 0 36 0;
#X connect 53 0 57 0;
#X connect 55 0 10 0;
#X connect 55 0 46 0;
#X connect 56 0 59 0;
#X connect 57 0 56 0;
#X connect 58 0 56 0;
#X connect 59 0 65 0;
#X connect 60 0 61 0;
#X connect 61 0 62 0;
#X connect 61 1 62 0;
#X connect 62 0 57 0;
#X connect 62 1 56 0;
#X connect 62 2 56 0;
#X connect 62 3 56 0;
#X connect 62 4 56 0;
#X connect 62 5 56 0;
#X connect 62 6 58 0;
#X connect 62 6 56 0;
#X connect 64 0 3 0;
#X connect 64 1 21 0;
#X connect 64 2 23 0;
#X connect 64 3 33 0;
#X connect 64 4 43 0;
#X connect 64 5 60 0;
