#N canvas -8 -8 1920 1037 12;
#X floatatom 14 88 1 0 0 0 - - -;
#X obj 14 111 list, f 1;
#X msg 14 175 list /k1 \$1, f 13;
#X obj 14 45 unpack f f f f f f f f f f f f f f f f f f f f f f f f
f f f f f f f f, f 133;
#X floatatom 44 88 1 0 0 0 - - -;
#X obj 44 111 list, f 1;
#X floatatom 74 88 1 0 0 0 - - -;
#X obj 74 111 list, f 1;
#X floatatom 104 88 1 0 0 0 - - -;
#X obj 104 111 list, f 1;
#X floatatom 134 88 1 0 0 0 - - -;
#X obj 134 111 list, f 1;
#X floatatom 164 88 1 0 0 0 - - -;
#X obj 164 111 list, f 1;
#X floatatom 194 88 1 0 0 0 - - -;
#X obj 194 111 list, f 1;
#X floatatom 224 88 1 0 0 0 - - -;
#X obj 224 111 list, f 1;
#X floatatom 253 88 1 0 0 0 - - -;
#X obj 253 111 list, f 1;
#X floatatom 283 88 1 0 0 0 - - -;
#X obj 283 111 list, f 1;
#X floatatom 313 88 1 0 0 0 - - -;
#X obj 313 111 list, f 1;
#X floatatom 343 88 1 0 0 0 - - -;
#X obj 343 111 list, f 1;
#X floatatom 373 88 1 0 0 0 - - -;
#X obj 373 111 list, f 1;
#X floatatom 403 88 1 0 0 0 - - -;
#X obj 403 111 list, f 1;
#X floatatom 433 88 1 0 0 0 - - -;
#X obj 433 111 list, f 1;
#X floatatom 463 88 1 0 0 0 - - -;
#X obj 463 111 list, f 1;
#X floatatom 493 88 1 0 0 0 - - -;
#X obj 493 111 list, f 1;
#X floatatom 523 88 1 0 0 0 - - -;
#X obj 523 111 list, f 1;
#X floatatom 553 88 1 0 0 0 - - -;
#X obj 553 111 list, f 1;
#X floatatom 583 88 1 0 0 0 - - -;
#X obj 583 111 list, f 1;
#X floatatom 613 88 1 0 0 0 - - -;
#X obj 613 111 list, f 1;
#X floatatom 643 88 1 0 0 0 - - -;
#X obj 643 111 list, f 1;
#X floatatom 673 88 1 0 0 0 - - -;
#X obj 673 111 list, f 1;
#X floatatom 703 88 1 0 0 0 - - -;
#X obj 703 111 list, f 1;
#X floatatom 732 88 1 0 0 0 - - -;
#X obj 732 111 list, f 1;
#X floatatom 762 88 1 0 0 0 - - -;
#X obj 762 111 list, f 1;
#X floatatom 792 88 1 0 0 0 - - -;
#X obj 792 111 list, f 1;
#X floatatom 822 88 1 0 0 0 - - -;
#X obj 822 111 list, f 1;
#X floatatom 852 88 1 0 0 0 - - -;
#X obj 852 111 list, f 1;
#X floatatom 882 88 1 0 0 0 - - -;
#X obj 882 111 list, f 1;
#X floatatom 912 88 1 0 0 0 - - -;
#X obj 912 111 list, f 1;
#X floatatom 942 88 1 0 0 0 - - -;
#X obj 942 111 list, f 1;
#X msg 44 205 list /k1 \$1, f 13;
#X msg 74 235 list /k1 \$1, f 13;
#X msg 104 265 list /k1 \$1, f 13;
#X msg 134 295 list /k1 \$1, f 13;
#X msg 164 325 list /k1 \$1, f 13;
#X msg 194 355 list /k1 \$1, f 13;
#X msg 224 385 list /k1 \$1, f 13;
#X msg 253 415 list /k1 \$1, f 13;
#X msg 283 445 list /k1 \$1, f 13;
#X msg 313 475 list /k1 \$1, f 13;
#X msg 343 505 list /k1 \$1, f 13;
#X msg 373 535 list /k1 \$1, f 13;
#X msg 403 565 list /k1 \$1, f 13;
#X msg 433 595 list /k1 \$1, f 13;
#X msg 463 625 list /k1 \$1, f 13;
#X msg 493 655 list /k1 \$1, f 13;
#X msg 523 685 list /k1 \$1, f 13;
#X msg 553 715 list /k1 \$1, f 13;
#X msg 583 745 list /k1 \$1, f 13;
#X msg 613 775 list /k1 \$1, f 13;
#X msg 643 805 list /k1 \$1, f 13;
#X msg 673 835 list /k1 \$1, f 13;
#X msg 703 865 list /k1 \$1, f 13;
#X msg 732 895 list /k1 \$1, f 13;
#X msg 762 925 list /k1 \$1, f 13;
#X msg 792 955 list /k1 \$1, f 13;
#X msg 822 985 list /k1 \$1, f 13;
#X msg 852 1015 list /k1 \$1, f 13;
#X msg 882 1045 list /k1 \$1, f 13;
#X msg 912 1075 list /k1 \$1, f 13;
#X msg 942 1105 list /k1 \$1, f 13;
#X connect 0 0 1 0;
#X connect 1 0 2 0;
#X connect 3 0 0 0;
#X connect 3 1 4 0;
#X connect 3 2 6 0;
#X connect 3 3 8 0;
#X connect 3 4 10 0;
#X connect 3 5 12 0;
#X connect 3 6 14 0;
#X connect 3 7 16 0;
#X connect 3 8 18 0;
#X connect 3 9 20 0;
#X connect 3 10 22 0;
#X connect 3 11 24 0;
#X connect 3 12 26 0;
#X connect 3 13 28 0;
#X connect 3 14 30 0;
#X connect 3 15 32 0;
#X connect 3 16 34 0;
#X connect 3 17 36 0;
#X connect 3 18 38 0;
#X connect 3 19 40 0;
#X connect 3 20 42 0;
#X connect 3 21 44 0;
#X connect 3 22 46 0;
#X connect 3 23 48 0;
#X connect 3 24 50 0;
#X connect 3 25 52 0;
#X connect 3 26 54 0;
#X connect 3 27 56 0;
#X connect 3 28 58 0;
#X connect 3 29 60 0;
#X connect 3 30 62 0;
#X connect 3 31 64 0;
#X connect 4 0 5 0;
#X connect 5 0 66 0;
#X connect 6 0 7 0;
#X connect 7 0 67 0;
#X connect 8 0 9 0;
#X connect 9 0 68 0;
#X connect 10 0 11 0;
#X connect 11 0 69 0;
#X connect 12 0 13 0;
#X connect 13 0 70 0;
#X connect 14 0 15 0;
#X connect 15 0 71 0;
#X connect 16 0 17 0;
#X connect 17 0 72 0;
#X connect 18 0 19 0;
#X connect 19 0 73 0;
#X connect 20 0 21 0;
#X connect 21 0 74 0;
#X connect 22 0 23 0;
#X connect 23 0 75 0;
#X connect 24 0 25 0;
#X connect 25 0 76 0;
#X connect 26 0 27 0;
#X connect 27 0 77 0;
#X connect 28 0 29 0;
#X connect 29 0 78 0;
#X connect 30 0 31 0;
#X connect 31 0 79 0;
#X connect 32 0 33 0;
#X connect 33 0 80 0;
#X connect 34 0 35 0;
#X connect 35 0 81 0;
#X connect 36 0 37 0;
#X connect 37 0 82 0;
#X connect 38 0 39 0;
#X connect 39 0 83 0;
#X connect 40 0 41 0;
#X connect 41 0 84 0;
#X connect 42 0 43 0;
#X connect 43 0 85 0;
#X connect 44 0 45 0;
#X connect 45 0 86 0;
#X connect 46 0 47 0;
#X connect 47 0 87 0;
#X connect 48 0 49 0;
#X connect 49 0 88 0;
#X connect 50 0 51 0;
#X connect 51 0 89 0;
#X connect 52 0 53 0;
#X connect 53 0 90 0;
#X connect 54 0 55 0;
#X connect 55 0 91 0;
#X connect 56 0 57 0;
#X connect 57 0 92 0;
#X connect 58 0 59 0;
#X connect 59 0 93 0;
#X connect 60 0 61 0;
#X connect 61 0 94 0;
#X connect 62 0 63 0;
#X connect 63 0 95 0;
#X connect 64 0 65 0;
#X connect 65 0 96 0;
