#N canvas -8 -8 1920 1037 12;
#X obj 223 245 bng 15 250 50 0 empty empty empty 17 7 0 10 -262144
-1 -1;
#X obj 218 353 f 0;
#X msg 510 334 1;
#X msg 329 334 -1;
#X floatatom 276 410 5 0 0 0 - - -;
#X msg 99 85 0;
#X obj 753 104 bng 15 250 50 0 empty empty empty 17 7 0 10 -262144
-1 -1;
#X obj 99 52 loadbang;
#X obj 226 117 inlet;
#X obj 276 453 outlet;
#X obj 510 118 inlet;
#X obj 329 115 inlet;
#X obj 172 411 sel 0;
#X msg 172 451 1;
#X msg 50 229 0;
#X obj 368 411 sel 19;
#X floatatom 428 303 5 0 0 2 ceiling - -;
#X obj 378 361 + 1;
#X floatatom 378 385 5 0 0 0 - - -;
#X msg 368 448 16;
#X msg 455 376;
#X msg 428 411 set \$1;
#X obj 276 353 + \$1;
#X obj 370 239 + \$2;
#X obj 370 261 f;
#X floatatom 370 285 5 0 0 0 - - -;
#X obj 370 217 loadbang;
#X connect 0 0 1 0;
#X connect 1 0 22 0;
#X connect 2 0 22 1;
#X connect 3 0 22 1;
#X connect 4 0 9 0;
#X connect 4 0 12 0;
#X connect 4 0 15 0;
#X connect 5 0 1 0;
#X connect 5 0 6 0;
#X connect 6 0 2 0;
#X connect 7 0 5 0;
#X connect 7 0 14 0;
#X connect 8 0 0 0;
#X connect 10 0 2 0;
#X connect 11 0 3 0;
#X connect 12 0 13 0;
#X connect 13 0 1 1;
#X connect 14 0 1 1;
#X connect 15 0 19 0;
#X connect 16 0 17 0;
#X connect 16 0 20 0;
#X connect 16 0 21 0;
#X connect 17 0 18 0;
#X connect 18 0 15 1;
#X connect 19 0 1 1;
#X connect 21 0 19 0;
#X connect 22 0 1 1;
#X connect 22 0 4 0;
#X connect 23 0 24 0;
#X connect 24 0 25 0;
#X connect 25 0 16 0;
#X connect 26 0 23 0;
