#N canvas -8 -8 1920 1037 12;
#X obj 34 35 inlet;
#X obj 33 88 outlet;
#X msg 538 70 \; clear_pattern_w bang:;
#X msg 538 106 \; fill_pattern_w bang:;
#N canvas -8 -8 1920 1037 clear-fill-pat 1;
#X msg 181 254 \; pattern_kick_1 0 \; pattern_kick_2 0 \; pattern_kick_3
0 \; pattern_kick_4 0 \; pattern_kick_5 0 \; pattern_kick_6 0 \; pattern_kick_7
0 \; pattern_kick_8 0 \; pattern_kick_9 0 \; pattern_kick_10 0 \; pattern_kick_11
0 \; pattern_kick_12 0 \; pattern_kick_13 0 \; pattern_kick_14 0 \;
pattern_kick_15 0 \; pattern_kick_16 0 \; pattern_kick_17 0 \; pattern_kick_18
0 \; pattern_kick_19 0 \; pattern_kick_20 0 \; pattern_kick_21 0 \;
pattern_kick_22 0 \; pattern_kick_23 0 \; pattern_kick_24 0 \; pattern_kick_25
0 \; pattern_kick_26 0 \; pattern_kick_27 0 \; pattern_kick_28 0 \;
pattern_kick_29 0 \; pattern_kick_30 0 \; pattern_kick_31 0 \; pattern_kick_32
0 \;;
#X msg 884 260 \; pattern_kick_1 1 \; pattern_kick_2 1 \; pattern_kick_3
1 \; pattern_kick_4 1 \; pattern_kick_5 1 \; pattern_kick_6 1 \; pattern_kick_7
1 \; pattern_kick_8 1 \; pattern_kick_9 1 \; pattern_kick_10 1 \; pattern_kick_11
1 \; pattern_kick_12 1 \; pattern_kick_13 1 \; pattern_kick_14 1 \;
pattern_kick_15 1 \; pattern_kick_16 1 \; pattern_kick_17 1 \; pattern_kick_18
1 \; pattern_kick_19 1 \; pattern_kick_20 1 \; pattern_kick_21 1 \;
pattern_kick_22 1 \; pattern_kick_23 1 \; pattern_kick_24 1 \; pattern_kick_25
1 \; pattern_kick_26 1 \; pattern_kick_27 1 \; pattern_kick_28 1 \;
pattern_kick_29 1 \; pattern_kick_30 1 \; pattern_kick_31 1 \; pattern_kick_32
1 \;;
#X msg 323 255 \; pattern_snare_1 0 \; pattern_snare_2 0 \; pattern_snare_3
0 \; pattern_snare_4 0 \; pattern_snare_5 0 \; pattern_snare_6 0 \;
pattern_snare_7 0 \; pattern_snare_8 0 \; pattern_snare_9 0 \; pattern_snare_10
0 \; pattern_snare_11 0 \; pattern_snare_12 0 \; pattern_snare_13 0
\; pattern_snare_14 0 \; pattern_snare_15 0 \; pattern_snare_16 0 \;
pattern_snare_17 0 \; pattern_snare_18 0 \; pattern_snare_19 0 \; pattern_snare_20
0 \; pattern_snare_21 0 \; pattern_snare_22 0 \; pattern_snare_23 0
\; pattern_snare_24 0 \; pattern_snare_25 0 \; pattern_snare_26 0 \;
pattern_snare_27 0 \; pattern_snare_28 0 \; pattern_snare_29 0 \; pattern_snare_30
0 \; pattern_snare_31 0 \; pattern_snare_32 0 \;;
#X msg 1025 261 \; pattern_snare_1 1 \; pattern_snare_2 1 \; pattern_snare_3
1 \; pattern_snare_4 1 \; pattern_snare_5 1 \; pattern_snare_6 1 \;
pattern_snare_7 1 \; pattern_snare_8 1 \; pattern_snare_9 1 \; pattern_snare_10
1 \; pattern_snare_11 1 \; pattern_snare_12 1 \; pattern_snare_13 1
\; pattern_snare_14 1 \; pattern_snare_15 1 \; pattern_snare_16 1 \;
pattern_snare_17 1 \; pattern_snare_18 1 \; pattern_snare_19 1 \; pattern_snare_20
1 \; pattern_snare_21 1 \; pattern_snare_22 1 \; pattern_snare_23 1
\; pattern_snare_24 1 \; pattern_snare_25 1 \; pattern_snare_26 1 \;
pattern_snare_27 1 \; pattern_snare_28 1 \; pattern_snare_29 1 \; pattern_snare_30
1 \; pattern_snare_31 1 \; pattern_snare_32 1 \;;
#X msg 472 256 \; pattern_hat_1 0 \; pattern_hat_2 0 \; pattern_hat_3
0 \; pattern_hat_4 0 \; pattern_hat_5 0 \; pattern_hat_6 0 \; pattern_hat_7
0 \; pattern_hat_8 0 \; pattern_hat_9 0 \; pattern_hat_10 0 \; pattern_hat_11
0 \; pattern_hat_12 0 \; pattern_hat_13 0 \; pattern_hat_14 0 \; pattern_hat_15
0 \; pattern_hat_16 0 \; pattern_hat_17 0 \; pattern_hat_18 0 \; pattern_hat_19
0 \; pattern_hat_20 0 \; pattern_hat_21 0 \; pattern_hat_22 0 \; pattern_hat_23
0 \; pattern_hat_24 0 \; pattern_hat_25 0 \; pattern_hat_26 0 \; pattern_hat_27
0 \; pattern_hat_28 0 \; pattern_hat_29 0 \; pattern_hat_30 0 \; pattern_hat_31
0 \; pattern_hat_32 0 \;;
#X msg 1176 261 \; pattern_hat_1 1 \; pattern_hat_2 1 \; pattern_hat_3
1 \; pattern_hat_4 1 \; pattern_hat_5 1 \; pattern_hat_6 1 \; pattern_hat_7
1 \; pattern_hat_8 1 \; pattern_hat_9 1 \; pattern_hat_10 1 \; pattern_hat_11
1 \; pattern_hat_12 1 \; pattern_hat_13 1 \; pattern_hat_14 1 \; pattern_hat_15
1 \; pattern_hat_16 1 \; pattern_hat_17 1 \; pattern_hat_18 1 \; pattern_hat_19
1 \; pattern_hat_20 1 \; pattern_hat_21 1 \; pattern_hat_22 1 \; pattern_hat_23
1 \; pattern_hat_24 1 \; pattern_hat_25 1 \; pattern_hat_26 1 \; pattern_hat_27
1 \; pattern_hat_28 1 \; pattern_hat_29 1 \; pattern_hat_30 1 \; pattern_hat_31
1 \; pattern_hat_32 1 \;;
#X obj 483 163 bng 15 250 50 0 empty clear_pattern_ww clear_pattern_ww
17 7 0 10 -262144 -1 -1;
#X obj 1192 145 bng 15 250 50 0 empty fill_pattern_ww fill_pattern_ww
17 7 0 10 -262144 -1 -1;
#X obj 173 1461 bng 15 250 50 0 empty empty empty 17 7 0 10 -262144
-1 -1;
#X obj 323 198 bng 15 250 50 0 empty empty empty 17 7 0 10 -262144
-1 -1;
#X obj 1025 205 bng 15 250 50 0 empty empty empty 17 7 0 10 -262144
-1 -1;
#X obj 689 209 bng 15 250 50 0 empty empty empty 17 7 0 10 -262144
-1 -1;
#X obj 1396 200 bng 15 250 50 0 empty empty empty 17 7 0 10 -262144
-1 -1;
#X obj 689 739 send toGUI;
#X obj 1396 741 send toGUI;
#X msg 1321 261 list /k1 1 \, /k2 1 \, /k3 1 \, /k4 1 \, /k5 1 \, /k6
1 \, /k7 1 \, /k8 1 \, /k9 1 \, /k10 1 \, /k11 1 \, /k12 1 \, /k13
1 \, /k14 1 \, /k15 1 \, /k16 1 \, /kk1 1 \, /kk2 1 \, /kk3 1 \, /kk4
1 \, /kk5 1 \, /kk6 1 \, /kk7 1 \, /kk8 1 \, /kk9 1 \, /kk10 1 \, /kk11
1 \, /kk12 1 \, /kk13 1 \, /kk14 1 \, /kk15 1 \, /kk16 1, f 8;
#X msg 1396 260 list /s1 1 \, /s2 1 \, /s3 1 \, /s4 1 \, /s5 1 \, /s6
1 \, /s7 1 \, /s8 1 \, /s9 1 \, /s10 1 \, /s11 1 \, /s12 1 \, /s13
1 \, /s14 1 \, /s15 1 \, /s16 1 \, /ss1 1 \, /ss2 1 \, /ss3 1 \, /ss4
1 \, /ss5 1 \, /ss6 1 \, /ss7 1 \, /ss8 1 \, /ss9 1 \, /ss10 1 \, /ss11
1 \, /ss12 1 \, /ss13 1 \, /ss14 1 \, /ss15 1 \, /ss16 1, f 8;
#X msg 1472 259 list /h1 1 \, /h2 1 \, /h3 1 \, /h4 1 \, /h5 1 \, /h6
1 \, /h7 1 \, /h8 1 \, /h9 1 \, /h10 1 \, /h11 1 \, /h12 1 \, /h13
1 \, /h14 1 \, /h15 1 \, /h16 1 \, /hh1 1 \, /hh2 1 \, /hh3 1 \, /hh4
1 \, /hh5 1 \, /hh6 1 \, /hh7 1 \, /hh8 1 \, /hh9 1 \, /hh10 1 \, /hh11
1 \, /hh12 1 \, /hh13 1 \, /hh14 1 \, /hh15 1 \, /hh16 1, f 8;
#X msg 613 256 list /k1 0 \, /k2 0 \, /k3 0 \, /k4 0 \, /k5 0 \, /k6
0 \, /k7 0 \, /k8 0 \, /k9 0 \, /k10 0 \, /k11 0 \, /k12 0 \, /k13
0 \, /k14 0 \, /k15 0 \, /k16 0 \, /kk1 0 \, /kk2 0 \, /kk3 0 \, /kk4
0 \, /kk5 0 \, /kk6 0 \, /kk7 0 \, /kk8 0 \, /kk9 0 \, /kk10 0 \, /kk11
0 \, /kk12 0 \, /kk13 0 \, /kk14 0 \, /kk15 0 \, /kk16 0, f 8;
#X msg 689 256 list /s1 0 \, /s2 0 \, /s3 0 \, /s4 0 \, /s5 0 \, /s6
0 \, /s7 0 \, /s8 0 \, /s9 0 \, /s10 0 \, /s11 0 \, /s12 0 \, /s13
0 \, /s14 0 \, /s15 0 \, /s16 0 \, /ss1 0 \, /ss2 0 \, /ss3 0 \, /ss4
0 \, /ss5 0 \, /ss6 0 \, /ss7 0 \, /ss8 0 \, /ss9 0 \, /ss10 0 \, /ss11
0 \, /ss12 0 \, /ss13 0 \, /ss14 0 \, /ss15 0 \, /ss16 0, f 8;
#X msg 770 259 list /h1 0 \, /h2 0 \, /h3 0 \, /h4 0 \, /h5 0 \, /h6
0 \, /h7 0 \, /h8 0 \, /h9 0 \, /h10 0 \, /h11 0 \, /h12 0 \, /h13
0 \, /h14 0 \, /h15 0 \, /h16 0 \, /hh1 0 \, /hh2 0 \, /hh3 0 \, /hh4
0 \, /hh5 0 \, /hh6 0 \, /hh7 0 \, /hh8 0 \, /hh9 0 \, /hh10 0 \, /hh11
0 \, /hh12 0 \, /hh13 0 \, /hh14 0 \, /hh15 0 \, /hh16 0, f 8;
#X connect 6 0 11 0;
#X connect 6 0 9 0;
#X connect 7 0 10 0;
#X connect 7 0 12 0;
#X connect 9 0 0 0;
#X connect 9 0 2 0;
#X connect 9 0 4 0;
#X connect 10 0 3 0;
#X connect 10 0 5 0;
#X connect 10 0 1 0;
#X connect 11 0 18 0;
#X connect 11 0 20 0;
#X connect 11 0 19 0;
#X connect 12 0 15 0;
#X connect 12 0 16 0;
#X connect 12 0 17 0;
#X connect 15 0 14 0;
#X connect 16 0 14 0;
#X connect 17 0 14 0;
#X connect 18 0 13 0;
#X connect 19 0 13 0;
#X connect 20 0 13 0;
#X restore 212 75 pd clear-fill-pat;
#X text 135 41 The logic for clear and fill;
#X text 170 56 patterns is stored here;
#X text 536 49 Examples on calling clear and fill;
#X msg 96 266 0 0 0 0 0 0 0 0 0 0 0 0 0 0 0 0 0 0 0 0 0 0 0 0 0 0 0
0 0 0 0 0, f 65;
#N canvas -8 -8 1920 1037 setPresetSysKick 0;
#X obj 141 154 t a a;
#X obj 173 274 send toGUI;
#X msg 141 308 pattern_kick_1 \$1 \, pattern_kick_2 \$2 \, pattern_kick_3
\$3 \, pattern_kick_4 \$4 \, pattern_kick_5 \$5 \, pattern_kick_6 \$6
\, pattern_kick_7 \$7 \, pattern_kick_8 \$8 \, pattern_kick_9 \$9 \,
pattern_kick_10 \$10 \, pattern_kick_11 \$11 \, pattern_kick_12 \$12
\, pattern_kick_13 \$13 \, pattern_kick_14 \$14 \, pattern_kick_15
\$15 \, pattern_kick_16 \$16 \, pattern_kick_17 \$17 \, pattern_kick_18
\$18 \, pattern_kick_19 \$19 \, pattern_kick_20 \$20 \, pattern_kick_21
\$21 \, pattern_kick_22 \$22 \, pattern_kick_23 \$23 \, pattern_kick_24
\$24 \, pattern_kick_25 \$25 \, pattern_kick_26 \$26 \, pattern_kick_27
\$27 \, pattern_kick_28 \$28 \, pattern_kick_29 \$29 \, pattern_kick_30
\$30 \, pattern_kick_31 \$31 \, pattern_kick_32 \$32, f 66;
#X obj 141 116 inlet;
#X msg 173 181 k1 \$1 \, k2 \$2 \, k3 \$3 \, k4 \$4 \, k5 \$5 \, k6
\$6 \, k7 \$7 \, k8 \$8 \, k9 \$9 \, k10 \$10 \, k11 \$11 \, k12 \$12
\, k13 \$13 \, k14 \$14 \, k15 \$15 \, k16 \$16 \, kk1 \$17 \, kk2
\$18 \, kk3 \$19 \, kk4 \$20 \, kk5 \$21 \, kk6 \$22 \, kk7 \$23 \,
kk8 \$24 \, kk9 \$25 \, kk10 \$26 \, kk11 \$27 \, kk12 \$28 \, kk13
\$29 \, kk14 \$30 \, kk15 \$31 \, kk16 \$32, f 64;
#X connect 0 0 2 0;
#X connect 0 1 4 0;
#X connect 3 0 0 0;
#X connect 4 0 1 0;
#X restore 96 574 pd setPresetSysKick;
#X msg 126 356 0 0 0 0 0 0 0 0 0 0 0 0 0 0 0 0 0 0 0 0 0 0 0 0 0 0
0 0 0 0 0 0, f 65;
#N canvas -8 -8 1920 1037 setPresetSysSnare 0;
#X obj 141 154 t a a;
#X obj 173 274 send toGUI;
#X obj 141 116 inlet;
#X msg 141 308 pattern_snare_1 \$1 \, pattern_snare_2 \$2 \, pattern_snare_3
\$3 \, pattern_snare_4 \$4 \, pattern_snare_5 \$5 \, pattern_snare_6
\$6 \, pattern_snare_7 \$7 \, pattern_snare_8 \$8 \, pattern_snare_9
\$9 \, pattern_snare_10 \$10 \, pattern_snare_11 \$11 \, pattern_snare_12
\$12 \, pattern_snare_13 \$13 \, pattern_snare_14 \$14 \, pattern_snare_15
\$15 \, pattern_snare_16 \$16 \, pattern_snare_17 \$17 \, pattern_snare_18
\$18 \, pattern_snare_19 \$19 \, pattern_snare_20 \$20 \, pattern_snare_21
\$21 \, pattern_snare_22 \$22 \, pattern_snare_23 \$23 \, pattern_snare_24
\$24 \, pattern_snare_25 \$25 \, pattern_snare_26 \$26 \, pattern_snare_27
\$27 \, pattern_snare_28 \$28 \, pattern_snare_29 \$29 \, pattern_snare_30
\$30 \, pattern_snare_31 \$31 \, pattern_snare_32 \$32, f 66;
#X msg 173 181 s1 \$1 \, s2 \$2 \, s3 \$3 \, s4 \$4 \, s5 \$5 \, s6
\$6 \, s7 \$7 \, s8 \$8 \, s9 \$9 \, s10 \$10 \, s11 \$11 \, s12 \$12
\, s13 \$13 \, s14 \$14 \, s15 \$15 \, s16 \$16 \, ss1 \$17 \, ss2
\$18 \, ss3 \$19 \, ss4 \$20 \, ss5 \$21 \, ss6 \$22 \, ss7 \$23 \,
ss8 \$24 \, ss9 \$25 \, ss10 \$26 \, ss11 \$27 \, ss12 \$28 \, ss13
\$29 \, ss14 \$30 \, ss15 \$31 \, ss16 \$32, f 64;
#X connect 0 0 3 0;
#X connect 0 1 4 0;
#X connect 2 0 0 0;
#X connect 4 0 1 0;
#X restore 126 534 pd setPresetSysSnare;
#X msg 146 444 0 0 0 0 0 0 0 0 0 0 0 0 0 0 0 0 0 0 0 0 0 0 0 0 0 0
0 0 0 0 0 0, f 65;
#N canvas -8 -8 1920 1037 setPresetSysHihat 0;
#X obj 141 154 t a a;
#X obj 173 274 send toGUI;
#X obj 141 116 inlet;
#X msg 141 308 pattern_hat_1 \$1 \, pattern_hat_2 \$2 \, pattern_hat_3
\$3 \, pattern_hat_4 \$4 \, pattern_hat_5 \$5 \, pattern_hat_6 \$6
\, pattern_hat_7 \$7 \, pattern_hat_8 \$8 \, pattern_hat_9 \$9 \, pattern_hat_10
\$10 \, pattern_hat_11 \$11 \, pattern_hat_12 \$12 \, pattern_hat_13
\$13 \, pattern_hat_14 \$14 \, pattern_hat_15 \$15 \, pattern_hat_16
\$16 \, pattern_hat_17 \$17 \, pattern_hat_18 \$18 \, pattern_hat_19
\$19 \, pattern_hat_20 \$20 \, pattern_hat_21 \$21 \, pattern_hat_22
\$22 \, pattern_hat_23 \$23 \, pattern_hat_24 \$24 \, pattern_hat_25
\$25 \, pattern_hat_26 \$26 \, pattern_hat_27 \$27 \, pattern_hat_28
\$28 \, pattern_hat_29 \$29 \, pattern_hat_30 \$30 \, pattern_hat_31
\$31 \, pattern_hat_32 \$32, f 66;
#X msg 173 181 h1 \$1 \, h2 \$2 \, h3 \$3 \, h4 \$4 \, h5 \$5 \, h6
\$6 \, h7 \$7 \, h8 \$8 \, h9 \$9 \, h10 \$10 \, h11 \$11 \, h12 \$12
\, h13 \$13 \, h14 \$14 \, h15 \$15 \, h16 \$16 \, hh1 \$17 \, hh2
\$18 \, hh3 \$19 \, hh4 \$20 \, hh5 \$21 \, hh6 \$22 \, hh7 \$23 \,
hh8 \$24 \, hh9 \$25 \, hh10 \$26 \, hh11 \$27 \, hh12 \$28 \, hh13
\$29 \, hh14 \$30 \, hh15 \$31 \, hh16 \$32, f 64;
#X connect 0 0 3 0;
#X connect 0 1 4 0;
#X connect 2 0 0 0;
#X connect 4 0 1 0;
#X restore 146 494 pd setPresetSysHihat;
#X msg 126 329 1 1 1 1 1 1 1 1 1 1 1 1 1 1 1 1 1 1 1 1 1 1 1 1 1 1
1 1 1 1 1 1, f 65;
#X msg 96 239 1 1 1 1 1 1 1 1 1 1 1 1 1 1 1 1 1 1 1 1 1 1 1 1 1 1 1
1 1 1 1 1, f 65;
#X msg 146 419 1 1 1 1 1 1 1 1 1 1 1 1 1 1 1 1 1 1 1 1 1 1 1 1 1 1
1 1 1 1 1 1, f 65;
#X obj 1283 1066 bng 15 250 50 0 empty empty empty 17 7 0 10 -262144
-1 -1;
#X obj 650 308 applyWirelessPreset;
#X obj 650 283 bng 15 250 50 0 empty empty empty 17 7 0 10 -262144
-1 -1;
#X msg 650 336 pattern-clear, f 19;
#X msg 683 363 0, f 4;
#X msg 715 404 0 0 0 0 0 0 0 0 0 0 0 0 0 0 0 0 0 0 0 0 0 0 0 0 0 0
0 0 0 0 0 0, f 65;
#X msg 748 444 0 0 0 0 0 0 0 0 0 0 0 0 0 0 0 0 0 0 0 0 0 0 0 0 0 0
0 0 0 0 0 0, f 65;
#X msg 780 489 0 0 0 0 0 0 0 0 0 0 0 0 0 0 0 0 0 0 0 0 0 0 0 0 0 0
0 0 0 0 0 0, f 65;
#X text 781 254 set read folder/path/to/file.txt;
#X msg 780 278 set read presets/test-preset.txt;
#N canvas -8 -8 1920 1037 setPresetSysKick 0;
#X obj 141 154 t a a;
#X obj 173 274 send toGUI;
#X msg 141 308 pattern_kick_1 \$1 \, pattern_kick_2 \$2 \, pattern_kick_3
\$3 \, pattern_kick_4 \$4 \, pattern_kick_5 \$5 \, pattern_kick_6 \$6
\, pattern_kick_7 \$7 \, pattern_kick_8 \$8 \, pattern_kick_9 \$9 \,
pattern_kick_10 \$10 \, pattern_kick_11 \$11 \, pattern_kick_12 \$12
\, pattern_kick_13 \$13 \, pattern_kick_14 \$14 \, pattern_kick_15
\$15 \, pattern_kick_16 \$16 \, pattern_kick_17 \$17 \, pattern_kick_18
\$18 \, pattern_kick_19 \$19 \, pattern_kick_20 \$20 \, pattern_kick_21
\$21 \, pattern_kick_22 \$22 \, pattern_kick_23 \$23 \, pattern_kick_24
\$24 \, pattern_kick_25 \$25 \, pattern_kick_26 \$26 \, pattern_kick_27
\$27 \, pattern_kick_28 \$28 \, pattern_kick_29 \$29 \, pattern_kick_30
\$30 \, pattern_kick_31 \$31 \, pattern_kick_32 \$32, f 66;
#X obj 141 116 inlet;
#X msg 173 181 k1 \$1 \, k2 \$2 \, k3 \$3 \, k4 \$4 \, k5 \$5 \, k6
\$6 \, k7 \$7 \, k8 \$8 \, k9 \$9 \, k10 \$10 \, k11 \$11 \, k12 \$12
\, k13 \$13 \, k14 \$14 \, k15 \$15 \, k16 \$16 \, kk1 \$17 \, kk2
\$18 \, kk3 \$19 \, kk4 \$20 \, kk5 \$21 \, kk6 \$22 \, kk7 \$23 \,
kk8 \$24 \, kk9 \$25 \, kk10 \$26 \, kk11 \$27 \, kk12 \$28 \, kk13
\$29 \, kk14 \$30 \, kk15 \$31 \, kk16 \$32, f 64;
#X connect 0 0 2 0;
#X connect 0 1 4 0;
#X connect 3 0 0 0;
#X connect 4 0 1 0;
#X restore 715 597 pd setPresetSysKick;
#N canvas -8 -8 1920 1037 setPresetSysSnare 0;
#X obj 141 154 t a a;
#X obj 173 274 send toGUI;
#X obj 141 116 inlet;
#X msg 141 308 pattern_snare_1 \$1 \, pattern_snare_2 \$2 \, pattern_snare_3
\$3 \, pattern_snare_4 \$4 \, pattern_snare_5 \$5 \, pattern_snare_6
\$6 \, pattern_snare_7 \$7 \, pattern_snare_8 \$8 \, pattern_snare_9
\$9 \, pattern_snare_10 \$10 \, pattern_snare_11 \$11 \, pattern_snare_12
\$12 \, pattern_snare_13 \$13 \, pattern_snare_14 \$14 \, pattern_snare_15
\$15 \, pattern_snare_16 \$16 \, pattern_snare_17 \$17 \, pattern_snare_18
\$18 \, pattern_snare_19 \$19 \, pattern_snare_20 \$20 \, pattern_snare_21
\$21 \, pattern_snare_22 \$22 \, pattern_snare_23 \$23 \, pattern_snare_24
\$24 \, pattern_snare_25 \$25 \, pattern_snare_26 \$26 \, pattern_snare_27
\$27 \, pattern_snare_28 \$28 \, pattern_snare_29 \$29 \, pattern_snare_30
\$30 \, pattern_snare_31 \$31 \, pattern_snare_32 \$32, f 66;
#X msg 173 181 s1 \$1 \, s2 \$2 \, s3 \$3 \, s4 \$4 \, s5 \$5 \, s6
\$6 \, s7 \$7 \, s8 \$8 \, s9 \$9 \, s10 \$10 \, s11 \$11 \, s12 \$12
\, s13 \$13 \, s14 \$14 \, s15 \$15 \, s16 \$16 \, ss1 \$17 \, ss2
\$18 \, ss3 \$19 \, ss4 \$20 \, ss5 \$21 \, ss6 \$22 \, ss7 \$23 \,
ss8 \$24 \, ss9 \$25 \, ss10 \$26 \, ss11 \$27 \, ss12 \$28 \, ss13
\$29 \, ss14 \$30 \, ss15 \$31 \, ss16 \$32, f 64;
#X connect 0 0 3 0;
#X connect 0 1 4 0;
#X connect 2 0 0 0;
#X connect 4 0 1 0;
#X restore 748 557 pd setPresetSysSnare;
#N canvas -8 -8 1920 1037 setPresetSysHihat 0;
#X obj 141 154 t a a;
#X obj 173 274 send toGUI;
#X obj 141 116 inlet;
#X msg 141 308 pattern_hat_1 \$1 \, pattern_hat_2 \$2 \, pattern_hat_3
\$3 \, pattern_hat_4 \$4 \, pattern_hat_5 \$5 \, pattern_hat_6 \$6
\, pattern_hat_7 \$7 \, pattern_hat_8 \$8 \, pattern_hat_9 \$9 \, pattern_hat_10
\$10 \, pattern_hat_11 \$11 \, pattern_hat_12 \$12 \, pattern_hat_13
\$13 \, pattern_hat_14 \$14 \, pattern_hat_15 \$15 \, pattern_hat_16
\$16 \, pattern_hat_17 \$17 \, pattern_hat_18 \$18 \, pattern_hat_19
\$19 \, pattern_hat_20 \$20 \, pattern_hat_21 \$21 \, pattern_hat_22
\$22 \, pattern_hat_23 \$23 \, pattern_hat_24 \$24 \, pattern_hat_25
\$25 \, pattern_hat_26 \$26 \, pattern_hat_27 \$27 \, pattern_hat_28
\$28 \, pattern_hat_29 \$29 \, pattern_hat_30 \$30 \, pattern_hat_31
\$31 \, pattern_hat_32 \$32, f 66;
#X msg 173 181 h1 \$1 \, h2 \$2 \, h3 \$3 \, h4 \$4 \, h5 \$5 \, h6
\$6 \, h7 \$7 \, h8 \$8 \, h9 \$9 \, h10 \$10 \, h11 \$11 \, h12 \$12
\, h13 \$13 \, h14 \$14 \, h15 \$15 \, h16 \$16 \, hh1 \$17 \, hh2
\$18 \, hh3 \$19 \, hh4 \$20 \, hh5 \$21 \, hh6 \$22 \, hh7 \$23 \,
hh8 \$24 \, hh9 \$25 \, hh10 \$26 \, hh11 \$27 \, hh12 \$28 \, hh13
\$29 \, hh14 \$30 \, hh15 \$31 \, hh16 \$32, f 64;
#X connect 0 0 3 0;
#X connect 0 1 4 0;
#X connect 2 0 0 0;
#X connect 4 0 1 0;
#X restore 780 517 pd setPresetSysHihat;
#X msg 730 188 set read presets/clear-preset.txt;
#X obj 650 634 s currentPatternName;
#X obj 1351 228 t a a;
#X obj 1383 348 send toGUI;
#X msg 1351 382 pattern_kick_1 \$1 \, pattern_kick_2 \$2 \, pattern_kick_3
\$3 \, pattern_kick_4 \$4 \, pattern_kick_5 \$5 \, pattern_kick_6 \$6
\, pattern_kick_7 \$7 \, pattern_kick_8 \$8 \, pattern_kick_9 \$9 \,
pattern_kick_10 \$10 \, pattern_kick_11 \$11 \, pattern_kick_12 \$12
\, pattern_kick_13 \$13 \, pattern_kick_14 \$14 \, pattern_kick_15
\$15 \, pattern_kick_16 \$16 \, pattern_kick_17 \$17 \, pattern_kick_18
\$18 \, pattern_kick_19 \$19 \, pattern_kick_20 \$20 \, pattern_kick_21
\$21 \, pattern_kick_22 \$22 \, pattern_kick_23 \$23 \, pattern_kick_24
\$24 \, pattern_kick_25 \$25 \, pattern_kick_26 \$26 \, pattern_kick_27
\$27 \, pattern_kick_28 \$28 \, pattern_kick_29 \$29 \, pattern_kick_30
\$30 \, pattern_kick_31 \$31 \, pattern_kick_32 \$32, f 66;
#X msg 1383 255 k1 \$1 \, k2 \$2 \, k3 \$3 \, k4 \$4 \, k5 \$5 \, k6
\$6 \, k7 \$7 \, k8 \$8 \, k9 \$9 \, k10 \$10 \, k11 \$11 \, k12 \$12
\, k13 \$13 \, k14 \$14 \, k15 \$15 \, k16 \$16 \, kk1 \$17 \, kk2
\$18 \, kk3 \$19 \, kk4 \$20 \, kk5 \$21 \, kk6 \$22 \, kk7 \$23 \,
kk8 \$24 \, kk9 \$25 \, kk10 \$26 \, kk11 \$27 \, kk12 \$28 \, kk13
\$29 \, kk14 \$30 \, kk15 \$31 \, kk16 \$32, f 64;
#X msg 1327 143 0 0 0 0 0 0 0 0 0 0 0 0 0 0 0 0 0 0 0 0 0 0 0 0 0 0
0 0 0 0 0 0, f 65;
#X msg 1327 116 1 1 1 1 1 1 1 1 1 1 1 1 1 1 1 1 1 1 1 1 1 1 1 1 1 1
1 1 1 1 1 1, f 65;
#X msg 189 797 0 0 0 0 0 0 0 0 0 0 0 0 0 0 0 0 0 0 0 0 0 0 0 0 0 0
0 0 0 0 0 0, f 65;
#X msg 1037 869 \; pattern_kick_1 \$1 \; pattern_kick_2 \$2 \; pattern_kick_3
\$3 \; pattern_kick_4 \$4 \; pattern_kick_5 \$5 \; pattern_kick_6 \$6
\; pattern_kick_7 \$7 \; pattern_kick_8 \$8 \; pattern_kick_9 \$9 \;
pattern_kick_10 \$10 \; pattern_kick_11 \$11 \; pattern_kick_12 \$12
\; pattern_kick_13 \$13 \; pattern_kick_14 \$14 \; pattern_kick_15
\$15 \; pattern_kick_16 \$16 \; pattern_kick_17 \$17 \; pattern_kick_18
\$18 \; pattern_kick_19 \$19 \; pattern_kick_20 \$20 \; pattern_kick_21
\$21 \; pattern_kick_22 \$22 \; pattern_kick_23 \$23 \; pattern_kick_24
\$24 \; pattern_kick_25 \$25 \; pattern_kick_26 \$26 \; pattern_kick_27
\$27 \; pattern_kick_28 \$28 \; pattern_kick_29 \$29 \; pattern_kick_30
\$30 \; pattern_kick_31 \$31 \; pattern_kick_32 \$32 \;, f 66;
#X obj 1459 1551 send toGUI;
#X msg 1437 774 k1 \$1 \; k2 \$2 \; k3 \$3 \; k4 \$4 \; k5 \$5 \; k6
\$6 \; k7 \$7 \; k8 \$8 \; k9 \$9 \; k10 \$10 \; k11 \$11 \; k12 \$12
\; k13 \$13 \; k14 \$14 \; k15 \$15 \; k16 \$16 \; kk1 \$17 \; kk2
\$18 \; kk3 \$19 \; kk4 \$20 \; kk5 \$21 \; kk6 \$22 \; kk7 \$23 \;
kk8 \$24 \; kk9 \$25 \; kk10 \$26 \; kk11 \$27 \; kk12 \$28 \; kk13
\$29 \; kk14 \$30 \; kk15 \$31 \; kk16 \$32 \;;
#X obj 1374 1429 list;
#X msg 1374 1455 list /k1 \$1 \, /k2 \$2 \, /k3 \$3 \, /k4 \$4 \, /k5
\$5 \, /k6 \$6 \, /k7 \$7 \, /k8 \$8 \, /k9 \$9 \, /k10 \$10 \, /k11
\$11 \, /k12 \$12 \, /k13 \$13 \, /k14 \$14 \, /k15 \$15 \, /k16 \$16
\, /kk1 \$17 \, /kk2 \$18 \, /kk3 \$19 \, /kk4 \$20 \, /kk5 \$21 \,
/kk6 \$22 \, /kk7 \$23 \, /kk8 \$24 \, /kk9 \$25 \, /kk10 \$26 \, /kk11
\$27 \, /kk12 \$28 \, /kk13 \$29 \, /kk14 \$30 \, /kk15 \$31 \, /kk16
\$32, f 64;
#X obj 317 853 pack f f f f f f f f f f f f f f f f f f f f f f f f
f f f f f f f f, f 72;
#X obj 309 881 unpack f f f f f f f f f f f f f f f f f f f f f f f
f f f f f f f f f, f 72;
#X floatatom 309 927 5 0 0 0 - - -;
#X floatatom 396 929 5 0 0 0 - - -;
#X floatatom 448 929 5 0 0 0 - - -;
#X msg 189 770 1 2 3 1 1 1 1 1 1 1 1 1 1 1 1 1 1 1 1 1 1 1 1 1 1 1
1 1 1 1 1 1, f 65;
#X floatatom 8 1016 1 0 0 0 - - -;
#X obj 8 1039 list, f 1;
#X msg 8 1103 list /k1 \$1, f 13;
#X obj 8 973 unpack f f f f f f f f f f f f f f f f f f f f f f f f
f f f f f f f f, f 133;
#X floatatom 38 1016 1 0 0 0 - - -;
#X obj 38 1039 list, f 1;
#X floatatom 68 1016 1 0 0 0 - - -;
#X obj 68 1039 list, f 1;
#X floatatom 98 1016 1 0 0 0 - - -;
#X obj 98 1039 list, f 1;
#X floatatom 128 1016 1 0 0 0 - - -;
#X obj 128 1039 list, f 1;
#X floatatom 158 1016 1 0 0 0 - - -;
#X obj 158 1039 list, f 1;
#X floatatom 188 1016 1 0 0 0 - - -;
#X obj 188 1039 list, f 1;
#X floatatom 218 1016 1 0 0 0 - - -;
#X obj 218 1039 list, f 1;
#X floatatom 247 1016 1 0 0 0 - - -;
#X obj 247 1039 list, f 1;
#X floatatom 277 1016 1 0 0 0 - - -;
#X obj 277 1039 list, f 1;
#X floatatom 307 1016 1 0 0 0 - - -;
#X obj 307 1039 list, f 1;
#X floatatom 337 1016 1 0 0 0 - - -;
#X obj 337 1039 list, f 1;
#X floatatom 367 1016 1 0 0 0 - - -;
#X obj 367 1039 list, f 1;
#X floatatom 397 1016 1 0 0 0 - - -;
#X obj 397 1039 list, f 1;
#X floatatom 427 1016 1 0 0 0 - - -;
#X obj 427 1039 list, f 1;
#X floatatom 457 1016 1 0 0 0 - - -;
#X obj 457 1039 list, f 1;
#X floatatom 487 1016 1 0 0 0 - - -;
#X obj 487 1039 list, f 1;
#X floatatom 517 1016 1 0 0 0 - - -;
#X obj 517 1039 list, f 1;
#X floatatom 547 1016 1 0 0 0 - - -;
#X obj 547 1039 list, f 1;
#X floatatom 577 1016 1 0 0 0 - - -;
#X obj 577 1039 list, f 1;
#X floatatom 607 1016 1 0 0 0 - - -;
#X obj 607 1039 list, f 1;
#X floatatom 637 1016 1 0 0 0 - - -;
#X obj 637 1039 list, f 1;
#X floatatom 667 1016 1 0 0 0 - - -;
#X obj 667 1039 list, f 1;
#X floatatom 697 1016 1 0 0 0 - - -;
#X obj 697 1039 list, f 1;
#X floatatom 726 1016 1 0 0 0 - - -;
#X obj 726 1039 list, f 1;
#X floatatom 756 1016 1 0 0 0 - - -;
#X obj 756 1039 list, f 1;
#X floatatom 786 1016 1 0 0 0 - - -;
#X obj 786 1039 list, f 1;
#X floatatom 816 1016 1 0 0 0 - - -;
#X obj 816 1039 list, f 1;
#X floatatom 846 1016 1 0 0 0 - - -;
#X obj 846 1039 list, f 1;
#X floatatom 876 1016 1 0 0 0 - - -;
#X obj 876 1039 list, f 1;
#X floatatom 906 1016 1 0 0 0 - - -;
#X obj 906 1039 list, f 1;
#X floatatom 936 1016 1 0 0 0 - - -;
#X obj 936 1039 list, f 1;
#X msg 38 1133 list /k1 \$1, f 13;
#X msg 68 1163 list /k1 \$1, f 13;
#X msg 98 1193 list /k1 \$1, f 13;
#X msg 128 1223 list /k1 \$1, f 13;
#X msg 158 1253 list /k1 \$1, f 13;
#X msg 188 1283 list /k1 \$1, f 13;
#X msg 218 1313 list /k1 \$1, f 13;
#X msg 247 1343 list /k1 \$1, f 13;
#X msg 277 1373 list /k1 \$1, f 13;
#X msg 307 1403 list /k1 \$1, f 13;
#X msg 337 1433 list /k1 \$1, f 13;
#X msg 367 1463 list /k1 \$1, f 13;
#X msg 397 1493 list /k1 \$1, f 13;
#X msg 427 1523 list /k1 \$1, f 13;
#X msg 457 1553 list /k1 \$1, f 13;
#X msg 487 1583 list /k1 \$1, f 13;
#X msg 517 1613 list /k1 \$1, f 13;
#X msg 547 1643 list /k1 \$1, f 13;
#X msg 577 1673 list /k1 \$1, f 13;
#X msg 607 1703 list /k1 \$1, f 13;
#X msg 637 1733 list /k1 \$1, f 13;
#X msg 667 1763 list /k1 \$1, f 13;
#X msg 697 1793 list /k1 \$1, f 13;
#X msg 726 1823 list /k1 \$1, f 13;
#X msg 756 1853 list /k1 \$1, f 13;
#X msg 786 1883 list /k1 \$1, f 13;
#X msg 816 1913 list /k1 \$1, f 13;
#X msg 846 1943 list /k1 \$1, f 13;
#X msg 876 1973 list /k1 \$1, f 13;
#X msg 906 2003 list /k1 \$1, f 13;
#X msg 936 2033 list /k1 \$1, f 13;
#X connect 8 0 9 0;
#X connect 10 0 11 0;
#X connect 12 0 13 0;
#X connect 14 0 11 0;
#X connect 15 0 9 0;
#X connect 16 0 13 0;
#X connect 18 0 20 0;
#X connect 18 0 31 0;
#X connect 18 1 21 0;
#X connect 18 2 22 0;
#X connect 18 3 23 0;
#X connect 18 4 24 0;
#X connect 19 0 18 0;
#X connect 22 0 27 0;
#X connect 23 0 28 0;
#X connect 24 0 29 0;
#X connect 26 0 18 1;
#X connect 26 0 19 0;
#X connect 30 0 18 1;
#X connect 30 0 19 0;
#X connect 32 0 34 0;
#X connect 32 1 35 0;
#X connect 35 0 33 0;
#X connect 36 0 32 0;
#X connect 37 0 32 0;
#X connect 38 0 45 0;
#X connect 42 0 43 0;
#X connect 43 0 40 0;
#X connect 45 0 46 0;
#X connect 45 1 47 0;
#X connect 45 2 48 0;
#X connect 49 0 45 0;
#X connect 50 0 51 0;
#X connect 51 0 52 0;
#X connect 53 0 50 0;
#X connect 53 1 54 0;
#X connect 53 2 56 0;
#X connect 53 3 58 0;
#X connect 53 4 60 0;
#X connect 53 5 62 0;
#X connect 53 6 64 0;
#X connect 53 7 66 0;
#X connect 53 8 68 0;
#X connect 53 9 70 0;
#X connect 53 10 72 0;
#X connect 53 11 74 0;
#X connect 53 12 76 0;
#X connect 53 13 78 0;
#X connect 53 14 80 0;
#X connect 53 15 82 0;
#X connect 53 16 84 0;
#X connect 53 17 86 0;
#X connect 53 18 88 0;
#X connect 53 19 90 0;
#X connect 53 20 92 0;
#X connect 53 21 94 0;
#X connect 53 22 96 0;
#X connect 53 23 98 0;
#X connect 53 24 100 0;
#X connect 53 25 102 0;
#X connect 53 26 104 0;
#X connect 53 27 106 0;
#X connect 53 28 108 0;
#X connect 53 29 110 0;
#X connect 53 30 112 0;
#X connect 53 31 114 0;
#X connect 54 0 55 0;
#X connect 55 0 116 0;
#X connect 56 0 57 0;
#X connect 57 0 117 0;
#X connect 58 0 59 0;
#X connect 59 0 118 0;
#X connect 60 0 61 0;
#X connect 61 0 119 0;
#X connect 62 0 63 0;
#X connect 63 0 120 0;
#X connect 64 0 65 0;
#X connect 65 0 121 0;
#X connect 66 0 67 0;
#X connect 67 0 122 0;
#X connect 68 0 69 0;
#X connect 69 0 123 0;
#X connect 70 0 71 0;
#X connect 71 0 124 0;
#X connect 72 0 73 0;
#X connect 73 0 125 0;
#X connect 74 0 75 0;
#X connect 75 0 126 0;
#X connect 76 0 77 0;
#X connect 77 0 127 0;
#X connect 78 0 79 0;
#X connect 79 0 128 0;
#X connect 80 0 81 0;
#X connect 81 0 129 0;
#X connect 82 0 83 0;
#X connect 83 0 130 0;
#X connect 84 0 85 0;
#X connect 85 0 131 0;
#X connect 86 0 87 0;
#X connect 87 0 132 0;
#X connect 88 0 89 0;
#X connect 89 0 133 0;
#X connect 90 0 91 0;
#X connect 91 0 134 0;
#X connect 92 0 93 0;
#X connect 93 0 135 0;
#X connect 94 0 95 0;
#X connect 95 0 136 0;
#X connect 96 0 97 0;
#X connect 97 0 137 0;
#X connect 98 0 99 0;
#X connect 99 0 138 0;
#X connect 100 0 101 0;
#X connect 101 0 139 0;
#X connect 102 0 103 0;
#X connect 103 0 140 0;
#X connect 104 0 105 0;
#X connect 105 0 141 0;
#X connect 106 0 107 0;
#X connect 107 0 142 0;
#X connect 108 0 109 0;
#X connect 109 0 143 0;
#X connect 110 0 111 0;
#X connect 111 0 144 0;
#X connect 112 0 113 0;
#X connect 113 0 145 0;
#X connect 114 0 115 0;
#X connect 115 0 146 0;
