#N canvas -1928 -8 1920 1037 12;
#X obj 219 261 mtof;
#X floatatom 222 288 5 0 0 0 - - -;
#X obj 222 311 osc~;
#X obj 222 380 *~ 0.2;
#X obj 222 404 dac~;
#X floatatom 274 218 5 0 0 0 - - -;
#X floatatom 215 215 5 0 0 0 - - -;
#X obj 217 58 notein;
#X obj 222 335 *~;
#X obj 313 372 vline~;
#X obj 215 184 stripnote;
#X obj 275 249 / 127;
#X msg 284 325 \$1 5 \, \$2 200 5;
#X obj 290 272 * 0.5;
#X obj 275 297 pack;
#X obj 297 185 select 0;
#X msg 399 324 0 700;
#X obj 504 122 poly 64;
#X obj 506 76 notein;
#X obj 500 185 pack 0 0 0;
#X obj 500 154 - 1;
#X connect 0 0 1 0;
#X connect 1 0 2 0;
#X connect 2 0 8 0;
#X connect 3 0 4 0;
#X connect 3 0 4 1;
#X connect 5 0 11 0;
#X connect 6 0 0 0;
#X connect 7 0 10 0;
#X connect 7 1 10 1;
#X connect 7 1 15 0;
#X connect 8 0 3 0;
#X connect 9 0 8 1;
#X connect 10 0 6 0;
#X connect 10 1 5 0;
#X connect 11 0 14 0;
#X connect 11 0 13 0;
#X connect 12 0 9 0;
#X connect 13 0 14 1;
#X connect 14 0 12 0;
#X connect 15 0 16 0;
#X connect 16 0 9 0;
#X connect 17 0 20 0;
#X connect 17 1 19 1;
#X connect 17 2 19 2;
#X connect 18 0 17 0;
#X connect 18 1 17 1;
#X connect 20 0 19 0;
