#N canvas 320 68 563 693 10;
#X obj 315 52 tgl 15 0 empty empty sustain 17 7 0 10 -262144 -1 -1
0 1;
#X msg 68 48 60 127;
#X msg 84 76 60 0;
#X msg 128 48 62 127;
#X msg 144 76 62 0;
#X msg 84 114 \$2 \$1;
#X text 129 114 reverse list;
#X obj 84 150 route 0;
#X text 140 149 seperate when velocity 0;
#X msg 160 216 \$2 \$1;
#X text 208 216 reverse note on for normal use;
#X obj 84 659 noteout;
#X obj 84 351 spigot 1;
#X obj 129 324 + 1;
#X floatatom 147 351 5 0 0 0 - - -;
#X obj 129 284 * -1;
#X obj 202 282 spigot 0;
#X obj 202 332 print sustained;
#X obj 112 389 print unsustained;
#X obj 315 327 list append;
#X text 403 326 hold them;
#X obj 315 298 bng 15 250 50 0 empty empty empty 17 7 0 10 -262144
-1 -1;
#X obj 400 345 list;
#X obj 315 456 list-drip;
#X obj 315 427 spigot;
#X obj 315 245 sel 0;
#X obj 315 82 t f f;
#X obj 314 272 t b b;
#X text 356 272 sent and clear list if 0;
#X obj 84 624 print output;
#X text 170 16 REMOVE PRINT OBJECTS WHEN HAPPY;
#X obj 183 623 outlet;
#X obj 21 25 inlet;
#X obj 84 524 list 0;
#X text 132 524 put 0 back (route strips it) for normal use;
#X connect 0 0 26 0;
#X connect 1 0 5 0;
#X connect 2 0 5 0;
#X connect 3 0 5 0;
#X connect 4 0 5 0;
#X connect 5 0 7 0;
#X connect 7 0 16 0;
#X connect 7 0 12 0;
#X connect 7 1 9 0;
#X connect 9 0 29 0;
#X connect 9 0 31 0;
#X connect 12 0 18 0;
#X connect 12 0 33 0;
#X connect 13 0 12 1;
#X connect 13 0 14 0;
#X connect 14 0 24 1;
#X connect 15 0 13 0;
#X connect 16 0 17 0;
#X connect 16 0 19 0;
#X connect 19 0 22 0;
#X connect 19 0 24 0;
#X connect 21 0 19 0;
#X connect 22 0 19 1;
#X connect 23 0 33 0;
#X connect 24 0 23 0;
#X connect 25 0 27 0;
#X connect 26 0 25 0;
#X connect 26 1 15 0;
#X connect 26 1 16 1;
#X connect 27 0 19 1;
#X connect 27 1 21 0;
#X connect 32 0 5 0;
#X connect 33 0 31 0;
#X connect 33 0 29 0;
