#N canvas -967 0 958 1028 12;
#X obj 17 170 mtof;
#X floatatom 20 197 5 0 0 0 - - -;
#X obj 20 220 osc~;
#X obj 20 289 *~ 0.2;
#X floatatom 72 127 5 0 0 0 - - -;
#X floatatom 13 124 5 0 0 0 - - -;
#X obj 20 244 *~;
#X obj 111 281 vline~;
#X obj 73 158 / 127;
#X msg 82 234 \$1 5 \, \$2 200 5;
#X obj 88 181 * 0.5;
#X obj 73 206 pack;
#X msg 197 233 0 700;
#X obj 32 9 inlet;
#X obj 29 41 unpack 0 0;
#X obj 17 335 outlet~;
#X obj 293 93 bng 15 250 50 0 empty empty empty 17 7 0 10 -262144 -1
-1;
#X floatatom 359 47 3 0 0 0 - - -;
#X obj 317 13 ctlin 64;
#X obj 277 60 select 127;
#X obj 381 71 select 0;
#X obj 394 95 bng 15 250 50 0 empty empty empty 17 7 0 10 -262144 -1
-1;
#X obj 215 195 select 0;
#X obj 215 163 spigot;
#X obj 215 128 f;
#X msg 244 87;
#X obj 323 97 t b 1;
#X obj 20 81 stripnote;
#X obj 122 79 select 0;
#X connect 0 0 1 0;
#X connect 1 0 2 0;
#X connect 2 0 6 0;
#X connect 3 0 15 0;
#X connect 4 0 8 0;
#X connect 5 0 0 0;
#X connect 6 0 3 0;
#X connect 7 0 6 1;
#X connect 8 0 11 0;
#X connect 8 0 10 0;
#X connect 9 0 7 0;
#X connect 10 0 11 1;
#X connect 11 0 9 0;
#X connect 12 0 7 0;
#X connect 13 0 14 0;
#X connect 14 0 27 0;
#X connect 14 1 27 1;
#X connect 14 1 28 0;
#X connect 17 0 20 0;
#X connect 18 0 17 0;
#X connect 18 0 19 0;
#X connect 19 0 16 0;
#X connect 19 0 25 0;
#X connect 19 1 26 0;
#X connect 20 0 21 0;
#X connect 21 0 26 0;
#X connect 23 0 22 0;
#X connect 24 0 23 0;
#X connect 25 0 24 0;
#X connect 25 0 23 1;
#X connect 26 0 24 0;
#X connect 26 1 23 1;
#X connect 27 0 5 0;
#X connect 27 1 4 0;
#X connect 28 0 12 0;
