#N canvas -8 -8 1920 1037 12;
#X obj 36 -347 hsl 900 20 48 84 0 0 empty empty empty -2 -8 0 10 -262144
-1 -1 60564 1;
#X obj 33 171 *~ 0.3;
#X obj 33 -206 mtof;
#X obj 126 286 rev3~, f 27;
#X obj 132 359 clip~ -1 1;
#X obj 214 359 clip~ -1 1;
#X floatatom 123 235 5 0 0 0 - - -;
#X floatatom 170 236 5 0 0 0 - - -;
#X floatatom 217 236 5 0 0 0 - - -;
#X floatatom 267 234 5 0 0 0 - - -;
#X obj 33 321 clip~ -1 1;
#X obj 149 -137 vsl 50 20 0.01 1 1 0 empty empty empty 0 -9 0 10 -262144
-1 -1 3496 0;
#X obj 33 -9 *~, f 17;
#X obj 149 -82 vline~;
#X obj 33 -420 cnv 15 42 60 empty empty empty 20 12 0 14 -233017 -66577
0;
#X obj 76 -420 cnv 15 42 60 empty empty empty 20 12 0 14 -233017 -66577
0;
#X obj 119 -420 cnv 15 42 60 empty empty empty 20 12 0 14 -233017 -66577
0;
#X obj 162 -420 cnv 15 42 60 empty empty empty 20 12 0 14 -233017 -66577
0;
#X obj 205 -420 cnv 15 42 60 empty empty empty 20 12 0 14 -233017 -66577
0;
#X obj 248 -420 cnv 15 42 60 empty empty empty 20 12 0 14 -233017 -66577
0;
#X obj 291 -420 cnv 15 42 60 empty empty empty 20 12 0 14 -233017 -66577
0;
#X obj 66 -420 cnv 15 20 30 empty empty empty 20 12 0 14 -1 -66577
0;
#X obj 109 -420 cnv 15 20 30 empty empty empty 20 12 0 14 -1 -66577
0;
#X obj 195 -420 cnv 15 20 30 empty empty empty 20 12 0 14 -1 -66577
0;
#X obj 240 -420 cnv 15 20 30 empty empty empty 20 12 0 14 -1 -66577
0;
#X obj 283 -420 cnv 15 20 30 empty empty empty 20 12 0 14 -1 -66577
0;
#X obj 334 -420 cnv 15 42 60 empty empty empty 20 12 0 14 -233017 -66577
0;
#X obj 377 -420 cnv 15 42 60 empty empty empty 20 12 0 14 -233017 -66577
0;
#X obj 420 -420 cnv 15 42 60 empty empty empty 20 12 0 14 -233017 -66577
0;
#X obj 463 -420 cnv 15 42 60 empty empty empty 20 12 0 14 -233017 -66577
0;
#X obj 506 -420 cnv 15 42 60 empty empty empty 20 12 0 14 -233017 -66577
0;
#X obj 549 -420 cnv 15 42 60 empty empty empty 20 12 0 14 -233017 -66577
0;
#X obj 592 -420 cnv 15 42 60 empty empty empty 20 12 0 14 -233017 -66577
0;
#X obj 367 -420 cnv 15 20 30 empty empty empty 20 12 0 14 -1 -66577
0;
#X obj 410 -420 cnv 15 20 30 empty empty empty 20 12 0 14 -1 -66577
0;
#X obj 496 -420 cnv 15 20 30 empty empty empty 20 12 0 14 -1 -66577
0;
#X obj 541 -420 cnv 15 20 30 empty empty empty 20 12 0 14 -1 -66577
0;
#X obj 584 -420 cnv 15 20 30 empty empty empty 20 12 0 14 -1 -66577
0;
#X obj 635 -420 cnv 15 42 60 empty empty empty 20 12 0 14 -233017 -66577
0;
#X obj 678 -420 cnv 15 42 60 empty empty empty 20 12 0 14 -233017 -66577
0;
#X obj 721 -420 cnv 15 42 60 empty empty empty 20 12 0 14 -233017 -66577
0;
#X obj 764 -420 cnv 15 42 60 empty empty empty 20 12 0 14 -233017 -66577
0;
#X obj 807 -420 cnv 15 42 60 empty empty empty 20 12 0 14 -233017 -66577
0;
#X obj 850 -420 cnv 15 42 60 empty empty empty 20 12 0 14 -233017 -66577
0;
#X obj 893 -420 cnv 15 42 60 empty empty empty 20 12 0 14 -233017 -66577
0;
#X obj 668 -420 cnv 15 20 30 empty empty empty 20 12 0 14 -1 -66577
0;
#X obj 711 -420 cnv 15 20 30 empty empty empty 20 12 0 14 -1 -66577
0;
#X obj 797 -420 cnv 15 20 30 empty empty empty 20 12 0 14 -1 -66577
0;
#X obj 842 -420 cnv 15 20 30 empty empty empty 20 12 0 14 -1 -66577
0;
#X obj 885 -420 cnv 15 20 30 empty empty empty 20 12 0 14 -1 -66577
0;
#X obj 695 -26 send toGUI;
#X obj 33 108 *~, f 68;
#X obj 442 -313 receive fromGUI;
#X obj 442 -292 list trim;
#X obj 577 -76 vline~;
#X obj 442 -147 sel 1 0, f 16;
#X obj 533 -199 hsl 50 15 0 3000 0 0 empty empty attack -2 -8 0 10
-262144 -1 -1 980 1;
#X obj 620 -199 hsl 50 15 0 3000 0 0 empty empty decay -2 -8 0 10 -262144
-1 -1 1634 1;
#X obj 725 -271 loadbang;
#X msg 754 -218 500;
#X msg 695 -218 300;
#X msg 530 -109 1 300;
#X msg 617 -109 0 500;
#X msg 530 -174 set 1 \$1;
#X msg 617 -174 set 0 \$1;
#X obj 442 -271 route /soundBtn /attackKnob /decayKnob;
#N canvas 64 59 938 654 mapActk 0;
#X obj 73 76 inlet;
#X obj 72 283 outlet;
#X floatatom 73 125 5 0 0 0 - - -;
#X msg 116 158 0;
#X msg 159 158 1;
#X floatatom 73 244 5 0 0 0 - - -;
#X obj 168 108 loadbang;
#X msg 202 158 0;
#X msg 245 158 3000;
#X obj 73 196 gwbin/map, f 25;
#X connect 0 0 2 0;
#X connect 0 0 9 0;
#X connect 3 0 9 1;
#X connect 4 0 9 2;
#X connect 6 0 4 0;
#X connect 6 0 7 0;
#X connect 6 0 8 0;
#X connect 6 0 3 0;
#X connect 7 0 9 3;
#X connect 8 0 9 4;
#X connect 9 0 5 0;
#X connect 9 0 1 0;
#X restore 530 -236 pd mapActk;
#N canvas 64 59 938 654 mapDky 0;
#X obj 73 76 inlet;
#X obj 72 283 outlet;
#X floatatom 73 125 5 0 0 0 - - -;
#X msg 116 158 0;
#X msg 159 158 1;
#X floatatom 73 244 5 0 0 0 - - -;
#X obj 168 108 loadbang;
#X msg 202 158 0;
#X msg 245 158 3000;
#X obj 73 196 gwbin/map, f 25;
#X connect 0 0 2 0;
#X connect 0 0 9 0;
#X connect 3 0 9 1;
#X connect 4 0 9 2;
#X connect 6 0 4 0;
#X connect 6 0 7 0;
#X connect 6 0 8 0;
#X connect 6 0 3 0;
#X connect 7 0 9 3;
#X connect 8 0 9 4;
#X connect 9 0 5 0;
#X connect 9 0 1 0;
#X restore 617 -236 pd mapDky;
#N canvas -8 -8 1920 1037 mapXYpadX 0;
#X msg 400 192 48;
#X msg 436 192 84;
#X msg 328 192 0;
#X msg 364 192 1;
#X floatatom 357 275 5 0 0 0 - - -;
#X obj 375 139 loadbang;
#X obj 253 151 inlet;
#X obj 264 327 outlet;
#X obj 292 230 gwbin/map, f 21;
#X connect 0 0 8 3;
#X connect 1 0 8 4;
#X connect 2 0 8 1;
#X connect 3 0 8 2;
#X connect 5 0 3 0;
#X connect 5 0 0 0;
#X connect 5 0 1 0;
#X connect 5 0 2 0;
#X connect 6 0 8 0;
#X connect 8 0 4 0;
#X connect 8 0 7 0;
#X restore 33 -455 pd mapXYpadX;
#X obj 33 -568 receive fromGUI;
#X obj 33 -547 list trim;
#X obj 33 -525 route /ringslider;
#X obj 33 -503 unpack f f;
#X floatatom 33 -481 5 0 0 0 - - -;
#X floatatom 100 -481 5 0 0 0 - - -;
#X obj 149 -313 receive fromGUI;
#X obj 149 -292 list trim;
#X obj 149 -250 unpack f f;
#X floatatom 149 -228 5 0 0 0 - - -;
#X floatatom 216 -228 5 0 0 0 - - -;
#N canvas -8 -8 1920 1037 mapXYpadY 0;
#X msg 328 192 0;
#X msg 364 192 1;
#X floatatom 357 275 5 0 0 0 - - -;
#X obj 375 139 loadbang;
#X obj 253 151 inlet;
#X obj 264 327 outlet;
#X msg 400 192 0.01;
#X msg 436 192 1;
#X obj 292 230 gwbin/map, f 21;
#X connect 0 0 8 1;
#X connect 1 0 8 2;
#X connect 3 0 1 0;
#X connect 3 0 6 0;
#X connect 3 0 7 0;
#X connect 3 0 0 0;
#X connect 4 0 8 0;
#X connect 6 0 8 3;
#X connect 7 0 8 4;
#X connect 8 0 2 0;
#X connect 8 0 5 0;
#X restore 149 -202 pd mapXYpadY;
#X obj 33 435 dac~ 1 2, f 20;
#X msg 695 -144 list /attackKnob \$1;
#X msg 754 -118 list /decayKnob \$1;
#N canvas 64 59 938 654 mtgkn 0;
#X obj 73 76 inlet;
#X obj 72 283 outlet;
#X floatatom 73 125 5 0 0 0 - - -;
#X msg 202 158 0;
#X msg 245 158 1;
#X floatatom 73 244 5 0 0 0 - - -;
#X obj 168 108 loadbang;
#X msg 116 158 0;
#X msg 159 158 3000;
#X obj 73 196 gwbin/map, f 25;
#X connect 0 0 2 0;
#X connect 0 0 9 0;
#X connect 3 0 9 3;
#X connect 4 0 9 4;
#X connect 6 0 4 0;
#X connect 6 0 7 0;
#X connect 6 0 8 0;
#X connect 6 0 3 0;
#X connect 7 0 9 1;
#X connect 8 0 9 2;
#X connect 9 0 5 0;
#X connect 9 0 1 0;
#X restore 695 -175 pd mtgkn;
#N canvas 64 59 938 654 mtgkn 0;
#X obj 73 76 inlet;
#X obj 72 283 outlet;
#X floatatom 73 125 5 0 0 0 - - -;
#X msg 202 158 0;
#X msg 245 158 1;
#X floatatom 73 244 5 0 0 0 - - -;
#X obj 168 108 loadbang;
#X msg 116 158 0;
#X msg 159 158 3000;
#X obj 73 196 gwbin/map, f 25;
#X connect 0 0 2 0;
#X connect 0 0 9 0;
#X connect 3 0 9 3;
#X connect 4 0 9 4;
#X connect 6 0 4 0;
#X connect 6 0 7 0;
#X connect 6 0 8 0;
#X connect 6 0 3 0;
#X connect 7 0 9 1;
#X connect 8 0 9 2;
#X connect 9 0 5 0;
#X connect 9 0 1 0;
#X restore 754 -175 pd mtgkn;
#X obj 143 170 loadbang;
#X msg 182 205 80;
#X msg 224 202 3000;
#X msg 282 203 15;
#X msg 123 205 100;
#X obj 132 324 *~ 0.5;
#X obj 191 324 *~ 0.5;
#X msg 149 -107 \$1 20;
#N canvas -8 -8 1920 1037 oscil~ 0;
#X obj 68 183 inlet;
#X obj 183 495 outlet~;
#X obj 68 294 osc~;
#N canvas -8 -8 1920 1037 sqrSIMPLE~ 0;
#X obj 466 51 inlet;
#X obj 466 329 outlet~;
#X floatatom 466 101 5 0 0 0 - - -;
#X obj 466 231 phasor~;
#X obj 564 231 phasor~;
#X obj 576 199 + 0.5;
#X msg 542 153 0;
#X obj 542 104 loadbang;
#X obj 466 278 -~;
#X connect 0 0 2 0;
#X connect 2 0 3 0;
#X connect 2 0 4 0;
#X connect 3 0 8 0;
#X connect 4 0 8 1;
#X connect 5 0 4 1;
#X connect 6 0 3 1;
#X connect 6 0 5 0;
#X connect 7 0 6 0;
#X connect 8 0 1 0;
#X restore 264 302 pd sqrSIMPLE~;
#X obj 297 354 sig~;
#X text 415 336 q;
#X floatatom 371 337 5 0 0 0 - - -;
#X obj 264 377 vcf~ 1, f 10;
#X floatatom 264 272 5 0 0 0 - - -;
#X obj 111 262 vradio 15 1 0 2 empty empty empty 0 -8 0 10 -262144
-1 -1 0;
#X obj 111 344 sel 0 1, f 17;
#X obj 68 462 *~, f 5;
#X obj 100 431 tgl 15 0 empty empty empty 17 7 0 10 -262144 -1 -1 1
1;
#X obj 133 402 del 1;
#X msg 100 402 1;
#X msg 133 428 0;
#X obj 111 378 bng 15 250 50 0 empty empty empty 17 7 0 10 -262144
-1 -1;
#X obj 181 431 tgl 15 0 empty empty empty 17 7 0 10 -262144 -1 -1 0
1;
#X obj 214 402 del 1;
#X msg 181 402 1;
#X msg 214 428 0;
#X obj 192 378 bng 15 250 50 0 empty empty empty 17 7 0 10 -262144
-1 -1;
#X obj 111 214 loadbang;
#X msg 111 238 0;
#X obj 211 462 *~;
#X msg 428 337 500;
#X obj 428 303 loadbang;
#N canvas -8 -8 1920 1037 sqrFltrMapper 0;
#X obj 73 76 inlet;
#X obj 72 283 outlet;
#X floatatom 73 125 5 0 0 0 - - -;
#X msg 159 158 1;
#X floatatom 73 244 5 0 0 0 - - -;
#X obj 168 108 loadbang;
#X msg 202 158 500;
#X msg 245 158 0;
#X msg 116 158 0.01;
#X obj 73 196 gwbin/map, f 25;
#X connect 0 0 2 0;
#X connect 0 0 9 0;
#X connect 3 0 9 2;
#X connect 5 0 3 0;
#X connect 5 0 6 0;
#X connect 5 0 7 0;
#X connect 5 0 8 0;
#X connect 6 0 9 3;
#X connect 7 0 9 4;
#X connect 8 0 9 1;
#X connect 9 0 4 0;
#X connect 9 0 1 0;
#X restore 371 276 pd sqrFltrMapper;
#X obj 418 147 hsl 128 15 0.01 0.998 0 0 empty empty empty -2 -8 0
10 -262144 -1 -1 0 1;
#X msg 429 377 19000;
#X obj 264 402 lop~, f 23;
#X obj 415 183 sel 0.01;
#X obj 415 223 bng 15 250 50 0 empty empty empty 17 7 0 10 -262144
-1 -1;
#X msg 415 243 0;
#X obj 468 223 bng 15 250 50 0 empty empty empty 17 7 0 10 -262144
-1 -1;
#X msg 468 243 1;
#X obj 415 12 receive fromGUI;
#X obj 415 33 list trim;
#X floatatom 429 79 5 0 0 0 - - -;
#X obj 415 54 route /timbreKnob;
#N canvas -8 -8 1920 1037 mapDirtKnob 0;
#X obj 73 76 inlet;
#X obj 72 283 outlet;
#X floatatom 73 125 5 0 0 0 - - -;
#X msg 159 158 1;
#X floatatom 73 244 5 0 0 0 - - -;
#X obj 168 108 loadbang;
#X msg 245 158 0.998;
#X msg 202 158 0.01;
#X msg 116 158 0;
#X obj 73 196 gwbin/map, f 25;
#X connect 0 0 2 0;
#X connect 0 0 9 0;
#X connect 3 0 9 2;
#X connect 5 0 3 0;
#X connect 5 0 7 0;
#X connect 5 0 6 0;
#X connect 5 0 8 0;
#X connect 6 0 9 4;
#X connect 7 0 9 3;
#X connect 8 0 9 1;
#X connect 9 0 4 0;
#X connect 9 0 1 0;
#X restore 415 101 pd mapDirtKnob;
#X floatatom 429 125 5 0 0 0 - - -;
#X msg 376 145 0.01;
#X obj 311 145 loadbang;
#X obj 142 495 +~;
#X obj 644 321 env~;
#X floatatom 644 345 5 0 0 0 - - -;
#X obj 690 321 env~;
#X floatatom 690 345 5 0 0 0 - - -;
#X obj 264 427 *~ 1;
#X obj 264 333 *~ 1.8;
#X connect 0 0 2 0;
#X connect 0 0 8 0;
#X connect 2 0 11 0;
#X connect 2 0 47 0;
#X connect 3 0 50 0;
#X connect 4 0 7 1;
#X connect 6 0 7 2;
#X connect 7 0 30 0;
#X connect 8 0 3 0;
#X connect 8 0 4 0;
#X connect 9 0 10 0;
#X connect 10 0 16 0;
#X connect 10 1 21 0;
#X connect 11 0 44 0;
#X connect 12 0 11 1;
#X connect 13 0 15 0;
#X connect 14 0 12 0;
#X connect 15 0 17 0;
#X connect 16 0 14 0;
#X connect 16 0 13 0;
#X connect 17 0 24 1;
#X connect 18 0 20 0;
#X connect 19 0 17 0;
#X connect 20 0 12 0;
#X connect 21 0 19 0;
#X connect 21 0 18 0;
#X connect 22 0 23 0;
#X connect 23 0 9 0;
#X connect 24 0 44 0;
#X connect 25 0 6 0;
#X connect 26 0 25 0;
#X connect 26 0 29 0;
#X connect 27 0 6 0;
#X connect 28 0 27 0;
#X connect 28 0 31 0;
#X connect 29 0 30 1;
#X connect 30 0 49 0;
#X connect 31 0 32 0;
#X connect 31 1 34 0;
#X connect 32 0 33 0;
#X connect 33 0 9 0;
#X connect 34 0 35 0;
#X connect 35 0 9 0;
#X connect 36 0 37 0;
#X connect 37 0 39 0;
#X connect 39 0 38 0;
#X connect 39 0 40 0;
#X connect 40 0 41 0;
#X connect 40 0 28 0;
#X connect 42 0 28 0;
#X connect 43 0 42 0;
#X connect 44 0 1 0;
#X connect 45 0 46 0;
#X connect 47 0 48 0;
#X connect 49 0 24 0;
#X connect 49 0 45 0;
#X connect 50 0 7 0;
#X restore 33 -88 pd oscil~;
#X obj 280 -127 vsl 10 30 0 100 0 0 empty empty empty 0 -9 0 10 -262144
-1 -1 0 0;
#X obj 33 28 *~, f 34;
#X obj 149 -271 route /ringslider /vibratoKnob, f 34;
#N canvas -8 -8 1920 1037 mapVibrato 0;
#X msg 328 192 0;
#X msg 364 192 1;
#X floatatom 357 275 5 0 0 0 - - -;
#X obj 375 139 loadbang;
#X obj 253 151 inlet;
#X obj 264 327 outlet;
#X msg 400 192 0;
#X msg 476 192 15;
#X obj 292 230 gwbin/map, f 21;
#X connect 0 0 8 1;
#X connect 1 0 8 2;
#X connect 3 0 1 0;
#X connect 3 0 6 0;
#X connect 3 0 7 0;
#X connect 3 0 0 0;
#X connect 4 0 8 0;
#X connect 6 0 8 3;
#X connect 7 0 8 4;
#X connect 8 0 2 0;
#X connect 8 0 5 0;
#X restore 267 -228 pd mapVibrato;
#X floatatom 319 -195 5 0 0 0 - - -;
#X msg 267 -197 \$1 50;
#X msg 296 -38 \$1 50;
#X msg 280 -161 \$1 50;
#X obj 391 -8 vline~;
#X obj 33 64 *~, f 46;
#X obj 271 -5 osc~ 0;
#X floatatom 242 -88 5 0 0 0 - - -;
#X obj 242 -64 sel 0;
#X obj 410 -111 bng 15 250 50 0 empty empty empty 17 7 0 10 -262144
-1 -1;
#X obj 329 -161 sel anything;
#X obj 435 -72 del 800;
#X msg 391 -72 0 15;
#X msg 435 -45 1 100;
#X msg 242 -39 0 30;
#X msg 695 -96 list /vibratoKnob 0;
#X msg 695 -71 list /timbreKnob 0;
#X obj 695 -118 loadbang;
#X obj 63 -183 loadbang;
#X msg 63 -158 0.98;
#N canvas -8 -8 1920 1037 octaveSel 0;
#X obj 95 76 inlet;
#X obj 95 432 outlet;
#X floatatom 95 270 5 0 0 0 - - -;
#X obj 145 245 + 12;
#X floatatom 145 270 5 0 0 0 - - -;
#X floatatom 45 269 5 0 0 0 - - -;
#X obj 45 244 - 12;
#X text 153 286 octave +;
#X text 26 285 octave -;
#X obj 273 149 sel 0 1 2, f 39;
#X obj 273 109 hradio 25 1 0 3 empty empty empty 0 -8 0 10 -262144
-1 -1 0;
#X obj 273 267 tgl 15 0 empty empty empty 17 7 0 10 -262144 -1 -1 1
1;
#X msg 273 241 1;
#X obj 307 241 del 1;
#X msg 307 265 0;
#X obj 273 217 b;
#X obj 363 267 tgl 15 0 empty empty empty 17 7 0 10 -262144 -1 -1 0
1;
#X msg 363 241 1;
#X obj 397 241 del 1;
#X msg 397 265 0;
#X obj 363 217 b;
#X obj 453 267 tgl 15 0 empty empty empty 17 7 0 10 -262144 -1 -1 0
1;
#X msg 453 241 1;
#X obj 487 241 del 1;
#X msg 487 265 0;
#X obj 453 217 b;
#X obj 273 297 tgl 15 0 empty empty empty 17 7 0 10 -262144 -1 -1 1
1;
#X obj 363 297 tgl 15 0 empty empty empty 17 7 0 10 -262144 -1 -1 0
1;
#X obj 453 297 tgl 15 0 empty empty empty 17 7 0 10 -262144 -1 -1 0
1;
#X obj 45 364 spigot;
#X obj 95 364 spigot;
#X obj 145 364 spigot;
#X obj 95 402 f;
#X floatatom 125 401 5 0 0 0 - - -;
#X obj 273 76 inlet;
#X obj 102 134 bng 15 250 50 0 empty empty empty 17 7 0 10 -262144
-1 -1;
#X obj 144 191 bng 15 250 50 0 empty empty empty 17 7 0 10 -262144
-1 -1;
#X obj 143 168 del 2;
#X obj 317 52 loadbang;
#X msg 317 76 1;
#X obj 158 10 receive fromGUI;
#X obj 158 31 list trim;
#X obj 158 52 route /chooseOct, f 18;
#X floatatom 158 74 5 0 0 0 - - -;
#X connect 0 0 2 0;
#X connect 2 0 3 0;
#X connect 2 0 6 0;
#X connect 2 0 30 0;
#X connect 3 0 4 0;
#X connect 4 0 31 0;
#X connect 5 0 29 0;
#X connect 6 0 5 0;
#X connect 9 0 15 0;
#X connect 9 1 20 0;
#X connect 9 2 25 0;
#X connect 10 0 9 0;
#X connect 10 0 35 0;
#X connect 11 0 26 0;
#X connect 12 0 11 0;
#X connect 13 0 14 0;
#X connect 14 0 16 0;
#X connect 14 0 21 0;
#X connect 15 0 12 0;
#X connect 15 0 13 0;
#X connect 16 0 27 0;
#X connect 17 0 16 0;
#X connect 18 0 19 0;
#X connect 19 0 11 0;
#X connect 19 0 21 0;
#X connect 20 0 17 0;
#X connect 20 0 18 0;
#X connect 21 0 28 0;
#X connect 22 0 21 0;
#X connect 23 0 24 0;
#X connect 24 0 16 0;
#X connect 24 0 11 0;
#X connect 25 0 22 0;
#X connect 25 0 23 0;
#X connect 26 0 29 1;
#X connect 27 0 30 1;
#X connect 28 0 31 1;
#X connect 29 0 32 0;
#X connect 30 0 32 0;
#X connect 31 0 32 0;
#X connect 32 0 33 0;
#X connect 32 0 1 0;
#X connect 34 0 10 0;
#X connect 35 0 37 0;
#X connect 36 0 2 0;
#X connect 37 0 36 0;
#X connect 38 0 39 0;
#X connect 39 0 10 0;
#X connect 40 0 41 0;
#X connect 41 0 42 0;
#X connect 42 0 43 0;
#X connect 43 0 10 0;
#X restore 33 -233 pd octaveSel;
#X obj 58 -258 hradio 15 1 0 3 empty empty empty 0 -8 0 10 -262144
-1 -1 1;
#X obj 58 -307 loadbang;
#X msg 58 -283 1;
#X msg 695 -48 list /chooseOct 1;
#X obj 416 -236 route /droneTgl;
#X floatatom 416 -212 5 0 0 0 - - -;
#X msg 47 -120 60;
#X connect 0 0 119 0;
#X connect 1 0 3 0;
#X connect 1 0 3 1;
#X connect 1 0 10 0;
#X connect 2 0 94 0;
#X connect 3 0 91 0;
#X connect 3 1 92 0;
#X connect 4 0 81 0;
#X connect 5 0 81 1;
#X connect 6 0 3 2;
#X connect 7 0 3 3;
#X connect 8 0 3 4;
#X connect 9 0 3 5;
#X connect 10 0 81 0;
#X connect 10 0 81 1;
#X connect 11 0 93 0;
#X connect 12 0 96 0;
#X connect 13 0 12 1;
#X connect 51 0 1 0;
#X connect 52 0 53 0;
#X connect 53 0 65 0;
#X connect 53 0 124 0;
#X connect 54 0 51 1;
#X connect 55 0 61 0;
#X connect 55 1 62 0;
#X connect 56 0 63 0;
#X connect 57 0 64 0;
#X connect 58 0 59 0;
#X connect 58 0 60 0;
#X connect 59 0 57 0;
#X connect 59 0 85 0;
#X connect 60 0 56 0;
#X connect 60 0 84 0;
#X connect 61 0 54 0;
#X connect 62 0 54 0;
#X connect 63 0 61 0;
#X connect 64 0 62 0;
#X connect 65 0 55 0;
#X connect 65 1 66 0;
#X connect 65 2 67 0;
#X connect 66 0 56 0;
#X connect 67 0 57 0;
#X connect 68 0 0 0;
#X connect 69 0 70 0;
#X connect 70 0 71 0;
#X connect 71 0 72 0;
#X connect 72 0 73 0;
#X connect 72 1 74 0;
#X connect 73 0 68 0;
#X connect 75 0 76 0;
#X connect 76 0 97 0;
#X connect 77 0 78 0;
#X connect 77 1 79 0;
#X connect 79 0 80 0;
#X connect 80 0 11 0;
#X connect 82 0 50 0;
#X connect 83 0 50 0;
#X connect 84 0 82 0;
#X connect 85 0 83 0;
#X connect 86 0 87 0;
#X connect 86 0 88 0;
#X connect 86 0 89 0;
#X connect 86 0 90 0;
#X connect 87 0 7 0;
#X connect 88 0 8 0;
#X connect 89 0 9 0;
#X connect 90 0 6 0;
#X connect 91 0 4 0;
#X connect 92 0 5 0;
#X connect 93 0 13 0;
#X connect 94 0 12 0;
#X connect 95 0 101 0;
#X connect 95 0 106 0;
#X connect 96 0 104 0;
#X connect 97 0 77 0;
#X connect 97 1 98 0;
#X connect 98 0 100 0;
#X connect 99 0 102 0;
#X connect 99 0 109 0;
#X connect 100 0 99 0;
#X connect 101 0 105 0;
#X connect 102 0 95 0;
#X connect 103 0 104 1;
#X connect 104 0 51 0;
#X connect 105 0 96 1;
#X connect 106 0 107 0;
#X connect 107 0 113 0;
#X connect 108 0 111 0;
#X connect 108 0 110 0;
#X connect 109 1 108 0;
#X connect 110 0 112 0;
#X connect 111 0 103 0;
#X connect 112 0 103 0;
#X connect 113 0 105 0;
#X connect 114 0 50 0;
#X connect 115 0 50 0;
#X connect 116 0 114 0;
#X connect 116 0 115 0;
#X connect 116 0 123 0;
#X connect 117 0 126 0;
#X connect 117 0 118 0;
#X connect 118 0 11 0;
#X connect 119 0 2 0;
#X connect 120 0 119 1;
#X connect 121 0 122 0;
#X connect 122 0 120 0;
#X connect 123 0 50 0;
#X connect 124 0 125 0;
#X connect 125 0 55 0;
#X connect 126 0 119 0;
