#N canvas -8 -8 1920 1037 12;
#X obj 94 -580 spigot;
#X obj 94 -559 s kt;
#X obj 94 -538 spigot;
#X obj 94 -517 s st;
#X obj 94 -496 spigot;
#X obj 94 -475 s sh;
#X obj 94 -606 t b b b;
#X obj 100 100 tgl 15 0 empty empty empty 17 7 0 10 -99865 -1 -1 0
1;
#X obj 100 -451 t f, f 1;
#X obj 100 130 tgl 15 0 empty pattern_hat_1 empty 17 7 0 10 -99865
-1 -1 0 1;
#X obj 100 -381 t f, f 1;
#X obj 100 115 tgl 15 0 empty empty empty 17 7 0 10 -99865 -1 -1 0
1;
#X obj 100 -416 t f, f 1;
#X obj 149 -580 spigot;
#X obj 149 -559 s kt;
#X obj 149 -538 spigot;
#X obj 149 -517 s st;
#X obj 149 -496 spigot;
#X obj 149 -475 s sh;
#X obj 149 -606 t b b b;
#X obj 115 100 tgl 15 0 empty empty empty 17 7 0 10 -262144 -1 -1 0
1;
#X obj 115 -451 t f, f 1;
#X obj 115 130 tgl 15 0 empty pattern_hat_2 empty 17 7 0 10 -262144
-1 -1 0 1;
#X obj 115 -381 t f, f 1;
#X obj 115 115 tgl 15 0 empty empty empty 17 7 0 10 -262144 -1 -1 0
1;
#X obj 115 -416 t f, f 1;
#X obj 204 -580 spigot;
#X obj 204 -559 s kt;
#X obj 204 -538 spigot;
#X obj 204 -517 s st;
#X obj 204 -496 spigot;
#X obj 204 -475 s sh;
#X obj 204 -606 t b b b;
#X obj 130 100 tgl 15 0 empty empty empty 17 7 0 10 -262144 -1 -1 0
1;
#X obj 130 -451 t f, f 1;
#X obj 130 130 tgl 15 0 empty pattern_hat_3 empty 17 7 0 10 -262144
-1 -1 0 1;
#X obj 130 -381 t f, f 1;
#X obj 130 115 tgl 15 0 empty empty empty 17 7 0 10 -262144 -1 -1 0
1;
#X obj 130 -416 t f, f 1;
#X obj 259 -580 spigot;
#X obj 259 -559 s kt;
#X obj 259 -538 spigot;
#X obj 259 -517 s st;
#X obj 259 -496 spigot;
#X obj 259 -475 s sh;
#X obj 259 -606 t b b b;
#X obj 145 100 tgl 15 0 empty empty empty 17 7 0 10 -262144 -1 -1 0
1;
#X obj 145 -451 t f, f 1;
#X obj 145 130 tgl 15 0 empty pattern_hat_4 empty 17 7 0 10 -262144
-1 -1 0 1;
#X obj 145 -381 t f, f 1;
#X obj 145 115 tgl 15 0 empty empty empty 17 7 0 10 -262144 -1 -1 0
1;
#X obj 145 -416 t f, f 1;
#X obj 314 -580 spigot;
#X obj 314 -559 s kt;
#X obj 314 -538 spigot;
#X obj 314 -517 s st;
#X obj 314 -496 spigot;
#X obj 314 -475 s sh;
#X obj 314 -606 t b b b;
#X obj 160 100 tgl 15 0 empty empty empty 17 7 0 10 -191407 -1 -1 0
1;
#X obj 160 -451 t f, f 1;
#X obj 160 130 tgl 15 0 empty pattern_hat_5 empty 17 7 0 10 -191407
-1 -1 0 1;
#X obj 160 -381 t f, f 1;
#X obj 160 115 tgl 15 0 empty empty empty 17 7 0 10 -191407 -1 -1 0
1;
#X obj 160 -416 t f, f 1;
#X obj 369 -580 spigot;
#X obj 369 -559 s kt;
#X obj 369 -538 spigot;
#X obj 369 -517 s st;
#X obj 369 -496 spigot;
#X obj 369 -475 s sh;
#X obj 369 -606 t b b b;
#X obj 175 100 tgl 15 0 empty empty empty 17 7 0 10 -262144 -1 -1 0
1;
#X obj 175 -451 t f, f 1;
#X obj 175 130 tgl 15 0 empty pattern_hat_6 empty 17 7 0 10 -262144
-1 -1 0 1;
#X obj 175 -381 t f, f 1;
#X obj 175 115 tgl 15 0 empty empty empty 17 7 0 10 -262144 -1 -1 0
1;
#X obj 175 -416 t f, f 1;
#X obj 424 -580 spigot;
#X obj 424 -559 s kt;
#X obj 424 -538 spigot;
#X obj 424 -517 s st;
#X obj 424 -496 spigot;
#X obj 424 -475 s sh;
#X obj 424 -606 t b b b;
#X obj 190 100 tgl 15 0 empty empty empty 17 7 0 10 -262144 -1 -1 0
1;
#X obj 190 -451 t f, f 1;
#X obj 190 130 tgl 15 0 empty pattern_hat_7 empty 17 7 0 10 -262144
-1 -1 0 1;
#X obj 190 -381 t f, f 1;
#X obj 190 115 tgl 15 0 empty empty empty 17 7 0 10 -262144 -1 -1 0
1;
#X obj 190 -416 t f, f 1;
#X obj 479 -580 spigot;
#X obj 479 -559 s kt;
#X obj 479 -538 spigot;
#X obj 479 -517 s st;
#X obj 479 -496 spigot;
#X obj 479 -475 s sh;
#X obj 479 -606 t b b b;
#X obj 205 100 tgl 15 0 empty empty empty 17 7 0 10 -262144 -1 -1 0
1;
#X obj 205 -451 t f, f 1;
#X obj 205 130 tgl 15 0 empty pattern_hat_8 empty 17 7 0 10 -262144
-1 -1 0 1;
#X obj 205 -381 t f, f 1;
#X obj 205 115 tgl 15 0 empty empty empty 17 7 0 10 -262144 -1 -1 0
1;
#X obj 205 -416 t f, f 1;
#X obj 534 -580 spigot;
#X obj 534 -559 s kt;
#X obj 534 -538 spigot;
#X obj 534 -517 s st;
#X obj 534 -496 spigot;
#X obj 534 -475 s sh;
#X obj 534 -606 t b b b;
#X obj 220 100 tgl 15 0 empty empty empty 17 7 0 10 -191407 -1 -1 0
1;
#X obj 220 -451 t f, f 1;
#X obj 220 130 tgl 15 0 empty pattern_hat_9 empty 17 7 0 10 -191407
-1 -1 0 1;
#X obj 220 -381 t f, f 1;
#X obj 220 115 tgl 15 0 empty empty empty 17 7 0 10 -191407 -1 -1 0
1;
#X obj 220 -416 t f, f 1;
#X obj 589 -580 spigot;
#X obj 589 -559 s kt;
#X obj 589 -538 spigot;
#X obj 589 -517 s st;
#X obj 589 -496 spigot;
#X obj 589 -475 s sh;
#X obj 589 -606 t b b b;
#X obj 235 100 tgl 15 0 empty empty empty 17 7 0 10 -262144 -1 -1 0
1;
#X obj 235 -451 t f, f 1;
#X obj 235 130 tgl 15 0 empty pattern_hat_10 empty 17 7 0 10 -262144
-1 -1 0 1;
#X obj 235 -381 t f, f 1;
#X obj 235 115 tgl 15 0 empty empty empty 17 7 0 10 -262144 -1 -1 0
1;
#X obj 235 -416 t f, f 1;
#X obj 644 -580 spigot;
#X obj 644 -559 s kt;
#X obj 644 -538 spigot;
#X obj 644 -517 s st;
#X obj 644 -496 spigot;
#X obj 644 -475 s sh;
#X obj 644 -606 t b b b;
#X obj 250 100 tgl 15 0 empty empty empty 17 7 0 10 -262144 -1 -1 0
1;
#X obj 250 -451 t f, f 1;
#X obj 250 130 tgl 15 0 empty pattern_hat_11 empty 17 7 0 10 -262144
-1 -1 0 1;
#X obj 250 -381 t f, f 1;
#X obj 250 115 tgl 15 0 empty empty empty 17 7 0 10 -262144 -1 -1 0
1;
#X obj 250 -416 t f, f 1;
#X obj 699 -580 spigot;
#X obj 699 -559 s kt;
#X obj 699 -538 spigot;
#X obj 699 -517 s st;
#X obj 699 -496 spigot;
#X obj 699 -475 s sh;
#X obj 699 -606 t b b b;
#X obj 265 100 tgl 15 0 empty empty empty 17 7 0 10 -262144 -1 -1 0
1;
#X obj 265 -451 t f, f 1;
#X obj 265 130 tgl 15 0 empty pattern_hat_12 empty 17 7 0 10 -262144
-1 -1 0 1;
#X obj 265 -381 t f, f 1;
#X obj 265 115 tgl 15 0 empty empty empty 17 7 0 10 -262144 -1 -1 0
1;
#X obj 265 -416 t f, f 1;
#X obj 754 -580 spigot;
#X obj 754 -559 s kt;
#X obj 754 -538 spigot;
#X obj 754 -517 s st;
#X obj 754 -496 spigot;
#X obj 754 -475 s sh;
#X obj 754 -606 t b b b;
#X obj 280 100 tgl 15 0 empty empty empty 17 7 0 10 -191407 -1 -1 0
1;
#X obj 280 -451 t f, f 1;
#X obj 280 130 tgl 15 0 empty pattern_hat_13 empty 17 7 0 10 -191407
-1 -1 0 1;
#X obj 280 -381 t f, f 1;
#X obj 280 115 tgl 15 0 empty empty empty 17 7 0 10 -191407 -1 -1 0
1;
#X obj 280 -416 t f, f 1;
#X obj 809 -580 spigot;
#X obj 809 -559 s kt;
#X obj 809 -538 spigot;
#X obj 809 -517 s st;
#X obj 809 -496 spigot;
#X obj 809 -475 s sh;
#X obj 809 -606 t b b b;
#X obj 295 100 tgl 15 0 empty empty empty 17 7 0 10 -262144 -1 -1 0
1;
#X obj 295 -451 t f, f 1;
#X obj 295 130 tgl 15 0 empty pattern_hat_14 empty 17 7 0 10 -262144
-1 -1 0 1;
#X obj 295 -381 t f, f 1;
#X obj 295 115 tgl 15 0 empty empty empty 17 7 0 10 -262144 -1 -1 0
1;
#X obj 295 -416 t f, f 1;
#X obj 864 -580 spigot;
#X obj 864 -559 s kt;
#X obj 864 -538 spigot;
#X obj 864 -517 s st;
#X obj 864 -496 spigot;
#X obj 864 -475 s sh;
#X obj 864 -606 t b b b;
#X obj 310 100 tgl 15 0 empty empty empty 17 7 0 10 -262144 -1 -1 0
1;
#X obj 310 -451 t f, f 1;
#X obj 310 130 tgl 15 0 empty pattern_hat_15 empty 17 7 0 10 -262144
-1 -1 0 1;
#X obj 310 -381 t f, f 1;
#X obj 310 115 tgl 15 0 empty empty empty 17 7 0 10 -262144 -1 -1 0
1;
#X obj 310 -416 t f, f 1;
#X obj 919 -580 spigot;
#X obj 919 -559 s kt;
#X obj 919 -538 spigot;
#X obj 919 -517 s st;
#X obj 919 -496 spigot;
#X obj 919 -475 s sh;
#X obj 919 -606 t b b b;
#X obj 325 100 tgl 15 0 empty empty empty 17 7 0 10 -262144 -1 -1 0
1;
#X obj 325 -451 t f, f 1;
#X obj 325 130 tgl 15 0 empty pattern_hat_16 empty 17 7 0 10 -262144
-1 -1 0 1;
#X obj 325 -381 t f, f 1;
#X obj 325 115 tgl 15 0 empty empty empty 17 7 0 10 -262144 -1 -1 0
1;
#X obj 325 -416 t f, f 1;
#X obj 974 -580 spigot;
#X obj 974 -559 s kt;
#X obj 974 -538 spigot;
#X obj 974 -517 s st;
#X obj 974 -496 spigot;
#X obj 974 -475 s sh;
#X obj 974 -606 t b b b;
#X obj 340 100 tgl 15 0 empty empty empty 17 7 0 10 -99865 -1 -1 0
1;
#X obj 340 -451 t f, f 1;
#X obj 340 130 tgl 15 0 empty pattern_hat_17 empty 17 7 0 10 -99865
-1 -1 0 1;
#X obj 340 -381 t f, f 1;
#X obj 340 115 tgl 15 0 empty empty empty 17 7 0 10 -99865 -1 -1 0
1;
#X obj 340 -416 t f, f 1;
#X obj 1029 -580 spigot;
#X obj 1029 -559 s kt;
#X obj 1029 -538 spigot;
#X obj 1029 -517 s st;
#X obj 1029 -496 spigot;
#X obj 1029 -475 s sh;
#X obj 1029 -606 t b b b;
#X obj 355 100 tgl 15 0 empty empty empty 17 7 0 10 -262144 -1 -1 0
1;
#X obj 354 -451 t f, f 1;
#X obj 355 130 tgl 15 0 empty pattern_hat_18 empty 17 7 0 10 -262144
-1 -1 0 1;
#X obj 354 -381 t f, f 1;
#X obj 355 115 tgl 15 0 empty empty empty 17 7 0 10 -262144 -1 -1 0
1;
#X obj 354 -416 t f, f 1;
#X obj 1084 -580 spigot;
#X obj 1084 -559 s kt;
#X obj 1084 -538 spigot;
#X obj 1084 -517 s st;
#X obj 1084 -496 spigot;
#X obj 1084 -475 s sh;
#X obj 1084 -606 t b b b;
#X obj 370 100 tgl 15 0 empty empty empty 17 7 0 10 -262144 -1 -1 0
1;
#X obj 370 -451 t f, f 1;
#X obj 370 130 tgl 15 0 empty pattern_hat_19 empty 17 7 0 10 -262144
-1 -1 0 1;
#X obj 370 -381 t f, f 1;
#X obj 370 115 tgl 15 0 empty empty empty 17 7 0 10 -262144 -1 -1 0
1;
#X obj 370 -416 t f, f 1;
#X obj 1139 -580 spigot;
#X obj 1139 -559 s kt;
#X obj 1139 -538 spigot;
#X obj 1139 -517 s st;
#X obj 1139 -496 spigot;
#X obj 1139 -475 s sh;
#X obj 1139 -606 t b b b;
#X obj 385 100 tgl 15 0 empty empty empty 17 7 0 10 -262144 -1 -1 0
1;
#X obj 384 -451 t f, f 1;
#X obj 385 130 tgl 15 0 empty pattern_hat_20 empty 17 7 0 10 -262144
-1 -1 0 1;
#X obj 384 -381 t f, f 1;
#X obj 385 115 tgl 15 0 empty empty empty 17 7 0 10 -262144 -1 -1 0
1;
#X obj 384 -416 t f, f 1;
#X obj 1194 -580 spigot;
#X obj 1194 -559 s kt;
#X obj 1194 -538 spigot;
#X obj 1194 -517 s st;
#X obj 1194 -496 spigot;
#X obj 1194 -475 s sh;
#X obj 1194 -606 t b b b;
#X obj 400 100 tgl 15 0 empty empty empty 17 7 0 10 -191407 -1 -1 0
1;
#X obj 399 -451 t f, f 1;
#X obj 400 130 tgl 15 0 empty pattern_hat_21 empty 17 7 0 10 -191407
-1 -1 0 1;
#X obj 399 -381 t f, f 1;
#X obj 400 115 tgl 15 0 empty empty empty 17 7 0 10 -191407 -1 -1 0
1;
#X obj 399 -416 t f, f 1;
#X obj 1249 -580 spigot;
#X obj 1249 -559 s kt;
#X obj 1249 -538 spigot;
#X obj 1249 -517 s st;
#X obj 1249 -496 spigot;
#X obj 1249 -475 s sh;
#X obj 1249 -606 t b b b;
#X obj 415 100 tgl 15 0 empty empty empty 17 7 0 10 -262144 -1 -1 0
1;
#X obj 414 -451 t f, f 1;
#X obj 415 130 tgl 15 0 empty pattern_hat_22 empty 17 7 0 10 -262144
-1 -1 0 1;
#X obj 414 -381 t f, f 1;
#X obj 415 115 tgl 15 0 empty empty empty 17 7 0 10 -262144 -1 -1 0
1;
#X obj 414 -416 t f, f 1;
#X obj 1304 -580 spigot;
#X obj 1304 -559 s kt;
#X obj 1304 -538 spigot;
#X obj 1304 -517 s st;
#X obj 1304 -496 spigot;
#X obj 1304 -475 s sh;
#X obj 1304 -606 t b b b;
#X obj 430 100 tgl 15 0 empty empty empty 17 7 0 10 -262144 -1 -1 0
1;
#X obj 429 -451 t f, f 1;
#X obj 430 130 tgl 15 0 empty pattern_hat_23 empty 17 7 0 10 -262144
-1 -1 0 1;
#X obj 429 -381 t f, f 1;
#X obj 430 115 tgl 15 0 empty empty empty 17 7 0 10 -262144 -1 -1 0
1;
#X obj 429 -416 t f, f 1;
#X obj 1359 -580 spigot;
#X obj 1359 -559 s kt;
#X obj 1359 -538 spigot;
#X obj 1359 -517 s st;
#X obj 1359 -496 spigot;
#X obj 1359 -475 s sh;
#X obj 1359 -606 t b b b;
#X obj 445 100 tgl 15 0 empty empty empty 17 7 0 10 -262144 -1 -1 0
1;
#X obj 444 -451 t f, f 1;
#X obj 445 130 tgl 15 0 empty pattern_hat_24 empty 17 7 0 10 -262144
-1 -1 0 1;
#X obj 444 -381 t f, f 1;
#X obj 445 115 tgl 15 0 empty empty empty 17 7 0 10 -262144 -1 -1 0
1;
#X obj 444 -416 t f, f 1;
#X obj 1414 -580 spigot;
#X obj 1414 -559 s kt;
#X obj 1414 -538 spigot;
#X obj 1414 -517 s st;
#X obj 1414 -496 spigot;
#X obj 1414 -475 s sh;
#X obj 1414 -606 t b b b;
#X obj 460 100 tgl 15 0 empty empty empty 17 7 0 10 -191407 -1 -1 0
1;
#X obj 459 -451 t f, f 1;
#X obj 460 130 tgl 15 0 empty pattern_hat_25 empty 17 7 0 10 -191407
-1 -1 0 1;
#X obj 459 -381 t f, f 1;
#X obj 460 115 tgl 15 0 empty empty empty 17 7 0 10 -191407 -1 -1 0
1;
#X obj 459 -416 t f, f 1;
#X obj 1469 -580 spigot;
#X obj 1469 -559 s kt;
#X obj 1469 -538 spigot;
#X obj 1469 -517 s st;
#X obj 1469 -496 spigot;
#X obj 1469 -475 s sh;
#X obj 1469 -606 t b b b;
#X obj 475 100 tgl 15 0 empty empty empty 17 7 0 10 -262144 -1 -1 0
1;
#X obj 474 -451 t f, f 1;
#X obj 475 130 tgl 15 0 empty pattern_hat_26 empty 17 7 0 10 -262144
-1 -1 0 1;
#X obj 474 -381 t f, f 1;
#X obj 475 115 tgl 15 0 empty empty empty 17 7 0 10 -262144 -1 -1 0
1;
#X obj 474 -416 t f, f 1;
#X obj 1524 -580 spigot;
#X obj 1524 -559 s kt;
#X obj 1524 -538 spigot;
#X obj 1524 -517 s st;
#X obj 1524 -496 spigot;
#X obj 1524 -475 s sh;
#X obj 1524 -606 t b b b;
#X obj 490 100 tgl 15 0 empty empty empty 17 7 0 10 -262144 -1 -1 0
1;
#X obj 489 -451 t f, f 1;
#X obj 490 130 tgl 15 0 empty pattern_hat_27 empty 17 7 0 10 -262144
-1 -1 0 1;
#X obj 489 -381 t f, f 1;
#X obj 490 115 tgl 15 0 empty empty empty 17 7 0 10 -262144 -1 -1 0
1;
#X obj 489 -416 t f, f 1;
#X obj 1579 -580 spigot;
#X obj 1579 -559 s kt;
#X obj 1579 -538 spigot;
#X obj 1579 -517 s st;
#X obj 1579 -496 spigot;
#X obj 1579 -475 s sh;
#X obj 1579 -606 t b b b;
#X obj 505 100 tgl 15 0 empty empty empty 17 7 0 10 -262144 -1 -1 0
1;
#X obj 504 -451 t f, f 1;
#X obj 505 130 tgl 15 0 empty pattern_hat_28 empty 17 7 0 10 -262144
-1 -1 0 1;
#X obj 504 -381 t f, f 1;
#X obj 505 115 tgl 15 0 empty empty empty 17 7 0 10 -262144 -1 -1 0
1;
#X obj 504 -416 t f, f 1;
#X obj 1634 -580 spigot;
#X obj 1634 -559 s kt;
#X obj 1634 -538 spigot;
#X obj 1634 -517 s st;
#X obj 1634 -496 spigot;
#X obj 1634 -475 s sh;
#X obj 1634 -606 t b b b;
#X obj 520 100 tgl 15 0 empty empty empty 17 7 0 10 -191407 -1 -1 0
1;
#X obj 519 -451 t f, f 1;
#X obj 520 130 tgl 15 0 empty pattern_hat_29 empty 17 7 0 10 -191407
-1 -1 0 1;
#X obj 519 -381 t f, f 1;
#X obj 520 115 tgl 15 0 empty empty empty 17 7 0 10 -191407 -1 -1 0
1;
#X obj 519 -416 t f, f 1;
#X obj 1689 -580 spigot;
#X obj 1689 -559 s kt;
#X obj 1689 -538 spigot;
#X obj 1689 -517 s st;
#X obj 1689 -496 spigot;
#X obj 1689 -475 s sh;
#X obj 1689 -606 t b b b;
#X obj 535 100 tgl 15 0 empty empty empty 17 7 0 10 -262144 -1 -1 0
1;
#X obj 534 -451 t f, f 1;
#X obj 535 130 tgl 15 0 empty pattern_hat_30 empty 17 7 0 10 -262144
-1 -1 0 1;
#X obj 534 -381 t f, f 1;
#X obj 535 115 tgl 15 0 empty empty empty 17 7 0 10 -262144 -1 -1 0
1;
#X obj 534 -416 t f, f 1;
#X obj 1744 -580 spigot;
#X obj 1744 -559 s kt;
#X obj 1744 -538 spigot;
#X obj 1744 -517 s st;
#X obj 1744 -496 spigot;
#X obj 1744 -475 s sh;
#X obj 1744 -606 t b b b;
#X obj 550 100 tgl 15 0 empty empty empty 17 7 0 10 -262144 -1 -1 0
1;
#X obj 549 -451 t f, f 1;
#X obj 550 130 tgl 15 0 empty pattern_hat_31 empty 17 7 0 10 -262144
-1 -1 0 1;
#X obj 549 -381 t f, f 1;
#X obj 550 115 tgl 15 0 empty empty empty 17 7 0 10 -262144 -1 -1 0
1;
#X obj 549 -416 t f, f 1;
#X obj 1799 -580 spigot;
#X obj 1799 -559 s kt;
#X obj 1799 -538 spigot;
#X obj 1799 -517 s st;
#X obj 1799 -496 spigot;
#X obj 1799 -475 s sh;
#X obj 1799 -606 t b b b;
#X obj 565 100 tgl 15 0 empty empty empty 17 7 0 10 -262144 -1 -1 0
1;
#X obj 564 -451 t f, f 1;
#X obj 565 130 tgl 15 0 empty pattern_hat_32 empty 17 7 0 10 -262144
-1 -1 0 1;
#X obj 564 -381 t f, f 1;
#X obj 565 115 tgl 15 0 empty empty empty 17 7 0 10 -262144 -1 -1 0
1;
#X obj 564 -416 t f, f 1;
#X obj 98 -343 receive fromGUI;
#X obj 100 -320 list trim;
#X obj 100 -248 tgl 15 0 empty empty empty 17 7 0 10 -262144 -1 -1
0 1;
#X obj 100 -218 tgl 15 0 empty empty empty 17 7 0 10 -262144 -1 -1
0 1;
#X obj 100 -233 tgl 15 0 empty empty empty 17 7 0 10 -262144 -1 -1
0 1;
#X obj 115 -248 tgl 15 0 empty empty empty 17 7 0 10 -262144 -1 -1
0 1;
#X obj 115 -218 tgl 15 0 empty empty empty 17 7 0 10 -262144 -1 -1
0 1;
#X obj 115 -233 tgl 15 0 empty empty empty 17 7 0 10 -262144 -1 -1
0 1;
#X obj 130 -248 tgl 15 0 empty empty empty 17 7 0 10 -262144 -1 -1
0 1;
#X obj 130 -218 tgl 15 0 empty empty empty 17 7 0 10 -262144 -1 -1
0 1;
#X obj 130 -233 tgl 15 0 empty empty empty 17 7 0 10 -262144 -1 -1
0 1;
#X obj 145 -248 tgl 15 0 empty empty empty 17 7 0 10 -262144 -1 -1
0 1;
#X obj 145 -218 tgl 15 0 empty empty empty 17 7 0 10 -262144 -1 -1
0 1;
#X obj 145 -233 tgl 15 0 empty empty empty 17 7 0 10 -262144 -1 -1
0 1;
#X obj 160 -248 tgl 15 0 empty empty empty 17 7 0 10 -262144 -1 -1
0 1;
#X obj 160 -218 tgl 15 0 empty empty empty 17 7 0 10 -262144 -1 -1
0 1;
#X obj 160 -233 tgl 15 0 empty empty empty 17 7 0 10 -262144 -1 -1
0 1;
#X obj 175 -248 tgl 15 0 empty empty empty 17 7 0 10 -262144 -1 -1
0 1;
#X obj 175 -218 tgl 15 0 empty empty empty 17 7 0 10 -262144 -1 -1
0 1;
#X obj 175 -233 tgl 15 0 empty empty empty 17 7 0 10 -262144 -1 -1
0 1;
#X obj 190 -248 tgl 15 0 empty empty empty 17 7 0 10 -262144 -1 -1
0 1;
#X obj 190 -218 tgl 15 0 empty empty empty 17 7 0 10 -262144 -1 -1
0 1;
#X obj 190 -233 tgl 15 0 empty empty empty 17 7 0 10 -262144 -1 -1
0 1;
#X obj 205 -248 tgl 15 0 empty empty empty 17 7 0 10 -262144 -1 -1
0 1;
#X obj 205 -218 tgl 15 0 empty empty empty 17 7 0 10 -262144 -1 -1
0 1;
#X obj 205 -233 tgl 15 0 empty empty empty 17 7 0 10 -262144 -1 -1
0 1;
#X obj 220 -248 tgl 15 0 empty empty empty 17 7 0 10 -262144 -1 -1
0 1;
#X obj 220 -218 tgl 15 0 empty empty empty 17 7 0 10 -262144 -1 -1
0 1;
#X obj 220 -233 tgl 15 0 empty empty empty 17 7 0 10 -262144 -1 -1
0 1;
#X obj 235 -248 tgl 15 0 empty empty empty 17 7 0 10 -262144 -1 -1
0 1;
#X obj 235 -218 tgl 15 0 empty empty empty 17 7 0 10 -262144 -1 -1
0 1;
#X obj 235 -233 tgl 15 0 empty empty empty 17 7 0 10 -262144 -1 -1
0 1;
#X obj 250 -248 tgl 15 0 empty empty empty 17 7 0 10 -262144 -1 -1
0 1;
#X obj 250 -218 tgl 15 0 empty empty empty 17 7 0 10 -262144 -1 -1
0 1;
#X obj 250 -233 tgl 15 0 empty empty empty 17 7 0 10 -262144 -1 -1
0 1;
#X obj 265 -248 tgl 15 0 empty empty empty 17 7 0 10 -262144 -1 -1
0 1;
#X obj 265 -218 tgl 15 0 empty empty empty 17 7 0 10 -262144 -1 -1
0 1;
#X obj 265 -233 tgl 15 0 empty empty empty 17 7 0 10 -262144 -1 -1
0 1;
#X obj 280 -248 tgl 15 0 empty empty empty 17 7 0 10 -262144 -1 -1
0 1;
#X obj 280 -218 tgl 15 0 empty empty empty 17 7 0 10 -262144 -1 -1
0 1;
#X obj 280 -233 tgl 15 0 empty empty empty 17 7 0 10 -262144 -1 -1
0 1;
#X obj 295 -248 tgl 15 0 empty empty empty 17 7 0 10 -262144 -1 -1
0 1;
#X obj 295 -218 tgl 15 0 empty empty empty 17 7 0 10 -262144 -1 -1
0 1;
#X obj 295 -233 tgl 15 0 empty empty empty 17 7 0 10 -262144 -1 -1
0 1;
#X obj 310 -248 tgl 15 0 empty empty empty 17 7 0 10 -262144 -1 -1
0 1;
#X obj 310 -218 tgl 15 0 empty empty empty 17 7 0 10 -262144 -1 -1
0 1;
#X obj 310 -233 tgl 15 0 empty empty empty 17 7 0 10 -262144 -1 -1
0 1;
#X obj 325 -248 tgl 15 0 empty empty empty 17 7 0 10 -262144 -1 -1
0 1;
#X obj 325 -218 tgl 15 0 empty empty empty 17 7 0 10 -262144 -1 -1
0 1;
#X obj 325 -233 tgl 15 0 empty empty empty 17 7 0 10 -262144 -1 -1
0 1;
#X obj 100 -293 route /k1 \, /k2 \, /k3 \, /k4 \, /k5 \, /k6 \, /k7
\, /k8 \, /k9 \, /k10 \, /k11 \, /k12 \, /k13 \, /k14 \, /k15 \, /k16
\, /s1 \, /s2 \, /s3 \, /s4 \, /s5 \, /s6 \, /s7 \, /s8 \, /s9 \, /s10
\, /s11 \, /s12 \, /s13 \, /s14 \, /s15 \, /s16 \, /h1 \, /h2 \, /h3
\, /h4 \, /h5 \, /h6 \, /h7 \, /h8 \, /h9 \, /h10 \, /h11 \, /h12 \,
/h13 \, /h14 \, /h15 \, /h16, f 134;
#X obj 336 -171 receive fromGUI;
#X obj 340 -148 list trim;
#X obj 340 -63 tgl 15 0 empty empty empty 17 7 0 10 -262144 -1 -1 0
1;
#X obj 340 -33 tgl 15 0 empty empty empty 17 7 0 10 -262144 -1 -1 0
1;
#X obj 340 -48 tgl 15 0 empty empty empty 17 7 0 10 -262144 -1 -1 0
1;
#X obj 355 -63 tgl 15 0 empty empty empty 17 7 0 10 -262144 -1 -1 0
1;
#X obj 355 -33 tgl 15 0 empty empty empty 17 7 0 10 -262144 -1 -1 0
1;
#X obj 355 -48 tgl 15 0 empty empty empty 17 7 0 10 -262144 -1 -1 0
1;
#X obj 370 -63 tgl 15 0 empty empty empty 17 7 0 10 -262144 -1 -1 0
1;
#X obj 370 -33 tgl 15 0 empty empty empty 17 7 0 10 -262144 -1 -1 0
1;
#X obj 370 -48 tgl 15 0 empty empty empty 17 7 0 10 -262144 -1 -1 0
1;
#X obj 385 -63 tgl 15 0 empty empty empty 17 7 0 10 -262144 -1 -1 0
1;
#X obj 385 -33 tgl 15 0 empty empty empty 17 7 0 10 -262144 -1 -1 0
1;
#X obj 385 -48 tgl 15 0 empty empty empty 17 7 0 10 -262144 -1 -1 0
1;
#X obj 400 -63 tgl 15 0 empty empty empty 17 7 0 10 -262144 -1 -1 0
1;
#X obj 400 -33 tgl 15 0 empty empty empty 17 7 0 10 -262144 -1 -1 0
1;
#X obj 400 -48 tgl 15 0 empty empty empty 17 7 0 10 -262144 -1 -1 0
1;
#X obj 415 -63 tgl 15 0 empty empty empty 17 7 0 10 -262144 -1 -1 0
1;
#X obj 415 -33 tgl 15 0 empty empty empty 17 7 0 10 -262144 -1 -1 0
1;
#X obj 415 -48 tgl 15 0 empty empty empty 17 7 0 10 -262144 -1 -1 0
1;
#X obj 430 -63 tgl 15 0 empty empty empty 17 7 0 10 -262144 -1 -1 0
1;
#X obj 430 -33 tgl 15 0 empty empty empty 17 7 0 10 -262144 -1 -1 0
1;
#X obj 430 -48 tgl 15 0 empty empty empty 17 7 0 10 -262144 -1 -1 0
1;
#X obj 445 -63 tgl 15 0 empty empty empty 17 7 0 10 -262144 -1 -1 0
1;
#X obj 445 -33 tgl 15 0 empty empty empty 17 7 0 10 -262144 -1 -1 0
1;
#X obj 445 -48 tgl 15 0 empty empty empty 17 7 0 10 -262144 -1 -1 0
1;
#X obj 460 -63 tgl 15 0 empty empty empty 17 7 0 10 -262144 -1 -1 0
1;
#X obj 460 -33 tgl 15 0 empty empty empty 17 7 0 10 -262144 -1 -1 0
1;
#X obj 460 -48 tgl 15 0 empty empty empty 17 7 0 10 -262144 -1 -1 0
1;
#X obj 475 -63 tgl 15 0 empty empty empty 17 7 0 10 -262144 -1 -1 0
1;
#X obj 475 -33 tgl 15 0 empty empty empty 17 7 0 10 -262144 -1 -1 0
1;
#X obj 475 -48 tgl 15 0 empty empty empty 17 7 0 10 -262144 -1 -1 0
1;
#X obj 490 -63 tgl 15 0 empty empty empty 17 7 0 10 -262144 -1 -1 0
1;
#X obj 490 -33 tgl 15 0 empty empty empty 17 7 0 10 -262144 -1 -1 0
1;
#X obj 490 -48 tgl 15 0 empty empty empty 17 7 0 10 -262144 -1 -1 0
1;
#X obj 505 -63 tgl 15 0 empty empty empty 17 7 0 10 -262144 -1 -1 0
1;
#X obj 505 -33 tgl 15 0 empty empty empty 17 7 0 10 -262144 -1 -1 0
1;
#X obj 505 -48 tgl 15 0 empty empty empty 17 7 0 10 -262144 -1 -1 0
1;
#X obj 520 -63 tgl 15 0 empty empty empty 17 7 0 10 -262144 -1 -1 0
1;
#X obj 520 -33 tgl 15 0 empty empty empty 17 7 0 10 -262144 -1 -1 0
1;
#X obj 520 -48 tgl 15 0 empty empty empty 17 7 0 10 -262144 -1 -1 0
1;
#X obj 535 -63 tgl 15 0 empty empty empty 17 7 0 10 -262144 -1 -1 0
1;
#X obj 535 -33 tgl 15 0 empty empty empty 17 7 0 10 -262144 -1 -1 0
1;
#X obj 535 -48 tgl 15 0 empty empty empty 17 7 0 10 -262144 -1 -1 0
1;
#X obj 550 -63 tgl 15 0 empty empty empty 17 7 0 10 -262144 -1 -1 0
1;
#X obj 550 -33 tgl 15 0 empty empty empty 17 7 0 10 -262144 -1 -1 0
1;
#X obj 550 -48 tgl 15 0 empty empty empty 17 7 0 10 -262144 -1 -1 0
1;
#X obj 565 -63 tgl 15 0 empty empty empty 17 7 0 10 -262144 -1 -1 0
1;
#X obj 565 -33 tgl 15 0 empty empty empty 17 7 0 10 -262144 -1 -1 0
1;
#X obj 565 -48 tgl 15 0 empty empty empty 17 7 0 10 -262144 -1 -1 0
1;
#X obj 340 -121 route /kk1 \, /kk2 \, /kk3 \, /kk4 \, /kk5 \, /kk6
\, /kk7 \, /kk8 \, /kk9 \, /kk10 \, /kk11 \, /kk12 \, /kk13 \, /kk14
\, /kk15 \, /kk16 \, /ss1 \, /ss2 \, /ss3 \, /ss4 \, /ss5 \, /ss6 \,
/ss7 \, /ss8 \, /ss9 \, /ss10 \, /ss11 \, /ss12 \, /ss13 \, /ss14 \,
/ss15 \, /ss16 \, /hh1 \, /hh2 \, /hh3 \, /hh4 \, /hh5 \, /hh6 \, /hh7
\, /hh8 \, /hh9 \, /hh10 \, /hh11 \, /hh12 \, /hh13 \, /hh14 \, /hh15
\, /hh16, f 134;
#X obj 94 -636 sel 0 1 2 3 4 5 6 7 8 9 10 11 12 13 14 15 16 17 18 19
20 21 22 23 24 25 26 27 28 29 30 31 32, f 261;
#X obj 99 -668 inlet;
#X obj 100 144 hradio 15 1 0 32 empty empty empty 0 -8 0 10 -1 -262144
-1 0;
#X obj 141 386 tgl 15 0 empty empty empty 17 7 0 10 -262144 -1 -1 0
1;
#X obj 131 423 s pattern_snare_;
#X obj 177 338 metro 500;
#X obj 176 310 tgl 15 0 empty empty empty 17 7 0 10 -262144 -1 -1 1
1;
#X connect 0 0 1 0;
#X connect 2 0 3 0;
#X connect 4 0 5 0;
#X connect 6 0 0 0;
#X connect 6 1 2 0;
#X connect 6 2 4 0;
#X connect 7 0 8 0;
#X connect 8 0 0 1;
#X connect 9 0 10 0;
#X connect 10 0 4 1;
#X connect 11 0 12 0;
#X connect 12 0 2 1;
#X connect 13 0 14 0;
#X connect 15 0 16 0;
#X connect 17 0 18 0;
#X connect 19 0 13 0;
#X connect 19 1 15 0;
#X connect 19 2 17 0;
#X connect 20 0 21 0;
#X connect 21 0 13 1;
#X connect 22 0 23 0;
#X connect 23 0 17 1;
#X connect 24 0 25 0;
#X connect 25 0 15 1;
#X connect 26 0 27 0;
#X connect 28 0 29 0;
#X connect 30 0 31 0;
#X connect 32 0 26 0;
#X connect 32 1 28 0;
#X connect 32 2 30 0;
#X connect 33 0 34 0;
#X connect 34 0 26 1;
#X connect 35 0 36 0;
#X connect 36 0 30 1;
#X connect 37 0 38 0;
#X connect 38 0 28 1;
#X connect 39 0 40 0;
#X connect 41 0 42 0;
#X connect 43 0 44 0;
#X connect 45 0 39 0;
#X connect 45 1 41 0;
#X connect 45 2 43 0;
#X connect 46 0 47 0;
#X connect 47 0 39 1;
#X connect 48 0 49 0;
#X connect 49 0 43 1;
#X connect 50 0 51 0;
#X connect 51 0 41 1;
#X connect 52 0 53 0;
#X connect 54 0 55 0;
#X connect 56 0 57 0;
#X connect 58 0 52 0;
#X connect 58 1 54 0;
#X connect 58 2 56 0;
#X connect 59 0 60 0;
#X connect 60 0 52 1;
#X connect 61 0 62 0;
#X connect 62 0 56 1;
#X connect 63 0 64 0;
#X connect 64 0 54 1;
#X connect 65 0 66 0;
#X connect 67 0 68 0;
#X connect 69 0 70 0;
#X connect 71 0 65 0;
#X connect 71 1 67 0;
#X connect 71 2 69 0;
#X connect 72 0 73 0;
#X connect 73 0 65 1;
#X connect 74 0 75 0;
#X connect 75 0 69 1;
#X connect 76 0 77 0;
#X connect 77 0 67 1;
#X connect 78 0 79 0;
#X connect 80 0 81 0;
#X connect 82 0 83 0;
#X connect 84 0 78 0;
#X connect 84 1 80 0;
#X connect 84 2 82 0;
#X connect 85 0 86 0;
#X connect 86 0 78 1;
#X connect 87 0 88 0;
#X connect 88 0 82 1;
#X connect 89 0 90 0;
#X connect 90 0 80 1;
#X connect 91 0 92 0;
#X connect 93 0 94 0;
#X connect 95 0 96 0;
#X connect 97 0 91 0;
#X connect 97 1 93 0;
#X connect 97 2 95 0;
#X connect 98 0 99 0;
#X connect 99 0 91 1;
#X connect 100 0 101 0;
#X connect 101 0 95 1;
#X connect 102 0 103 0;
#X connect 103 0 93 1;
#X connect 104 0 105 0;
#X connect 106 0 107 0;
#X connect 108 0 109 0;
#X connect 110 0 104 0;
#X connect 110 1 106 0;
#X connect 110 2 108 0;
#X connect 111 0 112 0;
#X connect 112 0 104 1;
#X connect 113 0 114 0;
#X connect 114 0 108 1;
#X connect 115 0 116 0;
#X connect 116 0 106 1;
#X connect 117 0 118 0;
#X connect 119 0 120 0;
#X connect 121 0 122 0;
#X connect 123 0 117 0;
#X connect 123 1 119 0;
#X connect 123 2 121 0;
#X connect 124 0 125 0;
#X connect 125 0 117 1;
#X connect 126 0 127 0;
#X connect 127 0 121 1;
#X connect 128 0 129 0;
#X connect 129 0 119 1;
#X connect 130 0 131 0;
#X connect 132 0 133 0;
#X connect 134 0 135 0;
#X connect 136 0 130 0;
#X connect 136 1 132 0;
#X connect 136 2 134 0;
#X connect 137 0 138 0;
#X connect 138 0 130 1;
#X connect 139 0 140 0;
#X connect 140 0 134 1;
#X connect 141 0 142 0;
#X connect 142 0 132 1;
#X connect 143 0 144 0;
#X connect 145 0 146 0;
#X connect 147 0 148 0;
#X connect 149 0 143 0;
#X connect 149 1 145 0;
#X connect 149 2 147 0;
#X connect 150 0 151 0;
#X connect 151 0 143 1;
#X connect 152 0 153 0;
#X connect 153 0 147 1;
#X connect 154 0 155 0;
#X connect 155 0 145 1;
#X connect 156 0 157 0;
#X connect 158 0 159 0;
#X connect 160 0 161 0;
#X connect 162 0 156 0;
#X connect 162 1 158 0;
#X connect 162 2 160 0;
#X connect 163 0 164 0;
#X connect 164 0 156 1;
#X connect 165 0 166 0;
#X connect 166 0 160 1;
#X connect 167 0 168 0;
#X connect 168 0 158 1;
#X connect 169 0 170 0;
#X connect 171 0 172 0;
#X connect 173 0 174 0;
#X connect 175 0 169 0;
#X connect 175 1 171 0;
#X connect 175 2 173 0;
#X connect 176 0 177 0;
#X connect 177 0 169 1;
#X connect 178 0 179 0;
#X connect 179 0 173 1;
#X connect 180 0 181 0;
#X connect 181 0 171 1;
#X connect 182 0 183 0;
#X connect 184 0 185 0;
#X connect 186 0 187 0;
#X connect 188 0 182 0;
#X connect 188 1 184 0;
#X connect 188 2 186 0;
#X connect 189 0 190 0;
#X connect 190 0 182 1;
#X connect 191 0 192 0;
#X connect 192 0 186 1;
#X connect 193 0 194 0;
#X connect 194 0 184 1;
#X connect 195 0 196 0;
#X connect 197 0 198 0;
#X connect 199 0 200 0;
#X connect 201 0 195 0;
#X connect 201 1 197 0;
#X connect 201 2 199 0;
#X connect 202 0 203 0;
#X connect 203 0 195 1;
#X connect 204 0 205 0;
#X connect 205 0 199 1;
#X connect 206 0 207 0;
#X connect 207 0 197 1;
#X connect 208 0 209 0;
#X connect 210 0 211 0;
#X connect 212 0 213 0;
#X connect 214 0 208 0;
#X connect 214 1 210 0;
#X connect 214 2 212 0;
#X connect 215 0 216 0;
#X connect 216 0 208 1;
#X connect 217 0 218 0;
#X connect 218 0 212 1;
#X connect 219 0 220 0;
#X connect 220 0 210 1;
#X connect 221 0 222 0;
#X connect 223 0 224 0;
#X connect 225 0 226 0;
#X connect 227 0 221 0;
#X connect 227 1 223 0;
#X connect 227 2 225 0;
#X connect 228 0 229 0;
#X connect 229 0 221 1;
#X connect 230 0 231 0;
#X connect 231 0 225 1;
#X connect 232 0 233 0;
#X connect 233 0 223 1;
#X connect 234 0 235 0;
#X connect 236 0 237 0;
#X connect 238 0 239 0;
#X connect 240 0 234 0;
#X connect 240 1 236 0;
#X connect 240 2 238 0;
#X connect 241 0 242 0;
#X connect 242 0 234 1;
#X connect 243 0 244 0;
#X connect 244 0 238 1;
#X connect 245 0 246 0;
#X connect 246 0 236 1;
#X connect 247 0 248 0;
#X connect 249 0 250 0;
#X connect 251 0 252 0;
#X connect 253 0 247 0;
#X connect 253 1 249 0;
#X connect 253 2 251 0;
#X connect 254 0 255 0;
#X connect 255 0 247 1;
#X connect 256 0 257 0;
#X connect 257 0 251 1;
#X connect 258 0 259 0;
#X connect 259 0 249 1;
#X connect 260 0 261 0;
#X connect 262 0 263 0;
#X connect 264 0 265 0;
#X connect 266 0 260 0;
#X connect 266 1 262 0;
#X connect 266 2 264 0;
#X connect 267 0 268 0;
#X connect 268 0 260 1;
#X connect 269 0 270 0;
#X connect 270 0 264 1;
#X connect 271 0 272 0;
#X connect 272 0 262 1;
#X connect 273 0 274 0;
#X connect 275 0 276 0;
#X connect 277 0 278 0;
#X connect 279 0 273 0;
#X connect 279 1 275 0;
#X connect 279 2 277 0;
#X connect 280 0 281 0;
#X connect 281 0 273 1;
#X connect 282 0 283 0;
#X connect 283 0 277 1;
#X connect 284 0 285 0;
#X connect 285 0 275 1;
#X connect 286 0 287 0;
#X connect 288 0 289 0;
#X connect 290 0 291 0;
#X connect 292 0 286 0;
#X connect 292 1 288 0;
#X connect 292 2 290 0;
#X connect 293 0 294 0;
#X connect 294 0 286 1;
#X connect 295 0 296 0;
#X connect 296 0 290 1;
#X connect 297 0 298 0;
#X connect 298 0 288 1;
#X connect 299 0 300 0;
#X connect 301 0 302 0;
#X connect 303 0 304 0;
#X connect 305 0 299 0;
#X connect 305 1 301 0;
#X connect 305 2 303 0;
#X connect 306 0 307 0;
#X connect 307 0 299 1;
#X connect 308 0 309 0;
#X connect 309 0 303 1;
#X connect 310 0 311 0;
#X connect 311 0 301 1;
#X connect 312 0 313 0;
#X connect 314 0 315 0;
#X connect 316 0 317 0;
#X connect 318 0 312 0;
#X connect 318 1 314 0;
#X connect 318 2 316 0;
#X connect 319 0 320 0;
#X connect 320 0 312 1;
#X connect 321 0 322 0;
#X connect 322 0 316 1;
#X connect 323 0 324 0;
#X connect 324 0 314 1;
#X connect 325 0 326 0;
#X connect 327 0 328 0;
#X connect 329 0 330 0;
#X connect 331 0 325 0;
#X connect 331 1 327 0;
#X connect 331 2 329 0;
#X connect 332 0 333 0;
#X connect 333 0 325 1;
#X connect 334 0 335 0;
#X connect 335 0 329 1;
#X connect 336 0 337 0;
#X connect 337 0 327 1;
#X connect 338 0 339 0;
#X connect 340 0 341 0;
#X connect 342 0 343 0;
#X connect 344 0 338 0;
#X connect 344 1 340 0;
#X connect 344 2 342 0;
#X connect 345 0 346 0;
#X connect 346 0 338 1;
#X connect 347 0 348 0;
#X connect 348 0 342 1;
#X connect 349 0 350 0;
#X connect 350 0 340 1;
#X connect 351 0 352 0;
#X connect 353 0 354 0;
#X connect 355 0 356 0;
#X connect 357 0 351 0;
#X connect 357 1 353 0;
#X connect 357 2 355 0;
#X connect 358 0 359 0;
#X connect 359 0 351 1;
#X connect 360 0 361 0;
#X connect 361 0 355 1;
#X connect 362 0 363 0;
#X connect 363 0 353 1;
#X connect 364 0 365 0;
#X connect 366 0 367 0;
#X connect 368 0 369 0;
#X connect 370 0 364 0;
#X connect 370 1 366 0;
#X connect 370 2 368 0;
#X connect 371 0 372 0;
#X connect 372 0 364 1;
#X connect 373 0 374 0;
#X connect 374 0 368 1;
#X connect 375 0 376 0;
#X connect 376 0 366 1;
#X connect 377 0 378 0;
#X connect 379 0 380 0;
#X connect 381 0 382 0;
#X connect 383 0 377 0;
#X connect 383 1 379 0;
#X connect 383 2 381 0;
#X connect 384 0 385 0;
#X connect 385 0 377 1;
#X connect 386 0 387 0;
#X connect 387 0 381 1;
#X connect 388 0 389 0;
#X connect 389 0 379 1;
#X connect 390 0 391 0;
#X connect 392 0 393 0;
#X connect 394 0 395 0;
#X connect 396 0 390 0;
#X connect 396 1 392 0;
#X connect 396 2 394 0;
#X connect 397 0 398 0;
#X connect 398 0 390 1;
#X connect 399 0 400 0;
#X connect 400 0 394 1;
#X connect 401 0 402 0;
#X connect 402 0 392 1;
#X connect 403 0 404 0;
#X connect 405 0 406 0;
#X connect 407 0 408 0;
#X connect 409 0 403 0;
#X connect 409 1 405 0;
#X connect 409 2 407 0;
#X connect 410 0 411 0;
#X connect 411 0 403 1;
#X connect 412 0 413 0;
#X connect 413 0 407 1;
#X connect 414 0 415 0;
#X connect 415 0 405 1;
#X connect 416 0 417 0;
#X connect 417 0 466 0;
#X connect 418 0 7 0;
#X connect 419 0 9 0;
#X connect 420 0 11 0;
#X connect 421 0 20 0;
#X connect 422 0 22 0;
#X connect 423 0 24 0;
#X connect 424 0 33 0;
#X connect 425 0 35 0;
#X connect 426 0 37 0;
#X connect 427 0 46 0;
#X connect 428 0 48 0;
#X connect 429 0 50 0;
#X connect 430 0 59 0;
#X connect 431 0 61 0;
#X connect 432 0 63 0;
#X connect 433 0 72 0;
#X connect 434 0 74 0;
#X connect 435 0 76 0;
#X connect 436 0 85 0;
#X connect 437 0 87 0;
#X connect 438 0 89 0;
#X connect 439 0 98 0;
#X connect 440 0 100 0;
#X connect 441 0 102 0;
#X connect 442 0 111 0;
#X connect 443 0 113 0;
#X connect 444 0 115 0;
#X connect 445 0 124 0;
#X connect 446 0 126 0;
#X connect 447 0 128 0;
#X connect 448 0 137 0;
#X connect 449 0 139 0;
#X connect 450 0 141 0;
#X connect 451 0 150 0;
#X connect 452 0 152 0;
#X connect 453 0 154 0;
#X connect 454 0 163 0;
#X connect 455 0 165 0;
#X connect 456 0 167 0;
#X connect 457 0 176 0;
#X connect 458 0 178 0;
#X connect 459 0 180 0;
#X connect 460 0 189 0;
#X connect 461 0 191 0;
#X connect 462 0 193 0;
#X connect 463 0 202 0;
#X connect 464 0 204 0;
#X connect 465 0 206 0;
#X connect 466 0 418 0;
#X connect 466 2 421 0;
#X connect 466 4 424 0;
#X connect 466 6 427 0;
#X connect 466 8 430 0;
#X connect 466 10 433 0;
#X connect 466 12 436 0;
#X connect 466 14 439 0;
#X connect 466 16 442 0;
#X connect 466 18 445 0;
#X connect 466 20 448 0;
#X connect 466 22 451 0;
#X connect 466 24 454 0;
#X connect 466 26 457 0;
#X connect 466 28 460 0;
#X connect 466 30 463 0;
#X connect 466 32 420 0;
#X connect 466 34 423 0;
#X connect 466 36 426 0;
#X connect 466 38 429 0;
#X connect 466 40 432 0;
#X connect 466 42 435 0;
#X connect 466 44 438 0;
#X connect 466 46 441 0;
#X connect 466 48 444 0;
#X connect 466 50 447 0;
#X connect 466 52 450 0;
#X connect 466 54 453 0;
#X connect 466 56 456 0;
#X connect 466 58 459 0;
#X connect 466 60 462 0;
#X connect 466 62 465 0;
#X connect 466 64 419 0;
#X connect 466 66 422 0;
#X connect 466 68 425 0;
#X connect 466 70 428 0;
#X connect 466 72 431 0;
#X connect 466 74 434 0;
#X connect 466 76 437 0;
#X connect 466 78 440 0;
#X connect 466 80 443 0;
#X connect 466 82 446 0;
#X connect 466 84 449 0;
#X connect 466 86 452 0;
#X connect 466 88 455 0;
#X connect 466 90 458 0;
#X connect 466 92 461 0;
#X connect 466 94 464 0;
#X connect 467 0 468 0;
#X connect 468 0 517 0;
#X connect 469 0 215 0;
#X connect 470 0 217 0;
#X connect 471 0 219 0;
#X connect 472 0 228 0;
#X connect 473 0 230 0;
#X connect 474 0 232 0;
#X connect 475 0 241 0;
#X connect 476 0 243 0;
#X connect 477 0 245 0;
#X connect 478 0 254 0;
#X connect 479 0 256 0;
#X connect 480 0 258 0;
#X connect 481 0 267 0;
#X connect 482 0 269 0;
#X connect 483 0 271 0;
#X connect 484 0 280 0;
#X connect 485 0 282 0;
#X connect 486 0 284 0;
#X connect 487 0 293 0;
#X connect 488 0 295 0;
#X connect 489 0 297 0;
#X connect 490 0 306 0;
#X connect 491 0 308 0;
#X connect 492 0 310 0;
#X connect 493 0 319 0;
#X connect 494 0 321 0;
#X connect 495 0 323 0;
#X connect 496 0 332 0;
#X connect 497 0 334 0;
#X connect 498 0 336 0;
#X connect 499 0 345 0;
#X connect 500 0 347 0;
#X connect 501 0 349 0;
#X connect 502 0 358 0;
#X connect 503 0 360 0;
#X connect 504 0 362 0;
#X connect 505 0 371 0;
#X connect 506 0 373 0;
#X connect 507 0 375 0;
#X connect 508 0 384 0;
#X connect 509 0 386 0;
#X connect 510 0 388 0;
#X connect 511 0 397 0;
#X connect 512 0 399 0;
#X connect 513 0 401 0;
#X connect 514 0 410 0;
#X connect 515 0 412 0;
#X connect 516 0 414 0;
#X connect 517 0 469 0;
#X connect 517 2 472 0;
#X connect 517 4 475 0;
#X connect 517 6 478 0;
#X connect 517 8 481 0;
#X connect 517 10 484 0;
#X connect 517 12 487 0;
#X connect 517 14 490 0;
#X connect 517 16 493 0;
#X connect 517 18 496 0;
#X connect 517 20 499 0;
#X connect 517 22 502 0;
#X connect 517 24 505 0;
#X connect 517 26 508 0;
#X connect 517 28 511 0;
#X connect 517 30 514 0;
#X connect 517 32 471 0;
#X connect 517 34 474 0;
#X connect 517 36 477 0;
#X connect 517 38 480 0;
#X connect 517 40 483 0;
#X connect 517 42 486 0;
#X connect 517 44 489 0;
#X connect 517 46 492 0;
#X connect 517 48 495 0;
#X connect 517 50 498 0;
#X connect 517 52 501 0;
#X connect 517 54 504 0;
#X connect 517 56 507 0;
#X connect 517 58 510 0;
#X connect 517 60 513 0;
#X connect 517 62 516 0;
#X connect 517 64 470 0;
#X connect 517 66 473 0;
#X connect 517 68 476 0;
#X connect 517 70 479 0;
#X connect 517 72 482 0;
#X connect 517 74 485 0;
#X connect 517 76 488 0;
#X connect 517 78 491 0;
#X connect 517 80 494 0;
#X connect 517 82 497 0;
#X connect 517 84 500 0;
#X connect 517 86 503 0;
#X connect 517 88 506 0;
#X connect 517 90 509 0;
#X connect 517 92 512 0;
#X connect 517 94 515 0;
#X connect 518 0 6 0;
#X connect 518 1 19 0;
#X connect 518 2 32 0;
#X connect 518 3 45 0;
#X connect 518 4 58 0;
#X connect 518 5 71 0;
#X connect 518 6 84 0;
#X connect 518 7 97 0;
#X connect 518 8 110 0;
#X connect 518 9 123 0;
#X connect 518 10 136 0;
#X connect 518 11 149 0;
#X connect 518 12 162 0;
#X connect 518 13 175 0;
#X connect 518 14 188 0;
#X connect 518 15 201 0;
#X connect 518 16 214 0;
#X connect 518 17 227 0;
#X connect 518 18 240 0;
#X connect 518 19 253 0;
#X connect 518 20 266 0;
#X connect 518 21 279 0;
#X connect 518 22 292 0;
#X connect 518 23 305 0;
#X connect 518 24 318 0;
#X connect 518 25 331 0;
#X connect 518 26 344 0;
#X connect 518 27 357 0;
#X connect 518 28 370 0;
#X connect 518 29 383 0;
#X connect 518 30 396 0;
#X connect 518 31 409 0;
#X connect 519 0 518 0;
#X connect 519 0 520 0;
#X connect 521 0 522 0;
#X connect 523 0 521 0;
#X connect 524 0 523 0;
