#N canvas 1912 -8 1600 857 12;
#X obj 10 111 hradio 15 1 0 32 empty empty empty 0 -8 0 10 -262144
-1 -1 25;
#N canvas -8 -8 1920 1037 counter 0;
#X msg 508 160 tempo \$1 permin;
#X obj 370 273 f;
#X obj 399 273 + 1;
#X obj 370 341 mod 16;
#X floatatom 370 367 5 0 0 0 - - -;
#X obj 370 173 t f b;
#X msg 624 192 0;
#X obj 370 209 metro 0.25 120 permin;
#X obj 370 393 outlet;
#X obj 110 125 hradio 15 1 0 2 empty empty empty 0 -8 0 10 -262144
-1 -1 1;
#X text 142 123 16/32 steps;
#X floatatom 111 323 5 0 0 0 - - -;
#X obj 111 344 sel 0 1;
#X msg 111 367 16;
#X msg 147 368 32;
#X obj -29 55 loadbang;
#X msg -23 -62 0;
#X obj 111 392 t f;
#X floatatom 111 413 5 0 0 0 - - -;
#X obj 111 434 s setSteps;
#X obj 409 302 r setSteps;
#X text 144 106 on/off;
#X obj 125 108 tgl 15 0 empty empty empty 17 7 0 10 -262144 -1 -1 0
1;
#X floatatom 244 324 5 0 0 0 - - -;
#X obj 244 352 s pwrOnOff;
#X obj 370 81 r pwrOnOff;
#X floatatom 103 142 5 0 900 0 - - -;
#X obj -82 155 s setBPM;
#X obj 508 128 r setBPM;
#X msg -29 80 120;
#X text 142 141 BPM;
#X obj 286 -115 key;
#X obj 286 -93 sel 32;
#X obj 286 -50 bng 15 250 50 0 empty empty empty 17 7 0 10 -262144
-1 -1;
#X obj 793 63 keyname;
#X obj 840 112 sel Left Right;
#X obj 840 182 bng 15 250 50 0 empty empty empty 17 7 0 10 -262144
-1 -1;
#X obj 887 183 bng 15 250 50 0 empty empty empty 17 7 0 10 -262144
-1 -1;
#X obj 846 136 r currBPMn;
#X floatatom 876 221 5 0 0 0 - - -;
#X obj 876 251 t f b;
#X floatatom 876 293 5 0 0 0 - - -;
#X obj 877 318 spigot;
#X obj 877 347 + 1;
#X floatatom 877 371 5 0 0 0 - - -;
#X obj 877 395 s setBPMn;
#X obj -110 81 r setBPMn;
#X floatatom 800 219 5 0 0 0 - - -;
#X obj 800 249 t f b;
#X floatatom 800 291 5 0 0 0 - - -;
#X obj 801 316 spigot;
#X floatatom 801 369 5 0 0 0 - - -;
#X obj 801 393 s setBPMn;
#X obj 801 345 - 1;
#X obj 850 277 bng 15 250 50 0 empty empty empty 17 7 0 10 -262144
-1 -1;
#X obj 916 275 bng 15 250 50 0 empty empty empty 17 7 0 10 -262144
-1 -1;
#X obj -76 -202 keyname;
#X obj -76 -126 bng 15 250 50 0 empty empty empty 17 7 0 10 -262144
-1 -1;
#X obj -44 -126 bng 15 250 50 0 empty empty empty 17 7 0 10 -262144
-1 -1;
#X obj -76 -179 sel Up Down, f 14;
#X msg -76 -108 0;
#X msg -44 -108 1;
#X obj -76 -83 hradio 15 1 0 2 empty empty empty 0 -8 0 10 -262144
-1 -1 0;
#X obj 589 283 r enableKeys;
#X floatatom 589 304 5 0 0 0 - - -;
#X obj 582 337 spigot;
#X obj 29 -199 r enableKeys;
#X floatatom 29 -178 5 0 0 0 - - -;
#X obj -76 -150 spigot;
#X obj -28 -150 spigot;
#X obj 338 -113 r enableKeys;
#X floatatom 338 -92 5 0 0 0 - - -;
#X obj 286 -71 spigot;
#X obj -220 -387 receive fromGUI;
#X obj -220 -362 list trim;
#X obj -217 -337 route /bpmDisplay /setBpmKnob /OnOffGui, f 74;
#X obj -217 362 send toGUI;
#X msg -217 335 list /bpmDisplay BPM: \$1;
#X floatatom -187 286 5 0 0 0 - - -;
#X obj -23 -86 loadbang;
#X msg 217 -53 0;
#X obj 217 -77 loadbang;
#X obj -163 -280 f;
#X obj -163 93 f;
#X obj 450 394 s euclidTempo;
#X obj 174 -224 receive fromGUI;
#X obj 174 -201 list trim;
#X obj 174 -174 route /OnOffGui;
#X obj 174 -146 tgl 15 0 empty empty empty 17 7 0 10 -262144 -1 -1
0 1;
#X obj -113 -277 receive fromGUI;
#X obj -113 -254 list trim;
#X obj -113 -227 route /stepAmm;
#X obj -113 -201 hradio 15 1 0 2 empty empty empty 0 -8 0 10 -262144
-1 -1 0;
#X obj -200 -50 receive fromGUI;
#X obj -200 -27 list trim;
#X obj -200 0 route /setBpmKnob;
#X floatatom -200 25 5 0 0 0 - - -;
#X obj -59 306 send toGUI;
#X msg -59 280 list /setBpmKnob 60;
#X obj -59 247 loadbang;
#X connect 0 0 7 0;
#X connect 1 0 2 0;
#X connect 1 0 3 0;
#X connect 2 0 1 1;
#X connect 3 0 4 0;
#X connect 4 0 8 0;
#X connect 4 0 84 0;
#X connect 5 0 7 0;
#X connect 5 1 6 0;
#X connect 6 0 1 1;
#X connect 7 0 1 0;
#X connect 9 0 11 0;
#X connect 11 0 12 0;
#X connect 12 0 13 0;
#X connect 12 1 14 0;
#X connect 13 0 17 0;
#X connect 14 0 17 0;
#X connect 15 0 29 0;
#X connect 16 0 9 0;
#X connect 17 0 18 0;
#X connect 18 0 19 0;
#X connect 20 0 3 1;
#X connect 22 0 23 0;
#X connect 23 0 24 0;
#X connect 25 0 5 0;
#X connect 26 0 27 0;
#X connect 26 0 78 0;
#X connect 28 0 0 0;
#X connect 29 0 26 0;
#X connect 31 0 32 0;
#X connect 32 0 72 0;
#X connect 33 0 22 0;
#X connect 34 1 35 0;
#X connect 35 0 36 0;
#X connect 35 1 37 0;
#X connect 39 0 40 0;
#X connect 40 0 41 0;
#X connect 40 1 55 0;
#X connect 41 0 42 0;
#X connect 42 0 43 0;
#X connect 43 0 44 0;
#X connect 44 0 45 0;
#X connect 46 0 26 0;
#X connect 47 0 48 0;
#X connect 48 0 49 0;
#X connect 48 1 54 0;
#X connect 49 0 50 0;
#X connect 50 0 53 0;
#X connect 51 0 52 0;
#X connect 53 0 51 0;
#X connect 54 0 50 1;
#X connect 55 0 42 1;
#X connect 56 1 59 0;
#X connect 57 0 60 0;
#X connect 58 0 61 0;
#X connect 59 0 68 0;
#X connect 59 1 69 0;
#X connect 60 0 62 0;
#X connect 61 0 62 0;
#X connect 62 0 9 0;
#X connect 63 0 64 0;
#X connect 64 0 65 1;
#X connect 66 0 67 0;
#X connect 67 0 68 1;
#X connect 67 0 69 1;
#X connect 68 0 57 0;
#X connect 69 0 58 0;
#X connect 70 0 71 0;
#X connect 71 0 72 1;
#X connect 72 0 33 0;
#X connect 73 0 74 0;
#X connect 74 0 75 0;
#X connect 75 0 77 0;
#X connect 75 1 82 0;
#X connect 75 2 22 0;
#X connect 77 0 76 0;
#X connect 78 0 77 0;
#X connect 79 0 16 0;
#X connect 80 0 22 0;
#X connect 81 0 80 0;
#X connect 82 0 83 0;
#X connect 83 0 26 0;
#X connect 85 0 86 0;
#X connect 86 0 87 0;
#X connect 87 0 88 0;
#X connect 88 0 22 0;
#X connect 89 0 90 0;
#X connect 90 0 91 0;
#X connect 91 0 92 0;
#X connect 92 0 62 0;
#X connect 93 0 94 0;
#X connect 94 0 95 0;
#X connect 95 0 96 0;
#X connect 96 0 26 0;
#X connect 98 0 97 0;
#X connect 99 0 98 0;
#X coords 0 -1 1 1 140 65 2 100 100;
#X restore 10 31 pd counter;
#N canvas -8 -8 1920 1037 DrumkKits 0;
#N canvas 1912 -8 1600 857 kickst1 0;
#X obj -238 -69 inlet;
#X obj -236 192 vline~;
#X obj -236 216 osc~;
#X obj -236 240 *~;
#X obj -19 476 outlet~;
#X obj 26 -63 inlet;
#X obj -103 157 f;
#X msg -157 214 \$1 1 0 \, 0 100 1;
#X obj -157 238 vline~;
#X obj -238 123 bng 15 250 50 0 empty empty empty 17 7 0 10 -262144
-1 -1;
#X msg -238 162 150 \, 50 70 0;
#X obj 323 246 phasor~;
#X obj 323 270 expr~ $v1 > 0.5;
#X obj 322 407 *~ 0.25;
#X obj 322 377 *~;
#X floatatom 368 74 10 0 0 0 - - -;
#X obj 323 72 bng 15 250 50 0 empty empty empty 17 7 0 10 -262144 -1
-1;
#X obj 323 109 f 250;
#N canvas 0 50 450 738 kVolEnv 0;
#X obj 53 28 inlet;
#X obj 8 173 vline~;
#X obj 8 203 *~;
#X msg 6 127 0.5 \, 1 5 \, 0.5 60 5 \, 0 \$1 65;
#X obj 54 283 outlet~;
#X connect 0 0 3 0;
#X connect 1 0 2 0;
#X connect 1 0 2 1;
#X connect 2 0 4 0;
#X connect 3 0 1 0;
#X restore 191 226 pd kVolEnv;
#N canvas 0 50 450 738 kPitchEnv 0;
#X obj 53 28 inlet;
#X obj 8 173 vline~;
#X obj 8 203 *~;
#X obj 65 327 outlet~;
#X msg 6 127 1 \, 0.5 5 \, 0 \$1 5;
#X obj 8 227 *~ 80;
#X obj 8 251 +~ 29;
#X obj 8 275 mtof~;
#X connect 0 0 4 0;
#X connect 1 0 2 0;
#X connect 1 0 2 1;
#X connect 2 0 5 0;
#X connect 4 0 1 0;
#X connect 5 0 6 0;
#X connect 6 0 7 0;
#X connect 7 0 3 0;
#X restore 323 156 pd kPitchEnv;
#X floatatom 496 121 5 0 0 0 pitch_scale - -;
#X obj 323 208 *~ 1;
#X obj 323 317 vcf~ 0.5, f 16;
#X obj 483 267 *~ 1.5;
#X floatatom 579 176 5 0 0 0 filter_scale - -;
#X obj 268 280 noise~;
#X floatatom 633 241 5 0 0 0 sine_scale - -;
#X obj 595 334 osc~;
#X obj -238 -5 spigot;
#X obj -179 -4 spigot;
#X obj -173 -33 tgl 15 0 empty empty empty 17 7 0 10 -262144 -1 -1
0 1;
#X obj -133 -31 tgl 15 0 empty empty empty 17 7 0 10 -262144 -1 -1
1 1;
#X obj 604 295 *~ 0.75;
#X obj -176 -63 inlet;
#X obj -58 -63 inlet;
#X obj 25 373 hsl 128 15 0 1 0 0 empty empty empty -2 -8 0 10 -262144
-1 -1 6220 1;
#X obj -119 -239 bng 15 250 50 0 empty empty empty 17 7 0 10 -262144
-1 -1;
#X text 21 -95 kick1 volume;
#X text -189 -86 kick1 on off;
#X text -85 -85 kick2 on off;
#X text -237 -102 bang;
#X obj 119 -60 inlet;
#X text 115 -99 kick2 volume;
#X obj 498 41 inlet;
#X obj 376 39 inlet;
#X obj 576 46 inlet;
#X obj 713 53 inlet;
#X obj 927 105 bng 15 250 50 0 empty empty empty 17 7 0 10 -262144
-1 -1;
#X text 377 16 decay;
#X text 468 16 pitch scale;
#X text 568 21 filter scale;
#X text 700 28 sine scale;
#X obj 112 116 f;
#X connect 0 0 28 0;
#X connect 0 0 29 0;
#X connect 1 0 2 0;
#X connect 2 0 3 0;
#X connect 3 0 4 0;
#X connect 5 0 6 1;
#X connect 6 0 7 0;
#X connect 7 0 8 0;
#X connect 8 0 3 1;
#X connect 9 0 6 0;
#X connect 9 0 10 0;
#X connect 10 0 1 0;
#X connect 11 0 12 0;
#X connect 12 0 22 0;
#X connect 13 0 4 0;
#X connect 14 0 13 0;
#X connect 15 0 17 1;
#X connect 16 0 17 0;
#X connect 17 0 18 0;
#X connect 17 0 19 0;
#X connect 18 0 14 0;
#X connect 19 0 21 0;
#X connect 19 0 23 0;
#X connect 20 0 21 1;
#X connect 21 0 11 0;
#X connect 21 0 32 0;
#X connect 22 1 14 1;
#X connect 23 0 22 1;
#X connect 24 0 23 1;
#X connect 25 0 22 0;
#X connect 26 0 32 1;
#X connect 27 0 14 1;
#X connect 28 0 9 0;
#X connect 29 0 16 0;
#X connect 30 0 28 1;
#X connect 31 0 29 1;
#X connect 32 0 27 0;
#X connect 33 0 30 0;
#X connect 34 0 31 0;
#X connect 35 0 13 1;
#X connect 41 0 52 0;
#X connect 43 0 20 0;
#X connect 44 0 15 0;
#X connect 45 0 24 0;
#X connect 46 0 26 0;
#X connect 52 0 35 0;
#X coords 0 428.5 1 427.5 85 60 0;
#X restore -241 378 pd kickst1;
#X f 21;
#N canvas -8 -8 1920 1037 snarest1 0;
#X obj 56 118 noise~;
#X obj 56 142 lop~ 3000;
#X obj 56 166 hip~ 1000;
#X obj 50 214 *~;
#X obj 79 188 osc~ 180;
#X obj 79 212 *~ 0.5;
#X obj 144 16 inlet;
#X obj 196 16 inlet;
#X obj 132 114 f;
#X obj 170 198 vline~;
#X obj 170 222 *~;
#X obj 74 443 outlet~;
#X msg 218 134 \$1 1 0 \, 0 150 1;
#X obj 550 130 noise~;
#X obj 550 304 *~, f 8;
#X obj 552 452 *~ 0.25;
#X floatatom 699 47 10 0 0 0 - - -;
#X obj 653 85 f 250;
#X obj 360 68 bng 15 250 50 0 empty empty empty 17 7 0 10 -262144 -1
-1;
#N canvas -8 -8 1920 1037 sVolEnv 0;
#X obj 37 37 inlet;
#X obj 37 88 vline~;
#X obj 37 118 *~;
#X msg 37 62 1 0.5 \, 0 \$1 0.5;
#X obj 37 143 outlet~;
#X connect 0 0 3 0;
#X connect 1 0 2 0;
#X connect 1 0 2 1;
#X connect 2 0 4 0;
#X connect 3 0 1 0;
#X restore 667 175 pd sVolEnv;
#X obj 550 155 hip~ 100;
#X obj 512 395 vcf~ 3;
#X obj 661 395 vcf~ 5;
#N canvas -8 -8 1920 1037 sCutoffEnv 0;
#X obj 37 37 inlet;
#X obj 37 88 vline~;
#X obj 37 118 *~;
#X msg 37 62 1 0.5 \, 0 \$1 0.5;
#X obj 37 143 outlet~;
#X connect 0 0 3 0;
#X connect 1 0 2 0;
#X connect 1 0 2 1;
#X connect 2 0 4 0;
#X connect 3 0 1 0;
#X restore 653 235 pd sCutoffEnv;
#X obj 622 286 *~ 8000;
#X obj 622 310 +~ 100;
#X obj 680 286 *~ 5000;
#X obj 680 310 +~ 200;
#N canvas -8 -8 1920 1037 sFMosc 0;
#X obj 398 127 osc~;
#X obj 398 291 *~;
#X obj 447 212 *~, f 8;
#X obj 382 34 sig~ 150;
#X obj 382 88 +~;
#X obj 462 89 *~ 30;
#X obj 462 65 osc~ 50;
#X obj 500 157 inlet~;
#X obj 377 353 outlet~;
#X connect 0 0 1 0;
#X connect 1 0 8 0;
#X connect 2 0 1 1;
#X connect 3 0 4 0;
#X connect 4 0 0 0;
#X connect 5 0 4 1;
#X connect 6 0 5 0;
#X connect 7 0 2 0;
#X connect 7 0 2 1;
#X restore 549 260 pd sFMosc;
#X obj 653 109 * 2;
#X floatatom 764 227 10 0 0 0 - - -;
#X obj 764 250 * 0.6;
#X obj 724 13 inlet;
#X obj 787 168 inlet;
#X obj 409 240 osc~ 180;
#X obj 409 364 *~ 0.5;
#X obj 276 164 vsl 15 128 0 0.98 0 0 empty empty empty 0 -9 0 10 -262144
-1 -1 15810 1;
#N canvas 0 50 450 738 sPitchEnv 0;
#X obj 53 28 inlet;
#X obj 8 173 vline~;
#X obj 8 203 *~;
#X obj 65 327 outlet~;
#X obj 8 227 *~ 80;
#X obj 8 251 +~ 29;
#X obj 8 275 mtof~;
#X msg 6 127 1 \, 0.5 8 \, 0 \$1 5;
#X connect 0 0 7 0;
#X connect 1 0 2 0;
#X connect 1 0 2 1;
#X connect 2 0 4 0;
#X connect 4 0 5 0;
#X connect 5 0 6 0;
#X connect 6 0 3 0;
#X connect 7 0 1 0;
#X restore 354 215 pd sPitchEnv;
#X floatatom 433 149 10 0 0 0 - - -;
#X floatatom 437 305 10 0 0 0 - - -;
#X obj 409 388 clip~ -1 1;
#N canvas -8 -8 1920 1037 sOscVolEnv 0;
#X obj 37 88 vline~;
#X obj 37 118 *~;
#X msg 37 62 1 0.5 \, 0 \$1 0.5;
#X obj 37 143 outlet~;
#X obj 37 37 inlet;
#X connect 0 0 1 0;
#X connect 0 0 1 1;
#X connect 1 0 3 0;
#X connect 2 0 0 0;
#X connect 4 0 2 0;
#X restore 287 356 pd sOscVolEnv;
#X obj 321 410 *~;
#X obj 203 400 *~, f 11;
#X obj 217 70 spigot;
#X obj 276 71 spigot;
#X obj 282 42 tgl 15 0 empty empty empty 17 7 0 10 -262144 -1 -1 0
1;
#X obj 322 44 tgl 15 0 empty empty empty 17 7 0 10 -262144 -1 -1 1
1;
#X obj 369 163 f 100;
#X floatatom 276 300 5 0 0 0 - - -;
#X obj 297 15 inlet;
#X obj 349 15 inlet;
#X obj 468 19 inlet;
#X obj 404 16 inlet;
#X obj 520 20 inlet;
#X obj 835 294 vsl 15 128 0 0.98 0 0 empty empty empty 0 -9 0 10 -262144
-1 -1 2116 1;
#X obj 904 20 inlet;
#X connect 0 0 1 0;
#X connect 1 0 2 0;
#X connect 2 0 3 0;
#X connect 3 0 11 0;
#X connect 4 0 5 0;
#X connect 5 0 3 0;
#X connect 6 0 44 0;
#X connect 6 0 45 0;
#X connect 7 0 8 1;
#X connect 8 0 12 0;
#X connect 9 0 10 0;
#X connect 9 0 10 1;
#X connect 10 0 3 1;
#X connect 12 0 9 0;
#X connect 13 0 20 0;
#X connect 14 0 21 0;
#X connect 14 0 22 0;
#X connect 15 0 11 0;
#X connect 16 0 17 1;
#X connect 17 0 19 0;
#X connect 17 0 29 0;
#X connect 18 0 17 0;
#X connect 18 0 48 0;
#X connect 19 0 14 1;
#X connect 19 0 28 0;
#X connect 20 0 14 0;
#X connect 21 0 15 0;
#X connect 22 0 15 0;
#X connect 23 0 24 0;
#X connect 23 0 26 0;
#X connect 24 0 25 0;
#X connect 25 0 21 1;
#X connect 26 0 27 0;
#X connect 27 0 22 1;
#X connect 28 0 21 0;
#X connect 28 0 22 0;
#X connect 29 0 23 0;
#X connect 30 0 31 0;
#X connect 31 0 24 1;
#X connect 31 0 26 1;
#X connect 32 0 16 0;
#X connect 33 0 30 0;
#X connect 34 0 35 0;
#X connect 35 0 40 0;
#X connect 36 0 43 1;
#X connect 36 0 49 0;
#X connect 37 0 34 0;
#X connect 38 0 48 1;
#X connect 39 0 35 1;
#X connect 40 0 42 0;
#X connect 41 0 42 1;
#X connect 42 0 43 0;
#X connect 43 0 15 0;
#X connect 44 0 8 0;
#X connect 45 0 18 0;
#X connect 46 0 44 1;
#X connect 47 0 45 1;
#X connect 48 0 37 0;
#X connect 48 0 41 0;
#X connect 50 0 46 0;
#X connect 51 0 47 0;
#X connect 52 0 36 0;
#X connect 53 0 38 0;
#X connect 54 0 39 0;
#X connect 55 0 15 1;
#X connect 56 0 55 0;
#X restore 56 383 pd snarest1;
#X f 22;
#N canvas -1317 157 768 554 hhatsst1 0;
#X obj 18 41 noise~;
#X obj 18 65 hip~ 20000;
#X obj 18 89 hip~ 10000;
#X obj 18 157 *~;
#X msg 98 64 \$1 \, 0 40 1;
#X obj 98 88 vline~;
#X obj 207 17 inlet;
#X obj 288 15 inlet;
#X obj 199 60 bng 15 250 50 0 empty empty empty 17 7 0 10 -262144 -1
-1;
#X obj 199 80 f;
#X obj 199 104 t f b;
#X obj 199 200 *;
#X obj 217 127 random 10;
#X obj 217 175 + 0.7;
#X obj 217 151 / 20;
#X obj 18 181 outlet~;
#X connect 0 0 1 0;
#X connect 1 0 2 0;
#X connect 2 0 3 0;
#X connect 3 0 15 0;
#X connect 4 0 5 0;
#X connect 5 0 3 1;
#X connect 6 0 8 0;
#X connect 7 0 9 1;
#X connect 8 0 9 0;
#X connect 9 0 10 0;
#X connect 10 0 11 0;
#X connect 10 1 12 0;
#X connect 11 0 4 0;
#X connect 12 0 14 0;
#X connect 13 0 11 1;
#X connect 14 0 13 0;
#X restore 519 386 pd hhatsst1;
#X obj 179 468 dac~;
#X obj 124 115 bng 30 250 50 0 empty empty empty 17 7 0 10 -262144
-1 -1;
#X obj 190 439 +~;
#X obj 307 487 s~ volPrev;
#X obj 341 437 r~ volPrev;
#X obj 157 117 vsl 15 50 0 1 0 0 empty empty empty 0 -9 0 10 -262144
-1 -1 6804 1;
#X text 122 149 Kick;
#X obj 175 115 bng 30 250 50 0 empty empty empty 17 7 0 10 -262144
-1 -1;
#X obj 208 117 vsl 15 50 0 1 0 0 empty empty empty 0 -9 0 10 -262144
-1 -1 3604 1;
#X obj 226 115 bng 30 250 50 0 empty empty empty 17 7 0 10 -262144
-1 -1;
#X obj 259 117 vsl 15 50 0 1 0 0 empty empty empty 0 -9 0 10 -262144
-1 -1 5304 1;
#X text 224 148 Hhat;
#X text 177 149 Snr;
#X obj 67 -628 r enableKeys;
#X floatatom 87 -601 5 0 0 0 - - -;
#X obj 48 -554 r kt;
#X obj 175 -554 r st;
#X obj 302 -554 r sh;
#X msg 157 0 0.98;
#X obj 157 -22 loadbang;
#X obj 449 -658 key;
#X obj 449 -634 sel 109;
#X obj 449 -574 tgl 15 0 empty empty empty 17 7 0 10 -262144 -1 -1
1 1;
#X obj 48 -531 spigot;
#X obj 175 -531 spigot;
#X obj 302 -531 spigot;
#X obj 449 -554 s muteStatus;
#X obj 48 -706 key;
#X obj 48 -682 sel 97 115 100, f 55;
#X msg 505 -583 1;
#X obj 505 -608 loadbang;
#X obj 302 -576 spigot;
#X obj 175 -576 spigot;
#X obj 48 -576 spigot;
#X obj 449 -610 spigot;
#X obj 488 -679 r enableKeys;
#X floatatom 488 -658 5 0 0 0 - - -;
#X obj 350 -432 receive fromGUI;
#X obj 350 -409 list trim;
#X obj 433 -345 route 2 0 1;
#X obj 267 -345 route 0 0 1;
#X obj 350 -345 route 1 0 1;
#X obj 350 -387 route /drumPads;
#X obj 124 74 bng 15 250 50 0 empty empty empty 17 7 0 10 -262144 -1
-1;
#X obj 175 74 bng 15 250 50 0 empty empty empty 17 7 0 10 -262144 -1
-1;
#X obj 226 74 bng 15 250 50 0 empty empty empty 17 7 0 10 -262144 -1
-1;
#X floatatom 214 -601 5 0 0 0 - - -;
#X floatatom 328 -601 5 0 0 0 - - -;
#X obj 180 -628 r enableKeys;
#X obj 307 -628 r enableKeys;
#X obj 84 -554 r muteStatus;
#X obj 209 -555 r muteStatus;
#X obj 340 -554 r muteStatus;
#X msg 208 21 0.98;
#X obj 208 -1 loadbang;
#X msg 259 42 0.98;
#X obj 259 20 loadbang;
#X obj -319 142 bng 15 250 50 0 empty empty empty 17 7 0 10 -262144
-1 -1;
#X obj 124 -483 b;
#X obj 175 -483 b;
#X obj 226 -483 b;
#X obj 124 -51 b;
#X obj 175 -51 b;
#X obj 226 -51 b;
#X obj 267 -140 spigot;
#X obj 306 -160 tgl 15 0 empty empty empty 17 7 0 10 -262144 -1 -1
1 1;
#X obj 306 -242 del 1;
#X obj 267 -290 t b b, f 6;
#X msg 278 -197 1;
#X obj 278 -220 loadbang;
#X obj 350 -140 spigot;
#X obj 389 -160 tgl 15 0 empty empty empty 17 7 0 10 -262144 -1 -1
1 1;
#X obj 389 -242 del 1;
#X obj 350 -290 t b b, f 6;
#X msg 361 -197 1;
#X obj 361 -220 loadbang;
#X obj 433 -140 spigot;
#X obj 472 -160 tgl 15 0 empty empty empty 17 7 0 10 -262144 -1 -1
1 1;
#X obj 472 -242 del 1;
#X obj 433 -290 t b b, f 6;
#X msg 444 -197 1;
#X obj 444 -220 loadbang;
#X obj 267 -92 b;
#X obj 350 -92 b;
#X obj 433 -92 b;
#X obj 7 -327 receive fromGUI;
#X obj 7 -304 list trim;
#X floatatom 7 -220 5 0 0 0 - - -;
#X floatatom 48 -220 5 0 0 0 - - -;
#X floatatom 88 -220 5 0 0 0 - - -;
#X obj 7 -282 route /setKitVol;
#X obj 7 -258 unpack 0 0 0;
#X obj 7 74 f;
#X obj 48 74 f;
#X obj 88 74 f;
#X obj -271 134 tgl 15 0 empty empty empty 17 7 0 10 -262144 -1 -1
0 1;
#X obj -248 134 tgl 15 0 empty empty empty 17 7 0 10 -262144 -1 -1
1 1;
#X floatatom -115 120 5 0 0 1 filter_scale - -;
#X floatatom -90 151 5 0 0 1 sine_scale - -;
#X floatatom -165 38 10 0 0 1 decay - -;
#X floatatom -138 86 5 0 0 1 pitch_scale - -;
#X obj -193 134 vsl 15 50 0 1 0 0 empty empty empty 0 -9 0 10 -262144
-1 -1 2500 1;
#X obj 15 335 tgl 15 0 empty empty empty 17 7 0 10 -262144 -1 -1 0
1;
#X obj 38 335 tgl 15 0 empty empty empty 17 7 0 10 -262144 -1 -1 1
1;
#X floatatom 161 263 10 0 0 0 - - -;
#X floatatom 191 285 10 0 0 0 - - -;
#X obj 259 335 vsl 15 50 0 1 0 0 empty empty empty 0 -9 0 10 -262144
-1 -1 900 1;
#X floatatom 273 263 10 0 0 0 - - -;
#X floatatom 303 285 10 0 0 0 - - -;
#X floatatom 309 320 10 0 0 0 - - -;
#X obj -80 1043 bng 15 250 50 0 empty empty empty 17 7 0 10 -262144
-1 -1;
#N canvas -1928 -8 1920 1037 simpleDistort 0;
#X obj 87 311 *~;
#X obj 240 259 noise~;
#X obj 197 259 hip~;
#X obj 154 260 lop~;
#X obj 123 260 *~;
#X floatatom 154 166 5 0 20000 0 - - -;
#X floatatom 197 167 5 0 20000 0 - - -;
#X obj 87 287 clip~ -1 1;
#X obj 53 179 *~;
#X text 103 129 amount;
#X obj 108 147 hsl 128 15 0 100 0 0 empty empty empty -2 -8 0 10 -262144
-1 -1 17400 1;
#X obj 109 190 hsl 128 15 0 1 0 0 empty empty empty -2 -8 0 10 -262144
-1 -1 0 1;
#X text 106 166 noise;
#X obj 108 230 hsl 128 15 0 0.85 0 0 empty empty empty -2 -8 0 10 -262144
-1 -1 22700 1;
#X text 105 209 volume;
#X obj 51 27 inlet~;
#X obj 54 372 outlet~;
#X text 134 106 distortion;
#X text 128 116 ------------;
#X connect 0 0 16 0;
#X connect 1 0 2 0;
#X connect 2 0 3 0;
#X connect 3 0 4 0;
#X connect 4 0 7 0;
#X connect 5 0 3 1;
#X connect 6 0 2 1;
#X connect 7 0 0 0;
#X connect 8 0 7 0;
#X connect 10 0 8 1;
#X connect 11 0 4 1;
#X connect 13 0 0 1;
#X connect 15 0 8 0;
#X coords 0 -1 1 1 150 150 2 100 100;
#X restore -223 506 pd simpleDistort;
#N canvas -1928 -8 1920 1037 bitCrush 0;
#X floatatom -28 211 5 0 0 0 - - -;
#X obj -151 224 *~;
#X obj -151 269 *~;
#X obj 110 206 hsl 128 15 0 0.85 0 0 empty empty empty -2 -8 0 10 -262144
-1 -1 24700 1;
#X text 108 188 volume;
#X obj 110 175 hsl 128 15 0.0001 0.075 0 0 empty empty empty -2 -8
0 10 -262144 -1 -1 22500 1;
#X obj -221 183 expr~ round($v1 / $f2);
#X obj 110 145 hsl 128 15 1 16 0 0 empty empty empty -2 -8 0 10 -262144
-1 -1 13100 1;
#X text 108 127 resolution;
#X obj -47 80 int;
#X obj -47 106 expr pow(2 \, $f1) - 1;
#X floatatom -47 133 5 0 0 0 - - -;
#X obj -47 157 expr 1 / $f1;
#X obj -6 186 +;
#X obj 340 83 loadbang;
#X msg 340 107 16;
#X text 107 157 tune;
#X obj -150 147 inlet~;
#X obj -151 322 outlet~;
#X text 128 112 ------------;
#X text 139 102 bit-crush;
#X connect 0 0 1 1;
#X connect 0 0 6 1;
#X connect 1 0 2 0;
#X connect 2 0 18 0;
#X connect 3 0 2 1;
#X connect 5 0 13 0;
#X connect 6 0 1 0;
#X connect 7 0 9 0;
#X connect 9 0 10 0;
#X connect 10 0 11 0;
#X connect 11 0 12 0;
#X connect 12 0 13 0;
#X connect 13 0 0 0;
#X connect 14 0 15 0;
#X connect 15 0 7 0;
#X connect 17 0 6 0;
#X coords 0 -1 1 1 150 128 2 100 100;
#X restore -64 508 pd bitCrush;
#N canvas -1928 -8 1920 1037 simpleDelay 0;
#X obj -384 348 +~;
#X obj -384 159 *~;
#X obj 112 147 hsl 128 15 0 0.85 0 0 empty empty empty -2 -8 0 10 -262144
-1 -1 19700 1;
#X obj 112 214 hsl 128 15 0 5000 0 0 empty empty empty -2 -8 0 10 -262144
-1 -1 22500 1;
#X text 107 195 delay time;
#X floatatom 155 233 5 0 5000 0 - - -;
#X text 196 232 ms;
#X obj -222 359 *~;
#X obj 112 268 hsl 128 15 0 0.85 0 0 empty empty empty -2 -8 0 10 -262144
-1 -1 11100 1;
#X text 110 250 delay volume;
#X obj -384 226 *~;
#X obj 112 180 hsl 128 15 0 0.85 0 0 empty empty empty -2 -8 0 10 -262144
-1 -1 17500 1;
#X obj -222 309 delread~ delayBuffer 0;
#X obj -230 253 delwrite~ delayBuffer 5000;
#X obj -224 398 send~ feedbackDelay;
#X obj 112 300 hsl 128 15 0 0.85 0 0 empty empty empty -2 -8 0 10 -262144
-1 -1 5200 1;
#X text 109 282 feedback amount;
#X obj -59 350 *~;
#X obj -213 222 receive~ feedbackDelay;
#X obj -384 387 clip~ -0.98 0.98;
#X text 108 129 gain in;
#X text 110 162 gain out;
#X obj -384 425 +~;
#X text -149 288 v;
#X text -149 278 |;
#X text -151 432 |;
#X text -151 423 v;
#X text -151 413 |;
#X text 52 431 |;
#X text 52 417 |;
#X text 52 404 |;
#X text 52 391 |;
#X text 52 378 |;
#X text 52 365 |;
#X text 52 351 |;
#X text 52 338 |;
#X text 52 325 |;
#X text 52 312 |;
#X text 52 298 |;
#X text 52 285 |;
#X text 52 272 |;
#X text 52 259 |;
#X text 52 245 |;
#X text 52 232 |;
#X text -151 441 +------->------------>-------+;
#X obj -159 59 inlet~;
#X obj -164 480 outlet~;
#X text -51 223 <------<------+;
#X text 134 112 ------------;
#X text 159 102 delay;
#X connect 0 0 19 0;
#X connect 1 0 10 0;
#X connect 1 0 13 0;
#X connect 2 0 1 1;
#X connect 3 0 5 0;
#X connect 5 0 12 0;
#X connect 7 0 0 0;
#X connect 8 0 7 1;
#X connect 10 0 0 0;
#X connect 11 0 10 1;
#X connect 12 0 7 0;
#X connect 12 0 17 0;
#X connect 15 0 17 1;
#X connect 17 0 14 0;
#X connect 18 0 13 0;
#X connect 19 0 22 0;
#X connect 22 0 46 0;
#X connect 45 0 1 0;
#X coords 0 -1 1 1 160 225 2 100 100;
#X restore 102 505 pd simpleDelay;
#N canvas -1928 -8 1920 1037 reverbSimple 0;
#X obj 12 140 *~;
#X obj 110 137 hsl 128 15 0 0.85 0 0 empty empty empty -2 -8 0 10 -262144
-1 -1 25500 1;
#X text 107 118 volume;
#X obj 21 187 rev1~;
#X obj 20 231 *~;
#X obj 110 201 hsl 128 15 0 0.85 0 0 empty empty empty -2 -8 0 10 -262144
-1 -1 21800 1;
#X text 107 183 output;
#X obj 110 169 hsl 128 15 1 127 0 0 empty empty empty -2 -8 0 10 -262144
-1 -1 19700 1;
#X text 107 151 size;
#X obj 316 177 rev2~, f 11;
#X obj 53 48 inlet~;
#X obj 46 320 outlet~;
#X text 124 100 simple reverb;
#X text 116 108 ----------------;
#X connect 0 0 3 0;
#X connect 1 0 0 1;
#X connect 3 0 4 0;
#X connect 4 0 11 0;
#X connect 5 0 4 1;
#X connect 7 0 3 1;
#X connect 10 0 0 0;
#X coords 0 -1 1 1 150 120 2 100 100;
#X restore -64 646 pd reverbSimple;
#N canvas -1928 -8 1920 1037 monoReverb 0;
#X obj -60 132 *~;
#X obj 113 142 hsl 128 15 0 0.85 0 0 empty empty empty -2 -8 0 10 -262144
-1 -1 10000 1;
#X text 110 123 volume;
#X obj -60 372 *~;
#X obj 113 276 hsl 128 15 0 0.85 0 0 empty empty empty -2 -8 0 10 -262144
-1 -1 14700 1;
#X text 110 257 output;
#X obj -60 61 inlet~;
#X obj -60 430 outlet~;
#X text 119 113 ----------------;
#X obj 9 429 outlet~;
#X obj 9 373 *~;
#X obj 113 175 hsl 128 15 0 100 0 0 empty empty empty -2 -8 0 10 -262144
-1 -1 23200 1;
#X obj 113 208 hsl 128 15 0 127 0 0 empty empty empty -2 -8 0 10 -262144
-1 -1 16600 1;
#X obj 113 242 hsl 128 15 0 100 0 0 empty empty empty -2 -8 0 10 -262144
-1 -1 900 1;
#X text 110 156 feedback ammount;
#X text 110 189 dampening freq;
#X text 110 223 dampening ammount;
#X obj 16 149 mtof;
#X floatatom -29 149 5 0 0 0 - - -;
#X obj -60 309 rev2~, f 11;
#X obj -7 60 loadbang;
#X msg -10 105 100;
#X msg 36 105 60;
#X text 133 105 mono reverb;
#X connect 0 0 19 0;
#X connect 1 0 0 1;
#X connect 3 0 7 0;
#X connect 4 0 3 1;
#X connect 4 0 10 1;
#X connect 6 0 0 0;
#X connect 10 0 9 0;
#X connect 11 0 19 2;
#X connect 12 0 17 0;
#X connect 13 0 19 4;
#X connect 17 0 18 0;
#X connect 18 0 19 3;
#X connect 19 0 3 0;
#X connect 19 1 10 0;
#X connect 20 0 21 0;
#X connect 20 0 22 0;
#X connect 21 0 19 1;
#X connect 22 0 12 0;
#X coords 0 -1 1 1 155 198 2 100 100;
#X restore -221 666 pd monoReverb;
#N canvas -1928 -8 1920 1037 basicChorus 0;
#X obj -228 377 *~, f 34;
#X obj 111 217 hsl 128 15 0 0.85 0 0 empty empty empty -2 -8 0 10 -262144
-1 -1 19900 1;
#X text 108 198 volume;
#X obj -150 290 delread4~ \$0-chorusBuffer;
#X obj 111 150 hsl 128 15 0 2 0 0 empty empty empty -2 -8 0 10 -262144
-1 -1 6000 1;
#X text 108 131 LFO;
#X obj -108 169 expr~ ($v1 + 1) / 2;
#X obj -108 197 *~;
#X floatatom -60 201 5 0 0 0 - - -;
#X obj -108 143 osc~;
#X obj -246 55 delwrite~ \$0-chorusBuffer 100;
#X obj -108 244 +~ 5;
#X obj -349 291 delread4~ \$0-chorusBuffer;
#X obj 111 183 hsl 128 15 0 127 0 0 empty empty empty -2 -8 0 10 -262144
-1 -1 12500 1;
#X text 108 164 modulation;
#X text 113 115 ----------------;
#X text 128 106 basic chorus;
#X obj -246 11 inlet~;
#X obj -185 424 outlet~;
#X text -226 102 v;
#X text -226 92 |;
#X text -149 145 |;
#X text -149 132 |;
#X text -149 119 |;
#X text -149 225 |;
#X text -149 212 |;
#X text -149 199 |;
#X text -149 185 |;
#X text -149 172 |;
#X text -149 159 |;
#X text -149 250 v;
#X text -149 240 |;
#X text -324 145 |;
#X text -324 132 |;
#X text -324 119 |;
#X text -324 225 |;
#X text -324 212 |;
#X text -324 199 |;
#X text -324 185 |;
#X text -324 172 |;
#X text -324 159 |;
#X text -324 250 v;
#X text -324 240 |;
#X text -324 111 +-------------+----------+;
#X text -226 79 |;
#X connect 0 0 18 0;
#X connect 1 0 0 1;
#X connect 3 0 0 0;
#X connect 4 0 9 0;
#X connect 6 0 7 0;
#X connect 7 0 11 0;
#X connect 8 0 7 1;
#X connect 9 0 6 0;
#X connect 11 0 3 0;
#X connect 12 0 0 0;
#X connect 13 0 8 0;
#X connect 17 0 10 0;
#X coords 0 -1 1 1 150 140 2 100 100;
#X restore -60 769 pd basicChorus;
#X connect 0 0 115 0;
#X connect 1 0 115 0;
#X connect 1 0 114 0;
#X connect 2 0 115 0;
#X connect 4 0 0 0;
#X connect 5 0 3 0;
#X connect 5 0 3 1;
#X connect 5 0 6 0;
#X connect 8 0 0 3;
#X connect 10 0 1 0;
#X connect 11 0 1 1;
#X connect 12 0 2 0;
#X connect 13 0 2 1;
#X connect 16 0 17 0;
#X connect 17 0 36 1;
#X connect 18 0 26 0;
#X connect 19 0 27 0;
#X connect 20 0 28 0;
#X connect 21 0 8 0;
#X connect 22 0 21 0;
#X connect 23 0 24 0;
#X connect 24 0 37 0;
#X connect 25 0 29 0;
#X connect 26 0 61 0;
#X connect 27 0 62 0;
#X connect 28 0 63 0;
#X connect 30 0 31 0;
#X connect 31 0 36 0;
#X connect 31 1 35 0;
#X connect 31 2 34 0;
#X connect 32 0 25 0;
#X connect 33 0 32 0;
#X connect 34 0 28 0;
#X connect 35 0 27 0;
#X connect 36 0 26 0;
#X connect 37 0 25 0;
#X connect 38 0 39 0;
#X connect 39 0 37 1;
#X connect 40 0 41 0;
#X connect 41 0 45 0;
#X connect 42 0 82 0;
#X connect 43 0 70 0;
#X connect 44 0 76 0;
#X connect 45 0 42 0;
#X connect 45 0 43 0;
#X connect 45 0 44 0;
#X connect 46 0 4 0;
#X connect 47 0 10 0;
#X connect 48 0 12 0;
#X connect 49 0 35 1;
#X connect 50 0 34 1;
#X connect 51 0 49 0;
#X connect 52 0 50 0;
#X connect 53 0 26 1;
#X connect 54 0 27 1;
#X connect 55 0 28 1;
#X connect 56 0 11 0;
#X connect 57 0 56 0;
#X connect 58 0 13 0;
#X connect 59 0 58 0;
#X connect 61 0 64 0;
#X connect 62 0 65 0;
#X connect 63 0 66 0;
#X connect 64 0 46 0;
#X connect 65 0 47 0;
#X connect 66 0 48 0;
#X connect 67 0 85 0;
#X connect 68 0 67 1;
#X connect 69 0 68 0;
#X connect 70 0 67 0;
#X connect 70 1 69 0;
#X connect 71 0 68 0;
#X connect 72 0 71 0;
#X connect 73 0 86 0;
#X connect 74 0 73 1;
#X connect 75 0 74 0;
#X connect 76 0 73 0;
#X connect 76 1 75 0;
#X connect 77 0 74 0;
#X connect 78 0 77 0;
#X connect 79 0 87 0;
#X connect 80 0 79 1;
#X connect 81 0 80 0;
#X connect 82 0 79 0;
#X connect 82 1 81 0;
#X connect 83 0 80 0;
#X connect 84 0 83 0;
#X connect 85 0 64 0;
#X connect 86 0 65 0;
#X connect 87 0 66 0;
#X connect 88 0 89 0;
#X connect 89 0 93 0;
#X connect 90 0 95 0;
#X connect 91 0 96 0;
#X connect 92 0 97 0;
#X connect 93 0 94 0;
#X connect 94 0 90 0;
#X connect 94 1 91 0;
#X connect 94 2 92 0;
#X connect 95 0 8 0;
#X connect 96 0 11 0;
#X connect 97 0 13 0;
#X connect 98 0 0 1;
#X connect 99 0 0 2;
#X connect 100 0 0 7;
#X connect 101 0 0 8;
#X connect 102 0 0 5;
#X connect 103 0 0 6;
#X connect 104 0 0 4;
#X connect 105 0 1 2;
#X connect 106 0 1 3;
#X connect 107 0 1 4;
#X connect 108 0 1 5;
#X connect 109 0 1 9;
#X connect 110 0 1 6;
#X connect 111 0 1 7;
#X connect 112 0 1 8;
#X connect 114 0 116 0;
#X connect 115 0 117 0;
#X connect 115 0 119 0;
#X connect 116 0 5 0;
#X connect 117 0 5 0;
#X connect 119 0 114 0;
#X coords 0 -1 1 1 200 80 2 100 100;
#X restore 153 25 pd DrumkKits;
#N canvas -8 -8 1920 1037 newSteper 0;
#X obj 94 -580 spigot;
#X obj 94 -559 s kt;
#X obj 94 -538 spigot;
#X obj 94 -517 s st;
#X obj 94 -496 spigot;
#X obj 94 -475 s sh;
#X obj 94 -606 t b b b;
#X obj 102 106 tgl 15 0 empty empty empty 17 7 0 10 -262144 -1 -1 1
1;
#X obj 102 -451 t f, f 1;
#X obj 102 140 tgl 15 0 empty empty empty 17 7 0 10 -262144 -1 -1 0
1;
#X obj 102 -381 t f, f 1;
#X obj 102 123 tgl 15 0 empty empty empty 17 7 0 10 -262144 -1 -1 0
1;
#X obj 102 -416 t f, f 1;
#X obj 149 -580 spigot;
#X obj 149 -559 s kt;
#X obj 149 -538 spigot;
#X obj 149 -517 s st;
#X obj 149 -496 spigot;
#X obj 149 -475 s sh;
#X obj 149 -606 t b b b;
#X obj 119 106 tgl 15 0 empty empty empty 17 7 0 10 -262144 -1 -1 0
1;
#X obj 119 -451 t f, f 1;
#X obj 119 140 tgl 15 0 empty empty empty 17 7 0 10 -262144 -1 -1 1
1;
#X obj 119 -381 t f, f 1;
#X obj 119 123 tgl 15 0 empty empty empty 17 7 0 10 -262144 -1 -1 0
1;
#X obj 119 -416 t f, f 1;
#X obj 204 -580 spigot;
#X obj 204 -559 s kt;
#X obj 204 -538 spigot;
#X obj 204 -517 s st;
#X obj 204 -496 spigot;
#X obj 204 -475 s sh;
#X obj 204 -606 t b b b;
#X obj 136 106 tgl 15 0 empty empty empty 17 7 0 10 -262144 -1 -1 0
1;
#X obj 136 -451 t f, f 1;
#X obj 136 140 tgl 15 0 empty empty empty 17 7 0 10 -262144 -1 -1 0
1;
#X obj 136 -381 t f, f 1;
#X obj 136 123 tgl 15 0 empty empty empty 17 7 0 10 -262144 -1 -1 0
1;
#X obj 136 -416 t f, f 1;
#X obj 259 -580 spigot;
#X obj 259 -559 s kt;
#X obj 259 -538 spigot;
#X obj 259 -517 s st;
#X obj 259 -496 spigot;
#X obj 259 -475 s sh;
#X obj 259 -606 t b b b;
#X obj 153 106 tgl 15 0 empty empty empty 17 7 0 10 -262144 -1 -1 0
1;
#X obj 153 -451 t f, f 1;
#X obj 153 140 tgl 15 0 empty empty empty 17 7 0 10 -262144 -1 -1 0
1;
#X obj 153 -381 t f, f 1;
#X obj 153 123 tgl 15 0 empty empty empty 17 7 0 10 -262144 -1 -1 1
1;
#X obj 153 -416 t f, f 1;
#X obj 314 -580 spigot;
#X obj 314 -559 s kt;
#X obj 314 -538 spigot;
#X obj 314 -517 s st;
#X obj 314 -496 spigot;
#X obj 314 -475 s sh;
#X obj 314 -606 t b b b;
#X obj 170 106 tgl 15 0 empty empty empty 17 7 0 10 -262144 -1 -1 0
1;
#X obj 170 -451 t f, f 1;
#X obj 170 140 tgl 15 0 empty empty empty 17 7 0 10 -262144 -1 -1 1
1;
#X obj 170 -381 t f, f 1;
#X obj 170 123 tgl 15 0 empty empty empty 17 7 0 10 -262144 -1 -1 0
1;
#X obj 170 -416 t f, f 1;
#X obj 369 -580 spigot;
#X obj 369 -559 s kt;
#X obj 369 -538 spigot;
#X obj 369 -517 s st;
#X obj 369 -496 spigot;
#X obj 369 -475 s sh;
#X obj 369 -606 t b b b;
#X obj 187 106 tgl 15 0 empty empty empty 17 7 0 10 -262144 -1 -1 0
1;
#X obj 187 -451 t f, f 1;
#X obj 187 140 tgl 15 0 empty empty empty 17 7 0 10 -262144 -1 -1 0
1;
#X obj 187 -381 t f, f 1;
#X obj 187 123 tgl 15 0 empty empty empty 17 7 0 10 -262144 -1 -1 0
1;
#X obj 187 -416 t f, f 1;
#X obj 424 -580 spigot;
#X obj 424 -559 s kt;
#X obj 424 -538 spigot;
#X obj 424 -517 s st;
#X obj 424 -496 spigot;
#X obj 424 -475 s sh;
#X obj 424 -606 t b b b;
#X obj 204 106 tgl 15 0 empty empty empty 17 7 0 10 -262144 -1 -1 0
1;
#X obj 204 -451 t f, f 1;
#X obj 204 140 tgl 15 0 empty empty empty 17 7 0 10 -262144 -1 -1 0
1;
#X obj 204 -381 t f, f 1;
#X obj 204 123 tgl 15 0 empty empty empty 17 7 0 10 -262144 -1 -1 0
1;
#X obj 204 -416 t f, f 1;
#X obj 479 -580 spigot;
#X obj 479 -559 s kt;
#X obj 479 -538 spigot;
#X obj 479 -517 s st;
#X obj 479 -496 spigot;
#X obj 479 -475 s sh;
#X obj 479 -606 t b b b;
#X obj 221 106 tgl 15 0 empty empty empty 17 7 0 10 -262144 -1 -1 1
1;
#X obj 221 -451 t f, f 1;
#X obj 221 140 tgl 15 0 empty empty empty 17 7 0 10 -262144 -1 -1 0
1;
#X obj 221 -381 t f, f 1;
#X obj 221 123 tgl 15 0 empty empty empty 17 7 0 10 -262144 -1 -1 0
1;
#X obj 221 -416 t f, f 1;
#X obj 534 -580 spigot;
#X obj 534 -559 s kt;
#X obj 534 -538 spigot;
#X obj 534 -517 s st;
#X obj 534 -496 spigot;
#X obj 534 -475 s sh;
#X obj 534 -606 t b b b;
#X obj 238 106 tgl 15 0 empty empty empty 17 7 0 10 -262144 -1 -1 1
1;
#X obj 238 -451 t f, f 1;
#X obj 238 140 tgl 15 0 empty empty empty 17 7 0 10 -262144 -1 -1 1
1;
#X obj 238 -381 t f, f 1;
#X obj 238 123 tgl 15 0 empty empty empty 17 7 0 10 -262144 -1 -1 0
1;
#X obj 238 -416 t f, f 1;
#X obj 589 -580 spigot;
#X obj 589 -559 s kt;
#X obj 589 -538 spigot;
#X obj 589 -517 s st;
#X obj 589 -496 spigot;
#X obj 589 -475 s sh;
#X obj 589 -606 t b b b;
#X obj 255 106 tgl 15 0 empty empty empty 17 7 0 10 -262144 -1 -1 0
1;
#X obj 255 -451 t f, f 1;
#X obj 255 140 tgl 15 0 empty empty empty 17 7 0 10 -262144 -1 -1 0
1;
#X obj 255 -381 t f, f 1;
#X obj 255 123 tgl 15 0 empty empty empty 17 7 0 10 -262144 -1 -1 0
1;
#X obj 255 -416 t f, f 1;
#X obj 644 -580 spigot;
#X obj 644 -559 s kt;
#X obj 644 -538 spigot;
#X obj 644 -517 s st;
#X obj 644 -496 spigot;
#X obj 644 -475 s sh;
#X obj 644 -606 t b b b;
#X obj 272 106 tgl 15 0 empty empty empty 17 7 0 10 -262144 -1 -1 0
1;
#X obj 272 -451 t f, f 1;
#X obj 272 140 tgl 15 0 empty empty empty 17 7 0 10 -262144 -1 -1 0
1;
#X obj 272 -381 t f, f 1;
#X obj 272 123 tgl 15 0 empty empty empty 17 7 0 10 -262144 -1 -1 0
1;
#X obj 272 -416 t f, f 1;
#X obj 699 -580 spigot;
#X obj 699 -559 s kt;
#X obj 699 -538 spigot;
#X obj 699 -517 s st;
#X obj 699 -496 spigot;
#X obj 699 -475 s sh;
#X obj 699 -606 t b b b;
#X obj 289 106 tgl 15 0 empty empty empty 17 7 0 10 -262144 -1 -1 0
1;
#X obj 289 -451 t f, f 1;
#X obj 289 140 tgl 15 0 empty empty empty 17 7 0 10 -262144 -1 -1 0
1;
#X obj 289 -381 t f, f 1;
#X obj 289 123 tgl 15 0 empty empty empty 17 7 0 10 -262144 -1 -1 0
1;
#X obj 289 -416 t f, f 1;
#X obj 754 -580 spigot;
#X obj 754 -559 s kt;
#X obj 754 -538 spigot;
#X obj 754 -517 s st;
#X obj 754 -496 spigot;
#X obj 754 -475 s sh;
#X obj 754 -606 t b b b;
#X obj 306 106 tgl 15 0 empty empty empty 17 7 0 10 -262144 -1 -1 0
1;
#X obj 306 -451 t f, f 1;
#X obj 306 140 tgl 15 0 empty empty empty 17 7 0 10 -262144 -1 -1 0
1;
#X obj 306 -381 t f, f 1;
#X obj 306 123 tgl 15 0 empty empty empty 17 7 0 10 -262144 -1 -1 0
1;
#X obj 306 -416 t f, f 1;
#X obj 809 -580 spigot;
#X obj 809 -559 s kt;
#X obj 809 -538 spigot;
#X obj 809 -517 s st;
#X obj 809 -496 spigot;
#X obj 809 -475 s sh;
#X obj 809 -606 t b b b;
#X obj 323 106 tgl 15 0 empty empty empty 17 7 0 10 -262144 -1 -1 0
1;
#X obj 323 -451 t f, f 1;
#X obj 323 140 tgl 15 0 empty empty empty 17 7 0 10 -262144 -1 -1 1
1;
#X obj 323 -381 t f, f 1;
#X obj 323 123 tgl 15 0 empty empty empty 17 7 0 10 -262144 -1 -1 0
1;
#X obj 323 -416 t f, f 1;
#X obj 864 -580 spigot;
#X obj 864 -559 s kt;
#X obj 864 -538 spigot;
#X obj 864 -517 s st;
#X obj 864 -496 spigot;
#X obj 864 -475 s sh;
#X obj 864 -606 t b b b;
#X obj 340 106 tgl 15 0 empty empty empty 17 7 0 10 -262144 -1 -1 0
1;
#X obj 340 -451 t f, f 1;
#X obj 340 140 tgl 15 0 empty empty empty 17 7 0 10 -262144 -1 -1 0
1;
#X obj 340 -381 t f, f 1;
#X obj 340 123 tgl 15 0 empty empty empty 17 7 0 10 -262144 -1 -1 0
1;
#X obj 340 -416 t f, f 1;
#X obj 919 -580 spigot;
#X obj 919 -559 s kt;
#X obj 919 -538 spigot;
#X obj 919 -517 s st;
#X obj 919 -496 spigot;
#X obj 919 -475 s sh;
#X obj 919 -606 t b b b;
#X obj 357 106 tgl 15 0 empty empty empty 17 7 0 10 -262144 -1 -1 0
1;
#X obj 357 -451 t f, f 1;
#X obj 357 140 tgl 15 0 empty empty empty 17 7 0 10 -262144 -1 -1 0
1;
#X obj 357 -381 t f, f 1;
#X obj 357 123 tgl 15 0 empty empty empty 17 7 0 10 -262144 -1 -1 0
1;
#X obj 357 -416 t f, f 1;
#X obj 974 -580 spigot;
#X obj 974 -559 s kt;
#X obj 974 -538 spigot;
#X obj 974 -517 s st;
#X obj 974 -496 spigot;
#X obj 974 -475 s sh;
#X obj 974 -606 t b b b;
#X obj 384 106 tgl 15 0 empty empty empty 17 7 0 10 -262144 -1 -1 1
1;
#X obj 384 -451 t f, f 1;
#X obj 384 140 tgl 15 0 empty empty empty 17 7 0 10 -262144 -1 -1 0
1;
#X obj 384 -381 t f, f 1;
#X obj 384 123 tgl 15 0 empty empty empty 17 7 0 10 -262144 -1 -1 0
1;
#X obj 384 -416 t f, f 1;
#X obj 1029 -580 spigot;
#X obj 1029 -559 s kt;
#X obj 1029 -538 spigot;
#X obj 1029 -517 s st;
#X obj 1029 -496 spigot;
#X obj 1029 -475 s sh;
#X obj 1029 -606 t b b b;
#X obj 401 106 tgl 15 0 empty empty empty 17 7 0 10 -262144 -1 -1 0
1;
#X obj 401 -451 t f, f 1;
#X obj 401 140 tgl 15 0 empty empty empty 17 7 0 10 -262144 -1 -1 1
1;
#X obj 401 -381 t f, f 1;
#X obj 401 123 tgl 15 0 empty empty empty 17 7 0 10 -262144 -1 -1 0
1;
#X obj 401 -416 t f, f 1;
#X obj 1084 -580 spigot;
#X obj 1084 -559 s kt;
#X obj 1084 -538 spigot;
#X obj 1084 -517 s st;
#X obj 1084 -496 spigot;
#X obj 1084 -475 s sh;
#X obj 1084 -606 t b b b;
#X obj 418 106 tgl 15 0 empty empty empty 17 7 0 10 -262144 -1 -1 0
1;
#X obj 418 -451 t f, f 1;
#X obj 418 140 tgl 15 0 empty empty empty 17 7 0 10 -262144 -1 -1 0
1;
#X obj 418 -381 t f, f 1;
#X obj 418 123 tgl 15 0 empty empty empty 17 7 0 10 -262144 -1 -1 0
1;
#X obj 418 -416 t f, f 1;
#X obj 1139 -580 spigot;
#X obj 1139 -559 s kt;
#X obj 1139 -538 spigot;
#X obj 1139 -517 s st;
#X obj 1139 -496 spigot;
#X obj 1139 -475 s sh;
#X obj 1139 -606 t b b b;
#X obj 435 106 tgl 15 0 empty empty empty 17 7 0 10 -262144 -1 -1 1
1;
#X obj 435 -451 t f, f 1;
#X obj 435 140 tgl 15 0 empty empty empty 17 7 0 10 -262144 -1 -1 1
1;
#X obj 435 -381 t f, f 1;
#X obj 435 123 tgl 15 0 empty empty empty 17 7 0 10 -262144 -1 -1 1
1;
#X obj 435 -416 t f, f 1;
#X obj 1194 -580 spigot;
#X obj 1194 -559 s kt;
#X obj 1194 -538 spigot;
#X obj 1194 -517 s st;
#X obj 1194 -496 spigot;
#X obj 1194 -475 s sh;
#X obj 1194 -606 t b b b;
#X obj 452 106 tgl 15 0 empty empty empty 17 7 0 10 -262144 -1 -1 0
1;
#X obj 452 -451 t f, f 1;
#X obj 452 140 tgl 15 0 empty empty empty 17 7 0 10 -262144 -1 -1 0
1;
#X obj 452 -381 t f, f 1;
#X obj 452 123 tgl 15 0 empty empty empty 17 7 0 10 -262144 -1 -1 0
1;
#X obj 452 -416 t f, f 1;
#X obj 1249 -580 spigot;
#X obj 1249 -559 s kt;
#X obj 1249 -538 spigot;
#X obj 1249 -517 s st;
#X obj 1249 -496 spigot;
#X obj 1249 -475 s sh;
#X obj 1249 -606 t b b b;
#X obj 469 106 tgl 15 0 empty empty empty 17 7 0 10 -262144 -1 -1 0
1;
#X obj 469 -451 t f, f 1;
#X obj 469 140 tgl 15 0 empty empty empty 17 7 0 10 -262144 -1 -1 0
1;
#X obj 469 -381 t f, f 1;
#X obj 469 123 tgl 15 0 empty empty empty 17 7 0 10 -262144 -1 -1 0
1;
#X obj 469 -416 t f, f 1;
#X obj 1304 -580 spigot;
#X obj 1304 -559 s kt;
#X obj 1304 -538 spigot;
#X obj 1304 -517 s st;
#X obj 1304 -496 spigot;
#X obj 1304 -475 s sh;
#X obj 1304 -606 t b b b;
#X obj 486 106 tgl 15 0 empty empty empty 17 7 0 10 -262144 -1 -1 0
1;
#X obj 486 -451 t f, f 1;
#X obj 486 140 tgl 15 0 empty empty empty 17 7 0 10 -262144 -1 -1 0
1;
#X obj 486 -381 t f, f 1;
#X obj 486 123 tgl 15 0 empty empty empty 17 7 0 10 -262144 -1 -1 1
1;
#X obj 486 -416 t f, f 1;
#X obj 1359 -580 spigot;
#X obj 1359 -559 s kt;
#X obj 1359 -538 spigot;
#X obj 1359 -517 s st;
#X obj 1359 -496 spigot;
#X obj 1359 -475 s sh;
#X obj 1359 -606 t b b b;
#X obj 503 106 tgl 15 0 empty empty empty 17 7 0 10 -262144 -1 -1 1
1;
#X obj 503 -451 t f, f 1;
#X obj 503 140 tgl 15 0 empty empty empty 17 7 0 10 -262144 -1 -1 0
1;
#X obj 503 -381 t f, f 1;
#X obj 503 123 tgl 15 0 empty empty empty 17 7 0 10 -262144 -1 -1 0
1;
#X obj 503 -416 t f, f 1;
#X obj 1414 -580 spigot;
#X obj 1414 -559 s kt;
#X obj 1414 -538 spigot;
#X obj 1414 -517 s st;
#X obj 1414 -496 spigot;
#X obj 1414 -475 s sh;
#X obj 1414 -606 t b b b;
#X obj 520 106 tgl 15 0 empty empty empty 17 7 0 10 -262144 -1 -1 0
1;
#X obj 520 -451 t f, f 1;
#X obj 520 140 tgl 15 0 empty empty empty 17 7 0 10 -262144 -1 -1 1
1;
#X obj 520 -381 t f, f 1;
#X obj 520 123 tgl 15 0 empty empty empty 17 7 0 10 -262144 -1 -1 0
1;
#X obj 520 -416 t f, f 1;
#X obj 1469 -580 spigot;
#X obj 1469 -559 s kt;
#X obj 1469 -538 spigot;
#X obj 1469 -517 s st;
#X obj 1469 -496 spigot;
#X obj 1469 -475 s sh;
#X obj 1469 -606 t b b b;
#X obj 537 106 tgl 15 0 empty empty empty 17 7 0 10 -262144 -1 -1 0
1;
#X obj 537 -451 t f, f 1;
#X obj 537 140 tgl 15 0 empty empty empty 17 7 0 10 -262144 -1 -1 0
1;
#X obj 537 -381 t f, f 1;
#X obj 537 123 tgl 15 0 empty empty empty 17 7 0 10 -262144 -1 -1 0
1;
#X obj 537 -416 t f, f 1;
#X obj 1524 -580 spigot;
#X obj 1524 -559 s kt;
#X obj 1524 -538 spigot;
#X obj 1524 -517 s st;
#X obj 1524 -496 spigot;
#X obj 1524 -475 s sh;
#X obj 1524 -606 t b b b;
#X obj 554 106 tgl 15 0 empty empty empty 17 7 0 10 -262144 -1 -1 0
1;
#X obj 554 -451 t f, f 1;
#X obj 554 140 tgl 15 0 empty empty empty 17 7 0 10 -262144 -1 -1 0
1;
#X obj 554 -381 t f, f 1;
#X obj 554 123 tgl 15 0 empty empty empty 17 7 0 10 -262144 -1 -1 0
1;
#X obj 554 -416 t f, f 1;
#X obj 1579 -580 spigot;
#X obj 1579 -559 s kt;
#X obj 1579 -538 spigot;
#X obj 1579 -517 s st;
#X obj 1579 -496 spigot;
#X obj 1579 -475 s sh;
#X obj 1579 -606 t b b b;
#X obj 571 106 tgl 15 0 empty empty empty 17 7 0 10 -262144 -1 -1 0
1;
#X obj 571 -451 t f, f 1;
#X obj 571 140 tgl 15 0 empty empty empty 17 7 0 10 -262144 -1 -1 0
1;
#X obj 571 -381 t f, f 1;
#X obj 571 123 tgl 15 0 empty empty empty 17 7 0 10 -262144 -1 -1 0
1;
#X obj 571 -416 t f, f 1;
#X obj 1634 -580 spigot;
#X obj 1634 -559 s kt;
#X obj 1634 -538 spigot;
#X obj 1634 -517 s st;
#X obj 1634 -496 spigot;
#X obj 1634 -475 s sh;
#X obj 1634 -606 t b b b;
#X obj 588 106 tgl 15 0 empty empty empty 17 7 0 10 -262144 -1 -1 0
1;
#X obj 588 -451 t f, f 1;
#X obj 588 140 tgl 15 0 empty empty empty 17 7 0 10 -262144 -1 -1 0
1;
#X obj 588 -381 t f, f 1;
#X obj 588 123 tgl 15 0 empty empty empty 17 7 0 10 -262144 -1 -1 1
1;
#X obj 588 -416 t f, f 1;
#X obj 1689 -580 spigot;
#X obj 1689 -559 s kt;
#X obj 1689 -538 spigot;
#X obj 1689 -517 s st;
#X obj 1689 -496 spigot;
#X obj 1689 -475 s sh;
#X obj 1689 -606 t b b b;
#X obj 605 106 tgl 15 0 empty empty empty 17 7 0 10 -262144 -1 -1 1
1;
#X obj 605 -451 t f, f 1;
#X obj 605 140 tgl 15 0 empty empty empty 17 7 0 10 -262144 -1 -1 1
1;
#X obj 605 -381 t f, f 1;
#X obj 605 123 tgl 15 0 empty empty empty 17 7 0 10 -262144 -1 -1 0
1;
#X obj 605 -416 t f, f 1;
#X obj 1744 -580 spigot;
#X obj 1744 -559 s kt;
#X obj 1744 -538 spigot;
#X obj 1744 -517 s st;
#X obj 1744 -496 spigot;
#X obj 1744 -475 s sh;
#X obj 1744 -606 t b b b;
#X obj 622 106 tgl 15 0 empty empty empty 17 7 0 10 -262144 -1 -1 0
1;
#X obj 622 -451 t f, f 1;
#X obj 622 140 tgl 15 0 empty empty empty 17 7 0 10 -262144 -1 -1 1
1;
#X obj 622 -381 t f, f 1;
#X obj 622 123 tgl 15 0 empty empty empty 17 7 0 10 -262144 -1 -1 0
1;
#X obj 622 -416 t f, f 1;
#X obj 1799 -580 spigot;
#X obj 1799 -559 s kt;
#X obj 1799 -538 spigot;
#X obj 1799 -517 s st;
#X obj 1799 -496 spigot;
#X obj 1799 -475 s sh;
#X obj 1799 -606 t b b b;
#X obj 639 106 tgl 15 0 empty empty empty 17 7 0 10 -262144 -1 -1 0
1;
#X obj 639 -451 t f, f 1;
#X obj 639 140 tgl 15 0 empty empty empty 17 7 0 10 -262144 -1 -1 0
1;
#X obj 639 -381 t f, f 1;
#X obj 639 123 tgl 15 0 empty empty empty 17 7 0 10 -262144 -1 -1 0
1;
#X obj 639 -416 t f, f 1;
#X obj 37 -343 receive fromGUI;
#X obj 37 -320 list trim;
#X obj 102 -235 tgl 15 0 empty empty empty 17 7 0 10 -262144 -1 -1
0 1;
#X obj 102 -201 tgl 15 0 empty empty empty 17 7 0 10 -262144 -1 -1
0 1;
#X obj 102 -218 tgl 15 0 empty empty empty 17 7 0 10 -262144 -1 -1
0 1;
#X obj 119 -235 tgl 15 0 empty empty empty 17 7 0 10 -262144 -1 -1
0 1;
#X obj 119 -201 tgl 15 0 empty empty empty 17 7 0 10 -262144 -1 -1
0 1;
#X obj 119 -218 tgl 15 0 empty empty empty 17 7 0 10 -262144 -1 -1
0 1;
#X obj 136 -235 tgl 15 0 empty empty empty 17 7 0 10 -262144 -1 -1
0 1;
#X obj 136 -201 tgl 15 0 empty empty empty 17 7 0 10 -262144 -1 -1
0 1;
#X obj 136 -218 tgl 15 0 empty empty empty 17 7 0 10 -262144 -1 -1
0 1;
#X obj 153 -235 tgl 15 0 empty empty empty 17 7 0 10 -262144 -1 -1
0 1;
#X obj 153 -201 tgl 15 0 empty empty empty 17 7 0 10 -262144 -1 -1
0 1;
#X obj 153 -218 tgl 15 0 empty empty empty 17 7 0 10 -262144 -1 -1
0 1;
#X obj 170 -235 tgl 15 0 empty empty empty 17 7 0 10 -262144 -1 -1
0 1;
#X obj 170 -201 tgl 15 0 empty empty empty 17 7 0 10 -262144 -1 -1
0 1;
#X obj 170 -218 tgl 15 0 empty empty empty 17 7 0 10 -262144 -1 -1
0 1;
#X obj 187 -235 tgl 15 0 empty empty empty 17 7 0 10 -262144 -1 -1
0 1;
#X obj 187 -201 tgl 15 0 empty empty empty 17 7 0 10 -262144 -1 -1
0 1;
#X obj 187 -218 tgl 15 0 empty empty empty 17 7 0 10 -262144 -1 -1
0 1;
#X obj 204 -235 tgl 15 0 empty empty empty 17 7 0 10 -262144 -1 -1
0 1;
#X obj 204 -201 tgl 15 0 empty empty empty 17 7 0 10 -262144 -1 -1
0 1;
#X obj 204 -218 tgl 15 0 empty empty empty 17 7 0 10 -262144 -1 -1
0 1;
#X obj 221 -235 tgl 15 0 empty empty empty 17 7 0 10 -262144 -1 -1
0 1;
#X obj 221 -201 tgl 15 0 empty empty empty 17 7 0 10 -262144 -1 -1
0 1;
#X obj 221 -218 tgl 15 0 empty empty empty 17 7 0 10 -262144 -1 -1
0 1;
#X obj 238 -235 tgl 15 0 empty empty empty 17 7 0 10 -262144 -1 -1
0 1;
#X obj 238 -201 tgl 15 0 empty empty empty 17 7 0 10 -262144 -1 -1
0 1;
#X obj 238 -218 tgl 15 0 empty empty empty 17 7 0 10 -262144 -1 -1
0 1;
#X obj 255 -235 tgl 15 0 empty empty empty 17 7 0 10 -262144 -1 -1
0 1;
#X obj 255 -201 tgl 15 0 empty empty empty 17 7 0 10 -262144 -1 -1
0 1;
#X obj 255 -218 tgl 15 0 empty empty empty 17 7 0 10 -262144 -1 -1
0 1;
#X obj 272 -235 tgl 15 0 empty empty empty 17 7 0 10 -262144 -1 -1
0 1;
#X obj 272 -201 tgl 15 0 empty empty empty 17 7 0 10 -262144 -1 -1
0 1;
#X obj 272 -218 tgl 15 0 empty empty empty 17 7 0 10 -262144 -1 -1
0 1;
#X obj 289 -235 tgl 15 0 empty empty empty 17 7 0 10 -262144 -1 -1
0 1;
#X obj 289 -201 tgl 15 0 empty empty empty 17 7 0 10 -262144 -1 -1
0 1;
#X obj 289 -218 tgl 15 0 empty empty empty 17 7 0 10 -262144 -1 -1
0 1;
#X obj 306 -235 tgl 15 0 empty empty empty 17 7 0 10 -262144 -1 -1
0 1;
#X obj 306 -201 tgl 15 0 empty empty empty 17 7 0 10 -262144 -1 -1
0 1;
#X obj 306 -218 tgl 15 0 empty empty empty 17 7 0 10 -262144 -1 -1
0 1;
#X obj 323 -235 tgl 15 0 empty empty empty 17 7 0 10 -262144 -1 -1
0 1;
#X obj 323 -201 tgl 15 0 empty empty empty 17 7 0 10 -262144 -1 -1
0 1;
#X obj 323 -218 tgl 15 0 empty empty empty 17 7 0 10 -262144 -1 -1
0 1;
#X obj 340 -235 tgl 15 0 empty empty empty 17 7 0 10 -262144 -1 -1
0 1;
#X obj 340 -201 tgl 15 0 empty empty empty 17 7 0 10 -262144 -1 -1
0 1;
#X obj 340 -218 tgl 15 0 empty empty empty 17 7 0 10 -262144 -1 -1
0 1;
#X obj 357 -235 tgl 15 0 empty empty empty 17 7 0 10 -262144 -1 -1
0 1;
#X obj 357 -201 tgl 15 0 empty empty empty 17 7 0 10 -262144 -1 -1
0 1;
#X obj 357 -218 tgl 15 0 empty empty empty 17 7 0 10 -262144 -1 -1
0 1;
#X obj 37 -293 route /k1 \, /k2 \, /k3 \, /k4 \, /k5 \, /k6 \, /k7
\, /k8 \, /k9 \, /k10 \, /k11 \, /k12 \, /k13 \, /k14 \, /k15 \, /k16
\, /s1 \, /s2 \, /s3 \, /s4 \, /s5 \, /s6 \, /s7 \, /s8 \, /s9 \, /s10
\, /s11 \, /s12 \, /s13 \, /s14 \, /s15 \, /s16 \, /h1 \, /h2 \, /h3
\, /h4 \, /h5 \, /h6 \, /h7 \, /h8 \, /h9 \, /h10 \, /h11 \, /h12 \,
/h13 \, /h14 \, /h15 \, /h16, f 134;
#X obj 325 -171 receive fromGUI;
#X obj 325 -148 list trim;
#X obj 384 -63 tgl 15 0 empty empty empty 17 7 0 10 -262144 -1 -1 0
1;
#X obj 384 -29 tgl 15 0 empty empty empty 17 7 0 10 -262144 -1 -1 0
1;
#X obj 384 -46 tgl 15 0 empty empty empty 17 7 0 10 -262144 -1 -1 0
1;
#X obj 401 -63 tgl 15 0 empty empty empty 17 7 0 10 -262144 -1 -1 0
1;
#X obj 401 -29 tgl 15 0 empty empty empty 17 7 0 10 -262144 -1 -1 0
1;
#X obj 401 -46 tgl 15 0 empty empty empty 17 7 0 10 -262144 -1 -1 0
1;
#X obj 418 -63 tgl 15 0 empty empty empty 17 7 0 10 -262144 -1 -1 0
1;
#X obj 418 -29 tgl 15 0 empty empty empty 17 7 0 10 -262144 -1 -1 0
1;
#X obj 418 -46 tgl 15 0 empty empty empty 17 7 0 10 -262144 -1 -1 0
1;
#X obj 435 -63 tgl 15 0 empty empty empty 17 7 0 10 -262144 -1 -1 0
1;
#X obj 435 -29 tgl 15 0 empty empty empty 17 7 0 10 -262144 -1 -1 0
1;
#X obj 435 -46 tgl 15 0 empty empty empty 17 7 0 10 -262144 -1 -1 0
1;
#X obj 452 -63 tgl 15 0 empty empty empty 17 7 0 10 -262144 -1 -1 0
1;
#X obj 452 -29 tgl 15 0 empty empty empty 17 7 0 10 -262144 -1 -1 0
1;
#X obj 452 -46 tgl 15 0 empty empty empty 17 7 0 10 -262144 -1 -1 0
1;
#X obj 469 -63 tgl 15 0 empty empty empty 17 7 0 10 -262144 -1 -1 0
1;
#X obj 469 -29 tgl 15 0 empty empty empty 17 7 0 10 -262144 -1 -1 0
1;
#X obj 469 -46 tgl 15 0 empty empty empty 17 7 0 10 -262144 -1 -1 0
1;
#X obj 486 -63 tgl 15 0 empty empty empty 17 7 0 10 -262144 -1 -1 0
1;
#X obj 486 -29 tgl 15 0 empty empty empty 17 7 0 10 -262144 -1 -1 0
1;
#X obj 486 -46 tgl 15 0 empty empty empty 17 7 0 10 -262144 -1 -1 0
1;
#X obj 503 -63 tgl 15 0 empty empty empty 17 7 0 10 -262144 -1 -1 0
1;
#X obj 503 -29 tgl 15 0 empty empty empty 17 7 0 10 -262144 -1 -1 0
1;
#X obj 503 -46 tgl 15 0 empty empty empty 17 7 0 10 -262144 -1 -1 0
1;
#X obj 520 -63 tgl 15 0 empty empty empty 17 7 0 10 -262144 -1 -1 0
1;
#X obj 520 -29 tgl 15 0 empty empty empty 17 7 0 10 -262144 -1 -1 0
1;
#X obj 520 -46 tgl 15 0 empty empty empty 17 7 0 10 -262144 -1 -1 0
1;
#X obj 537 -63 tgl 15 0 empty empty empty 17 7 0 10 -262144 -1 -1 0
1;
#X obj 537 -29 tgl 15 0 empty empty empty 17 7 0 10 -262144 -1 -1 0
1;
#X obj 537 -46 tgl 15 0 empty empty empty 17 7 0 10 -262144 -1 -1 0
1;
#X obj 554 -63 tgl 15 0 empty empty empty 17 7 0 10 -262144 -1 -1 0
1;
#X obj 554 -29 tgl 15 0 empty empty empty 17 7 0 10 -262144 -1 -1 0
1;
#X obj 554 -46 tgl 15 0 empty empty empty 17 7 0 10 -262144 -1 -1 0
1;
#X obj 571 -63 tgl 15 0 empty empty empty 17 7 0 10 -262144 -1 -1 0
1;
#X obj 571 -29 tgl 15 0 empty empty empty 17 7 0 10 -262144 -1 -1 0
1;
#X obj 571 -46 tgl 15 0 empty empty empty 17 7 0 10 -262144 -1 -1 0
1;
#X obj 588 -63 tgl 15 0 empty empty empty 17 7 0 10 -262144 -1 -1 0
1;
#X obj 588 -29 tgl 15 0 empty empty empty 17 7 0 10 -262144 -1 -1 0
1;
#X obj 588 -46 tgl 15 0 empty empty empty 17 7 0 10 -262144 -1 -1 0
1;
#X obj 605 -63 tgl 15 0 empty empty empty 17 7 0 10 -262144 -1 -1 0
1;
#X obj 605 -29 tgl 15 0 empty empty empty 17 7 0 10 -262144 -1 -1 0
1;
#X obj 605 -46 tgl 15 0 empty empty empty 17 7 0 10 -262144 -1 -1 0
1;
#X obj 622 -63 tgl 15 0 empty empty empty 17 7 0 10 -262144 -1 -1 0
1;
#X obj 622 -29 tgl 15 0 empty empty empty 17 7 0 10 -262144 -1 -1 0
1;
#X obj 622 -46 tgl 15 0 empty empty empty 17 7 0 10 -262144 -1 -1 0
1;
#X obj 639 -63 tgl 15 0 empty empty empty 17 7 0 10 -262144 -1 -1 0
1;
#X obj 639 -29 tgl 15 0 empty empty empty 17 7 0 10 -262144 -1 -1 0
1;
#X obj 639 -46 tgl 15 0 empty empty empty 17 7 0 10 -262144 -1 -1 0
1;
#X obj 325 -121 route /kk1 \, /kk2 \, /kk3 \, /kk4 \, /kk5 \, /kk6
\, /kk7 \, /kk8 \, /kk9 \, /kk10 \, /kk11 \, /kk12 \, /kk13 \, /kk14
\, /kk15 \, /kk16 \, /ss1 \, /ss2 \, /ss3 \, /ss4 \, /ss5 \, /ss6 \,
/ss7 \, /ss8 \, /ss9 \, /ss10 \, /ss11 \, /ss12 \, /ss13 \, /ss14 \,
/ss15 \, /ss16 \, /hh1 \, /hh2 \, /hh3 \, /hh4 \, /hh5 \, /hh6 \, /hh7
\, /hh8 \, /hh9 \, /hh10 \, /hh11 \, /hh12 \, /hh13 \, /hh14 \, /hh15
\, /hh16, f 134;
#X obj 88 -636 sel 0 1 2 3 4 5 6 7 8 9 10 11 12 13 14 15 16 17 18 19
20 21 22 23 24 25 26 27 28 29 30 31 32, f 261;
#X obj 88 -668 inlet;
#X connect 0 0 1 0;
#X connect 2 0 3 0;
#X connect 4 0 5 0;
#X connect 6 0 0 0;
#X connect 6 1 2 0;
#X connect 6 2 4 0;
#X connect 7 0 8 0;
#X connect 8 0 0 1;
#X connect 9 0 10 0;
#X connect 10 0 4 1;
#X connect 11 0 12 0;
#X connect 12 0 2 1;
#X connect 13 0 14 0;
#X connect 15 0 16 0;
#X connect 17 0 18 0;
#X connect 19 0 13 0;
#X connect 19 1 15 0;
#X connect 19 2 17 0;
#X connect 20 0 21 0;
#X connect 21 0 13 1;
#X connect 22 0 23 0;
#X connect 23 0 17 1;
#X connect 24 0 25 0;
#X connect 25 0 15 1;
#X connect 26 0 27 0;
#X connect 28 0 29 0;
#X connect 30 0 31 0;
#X connect 32 0 26 0;
#X connect 32 1 28 0;
#X connect 32 2 30 0;
#X connect 33 0 34 0;
#X connect 34 0 26 1;
#X connect 35 0 36 0;
#X connect 36 0 30 1;
#X connect 37 0 38 0;
#X connect 38 0 28 1;
#X connect 39 0 40 0;
#X connect 41 0 42 0;
#X connect 43 0 44 0;
#X connect 45 0 39 0;
#X connect 45 1 41 0;
#X connect 45 2 43 0;
#X connect 46 0 47 0;
#X connect 47 0 39 1;
#X connect 48 0 49 0;
#X connect 49 0 43 1;
#X connect 50 0 51 0;
#X connect 51 0 41 1;
#X connect 52 0 53 0;
#X connect 54 0 55 0;
#X connect 56 0 57 0;
#X connect 58 0 52 0;
#X connect 58 1 54 0;
#X connect 58 2 56 0;
#X connect 59 0 60 0;
#X connect 60 0 52 1;
#X connect 61 0 62 0;
#X connect 62 0 56 1;
#X connect 63 0 64 0;
#X connect 64 0 54 1;
#X connect 65 0 66 0;
#X connect 67 0 68 0;
#X connect 69 0 70 0;
#X connect 71 0 65 0;
#X connect 71 1 67 0;
#X connect 71 2 69 0;
#X connect 72 0 73 0;
#X connect 73 0 65 1;
#X connect 74 0 75 0;
#X connect 75 0 69 1;
#X connect 76 0 77 0;
#X connect 77 0 67 1;
#X connect 78 0 79 0;
#X connect 80 0 81 0;
#X connect 82 0 83 0;
#X connect 84 0 78 0;
#X connect 84 1 80 0;
#X connect 84 2 82 0;
#X connect 85 0 86 0;
#X connect 86 0 78 1;
#X connect 87 0 88 0;
#X connect 88 0 82 1;
#X connect 89 0 90 0;
#X connect 90 0 80 1;
#X connect 91 0 92 0;
#X connect 93 0 94 0;
#X connect 95 0 96 0;
#X connect 97 0 91 0;
#X connect 97 1 93 0;
#X connect 97 2 95 0;
#X connect 98 0 99 0;
#X connect 99 0 91 1;
#X connect 100 0 101 0;
#X connect 101 0 95 1;
#X connect 102 0 103 0;
#X connect 103 0 93 1;
#X connect 104 0 105 0;
#X connect 106 0 107 0;
#X connect 108 0 109 0;
#X connect 110 0 104 0;
#X connect 110 1 106 0;
#X connect 110 2 108 0;
#X connect 111 0 112 0;
#X connect 112 0 104 1;
#X connect 113 0 114 0;
#X connect 114 0 108 1;
#X connect 115 0 116 0;
#X connect 116 0 106 1;
#X connect 117 0 118 0;
#X connect 119 0 120 0;
#X connect 121 0 122 0;
#X connect 123 0 117 0;
#X connect 123 1 119 0;
#X connect 123 2 121 0;
#X connect 124 0 125 0;
#X connect 125 0 117 1;
#X connect 126 0 127 0;
#X connect 127 0 121 1;
#X connect 128 0 129 0;
#X connect 129 0 119 1;
#X connect 130 0 131 0;
#X connect 132 0 133 0;
#X connect 134 0 135 0;
#X connect 136 0 130 0;
#X connect 136 1 132 0;
#X connect 136 2 134 0;
#X connect 137 0 138 0;
#X connect 138 0 130 1;
#X connect 139 0 140 0;
#X connect 140 0 134 1;
#X connect 141 0 142 0;
#X connect 142 0 132 1;
#X connect 143 0 144 0;
#X connect 145 0 146 0;
#X connect 147 0 148 0;
#X connect 149 0 143 0;
#X connect 149 1 145 0;
#X connect 149 2 147 0;
#X connect 150 0 151 0;
#X connect 151 0 143 1;
#X connect 152 0 153 0;
#X connect 153 0 147 1;
#X connect 154 0 155 0;
#X connect 155 0 145 1;
#X connect 156 0 157 0;
#X connect 158 0 159 0;
#X connect 160 0 161 0;
#X connect 162 0 156 0;
#X connect 162 1 158 0;
#X connect 162 2 160 0;
#X connect 163 0 164 0;
#X connect 164 0 156 1;
#X connect 165 0 166 0;
#X connect 166 0 160 1;
#X connect 167 0 168 0;
#X connect 168 0 158 1;
#X connect 169 0 170 0;
#X connect 171 0 172 0;
#X connect 173 0 174 0;
#X connect 175 0 169 0;
#X connect 175 1 171 0;
#X connect 175 2 173 0;
#X connect 176 0 177 0;
#X connect 177 0 169 1;
#X connect 178 0 179 0;
#X connect 179 0 173 1;
#X connect 180 0 181 0;
#X connect 181 0 171 1;
#X connect 182 0 183 0;
#X connect 184 0 185 0;
#X connect 186 0 187 0;
#X connect 188 0 182 0;
#X connect 188 1 184 0;
#X connect 188 2 186 0;
#X connect 189 0 190 0;
#X connect 190 0 182 1;
#X connect 191 0 192 0;
#X connect 192 0 186 1;
#X connect 193 0 194 0;
#X connect 194 0 184 1;
#X connect 195 0 196 0;
#X connect 197 0 198 0;
#X connect 199 0 200 0;
#X connect 201 0 195 0;
#X connect 201 1 197 0;
#X connect 201 2 199 0;
#X connect 202 0 203 0;
#X connect 203 0 195 1;
#X connect 204 0 205 0;
#X connect 205 0 199 1;
#X connect 206 0 207 0;
#X connect 207 0 197 1;
#X connect 208 0 209 0;
#X connect 210 0 211 0;
#X connect 212 0 213 0;
#X connect 214 0 208 0;
#X connect 214 1 210 0;
#X connect 214 2 212 0;
#X connect 215 0 216 0;
#X connect 216 0 208 1;
#X connect 217 0 218 0;
#X connect 218 0 212 1;
#X connect 219 0 220 0;
#X connect 220 0 210 1;
#X connect 221 0 222 0;
#X connect 223 0 224 0;
#X connect 225 0 226 0;
#X connect 227 0 221 0;
#X connect 227 1 223 0;
#X connect 227 2 225 0;
#X connect 228 0 229 0;
#X connect 229 0 221 1;
#X connect 230 0 231 0;
#X connect 231 0 225 1;
#X connect 232 0 233 0;
#X connect 233 0 223 1;
#X connect 234 0 235 0;
#X connect 236 0 237 0;
#X connect 238 0 239 0;
#X connect 240 0 234 0;
#X connect 240 1 236 0;
#X connect 240 2 238 0;
#X connect 241 0 242 0;
#X connect 242 0 234 1;
#X connect 243 0 244 0;
#X connect 244 0 238 1;
#X connect 245 0 246 0;
#X connect 246 0 236 1;
#X connect 247 0 248 0;
#X connect 249 0 250 0;
#X connect 251 0 252 0;
#X connect 253 0 247 0;
#X connect 253 1 249 0;
#X connect 253 2 251 0;
#X connect 254 0 255 0;
#X connect 255 0 247 1;
#X connect 256 0 257 0;
#X connect 257 0 251 1;
#X connect 258 0 259 0;
#X connect 259 0 249 1;
#X connect 260 0 261 0;
#X connect 262 0 263 0;
#X connect 264 0 265 0;
#X connect 266 0 260 0;
#X connect 266 1 262 0;
#X connect 266 2 264 0;
#X connect 267 0 268 0;
#X connect 268 0 260 1;
#X connect 269 0 270 0;
#X connect 270 0 264 1;
#X connect 271 0 272 0;
#X connect 272 0 262 1;
#X connect 273 0 274 0;
#X connect 275 0 276 0;
#X connect 277 0 278 0;
#X connect 279 0 273 0;
#X connect 279 1 275 0;
#X connect 279 2 277 0;
#X connect 280 0 281 0;
#X connect 281 0 273 1;
#X connect 282 0 283 0;
#X connect 283 0 277 1;
#X connect 284 0 285 0;
#X connect 285 0 275 1;
#X connect 286 0 287 0;
#X connect 288 0 289 0;
#X connect 290 0 291 0;
#X connect 292 0 286 0;
#X connect 292 1 288 0;
#X connect 292 2 290 0;
#X connect 293 0 294 0;
#X connect 294 0 286 1;
#X connect 295 0 296 0;
#X connect 296 0 290 1;
#X connect 297 0 298 0;
#X connect 298 0 288 1;
#X connect 299 0 300 0;
#X connect 301 0 302 0;
#X connect 303 0 304 0;
#X connect 305 0 299 0;
#X connect 305 1 301 0;
#X connect 305 2 303 0;
#X connect 306 0 307 0;
#X connect 307 0 299 1;
#X connect 308 0 309 0;
#X connect 309 0 303 1;
#X connect 310 0 311 0;
#X connect 311 0 301 1;
#X connect 312 0 313 0;
#X connect 314 0 315 0;
#X connect 316 0 317 0;
#X connect 318 0 312 0;
#X connect 318 1 314 0;
#X connect 318 2 316 0;
#X connect 319 0 320 0;
#X connect 320 0 312 1;
#X connect 321 0 322 0;
#X connect 322 0 316 1;
#X connect 323 0 324 0;
#X connect 324 0 314 1;
#X connect 325 0 326 0;
#X connect 327 0 328 0;
#X connect 329 0 330 0;
#X connect 331 0 325 0;
#X connect 331 1 327 0;
#X connect 331 2 329 0;
#X connect 332 0 333 0;
#X connect 333 0 325 1;
#X connect 334 0 335 0;
#X connect 335 0 329 1;
#X connect 336 0 337 0;
#X connect 337 0 327 1;
#X connect 338 0 339 0;
#X connect 340 0 341 0;
#X connect 342 0 343 0;
#X connect 344 0 338 0;
#X connect 344 1 340 0;
#X connect 344 2 342 0;
#X connect 345 0 346 0;
#X connect 346 0 338 1;
#X connect 347 0 348 0;
#X connect 348 0 342 1;
#X connect 349 0 350 0;
#X connect 350 0 340 1;
#X connect 351 0 352 0;
#X connect 353 0 354 0;
#X connect 355 0 356 0;
#X connect 357 0 351 0;
#X connect 357 1 353 0;
#X connect 357 2 355 0;
#X connect 358 0 359 0;
#X connect 359 0 351 1;
#X connect 360 0 361 0;
#X connect 361 0 355 1;
#X connect 362 0 363 0;
#X connect 363 0 353 1;
#X connect 364 0 365 0;
#X connect 366 0 367 0;
#X connect 368 0 369 0;
#X connect 370 0 364 0;
#X connect 370 1 366 0;
#X connect 370 2 368 0;
#X connect 371 0 372 0;
#X connect 372 0 364 1;
#X connect 373 0 374 0;
#X connect 374 0 368 1;
#X connect 375 0 376 0;
#X connect 376 0 366 1;
#X connect 377 0 378 0;
#X connect 379 0 380 0;
#X connect 381 0 382 0;
#X connect 383 0 377 0;
#X connect 383 1 379 0;
#X connect 383 2 381 0;
#X connect 384 0 385 0;
#X connect 385 0 377 1;
#X connect 386 0 387 0;
#X connect 387 0 381 1;
#X connect 388 0 389 0;
#X connect 389 0 379 1;
#X connect 390 0 391 0;
#X connect 392 0 393 0;
#X connect 394 0 395 0;
#X connect 396 0 390 0;
#X connect 396 1 392 0;
#X connect 396 2 394 0;
#X connect 397 0 398 0;
#X connect 398 0 390 1;
#X connect 399 0 400 0;
#X connect 400 0 394 1;
#X connect 401 0 402 0;
#X connect 402 0 392 1;
#X connect 403 0 404 0;
#X connect 405 0 406 0;
#X connect 407 0 408 0;
#X connect 409 0 403 0;
#X connect 409 1 405 0;
#X connect 409 2 407 0;
#X connect 410 0 411 0;
#X connect 411 0 403 1;
#X connect 412 0 413 0;
#X connect 413 0 407 1;
#X connect 414 0 415 0;
#X connect 415 0 405 1;
#X connect 416 0 417 0;
#X connect 417 0 466 0;
#X connect 418 0 7 0;
#X connect 419 0 9 0;
#X connect 420 0 11 0;
#X connect 421 0 20 0;
#X connect 422 0 22 0;
#X connect 423 0 24 0;
#X connect 424 0 33 0;
#X connect 425 0 35 0;
#X connect 426 0 37 0;
#X connect 427 0 46 0;
#X connect 428 0 48 0;
#X connect 429 0 50 0;
#X connect 430 0 59 0;
#X connect 431 0 61 0;
#X connect 432 0 63 0;
#X connect 433 0 72 0;
#X connect 434 0 74 0;
#X connect 435 0 76 0;
#X connect 436 0 85 0;
#X connect 437 0 87 0;
#X connect 438 0 89 0;
#X connect 439 0 98 0;
#X connect 440 0 100 0;
#X connect 441 0 102 0;
#X connect 442 0 111 0;
#X connect 443 0 113 0;
#X connect 444 0 115 0;
#X connect 445 0 124 0;
#X connect 446 0 126 0;
#X connect 447 0 128 0;
#X connect 448 0 137 0;
#X connect 449 0 139 0;
#X connect 450 0 141 0;
#X connect 451 0 150 0;
#X connect 452 0 152 0;
#X connect 453 0 154 0;
#X connect 454 0 163 0;
#X connect 455 0 165 0;
#X connect 456 0 167 0;
#X connect 457 0 176 0;
#X connect 458 0 178 0;
#X connect 459 0 180 0;
#X connect 460 0 189 0;
#X connect 461 0 191 0;
#X connect 462 0 193 0;
#X connect 463 0 202 0;
#X connect 464 0 204 0;
#X connect 465 0 206 0;
#X connect 466 0 418 0;
#X connect 466 2 421 0;
#X connect 466 4 424 0;
#X connect 466 6 427 0;
#X connect 466 8 430 0;
#X connect 466 10 433 0;
#X connect 466 12 436 0;
#X connect 466 14 439 0;
#X connect 466 16 442 0;
#X connect 466 18 445 0;
#X connect 466 20 448 0;
#X connect 466 22 451 0;
#X connect 466 24 454 0;
#X connect 466 26 457 0;
#X connect 466 28 460 0;
#X connect 466 30 463 0;
#X connect 466 32 420 0;
#X connect 466 34 423 0;
#X connect 466 36 426 0;
#X connect 466 38 429 0;
#X connect 466 40 432 0;
#X connect 466 42 435 0;
#X connect 466 44 438 0;
#X connect 466 46 441 0;
#X connect 466 48 444 0;
#X connect 466 50 447 0;
#X connect 466 52 450 0;
#X connect 466 54 453 0;
#X connect 466 56 456 0;
#X connect 466 58 459 0;
#X connect 466 60 462 0;
#X connect 466 62 465 0;
#X connect 466 64 419 0;
#X connect 466 66 422 0;
#X connect 466 68 425 0;
#X connect 466 70 428 0;
#X connect 466 72 431 0;
#X connect 466 74 434 0;
#X connect 466 76 437 0;
#X connect 466 78 440 0;
#X connect 466 80 443 0;
#X connect 466 82 446 0;
#X connect 466 84 449 0;
#X connect 466 86 452 0;
#X connect 466 88 455 0;
#X connect 466 90 458 0;
#X connect 466 92 461 0;
#X connect 466 94 464 0;
#X connect 467 0 468 0;
#X connect 468 0 517 0;
#X connect 469 0 215 0;
#X connect 470 0 217 0;
#X connect 471 0 219 0;
#X connect 472 0 228 0;
#X connect 473 0 230 0;
#X connect 474 0 232 0;
#X connect 475 0 241 0;
#X connect 476 0 243 0;
#X connect 477 0 245 0;
#X connect 478 0 254 0;
#X connect 479 0 256 0;
#X connect 480 0 258 0;
#X connect 481 0 267 0;
#X connect 482 0 269 0;
#X connect 483 0 271 0;
#X connect 484 0 280 0;
#X connect 485 0 282 0;
#X connect 486 0 284 0;
#X connect 487 0 293 0;
#X connect 488 0 295 0;
#X connect 489 0 297 0;
#X connect 490 0 306 0;
#X connect 491 0 308 0;
#X connect 492 0 310 0;
#X connect 493 0 319 0;
#X connect 494 0 321 0;
#X connect 495 0 323 0;
#X connect 496 0 332 0;
#X connect 497 0 334 0;
#X connect 498 0 336 0;
#X connect 499 0 345 0;
#X connect 500 0 347 0;
#X connect 501 0 349 0;
#X connect 502 0 358 0;
#X connect 503 0 360 0;
#X connect 504 0 362 0;
#X connect 505 0 371 0;
#X connect 506 0 373 0;
#X connect 507 0 375 0;
#X connect 508 0 384 0;
#X connect 509 0 386 0;
#X connect 510 0 388 0;
#X connect 511 0 397 0;
#X connect 512 0 399 0;
#X connect 513 0 401 0;
#X connect 514 0 410 0;
#X connect 515 0 412 0;
#X connect 516 0 414 0;
#X connect 517 0 469 0;
#X connect 517 2 472 0;
#X connect 517 4 475 0;
#X connect 517 6 478 0;
#X connect 517 8 481 0;
#X connect 517 10 484 0;
#X connect 517 12 487 0;
#X connect 517 14 490 0;
#X connect 517 16 493 0;
#X connect 517 18 496 0;
#X connect 517 20 499 0;
#X connect 517 22 502 0;
#X connect 517 24 505 0;
#X connect 517 26 508 0;
#X connect 517 28 511 0;
#X connect 517 30 514 0;
#X connect 517 32 471 0;
#X connect 517 34 474 0;
#X connect 517 36 477 0;
#X connect 517 38 480 0;
#X connect 517 40 483 0;
#X connect 517 42 486 0;
#X connect 517 44 489 0;
#X connect 517 46 492 0;
#X connect 517 48 495 0;
#X connect 517 50 498 0;
#X connect 517 52 501 0;
#X connect 517 54 504 0;
#X connect 517 56 507 0;
#X connect 517 58 510 0;
#X connect 517 60 513 0;
#X connect 517 62 516 0;
#X connect 517 64 470 0;
#X connect 517 66 473 0;
#X connect 517 68 476 0;
#X connect 517 70 479 0;
#X connect 517 72 482 0;
#X connect 517 74 485 0;
#X connect 517 76 488 0;
#X connect 517 78 491 0;
#X connect 517 80 494 0;
#X connect 517 82 497 0;
#X connect 517 84 500 0;
#X connect 517 86 503 0;
#X connect 517 88 506 0;
#X connect 517 90 509 0;
#X connect 517 92 512 0;
#X connect 517 94 515 0;
#X connect 518 0 6 0;
#X connect 518 1 19 0;
#X connect 518 2 32 0;
#X connect 518 3 45 0;
#X connect 518 4 58 0;
#X connect 518 5 71 0;
#X connect 518 6 84 0;
#X connect 518 7 97 0;
#X connect 518 8 110 0;
#X connect 518 9 123 0;
#X connect 518 10 136 0;
#X connect 518 11 149 0;
#X connect 518 12 162 0;
#X connect 518 13 175 0;
#X connect 518 14 188 0;
#X connect 518 15 201 0;
#X connect 518 16 214 0;
#X connect 518 17 227 0;
#X connect 518 18 240 0;
#X connect 518 19 253 0;
#X connect 518 20 266 0;
#X connect 518 21 279 0;
#X connect 518 22 292 0;
#X connect 518 23 305 0;
#X connect 518 24 318 0;
#X connect 518 25 331 0;
#X connect 518 26 344 0;
#X connect 518 27 357 0;
#X connect 518 28 370 0;
#X connect 518 29 383 0;
#X connect 518 30 396 0;
#X connect 518 31 409 0;
#X connect 519 0 518 0;
#X coords 0 -1 1 1 557 60 2 100 100;
#X restore 10 131 pd newSteper;
#X f 59;
#N canvas -844 208 450 300 shotcutKeys 0;
#X msg 27 110 \; pd dsp 1;
#X obj 27 79 loadbang;
#X obj 102 102 tgl 15 0 empty empty empty 17 7 0 10 -262144 -1 -1 1
1;
#X obj 107 189 s enableKeys;
#X msg 107 65 0;
#X text 117 100 Toggle keyboard shortcuts;
#X connect 1 0 0 0;
#X connect 1 0 4 0;
#X connect 2 0 3 0;
#X connect 4 0 2 0;
#X coords 0 -1 1 1 200 20 2 100 100;
#X restore 360 32 pd shotcutKeys;
#X text 355 54 A = Kick;
#X text 421 54 S = Snare;
#X text 492 54 D = Hi-hat;
#X text 399 86 Space = on/off;
#X text 383 71 Up/Down = 13/32 steps;
#X text 443 208 ver 3 \, 05/03/2021;
#X text 408 191 by alexesc@disroot.org;
#N canvas -967 0 958 1028 euclidRythm2 0;
#X obj 17 286 + 0;
#X obj 17 340 *;
#X floatatom 113 233 5 0 64 1 notes - -;
#X obj 17 364 % 16;
#X obj 17 388 <, f 13;
#X obj 17 412 sel 1;
#X obj 70 439 bng 15 250 50 0 empty empty empty 17 7 0 10 -262144 -1
-1;
#X obj 17 438 bng 15 250 50 0 empty empty empty 17 7 0 10 -262144 -1
-1;
#X obj 17 458 f, f 9;
#X obj 17 -114 t f f, f 9;
#X floatatom 17 482 5 0 0 0 - - -;
#X obj 359 286 + 0;
#X obj 359 340 *;
#X floatatom 278 233 5 0 64 1 notes - -;
#X obj 359 364 % 16;
#X obj 359 388 <, f 13;
#X obj 359 412 sel 1;
#X obj 412 439 bng 15 250 50 0 empty empty empty 17 7 0 10 -262144
-1 -1;
#X obj 359 438 bng 15 250 50 0 empty empty empty 17 7 0 10 -262144
-1 -1;
#X obj 359 458 f, f 9;
#X obj 359 -114 t f f, f 9;
#X floatatom 359 482 5 0 0 0 - - -;
#X obj 869 286 + 0;
#X obj 869 340 *;
#X floatatom 526 233 5 0 64 1 notes - -;
#X obj 869 364 % 16;
#X obj 869 388 <, f 13;
#X obj 869 412 sel 1;
#X obj 922 439 bng 15 250 50 0 empty empty empty 17 7 0 10 -262144
-1 -1;
#X obj 869 438 bng 15 250 50 0 empty empty empty 17 7 0 10 -262144
-1 -1;
#X obj 869 458 f, f 9;
#X obj 869 -114 t f f, f 9;
#X floatatom 869 482 5 0 0 0 - - -;
#X obj 17 -148 spigot;
#X obj 112 193 tgl 15 0 empty empty empty 17 7 0 10 -262144 -1 -1 0
1;
#X obj 359 -148 spigot;
#X obj 278 191 tgl 15 0 empty empty empty 17 7 0 10 -262144 -1 -1 0
1;
#X obj 869 -148 spigot;
#X obj 527 192 tgl 15 0 empty empty empty 17 7 0 10 -262144 -1 -1 0
1;
#X floatatom 113 211 5 0 64 1 offset - -;
#X floatatom 278 211 5 0 64 1 offset - -;
#X floatatom 526 211 5 0 64 1 offset - -;
#X obj 187 286 + 0;
#X obj 187 340 *;
#X floatatom 195 233 5 0 64 1 notes - -;
#X obj 187 364 % 16;
#X obj 187 388 <, f 13;
#X obj 187 412 sel 1;
#X obj 240 439 bng 15 250 50 0 empty empty empty 17 7 0 10 -262144
-1 -1;
#X obj 187 438 bng 15 250 50 0 empty empty empty 17 7 0 10 -262144
-1 -1;
#X obj 187 458 f, f 9;
#X obj 187 -113 t f f, f 9;
#X floatatom 187 482 5 0 0 0 - - -;
#X obj 187 -148 spigot;
#X obj 195 192 tgl 15 0 empty empty empty 17 7 0 10 -262144 -1 -1 0
1;
#X floatatom 195 211 5 0 64 1 offset - -;
#X obj 529 286 + 0;
#X obj 529 340 *;
#X floatatom 361 233 5 0 64 1 notes - -;
#X obj 529 364 % 16;
#X obj 529 388 <, f 13;
#X obj 529 412 sel 1;
#X obj 582 439 bng 15 250 50 0 empty empty empty 17 7 0 10 -262144
-1 -1;
#X obj 529 438 bng 15 250 50 0 empty empty empty 17 7 0 10 -262144
-1 -1;
#X obj 529 458 f, f 9;
#X obj 529 -114 t f f, f 9;
#X floatatom 529 482 5 0 0 0 - - -;
#X obj 529 -148 spigot;
#X obj 362 190 tgl 15 0 empty empty empty 17 7 0 10 -262144 -1 -1 0
1;
#X floatatom 361 211 5 0 64 1 offset - -;
#X obj 699 286 + 0;
#X obj 699 340 *;
#X floatatom 444 233 5 0 64 1 notes - -;
#X obj 699 364 % 16;
#X obj 699 388 <, f 13;
#X obj 699 412 sel 1;
#X obj 752 439 bng 15 250 50 0 empty empty empty 17 7 0 10 -262144
-1 -1;
#X obj 699 438 bng 15 250 50 0 empty empty empty 17 7 0 10 -262144
-1 -1;
#X obj 699 458 f, f 9;
#X obj 699 -114 t f f, f 9;
#X floatatom 699 482 5 0 0 0 - - -;
#X obj 699 -148 spigot;
#X obj 446 191 tgl 15 0 empty empty empty 17 7 0 10 -262144 -1 -1 0
1;
#X floatatom 444 211 5 0 64 1 offset - -;
#X obj 105 515 s kt;
#X obj 445 521 s st;
#X obj 807 519 s sh;
#X text 109 172 <--------kicks-------->;
#X text 276 172 <--------snares-------->;
#X text 446 172 <--------hhats-------->;
#X msg 65 -349 tempo \$1 permin;
#X obj 18 -284 f;
#X obj 47 -284 + 1;
#X obj 18 -252 mod 16;
#X floatatom 18 -226 5 0 0 0 - - -;
#X obj 18 -350 t f b;
#X msg 176 -314 0;
#X obj 18 -314 metro 0.25 120 permin;
#X floatatom 112 121 5 0 900 0 - - -;
#X text 151 120 BPM;
#X obj 111 102 tgl 15 0 empty empty empty 17 7 0 10 -262144 -1 -1 0
1;
#X floatatom 112 146 5 1 64 1 steps - -;
#X msg 113 31 16;
#X obj 131 -15 loadbang;
#X msg 147 31 0;
#X msg 260 -348 tempo \$1 permin;
#X obj 213 -283 f;
#X obj 242 -283 + 1;
#X obj 213 -251 mod 16;
#X floatatom 213 -225 5 0 0 0 - - -;
#X obj 213 -349 t f b;
#X msg 371 -313 0;
#X obj 213 -313 metro 0.25 120 permin;
#X floatatom 193 122 5 0 900 0 - - -;
#X text 232 121 BPM;
#X obj 192 103 tgl 15 0 empty empty empty 17 7 0 10 -262144 -1 -1 0
1;
#X floatatom 193 147 5 1 64 1 steps - -;
#X msg 188 32 16;
#X obj 206 -14 loadbang;
#X msg 222 32 0;
#X msg 456 -347 tempo \$1 permin;
#X obj 409 -282 f;
#X obj 438 -282 + 1;
#X obj 409 -250 mod 16;
#X floatatom 409 -224 5 0 0 0 - - -;
#X obj 409 -348 t f b;
#X msg 567 -312 0;
#X obj 409 -312 metro 0.25 120 permin;
#X floatatom 277 123 5 0 900 0 - - -;
#X text 316 122 BPM;
#X obj 276 104 tgl 15 0 empty empty empty 17 7 0 10 -262144 -1 -1 0
1;
#X floatatom 277 148 5 1 64 1 steps - -;
#X msg 264 33 16;
#X obj 282 -13 loadbang;
#X msg 298 33 0;
#X msg 652 -347 tempo \$1 permin;
#X obj 605 -282 f;
#X obj 634 -282 + 1;
#X obj 605 -250 mod 16;
#X floatatom 605 -224 5 0 0 0 - - -;
#X obj 605 -348 t f b;
#X msg 763 -312 0;
#X obj 605 -312 metro 0.25 120 permin;
#X floatatom 363 123 5 0 900 0 - - -;
#X text 402 122 BPM;
#X obj 362 104 tgl 15 0 empty empty empty 17 7 0 10 -262144 -1 -1 0
1;
#X floatatom 363 148 5 1 64 1 steps - -;
#X msg 340 33 16;
#X obj 358 -13 loadbang;
#X msg 374 33 0;
#X msg 848 -347 tempo \$1 permin;
#X obj 801 -282 f;
#X obj 830 -282 + 1;
#X obj 801 -250 mod 16;
#X floatatom 801 -224 5 0 0 0 - - -;
#X obj 801 -348 t f b;
#X msg 959 -312 0;
#X obj 801 -312 metro 0.25 120 permin;
#X floatatom 443 123 5 0 900 0 - - -;
#X text 482 122 BPM;
#X obj 442 104 tgl 15 0 empty empty empty 17 7 0 10 -262144 -1 -1 0
1;
#X floatatom 443 148 5 1 64 1 steps - -;
#X msg 416 33 16;
#X obj 434 -13 loadbang;
#X msg 450 33 0;
#X msg 1048 -347 tempo \$1 permin;
#X obj 1001 -282 f;
#X obj 1030 -282 + 1;
#X obj 1001 -250 mod 16;
#X floatatom 1001 -224 5 0 0 0 - - -;
#X obj 1001 -348 t f b;
#X msg 1159 -312 0;
#X obj 1001 -312 metro 0.25 120 permin;
#X floatatom 523 123 5 0 900 0 - - -;
#X text 562 122 BPM;
#X obj 522 104 tgl 15 0 empty empty empty 17 7 0 10 -262144 -1 -1 0
1;
#X floatatom 523 148 5 1 64 1 steps - -;
#X msg 496 33 16;
#X obj 514 -13 loadbang;
#X msg 530 33 0;
#X msg 143 75 60;
#X msg 224 70 60;
#X msg 305 67 60;
#X msg 374 65 60;
#X msg 450 65 60;
#X msg 541 64 60;
#X obj 126 281 s tk1;
#X obj 126 311 s sk1;
#X obj 126 341 s ok1;
#X obj 126 371 s nk1;
#X obj 126 401 s ck1;
#X obj 126 431 s mk1;
#X connect 0 0 1 0;
#X connect 1 0 3 0;
#X connect 2 0 1 1;
#X connect 2 0 4 1;
#X connect 3 0 4 0;
#X connect 4 0 5 0;
#X connect 5 0 7 0;
#X connect 5 1 6 0;
#X connect 7 0 8 0;
#X connect 8 0 10 0;
#X connect 9 0 0 0;
#X connect 9 1 8 1;
#X connect 10 0 84 0;
#X connect 11 0 12 0;
#X connect 12 0 14 0;
#X connect 13 0 12 1;
#X connect 13 0 15 1;
#X connect 14 0 15 0;
#X connect 15 0 16 0;
#X connect 16 0 18 0;
#X connect 16 1 17 0;
#X connect 18 0 19 0;
#X connect 19 0 21 0;
#X connect 20 0 11 0;
#X connect 20 1 19 1;
#X connect 21 0 85 0;
#X connect 22 0 23 0;
#X connect 23 0 25 0;
#X connect 24 0 23 1;
#X connect 24 0 26 1;
#X connect 25 0 26 0;
#X connect 26 0 27 0;
#X connect 27 0 29 0;
#X connect 27 1 28 0;
#X connect 29 0 30 0;
#X connect 30 0 32 0;
#X connect 31 0 22 0;
#X connect 31 1 30 1;
#X connect 32 0 86 0;
#X connect 33 0 9 0;
#X connect 34 0 33 1;
#X connect 35 0 20 0;
#X connect 36 0 35 1;
#X connect 37 0 31 0;
#X connect 38 0 37 1;
#X connect 39 0 0 1;
#X connect 40 0 11 1;
#X connect 41 0 22 1;
#X connect 42 0 43 0;
#X connect 43 0 45 0;
#X connect 44 0 43 1;
#X connect 44 0 46 1;
#X connect 45 0 46 0;
#X connect 46 0 47 0;
#X connect 47 0 49 0;
#X connect 47 1 48 0;
#X connect 49 0 50 0;
#X connect 50 0 52 0;
#X connect 51 0 42 0;
#X connect 51 1 50 1;
#X connect 52 0 84 0;
#X connect 53 0 51 0;
#X connect 54 0 53 1;
#X connect 55 0 42 1;
#X connect 56 0 57 0;
#X connect 57 0 59 0;
#X connect 58 0 57 1;
#X connect 58 0 60 1;
#X connect 59 0 60 0;
#X connect 60 0 61 0;
#X connect 61 0 63 0;
#X connect 61 1 62 0;
#X connect 63 0 64 0;
#X connect 64 0 66 0;
#X connect 65 0 56 0;
#X connect 65 1 64 1;
#X connect 66 0 85 0;
#X connect 67 0 65 0;
#X connect 68 0 67 1;
#X connect 69 0 56 1;
#X connect 70 0 71 0;
#X connect 71 0 73 0;
#X connect 72 0 71 1;
#X connect 72 0 74 1;
#X connect 73 0 74 0;
#X connect 74 0 75 0;
#X connect 75 0 77 0;
#X connect 75 1 76 0;
#X connect 77 0 78 0;
#X connect 78 0 80 0;
#X connect 79 0 70 0;
#X connect 79 1 78 1;
#X connect 80 0 86 0;
#X connect 81 0 79 0;
#X connect 82 0 81 1;
#X connect 83 0 70 1;
#X connect 90 0 97 0;
#X connect 91 0 92 0;
#X connect 91 0 93 0;
#X connect 92 0 91 1;
#X connect 93 0 94 0;
#X connect 94 0 33 0;
#X connect 95 0 97 0;
#X connect 95 1 96 0;
#X connect 96 0 91 1;
#X connect 97 0 91 0;
#X connect 98 0 90 0;
#X connect 100 0 95 0;
#X connect 101 0 93 1;
#X connect 102 0 101 0;
#X connect 103 0 102 0;
#X connect 103 0 104 0;
#X connect 103 0 180 0;
#X connect 104 0 100 0;
#X connect 105 0 112 0;
#X connect 106 0 107 0;
#X connect 106 0 108 0;
#X connect 107 0 106 1;
#X connect 108 0 109 0;
#X connect 109 0 53 0;
#X connect 110 0 112 0;
#X connect 110 1 111 0;
#X connect 111 0 106 1;
#X connect 112 0 106 0;
#X connect 113 0 105 0;
#X connect 115 0 110 0;
#X connect 116 0 108 1;
#X connect 117 0 116 0;
#X connect 118 0 117 0;
#X connect 118 0 119 0;
#X connect 118 0 181 0;
#X connect 119 0 115 0;
#X connect 120 0 127 0;
#X connect 121 0 122 0;
#X connect 121 0 123 0;
#X connect 122 0 121 1;
#X connect 123 0 124 0;
#X connect 124 0 35 0;
#X connect 125 0 127 0;
#X connect 125 1 126 0;
#X connect 126 0 121 1;
#X connect 127 0 121 0;
#X connect 128 0 120 0;
#X connect 130 0 125 0;
#X connect 131 0 123 1;
#X connect 132 0 131 0;
#X connect 133 0 132 0;
#X connect 133 0 134 0;
#X connect 133 0 182 0;
#X connect 134 0 130 0;
#X connect 135 0 142 0;
#X connect 136 0 137 0;
#X connect 136 0 138 0;
#X connect 137 0 136 1;
#X connect 138 0 139 0;
#X connect 139 0 67 0;
#X connect 140 0 142 0;
#X connect 140 1 141 0;
#X connect 141 0 136 1;
#X connect 142 0 136 0;
#X connect 143 0 135 0;
#X connect 145 0 140 0;
#X connect 146 0 138 1;
#X connect 147 0 146 0;
#X connect 148 0 147 0;
#X connect 148 0 149 0;
#X connect 148 0 183 0;
#X connect 149 0 145 0;
#X connect 150 0 157 0;
#X connect 151 0 152 0;
#X connect 151 0 153 0;
#X connect 152 0 151 1;
#X connect 153 0 154 0;
#X connect 154 0 81 0;
#X connect 155 0 157 0;
#X connect 155 1 156 0;
#X connect 156 0 151 1;
#X connect 157 0 151 0;
#X connect 158 0 150 0;
#X connect 160 0 155 0;
#X connect 161 0 153 1;
#X connect 162 0 161 0;
#X connect 163 0 162 0;
#X connect 163 0 164 0;
#X connect 163 0 184 0;
#X connect 164 0 160 0;
#X connect 165 0 172 0;
#X connect 166 0 167 0;
#X connect 166 0 168 0;
#X connect 167 0 166 1;
#X connect 168 0 169 0;
#X connect 169 0 37 0;
#X connect 170 0 172 0;
#X connect 170 1 171 0;
#X connect 171 0 166 1;
#X connect 172 0 166 0;
#X connect 173 0 165 0;
#X connect 175 0 170 0;
#X connect 176 0 168 1;
#X connect 177 0 176 0;
#X connect 178 0 177 0;
#X connect 178 0 179 0;
#X connect 178 0 185 0;
#X connect 179 0 175 0;
#X connect 180 0 98 0;
#X connect 181 0 113 0;
#X connect 182 0 128 0;
#X connect 183 0 143 0;
#X connect 184 0 158 0;
#X connect 185 0 173 0;
#X coords 0 -1 1 1 520 160 2 100 100;
#X restore 25 239 pd euclidRythm2;
#X connect 0 0 3 0;
#X connect 1 0 0 0;
