#N canvas -8 -8 1920 1037 12;
#X obj 15 36 s pattern_hat_1;
#X obj 36 58 s pattern_hat_2;
#X obj 48 89 s pattern_hat_3;
#X obj 60 119 s pattern_hat_4;
#X obj 72 144 s pattern_hat_5;
#X obj 83 171 s pattern_hat_6;
#X obj 92 199 s pattern_hat_7;
#X obj 105 228 s pattern_hat_8;
#X obj 117 260 s pattern_hat_9;
#X obj 129 290 s pattern_hat_10;
#X obj 143 320 s pattern_hat_11;
#X obj 152 346 s pattern_hat_12;
#X obj 162 370 s pattern_hat_13;
#X obj 175 395 s pattern_hat_14;
#X obj 185 420 s pattern_hat_15;
#X obj 190 445 s pattern_hat_16;
#X obj 75 1168 bng 15 250 50 0 empty empty empty 17 7 0 10 -262144
-1 -1;
#X obj 198 471 s pattern_hat_17;
#X obj 206 496 s pattern_hat_18;
#X obj 212 521 s pattern_hat_19;
#X obj 217 545 s pattern_hat_20;
#X obj 222 570 s pattern_hat_21;
#X obj 230 596 s pattern_hat_22;
#X obj 236 621 s pattern_hat_23;
#X obj 244 647 s pattern_hat_24;
#X obj 256 675 s pattern_hat_25;
#X obj 264 701 s pattern_hat_26;
#X obj 271 725 s pattern_hat_27;
#X obj 280 748 s pattern_hat_28;
#X obj 287 771 s pattern_hat_29;
#X obj 291 797 s pattern_hat_30;
#X obj 295 822 s pattern_hat_31;
#X obj 300 847 s pattern_hat_32;
#X obj 15 9 inlet;
#X obj 61 8 inlet;
#X obj 113 9 inlet;
#X obj 174 11 inlet;
#X obj 223 11 inlet;
#X obj 271 11 inlet;
#X obj 281 22 inlet;
#X obj 291 31 inlet;
#X obj 301 41 inlet;
#X obj 311 51 inlet;
#X obj 321 61 inlet;
#X obj 331 71 inlet;
#X obj 341 81 inlet;
#X obj 351 91 inlet;
#X obj 361 101 inlet;
#X obj 371 111 inlet;
#X obj 381 121 inlet;
#X obj 391 131 inlet;
#X obj 401 141 inlet;
#X obj 411 151 inlet;
#X obj 421 161 inlet;
#X obj 431 171 inlet;
#X obj 441 181 inlet;
#X obj 451 191 inlet;
#X obj 461 201 inlet;
#X obj 471 211 inlet;
#X obj 481 221 inlet;
#X obj 491 231 inlet;
#X obj 501 241 inlet;
#X obj 511 251 inlet;
#X obj 521 261 inlet;
#X obj 531 271 inlet;
#X connect 33 0 0 0;
#X connect 34 0 1 0;
#X connect 35 0 2 0;
#X connect 36 0 3 0;
#X connect 37 0 4 0;
#X connect 38 0 5 0;
#X connect 39 0 6 0;
#X connect 40 0 7 0;
#X connect 41 0 8 0;
#X connect 42 0 9 0;
#X connect 43 0 10 0;
#X connect 44 0 11 0;
#X connect 45 0 12 0;
#X connect 46 0 13 0;
#X connect 47 0 14 0;
#X connect 48 0 15 0;
#X connect 49 0 17 0;
#X connect 50 0 18 0;
#X connect 51 0 19 0;
#X connect 52 0 20 0;
#X connect 53 0 21 0;
#X connect 54 0 22 0;
#X connect 55 0 23 0;
#X connect 56 0 24 0;
#X connect 57 0 25 0;
#X connect 58 0 26 0;
#X connect 59 0 27 0;
#X connect 60 0 28 0;
#X connect 61 0 29 0;
#X connect 62 0 30 0;
#X connect 63 0 31 0;
#X connect 64 0 32 0;
