#N canvas -8 -8 1920 1037 12;
#X obj 646 66 noise~;
#X obj 603 66 hip~;
#X obj 560 67 lop~;
#X obj 529 67 *~;
#X floatatom 523 -13 5 0 20000 0 - - -;
#X floatatom 566 -12 5 0 20000 0 - - -;
#X obj 109 143 hsl 128 15 0 1 0 0 empty empty noise -2 -8 0 10 -262144
-1 -1 0 1;
#X obj 6 43 inlet~;
#X obj 75 821 outlet~;
#X floatatom 637 345 5 0 0 0 - - -;
#X obj 285 474 *~;
#X obj 637 185 hsl 128 15 1 16 0 0 empty empty empty -2 -8 0 10 -262144
-1 -1 6774 1;
#X obj 573 214 int;
#X obj 573 239 expr pow(2 \, $f1) - 1;
#X floatatom 573 266 5 0 0 0 - - -;
#X obj 573 290 expr 1 / $f1;
#X obj 637 320 +;
#X floatatom 514 -130 5 0 0 0 - - -;
#X floatatom 513 -61 5 0 0 0 - - -;
#X obj 514 -94 * 500;
#X floatatom 566 -60 5 0 0 0 - - -;
#X obj 566 -93 * 8000;
#X obj 538 128 +~;
#X obj 285 556 clip~ -0.85 0.85;
#X floatatom 593 155 5 0 0 0 - - -;
#X obj 109 201 hsl 128 15 16 1 0 0 empty empty bit-crush -2 -8 0 10
-262144 -1 -1 18626 1;
#X obj 541 320 *~;
#X obj 109 172 hsl 128 15 0.85 25 0 0 empty empty disrtortion -2 -8
0 10 -262144 -1 -1 4364 1;
#X obj 285 498 +~;
#X obj 286 607 *~;
#X obj -3 628 *~;
#X obj 70 799 +~;
#X obj -151 340 hsl 128 15 0 0.85 0 0 empty empty wet -2 -8 0 10 -262144
-1 -1 0 1;
#X floatatom -151 412 5 0 0 0 - - -;
#X obj -151 435 - 0.85;
#X floatatom -151 459 5 0 0 0 - - -;
#X obj -151 482 abs;
#X floatatom -151 506 5 0 0 0 - - -;
#X obj 109 114 hsl 128 15 0 0.85 0 0 empty empty dry/wet -2 -8 0 10
-262144 -1 -1 0 1;
#X obj 138 -147 f;
#X msg -97 100 0;
#X msg -98 160 5;
#X obj -184 64 loadbang;
#X obj 229 102 bng 10 250 50 0 empty empty empty 17 7 0 10 -262144
-1 -1;
#X obj 229 131 bng 10 250 50 0 empty empty empty 17 7 0 10 -262144
-1 -1;
#X obj 229 160 bng 10 250 50 0 empty empty empty 17 7 0 10 -262144
-1 -1;
#X obj 213 102 bng 10 250 50 0 empty empty empty 17 7 0 10 -262144
-1 -1;
#X obj 229 189 bng 10 250 50 0 empty empty empty 17 7 0 10 -262144
-1 -1;
#X obj 96 -14 inlet;
#X obj -97 -3 bng 15 250 50 0 empty empty empty 17 7 0 10 -262144 -1
-1;
#X msg -93 192 5;
#X msg -98 133 0;
#X obj 106 7 inlet;
#X obj 116 29 inlet;
#X obj 125 51 inlet;
#X obj 172 -19 inlet;
#X obj 182 2 inlet;
#X obj 192 24 inlet;
#X obj 201 46 inlet;
#X obj 257 47 inlet;
#X msg 666 125 5;
#X obj 664 97 loadbang;
#X obj 541 373 expr~ round($v1 / $f2 + 1e-05 );
#X connect 0 0 1 0;
#X connect 1 0 2 0;
#X connect 2 0 3 0;
#X connect 3 0 22 1;
#X connect 4 0 2 1;
#X connect 5 0 1 1;
#X connect 6 0 39 0;
#X connect 7 0 22 0;
#X connect 7 0 30 0;
#X connect 9 0 10 1;
#X connect 9 0 62 1;
#X connect 10 0 28 0;
#X connect 11 0 12 0;
#X connect 12 0 13 0;
#X connect 13 0 14 0;
#X connect 14 0 15 0;
#X connect 15 0 16 0;
#X connect 16 0 9 0;
#X connect 17 0 19 0;
#X connect 17 0 21 0;
#X connect 18 0 4 0;
#X connect 19 0 18 0;
#X connect 20 0 5 0;
#X connect 21 0 20 0;
#X connect 22 0 26 0;
#X connect 23 0 29 0;
#X connect 24 0 11 0;
#X connect 25 0 24 0;
#X connect 26 0 62 0;
#X connect 27 0 26 1;
#X connect 28 0 23 0;
#X connect 29 0 31 1;
#X connect 30 0 31 0;
#X connect 31 0 8 0;
#X connect 32 0 33 0;
#X connect 32 0 29 1;
#X connect 33 0 34 0;
#X connect 34 0 35 0;
#X connect 35 0 36 0;
#X connect 36 0 37 0;
#X connect 37 0 30 1;
#X connect 38 0 32 0;
#X connect 39 0 3 1;
#X connect 39 0 17 0;
#X connect 40 0 38 0;
#X connect 41 0 27 0;
#X connect 42 0 40 0;
#X connect 42 0 51 0;
#X connect 42 0 41 0;
#X connect 43 0 40 0;
#X connect 44 0 51 0;
#X connect 45 0 41 0;
#X connect 46 0 49 0;
#X connect 47 0 50 0;
#X connect 48 0 38 0;
#X connect 49 0 40 0;
#X connect 49 0 51 0;
#X connect 49 0 41 0;
#X connect 49 0 50 0;
#X connect 50 0 25 0;
#X connect 51 0 6 0;
#X connect 52 0 6 0;
#X connect 53 0 27 0;
#X connect 54 0 25 0;
#X connect 55 0 43 0;
#X connect 56 0 44 0;
#X connect 57 0 45 0;
#X connect 58 0 47 0;
#X connect 59 0 46 0;
#X connect 60 0 11 0;
#X connect 61 0 60 0;
#X connect 62 0 10 0;
#X coords 0 -1 1 1 145 120 2 100 100;
