#N canvas -8 -8 1920 1037 12;
#X obj 100 81 inlet~;
#X obj 100 636 outlet~;
#X text 206 100 Delay;
#X text 150 214 Chorus-phaser;
#X text 192 330 Distort;
#X text 199 467 Reverb;
#X obj 100 119 delay-module~;
#X obj 100 235 chorus-module~;
#X text 311 119 First inlet passes audio;
#X text 310 243 The last inlet resets all values;
#X text 311 273 The rest send reset values for knob 1 \, 2 \, etc;
#X text 312 194 Ff the module has 4 knobs then the 2nd 3rd 4rth and
5th inlets conrol knobs;
#X text 311 146 If the module has 3 knobs \, then the 2nd 3rd and 4th
inlet conroll knobs;
#X obj 100 348 dist-crush-module~;
#X obj 100 485 reverb-module-1~;
#X connect 0 0 6 0;
#X connect 6 0 7 0;
#X connect 7 0 13 0;
#X connect 13 0 14 0;
#X connect 14 0 1 0;
#X coords 0 -1 1 1 145 520 2 100 100;
