#N canvas -8 -8 1920 1037 12;
#X msg 410 251 browse https://alex-esc.github.io/;
#X obj 410 297 pdcontrol;
#X obj 425 181 loadbang;
#X obj 425 205 del 2000;
#X connect 0 0 1 0;
#X connect 2 0 3 0;
#X connect 3 0 0 0;
