#N canvas -8 -8 1920 1037 12;
#X floatatom 21 62 1 0 0 0 - - -;
#X obj 21 85 list, f 1;
#X msg 21 156 list /h1 \$1, f 13;
#X obj 21 19 unpack f f f f f f f f f f f f f f f f f f f f f f f f
f f f f f f f f, f 133;
#X floatatom 51 62 1 0 0 0 - - -;
#X obj 51 85 list, f 1;
#X floatatom 81 62 1 0 0 0 - - -;
#X obj 81 85 list, f 1;
#X floatatom 111 62 1 0 0 0 - - -;
#X obj 111 85 list, f 1;
#X floatatom 141 62 1 0 0 0 - - -;
#X obj 141 85 list, f 1;
#X floatatom 171 62 1 0 0 0 - - -;
#X obj 171 85 list, f 1;
#X floatatom 201 62 1 0 0 0 - - -;
#X obj 201 85 list, f 1;
#X floatatom 231 62 1 0 0 0 - - -;
#X obj 231 85 list, f 1;
#X floatatom 260 62 1 0 0 0 - - -;
#X obj 260 85 list, f 1;
#X floatatom 290 62 1 0 0 0 - - -;
#X obj 290 85 list, f 1;
#X floatatom 320 62 1 0 0 0 - - -;
#X obj 320 85 list, f 1;
#X floatatom 350 62 1 0 0 0 - - -;
#X obj 350 85 list, f 1;
#X floatatom 380 62 1 0 0 0 - - -;
#X obj 380 85 list, f 1;
#X floatatom 410 62 1 0 0 0 - - -;
#X obj 410 85 list, f 1;
#X floatatom 440 62 1 0 0 0 - - -;
#X obj 440 85 list, f 1;
#X floatatom 470 62 1 0 0 0 - - -;
#X obj 470 85 list, f 1;
#X floatatom 500 62 1 0 0 0 - - -;
#X obj 500 85 list, f 1;
#X floatatom 530 62 1 0 0 0 - - -;
#X obj 530 85 list, f 1;
#X floatatom 560 62 1 0 0 0 - - -;
#X obj 560 85 list, f 1;
#X floatatom 590 62 1 0 0 0 - - -;
#X obj 590 85 list, f 1;
#X floatatom 620 62 1 0 0 0 - - -;
#X obj 620 85 list, f 1;
#X floatatom 650 62 1 0 0 0 - - -;
#X obj 650 85 list, f 1;
#X floatatom 680 62 1 0 0 0 - - -;
#X obj 680 85 list, f 1;
#X floatatom 710 62 1 0 0 0 - - -;
#X obj 710 85 list, f 1;
#X floatatom 739 62 1 0 0 0 - - -;
#X obj 739 85 list, f 1;
#X floatatom 769 62 1 0 0 0 - - -;
#X obj 769 85 list, f 1;
#X floatatom 799 62 1 0 0 0 - - -;
#X obj 799 85 list, f 1;
#X floatatom 829 62 1 0 0 0 - - -;
#X obj 829 85 list, f 1;
#X floatatom 859 62 1 0 0 0 - - -;
#X obj 859 85 list, f 1;
#X floatatom 889 62 1 0 0 0 - - -;
#X obj 889 85 list, f 1;
#X floatatom 919 62 1 0 0 0 - - -;
#X obj 919 85 list, f 1;
#X floatatom 949 62 1 0 0 0 - - -;
#X obj 949 85 list, f 1;
#X msg 51 186 list /h2 \$1, f 13;
#X msg 81 216 list /h3 \$1, f 13;
#X msg 111 246 list /h4 \$1, f 13;
#X msg 141 276 list /h5 \$1, f 13;
#X msg 171 306 list /h6 \$1, f 13;
#X msg 201 336 list /h7 \$1, f 13;
#X msg 231 366 list /h8 \$1, f 13;
#X msg 260 396 list /h9 \$1, f 13;
#X msg 290 426 list /h10 \$1, f 13;
#X msg 320 456 list /h11 \$1, f 13;
#X msg 350 486 list /h12 \$1, f 13;
#X msg 380 516 list /h13 \$1, f 13;
#X msg 410 546 list /h14 \$1, f 13;
#X msg 440 576 list /h15 \$1, f 13;
#X msg 470 606 list /h16 \$1, f 13;
#X msg 500 636 list /hh1 \$1, f 13;
#X msg 530 666 list /hh2 \$1, f 13;
#X msg 560 696 list /hh3 \$1, f 13;
#X msg 590 726 list /hh4 \$1, f 13;
#X msg 620 756 list /hh5 \$1, f 13;
#X msg 650 786 list /hh6 \$1, f 13;
#X msg 680 816 list /hh7 \$1, f 13;
#X msg 710 846 list /hh8 \$1, f 13;
#X msg 739 876 list /hh9 \$1, f 13;
#X msg 769 906 list /hh10 \$1;
#X msg 799 936 list /hh11 \$1;
#X msg 829 966 list /hh12 \$1;
#X msg 859 996 list /hh13 \$1;
#X msg 889 1026 list /hh14 \$1;
#X msg 919 1056 list /hh15 \$1;
#X msg 949 1085 list /hh16 \$1;
#X connect 0 0 1 0;
#X connect 1 0 2 0;
#X connect 3 0 0 0;
#X connect 3 1 4 0;
#X connect 3 2 6 0;
#X connect 3 3 8 0;
#X connect 3 4 10 0;
#X connect 3 5 12 0;
#X connect 3 6 14 0;
#X connect 3 7 16 0;
#X connect 3 8 18 0;
#X connect 3 9 20 0;
#X connect 3 10 22 0;
#X connect 3 11 24 0;
#X connect 3 12 26 0;
#X connect 3 13 28 0;
#X connect 3 14 30 0;
#X connect 3 15 32 0;
#X connect 3 16 34 0;
#X connect 3 17 36 0;
#X connect 3 18 38 0;
#X connect 3 19 40 0;
#X connect 3 20 42 0;
#X connect 3 21 44 0;
#X connect 3 22 46 0;
#X connect 3 23 48 0;
#X connect 3 24 50 0;
#X connect 3 25 52 0;
#X connect 3 26 54 0;
#X connect 3 27 56 0;
#X connect 3 28 58 0;
#X connect 3 29 60 0;
#X connect 3 30 62 0;
#X connect 3 31 64 0;
#X connect 4 0 5 0;
#X connect 5 0 66 0;
#X connect 6 0 7 0;
#X connect 7 0 67 0;
#X connect 8 0 9 0;
#X connect 9 0 68 0;
#X connect 10 0 11 0;
#X connect 11 0 69 0;
#X connect 12 0 13 0;
#X connect 13 0 70 0;
#X connect 14 0 15 0;
#X connect 15 0 71 0;
#X connect 16 0 17 0;
#X connect 17 0 72 0;
#X connect 18 0 19 0;
#X connect 19 0 73 0;
#X connect 20 0 21 0;
#X connect 21 0 74 0;
#X connect 22 0 23 0;
#X connect 23 0 75 0;
#X connect 24 0 25 0;
#X connect 25 0 76 0;
#X connect 26 0 27 0;
#X connect 27 0 77 0;
#X connect 28 0 29 0;
#X connect 29 0 78 0;
#X connect 30 0 31 0;
#X connect 31 0 79 0;
#X connect 32 0 33 0;
#X connect 33 0 80 0;
#X connect 34 0 35 0;
#X connect 35 0 81 0;
#X connect 36 0 37 0;
#X connect 37 0 82 0;
#X connect 38 0 39 0;
#X connect 39 0 83 0;
#X connect 40 0 41 0;
#X connect 41 0 84 0;
#X connect 42 0 43 0;
#X connect 43 0 85 0;
#X connect 44 0 45 0;
#X connect 45 0 86 0;
#X connect 46 0 47 0;
#X connect 47 0 87 0;
#X connect 48 0 49 0;
#X connect 49 0 88 0;
#X connect 50 0 51 0;
#X connect 51 0 89 0;
#X connect 52 0 53 0;
#X connect 53 0 90 0;
#X connect 54 0 55 0;
#X connect 55 0 91 0;
#X connect 56 0 57 0;
#X connect 57 0 92 0;
#X connect 58 0 59 0;
#X connect 59 0 93 0;
#X connect 60 0 61 0;
#X connect 61 0 94 0;
#X connect 62 0 63 0;
#X connect 63 0 95 0;
#X connect 64 0 65 0;
#X connect 65 0 96 0;
