#N canvas -8 -8 1920 1037 12;
#X obj 99 135 bng 15 250 50 0 empty empty empty 17 7 0 10 -262144 -1
-1;
#X msg 131 181 get 0 3;
#X msg 8 318 add2 \$1;
#X msg 78 318 add2 \$2;
#X msg 148 318 add2 \$3;
#X msg 218 318 add2 \$4;
#X msg 288 318 add2 \$5;
#X msg 358 318 add2 \$6;
#X msg 428 318 add2 \$7;
#X msg 498 318 add2 \$8;
#X msg 568 318 add2 \$9;
#X msg 638 318 add2 \$10;
#X msg 708 318 add2 \$11;
#X msg 778 318 add2 \$12;
#X msg 7 153 set;
#X msg 7 337;
#X obj 8 269 list store;
#N canvas -8 -8 1920 1037 crcle-sktz 0;
#X msg 300 26;
#X msg 435 25;
#X text 282 6 note in;
#X text 422 3 velovity;
#X obj 5 81 s \$0-deg01;
#X obj 85 81 s \$0-deg02;
#X obj 165 81 s \$0-deg03;
#X obj 245 81 s \$0-deg04;
#X obj 325 81 s \$0-deg05;
#X obj 405 81 s \$0-deg06;
#X obj 485 81 s \$0-deg07;
#X obj 565 81 s \$0-deg08;
#X obj 645 81 s \$0-deg09;
#X obj 725 81 s \$0-deg10;
#X obj 805 81 s \$0-deg11;
#X obj 885 81 s \$0-deg12;
#X obj 5 121 r \$0-deg01;
#X obj 85 121 r \$0-deg02;
#X obj 165 121 r \$0-deg03;
#X obj 245 121 r \$0-deg04;
#X obj 325 121 r \$0-deg05;
#X obj 405 121 r \$0-deg06;
#X obj 485 121 r \$0-deg07;
#X obj 565 121 r \$0-deg08;
#X obj 645 121 r \$0-deg09;
#X obj 725 121 r \$0-deg10;
#X obj 805 121 r \$0-deg11;
#X obj 885 121 r \$0-deg12;
#X msg 5 157 C;
#X msg 85 157 C#;
#X msg 165 157 D;
#X msg 245 157 D#;
#X msg 325 157 E;
#X msg 405 157 F;
#X msg 485 157 F#;
#X msg 565 157 G;
#X msg 645 157 G#;
#X msg 725 157 A;
#X msg 805 157 A#;
#X msg 885 157 B;
#X obj 259 207 r \$0-deg01;
#X obj 339 207 r \$0-deg02;
#X obj 419 237 r \$0-deg03;
#X obj 459 297 r \$0-deg04;
#X obj 459 357 r \$0-deg05;
#X obj 419 417 r \$0-deg06;
#X obj 339 447 r \$0-deg07;
#X obj 255 447 r \$0-deg08;
#X obj 179 417 r \$0-deg09;
#X obj 139 357 r \$0-deg10;
#X obj 139 297 r \$0-deg11;
#X obj 169 237 r \$0-deg12;
#X msg 259 231 C;
#X msg 339 231 C#;
#X msg 419 261 D;
#X msg 459 321 D#;
#X msg 459 381 E;
#X msg 419 441 F;
#X msg 339 471 F#;
#X msg 255 471 G;
#X msg 179 441 G#;
#X msg 139 381 A;
#X msg 139 321 A#;
#X msg 169 261 B;
#X msg 5 57 set C;
#X msg 85 57 set C#;
#X msg 165 57 set D;
#X msg 245 57 set D#;
#X msg 325 57 set E;
#X msg 405 57 set F;
#X msg 485 57 set F#;
#X msg 565 57 set G;
#X msg 645 57 set G#;
#X msg 725 57 set A;
#X msg 805 57 set A#;
#X msg 885 57 set B;
#X obj 63 42 bng 15 250 50 0 empty empty empty 17 7 0 10 -262144 -1
-1;
#X text 130 338 --------------------------------------------------------------
;
#X connect 16 0 28 0;
#X connect 17 0 29 0;
#X connect 18 0 30 0;
#X connect 19 0 31 0;
#X connect 20 0 32 0;
#X connect 21 0 33 0;
#X connect 22 0 34 0;
#X connect 23 0 35 0;
#X connect 24 0 36 0;
#X connect 25 0 37 0;
#X connect 26 0 38 0;
#X connect 27 0 39 0;
#X connect 40 0 52 0;
#X connect 41 0 53 0;
#X connect 42 0 54 0;
#X connect 43 0 55 0;
#X connect 44 0 56 0;
#X connect 45 0 57 0;
#X connect 46 0 58 0;
#X connect 47 0 59 0;
#X connect 48 0 60 0;
#X connect 49 0 61 0;
#X connect 50 0 62 0;
#X connect 51 0 63 0;
#X connect 64 0 4 0;
#X connect 65 0 5 0;
#X connect 66 0 6 0;
#X connect 67 0 7 0;
#X connect 68 0 8 0;
#X connect 69 0 9 0;
#X connect 70 0 10 0;
#X connect 71 0 11 0;
#X connect 72 0 12 0;
#X connect 73 0 13 0;
#X connect 74 0 14 0;
#X connect 75 0 15 0;
#X connect 76 0 64 0;
#X connect 76 0 75 0;
#X connect 76 0 74 0;
#X connect 76 0 73 0;
#X connect 76 0 72 0;
#X connect 76 0 71 0;
#X connect 76 0 70 0;
#X connect 76 0 69 0;
#X connect 76 0 68 0;
#X connect 76 0 67 0;
#X connect 76 0 66 0;
#X connect 76 0 65 0;
#X restore 20 79 pd crcle-sktz;
#X msg 131 158 list 1 2 3 4 5 6 7 8 9 10 11 12;
#X obj 8 288 spigot;
#X obj 78 288 spigot;
#X obj 148 288 spigot;
#X obj 218 288 spigot;
#X obj 288 288 spigot;
#X obj 358 288 spigot;
#X obj 428 288 spigot;
#X obj 498 288 spigot;
#X obj 568 288 spigot;
#X obj 638 288 spigot;
#X obj 708 288 spigot;
#X obj 778 288 spigot;
#X obj 457 410 expr~;
#X connect 0 0 16 0;
#X connect 1 0 16 0;
#X connect 2 0 15 0;
#X connect 3 0 15 0;
#X connect 4 0 15 0;
#X connect 5 0 15 0;
#X connect 6 0 15 0;
#X connect 7 0 15 0;
#X connect 8 0 15 0;
#X connect 9 0 15 0;
#X connect 10 0 15 0;
#X connect 11 0 15 0;
#X connect 12 0 15 0;
#X connect 13 0 15 0;
#X connect 14 0 15 0;
#X connect 16 0 19 0;
#X connect 16 0 30 0;
#X connect 16 0 29 0;
#X connect 16 0 28 0;
#X connect 16 0 27 0;
#X connect 16 0 26 0;
#X connect 16 0 25 0;
#X connect 16 0 24 0;
#X connect 16 0 23 0;
#X connect 16 0 22 0;
#X connect 16 0 21 0;
#X connect 16 0 20 0;
#X connect 16 0 19 1;
#X connect 16 0 30 1;
#X connect 16 0 29 1;
#X connect 16 0 28 1;
#X connect 16 0 27 1;
#X connect 16 0 26 1;
#X connect 16 0 25 1;
#X connect 16 0 24 1;
#X connect 16 0 23 1;
#X connect 16 0 22 1;
#X connect 16 0 21 1;
#X connect 16 0 20 1;
#X connect 18 0 16 0;
#X connect 19 0 2 0;
#X connect 20 0 3 0;
#X connect 21 0 4 0;
#X connect 22 0 5 0;
#X connect 23 0 6 0;
#X connect 24 0 7 0;
#X connect 25 0 8 0;
#X connect 26 0 9 0;
#X connect 27 0 10 0;
#X connect 28 0 11 0;
#X connect 29 0 12 0;
#X connect 30 0 13 0;
