#N canvas -8 -8 1936 1040 10;
#X obj 196 377 dac~ 1 2, f 13;
#X obj 196 161 adc~ 1 2;
#X text 179 57 HELLO WORLD;
#X text 180 79 dis dos notin;
#X obj 271 161 receive param;
#X obj 271 186 route 2;
#X obj 271 211 change;
#X obj 196 298 *~;
#X obj 256 298 *~;
#X msg 271 236 \$1 50;
#X obj 271 268 line~;
#X connect 1 0 7 0;
#X connect 1 1 8 0;
#X connect 4 0 5 0;
#X connect 5 0 6 0;
#X connect 6 0 9 0;
#X connect 7 0 0 0;
#X connect 8 0 0 1;
#X connect 9 0 10 0;
#X connect 10 0 7 1;
#X connect 10 0 8 1;
#X coords 0 0 1 1 235 101 0;
