#N canvas -8 -8 1920 1037 12;
#N canvas 0 50 450 250 (subpatch) 0;
#X array a1 100 float 1;
#A 0 -0.387755 -0.387755 -0.387755 -0.387755 -0.387755 -0.387755 -0.387755
0.387755 0.387755 0.387755 0.387755 0.387755 0.387755 0.387755 0.387755
0.387755 0.387755 0.387755 0.387755 0.387755 0.387755 0.387755 0.387755
0.387755 0.387755 0.387755 0.387755 0.387755 0.387755 0.387755 0.387755
0.387755 0.387755 0.387755 0.387755 0.387755 0.387755 0.387755 0.387755
0.387755 0.387755 0.387755 0.387755 0.387755 0.387755 0.387755 0.387755
0.387755 0.387755 0.387755 0.387755 -0.387755 -0.387755 -0.387755 -0.387755
-0.387755 -0.387755 -0.387755 -0.387755 -0.387755 -0.387755 -0.387755
-0.387755 -0.387755 -0.387755 -0.387755 -0.387755 -0.387755 -0.387755
-0.387755 -0.387755 -0.387755 -0.387755 -0.387755 -0.387755 -0.387755
-0.387755 -0.387755 -0.387755 -0.387755 -0.387755 -0.387755 -0.387755
-0.387755 -0.387755 -0.387755 -0.387755 -0.387755 -0.387755 -0.387755
-0.387755 -0.387755 -0.387755 -0.387755 -0.387755 0.387755 0.387755
0.387755 0.387755 0.387755;
#X coords 0 1 100 -1 200 140 1;
#X restore 664 197 graph;
#X obj 36 255 *~;
#X msg 36 196 500;
#X obj 96 190 hsl 128 15 0 1 0 0 empty empty empty -2 -8 0 10 -262144
-1 -1 0 1;
#X obj 93 210 \$1 20;
#X obj 93 234 line~;
#X obj 139 231 tgl 15 0 empty empty empty 17 7 0 10 -262144 -1 -1 0
1;
#X obj 139 251 metro 50;
#X obj 36 231 phasor~;
#X text 34 169 phasor;
#X obj 139 275 tabwrite~ a1;
#X obj 33 431 *~;
#X msg 33 353 500;
#X obj 93 347 hsl 128 15 0 1 0 0 empty empty empty -2 -8 0 10 -262144
-1 -1 0 1;
#X obj 90 367 \$1 20;
#X obj 90 391 line~;
#X obj 136 388 tgl 15 0 empty empty empty 17 7 0 10 -262144 -1 -1 0
1;
#X obj 136 408 metro 50;
#X obj 33 378 phasor~;
#X obj 136 432 tabwrite~ a1;
#X obj 270 365 *~;
#X msg 268 101 500;
#X obj 364 293 hsl 50 15 0 1 0 0 empty empty empty -2 -8 0 10 -262144
-1 -1 0 1;
#X obj 372 318 \$1 20;
#X obj 372 342 line~;
#X obj 327 366 tgl 15 0 empty empty empty 17 7 0 10 -262144 -1 -1 0
1;
#X obj 327 386 metro 50;
#X obj 267 185 phasor~;
#X obj 327 410 tabwrite~ a1;
#X text 266 74 tri;
#X obj 267 208 -~ 0.5;
#X text 31 326 saw;
#X obj 343 185 phasor~;
#X obj 343 208 -~ 0.5;
#X obj 343 149 *~ -1;
#X msg 401 147 0;
#X msg 300 150 0;
#X obj 352 105 bng 15 250 50 0 empty empty empty 17 7 0 10 -262144
-1 -1;
#X obj 266 239 *~ 2;
#X obj 266 264 clip~ 0 1;
#X obj 270 315 +~;
#X obj 345 237 *~ 2;
#X obj 345 262 clip~ 0 1;
#X obj 33 401 -~ 0.5;
#X obj 271 338 -~ 0.5;
#X obj 464 319 *~;
#X msg 465 141 500;
#X obj 532 281 hsl 50 15 0 1 0 0 empty empty empty -2 -8 0 10 -262144
-1 -1 7700 1;
#X obj 540 306 \$1 20;
#X obj 540 330 line~;
#X obj 484 351 tgl 15 0 empty empty empty 17 7 0 10 -262144 -1 -1 0
1;
#X obj 484 371 metro 50;
#X obj 464 225 phasor~;
#X obj 484 395 tabwrite~ a1;
#X obj 464 248 -~ 0.5;
#X obj 540 225 phasor~;
#X obj 540 248 -~ 0.5;
#X obj 540 189 *~ -1;
#X msg 497 190 0;
#X obj 549 145 bng 15 250 50 0 empty empty empty 17 7 0 10 -262144
-1 -1;
#X obj 464 289 +~;
#X text 463 114 square;
#X msg 598 187 0.5;
#X obj 40 107 *~;
#X obj 40 83 osc~;
#X msg 40 48 500;
#X obj 81 42 hsl 128 15 0 1 0 0 empty empty empty -2 -8 0 10 -262144
-1 -1 0 1;
#X obj 78 62 \$1 20;
#X obj 78 86 line~;
#X obj 124 83 tgl 15 0 empty empty empty 17 7 0 10 -262144 -1 -1 0
1;
#X obj 124 103 metro 50;
#X obj 124 127 tabwrite~ a1;
#X text 38 19 sine;
#X connect 1 0 10 0;
#X connect 2 0 8 0;
#X connect 3 0 4 0;
#X connect 4 0 5 0;
#X connect 5 0 1 1;
#X connect 6 0 7 0;
#X connect 7 0 10 0;
#X connect 8 0 1 0;
#X connect 11 0 19 0;
#X connect 12 0 18 0;
#X connect 13 0 14 0;
#X connect 14 0 15 0;
#X connect 15 0 11 1;
#X connect 16 0 17 0;
#X connect 17 0 19 0;
#X connect 18 0 43 0;
#X connect 20 0 28 0;
#X connect 21 0 27 0;
#X connect 21 0 37 0;
#X connect 21 0 34 0;
#X connect 22 0 23 0;
#X connect 23 0 24 0;
#X connect 24 0 20 1;
#X connect 25 0 26 0;
#X connect 26 0 28 0;
#X connect 27 0 30 0;
#X connect 30 0 38 0;
#X connect 32 0 33 0;
#X connect 33 0 41 0;
#X connect 34 0 32 0;
#X connect 35 0 32 1;
#X connect 36 0 27 1;
#X connect 37 0 36 0;
#X connect 37 0 35 0;
#X connect 38 0 39 0;
#X connect 39 0 40 0;
#X connect 40 0 44 0;
#X connect 41 0 42 0;
#X connect 42 0 40 1;
#X connect 43 0 11 0;
#X connect 44 0 20 0;
#X connect 45 0 53 0;
#X connect 46 0 52 0;
#X connect 46 0 59 0;
#X connect 46 0 57 0;
#X connect 47 0 48 0;
#X connect 48 0 49 0;
#X connect 49 0 45 1;
#X connect 50 0 51 0;
#X connect 51 0 53 0;
#X connect 52 0 54 0;
#X connect 54 0 60 0;
#X connect 55 0 56 0;
#X connect 56 0 60 1;
#X connect 57 0 55 0;
#X connect 58 0 52 1;
#X connect 59 0 58 0;
#X connect 59 0 62 0;
#X connect 60 0 45 0;
#X connect 62 0 55 1;
#X connect 63 0 71 0;
#X connect 64 0 63 0;
#X connect 65 0 64 0;
#X connect 66 0 67 0;
#X connect 67 0 68 0;
#X connect 68 0 63 1;
#X connect 69 0 70 0;
#X connect 70 0 71 0;
