#N canvas 564 41 1221 916 12;
#X obj 4 50 metro;
#X floatatom 23 2 5 0 0 1 bpm - -;
#X obj 4 2 tgl 15 0 empty empty empty 17 7 0 10 -262144 -1 -1 0 1;
#X msg 23 26 tempo \$1 permin;
#X obj 4 74 f;
#X obj 33 74 + 1;
#X obj 4 96 mod 16;
#X floatatom 12 120 5 0 0 0 - - -;
#X msg 57 96 16;
#X floatatom 138 64 5 0 0 1 - - -;
#X obj 89 96 loadbang;
#X obj 179 30 vsl 15 50 2 64 1 1 empty empty set_steps 0 -9 0 10 -262144
-1 -1 9800 0;
#X obj 144 40 bng 20 250 50 0 empty empty 16 1 -7 0 10 -262144 -1 -1
;
#N canvas 0 50 450 250 (subpatch) 0;
#X array \$0-seq-steps 16 float 3;
#A 0 3.36429 1.22143 1.22143 3.77143 3.66429 2.25 3.06429 0.771428
4.95 3.08571 0.771428 0.75 4.45714 3.42857 1.30714 0.557142;
#X coords 0 6 16 0 200 140 1 0 0;
#X restore 327 17 graph;
#X text 100 412 legend;
#X text 152 406 0 kick 1 snare 2 hhat 3 kick+snare 4 kick+hhat 5 snare+hhat
6 kick+snare+hhat;
#X obj 384 229 array set \$0-seq-steps;
#X msg 366 187 0 2 3 4 5 6 0 1 2 3 4 5 6 0 1 2;
#X obj 5 174 array get \$0-seq-steps;
#X obj 4 148 hradio 15 1 0 16 empty empty empty 0 -8 0 10 -262144 -1
-1 8;
#X msg 165 174 1;
#X floatatom 5 201 5 0 0 0 - - -;
#X obj 87 201 + 0.5;
#X obj 87 223 int;
#X floatatom 87 247 5 0 0 0 - - -;
#X obj 5 289 select 0 1 2 3 4 5 6;
#X obj 35 423 dac~;
#X obj 497 325 vsl 15 50 0.01 1 1 1 empty empty vol 0 -9 0 10 -262144
-1 -1 9800 0;
#X obj 132 389 +~;
#X floatatom 222 279 5 0 1 0 - - -;
#N canvas 1078 412 578 454 kickst1 0;
#X obj 22 5 inlet;
#X obj 24 106 vline~;
#X obj 24 130 osc~;
#X obj 24 154 *~;
#X obj 24 178 outlet~;
#X obj 138 6 inlet;
#X obj 157 71 f;
#X msg 103 128 \$1 1 0 \, 0 100 1;
#X obj 103 152 vline~;
#X obj 22 37 bng 15 250 50 0 empty empty empty 17 7 0 10 -262144 -1
-1;
#X msg 22 76 150 \, 50 70 0;
#X connect 0 0 9 0;
#X connect 1 0 2 0;
#X connect 2 0 3 0;
#X connect 3 0 4 0;
#X connect 5 0 6 1;
#X connect 6 0 7 0;
#X connect 7 0 8 0;
#X connect 8 0 3 1;
#X connect 9 0 6 0;
#X connect 9 0 10 0;
#X connect 10 0 1 0;
#X restore 52 352 pd kickst1;
#X obj 221 251 bng 15 250 50 0 empty empty empty 17 7 0 10 -262144
-1 -1;
#N canvas 902 246 687 573 snarest1 0;
#X obj 48 54 noise~;
#X obj 48 78 lop~ 3000;
#X obj 48 102 hip~ 1000;
#X obj 48 174 *~;
#X obj 71 124 osc~ 180;
#X obj 71 148 *~ 0.5;
#X obj 118 15 inlet;
#X obj 170 15 inlet;
#X obj 124 50 f;
#X obj 162 134 vline~;
#X obj 162 158 *~;
#X obj 48 202 outlet~;
#X msg 210 70 \$1 1 0 \, 0 150 1;
#X connect 0 0 1 0;
#X connect 1 0 2 0;
#X connect 2 0 3 0;
#X connect 3 0 11 0;
#X connect 4 0 5 0;
#X connect 5 0 3 0;
#X connect 6 0 8 0;
#X connect 7 0 8 1;
#X connect 8 0 12 0;
#X connect 9 0 10 0;
#X connect 9 0 10 1;
#X connect 10 0 3 1;
#X connect 12 0 9 0;
#X restore 160 354 pd snarest1;
#X floatatom 284 265 5 0 1 0 - - -;
#X obj 274 240 bng 15 250 50 0 empty empty empty 17 7 0 10 -262144
-1 -1;
#X msg 51 48 120;
#X floatatom 349 293 5 0 1 0 - - -;
#X obj 339 268 bng 15 250 50 0 empty empty empty 17 7 0 10 -262144
-1 -1;
#N canvas 832 277 768 554 hhatsst1 0;
#X obj 18 41 noise~;
#X obj 18 65 hip~ 20000;
#X obj 18 89 hip~ 10000;
#X obj 18 157 *~;
#X msg 98 64 \$1 \, 0 40 1;
#X obj 98 88 vline~;
#X obj 207 17 inlet;
#X obj 288 15 inlet;
#X obj 199 60 bng 15 250 50 0 empty empty empty 17 7 0 10 -262144 -1
-1;
#X obj 199 80 f;
#X obj 199 104 t f b;
#X obj 199 200 *;
#X obj 217 127 random 10;
#X obj 217 175 + 0.7;
#X obj 217 151 / 20;
#X obj 18 181 outlet~;
#X connect 0 0 1 0;
#X connect 1 0 2 0;
#X connect 2 0 3 0;
#X connect 3 0 15 0;
#X connect 4 0 5 0;
#X connect 5 0 3 1;
#X connect 6 0 8 0;
#X connect 7 0 9 1;
#X connect 8 0 9 0;
#X connect 9 0 10 0;
#X connect 10 0 11 0;
#X connect 10 1 12 0;
#X connect 11 0 4 0;
#X connect 12 0 14 0;
#X connect 13 0 11 1;
#X connect 14 0 13 0;
#X restore 277 350 pd hhatsst1;
#X obj 165 333 bng 15 250 50 0 empty empty empty 17 7 0 10 -262144
-1 -1;
#X obj 13 334 bng 15 250 50 0 empty empty empty 17 7 0 10 -262144 -1
-1;
#X obj 278 324 bng 15 250 50 0 empty empty empty 17 7 0 10 -262144
-1 -1;
#X connect 0 0 4 0;
#X connect 1 0 3 0;
#X connect 2 0 0 0;
#X connect 3 0 0 0;
#X connect 4 0 5 0;
#X connect 4 0 6 0;
#X connect 5 0 4 1;
#X connect 6 0 7 0;
#X connect 6 0 19 0;
#X connect 8 0 6 1;
#X connect 9 0 6 1;
#X connect 10 0 8 0;
#X connect 10 0 35 0;
#X connect 10 0 12 0;
#X connect 11 0 9 0;
#X connect 12 0 8 0;
#X connect 17 0 16 0;
#X connect 18 0 21 0;
#X connect 18 0 22 0;
#X connect 19 0 18 0;
#X connect 20 0 18 1;
#X connect 22 0 23 0;
#X connect 23 0 24 0;
#X connect 24 0 25 0;
#X connect 25 0 30 0;
#X connect 25 1 32 0;
#X connect 25 2 38 0;
#X connect 25 3 30 0;
#X connect 25 3 32 0;
#X connect 25 4 30 0;
#X connect 25 4 38 0;
#X connect 25 5 32 0;
#X connect 25 5 38 0;
#X connect 25 6 30 0;
#X connect 25 6 32 0;
#X connect 25 6 38 0;
#X connect 28 0 26 0;
#X connect 28 0 26 1;
#X connect 29 0 30 1;
#X connect 30 0 28 0;
#X connect 31 0 29 0;
#X connect 32 0 28 0;
#X connect 33 0 32 1;
#X connect 34 0 33 0;
#X connect 35 0 3 0;
#X connect 36 0 38 1;
#X connect 37 0 36 0;
#X connect 38 0 28 0;
#X connect 39 0 32 0;
#X connect 40 0 30 0;
#X connect 41 0 38 0;
