#N canvas -1928 -8 1920 1037 12;
#X obj 68 97 hradio 15 1 0 16 empty empty empty 0 -8 0 10 -262144 -1
-1 3;
#N canvas 544 206 1028 757 counter 0;
#X floatatom 47 62 5 0 0 1 bpm - -;
#X obj 28 62 tgl 15 0 empty empty empty 17 7 0 10 -262144 -1 -1 1 1
;
#X msg 47 86 tempo \$1 permin;
#X obj 28 151 f;
#X obj 57 151 + 1;
#X obj 28 173 mod 16;
#X floatatom 36 197 5 0 0 0 - - -;
#X obj 152 62 loadbang;
#X msg 111 62 120;
#X obj 28 106 t f b;
#X msg 73 106 0;
#X obj 28 127 metro 0.25 120 permin;
#X obj 32 7 inlet;
#X obj 102 15 inlet;
#X obj 22 251 outlet;
#X connect 0 0 2 0;
#X connect 1 0 9 0;
#X connect 2 0 11 0;
#X connect 3 0 4 0;
#X connect 3 0 5 0;
#X connect 4 0 3 1;
#X connect 5 0 6 0;
#X connect 6 0 14 0;
#X connect 7 0 8 0;
#X connect 8 0 0 0;
#X connect 9 0 11 0;
#X connect 9 1 10 0;
#X connect 10 0 3 1;
#X connect 11 0 3 0;
#X connect 12 0 1 0;
#X connect 13 0 0 0;
#X restore 68 72 pd counter;
#X obj 68 51 tgl 15 0 empty empty empty 17 7 0 10 -262144 -1 -1 1 1
;
#X floatatom 148 73 5 0 0 0 - - -;
#X msg 148 50 120;
#X obj 148 28 loadbang;
#X obj 68 117 select 0 1 2 3 4 5 6 7 8 9 10 11 12 13 14 15;
#X floatatom 100 297 5 0 1 0 - - -;
#N canvas -1267 204 578 454 kickst1 0;
#X obj 22 5 inlet;
#X obj 24 106 vline~;
#X obj 24 130 osc~;
#X obj 24 154 *~;
#X obj 24 178 outlet~;
#X obj 138 6 inlet;
#X obj 157 71 f;
#X msg 103 128 \$1 1 0 \, 0 100 1;
#X obj 103 152 vline~;
#X obj 22 37 bng 15 250 50 0 empty empty empty 17 7 0 10 -262144 -1
-1;
#X msg 22 76 150 \, 50 70 0;
#X connect 0 0 9 0;
#X connect 1 0 2 0;
#X connect 2 0 3 0;
#X connect 3 0 4 0;
#X connect 5 0 6 1;
#X connect 6 0 7 0;
#X connect 7 0 8 0;
#X connect 8 0 3 1;
#X connect 9 0 6 0;
#X connect 9 0 10 0;
#X connect 10 0 1 0;
#X coords 0 454 1 453 85 60 0;
#X restore 65 319 pd kickst1;
#N canvas -1512 104 687 573 snarest1 0;
#X obj 48 54 noise~;
#X obj 48 78 lop~ 3000;
#X obj 48 102 hip~ 1000;
#X obj 48 174 *~;
#X obj 71 124 osc~ 180;
#X obj 71 148 *~ 0.5;
#X obj 118 15 inlet;
#X obj 170 15 inlet;
#X obj 124 50 f;
#X obj 162 134 vline~;
#X obj 162 158 *~;
#X obj 48 202 outlet~;
#X msg 210 70 \$1 1 0 \, 0 150 1;
#X connect 0 0 1 0;
#X connect 1 0 2 0;
#X connect 2 0 3 0;
#X connect 3 0 11 0;
#X connect 4 0 5 0;
#X connect 5 0 3 0;
#X connect 6 0 8 0;
#X connect 7 0 8 1;
#X connect 8 0 12 0;
#X connect 9 0 10 0;
#X connect 9 0 10 1;
#X connect 10 0 3 1;
#X connect 12 0 9 0;
#X restore 149 319 pd snarest1;
#X floatatom 172 294 5 0 1 0 - - -;
#X floatatom 271 296 5 0 1 0 - - -;
#N canvas -1317 157 768 554 hhatsst1 0;
#X obj 18 41 noise~;
#X obj 18 65 hip~ 20000;
#X obj 18 89 hip~ 10000;
#X obj 18 157 *~;
#X msg 98 64 \$1 \, 0 40 1;
#X obj 98 88 vline~;
#X obj 207 17 inlet;
#X obj 288 15 inlet;
#X obj 199 60 bng 15 250 50 0 empty empty empty 17 7 0 10 -262144 -1
-1;
#X obj 199 80 f;
#X obj 199 104 t f b;
#X obj 199 200 *;
#X obj 217 127 random 10;
#X obj 217 175 + 0.7;
#X obj 217 151 / 20;
#X obj 18 181 outlet~;
#X connect 0 0 1 0;
#X connect 1 0 2 0;
#X connect 2 0 3 0;
#X connect 3 0 15 0;
#X connect 4 0 5 0;
#X connect 5 0 3 1;
#X connect 6 0 8 0;
#X connect 7 0 9 1;
#X connect 8 0 9 0;
#X connect 9 0 10 0;
#X connect 10 0 11 0;
#X connect 10 1 12 0;
#X connect 11 0 4 0;
#X connect 12 0 14 0;
#X connect 13 0 11 1;
#X connect 14 0 13 0;
#X restore 235 319 pd hhatsst1;
#X obj 149 298 bng 15 250 50 0 empty empty empty 17 7 0 10 -262144
-1 -1;
#X obj 235 298 bng 15 250 50 0 empty empty empty 17 7 0 10 -262144
-1 -1;
#X obj 61 296 bng 15 250 50 0 empty empty empty 17 7 0 10 -262144 -1
-1;
#X obj 148 414 dac~;
#X obj 152 384 +~;
#N canvas -8 -8 1920 1037 PlayKick 0;
#X obj 87 176 spigot;
#X obj 87 78 inlet;
#X obj 136 176 spigot;
#X obj 136 78 inlet;
#X obj 185 176 spigot;
#X obj 185 78 inlet;
#X obj 234 176 spigot;
#X obj 234 78 inlet;
#X obj 282 176 spigot;
#X obj 282 78 inlet;
#X obj 330 176 spigot;
#X obj 330 78 inlet;
#X obj 378 176 spigot;
#X obj 378 78 inlet;
#X obj 426 176 spigot;
#X obj 426 78 inlet;
#X obj 474 176 spigot;
#X obj 474 78 inlet;
#X obj 522 176 spigot;
#X obj 522 78 inlet;
#X obj 570 176 spigot;
#X obj 570 78 inlet;
#X obj 618 176 spigot;
#X obj 618 78 inlet;
#X obj 666 176 spigot;
#X obj 666 78 inlet;
#X obj 715 176 spigot;
#X obj 715 78 inlet;
#X obj 764 176 spigot;
#X obj 764 78 inlet;
#X obj 102 105 tgl 15 0 empty empty empty 17 7 0 10 -262144 -1 -1 1
1;
#X obj 119 105 tgl 15 0 empty empty empty 17 7 0 10 -262144 -1 -1 0
1;
#X obj 136 105 tgl 15 0 empty empty empty 17 7 0 10 -262144 -1 -1 0
1;
#X obj 153 105 tgl 15 0 empty empty empty 17 7 0 10 -262144 -1 -1 0
1;
#X obj 170 105 tgl 15 0 empty empty empty 17 7 0 10 -262144 -1 -1 1
1;
#X obj 187 105 tgl 15 0 empty empty empty 17 7 0 10 -262144 -1 -1 0
1;
#X obj 204 105 tgl 15 0 empty empty empty 17 7 0 10 -262144 -1 -1 0
1;
#X obj 221 105 tgl 15 0 empty empty empty 17 7 0 10 -262144 -1 -1 0
1;
#X obj 238 105 tgl 15 0 empty empty empty 17 7 0 10 -262144 -1 -1 1
1;
#X obj 255 105 tgl 15 0 empty empty empty 17 7 0 10 -262144 -1 -1 1
1;
#X obj 272 105 tgl 15 0 empty empty empty 17 7 0 10 -262144 -1 -1 0
1;
#X obj 289 105 tgl 15 0 empty empty empty 17 7 0 10 -262144 -1 -1 0
1;
#X obj 306 105 tgl 15 0 empty empty empty 17 7 0 10 -262144 -1 -1 0
1;
#X obj 324 105 tgl 15 0 empty empty empty 17 7 0 10 -262144 -1 -1 1
1;
#X obj 341 105 tgl 15 0 empty empty empty 17 7 0 10 -262144 -1 -1 0
1;
#X obj 358 105 tgl 15 0 empty empty empty 17 7 0 10 -262144 -1 -1 0
1;
#X obj 87 203 s kt;
#X obj 136 203 s kt;
#X obj 185 203 s kt;
#X obj 234 203 s kt;
#X obj 282 203 s kt;
#X obj 330 203 s kt;
#X obj 378 203 s kt;
#X obj 426 203 s kt;
#X obj 474 203 s kt;
#X obj 522 203 s kt;
#X obj 570 203 s kt;
#X obj 618 203 s kt;
#X obj 666 203 s kt;
#X obj 715 203 s kt;
#X obj 764 203 s kt;
#X obj 375 105 tgl 15 0 empty empty empty 17 7 0 10 -262144 -1 -1 0
1;
#X obj 812 176 spigot;
#X obj 812 78 inlet;
#X obj 812 203 s kt;
#X connect 0 0 46 0;
#X connect 1 0 0 0;
#X connect 2 0 47 0;
#X connect 3 0 2 0;
#X connect 4 0 48 0;
#X connect 5 0 4 0;
#X connect 6 0 49 0;
#X connect 7 0 6 0;
#X connect 8 0 50 0;
#X connect 9 0 8 0;
#X connect 10 0 51 0;
#X connect 11 0 10 0;
#X connect 12 0 52 0;
#X connect 13 0 12 0;
#X connect 14 0 53 0;
#X connect 15 0 14 0;
#X connect 16 0 54 0;
#X connect 17 0 16 0;
#X connect 18 0 55 0;
#X connect 19 0 18 0;
#X connect 20 0 56 0;
#X connect 21 0 20 0;
#X connect 22 0 57 0;
#X connect 23 0 22 0;
#X connect 24 0 58 0;
#X connect 25 0 24 0;
#X connect 26 0 59 0;
#X connect 27 0 26 0;
#X connect 28 0 60 0;
#X connect 29 0 28 0;
#X connect 30 0 0 1;
#X connect 31 0 2 1;
#X connect 33 0 4 1;
#X connect 34 0 6 1;
#X connect 35 0 8 1;
#X connect 36 0 10 1;
#X connect 37 0 12 1;
#X connect 38 0 14 1;
#X connect 39 0 16 1;
#X connect 40 0 18 1;
#X connect 41 0 20 1;
#X connect 42 0 22 1;
#X connect 43 0 24 1;
#X connect 44 0 26 1;
#X connect 45 0 28 1;
#X connect 61 0 62 1;
#X connect 62 0 64 0;
#X connect 63 0 62 0;
#X coords 0 -1 1 1 292 25 2 100 100;
#X restore 461 92 pd PlayKick;
#X obj 52 264 r kt;
#N canvas -8 -8 1920 1037 PlaySnare 0;
#X obj 87 176 spigot;
#X obj 87 78 inlet;
#X obj 136 176 spigot;
#X obj 136 78 inlet;
#X obj 185 176 spigot;
#X obj 185 78 inlet;
#X obj 234 176 spigot;
#X obj 234 78 inlet;
#X obj 282 176 spigot;
#X obj 282 78 inlet;
#X obj 330 176 spigot;
#X obj 330 78 inlet;
#X obj 378 176 spigot;
#X obj 378 78 inlet;
#X obj 426 176 spigot;
#X obj 426 78 inlet;
#X obj 474 176 spigot;
#X obj 474 78 inlet;
#X obj 522 176 spigot;
#X obj 522 78 inlet;
#X obj 570 176 spigot;
#X obj 570 78 inlet;
#X obj 618 176 spigot;
#X obj 618 78 inlet;
#X obj 666 176 spigot;
#X obj 666 78 inlet;
#X obj 715 176 spigot;
#X obj 715 78 inlet;
#X obj 764 176 spigot;
#X obj 764 78 inlet;
#X obj 102 105 tgl 15 0 empty empty empty 17 7 0 10 -262144 -1 -1 0
1;
#X obj 119 105 tgl 15 0 empty empty empty 17 7 0 10 -262144 -1 -1 1
1;
#X obj 136 105 tgl 15 0 empty empty empty 17 7 0 10 -262144 -1 -1 0
1;
#X obj 153 105 tgl 15 0 empty empty empty 17 7 0 10 -262144 -1 -1 1
1;
#X obj 170 105 tgl 15 0 empty empty empty 17 7 0 10 -262144 -1 -1 0
1;
#X obj 187 105 tgl 15 0 empty empty empty 17 7 0 10 -262144 -1 -1 1
1;
#X obj 204 105 tgl 15 0 empty empty empty 17 7 0 10 -262144 -1 -1 0
1;
#X obj 221 105 tgl 15 0 empty empty empty 17 7 0 10 -262144 -1 -1 1
1;
#X obj 238 105 tgl 15 0 empty empty empty 17 7 0 10 -262144 -1 -1 0
1;
#X obj 255 105 tgl 15 0 empty empty empty 17 7 0 10 -262144 -1 -1 1
1;
#X obj 272 105 tgl 15 0 empty empty empty 17 7 0 10 -262144 -1 -1 0
1;
#X obj 289 105 tgl 15 0 empty empty empty 17 7 0 10 -262144 -1 -1 1
1;
#X obj 306 105 tgl 15 0 empty empty empty 17 7 0 10 -262144 -1 -1 0
1;
#X obj 324 105 tgl 15 0 empty empty empty 17 7 0 10 -262144 -1 -1 1
1;
#X obj 341 105 tgl 15 0 empty empty empty 17 7 0 10 -262144 -1 -1 0
1;
#X obj 358 105 tgl 15 0 empty empty empty 17 7 0 10 -262144 -1 -1 1
1;
#X obj 375 105 tgl 15 0 empty empty empty 17 7 0 10 -262144 -1 -1 0
1;
#X obj 812 176 spigot;
#X obj 812 78 inlet;
#X obj 87 203 s st;
#X obj 136 203 s st;
#X obj 185 203 s st;
#X obj 234 203 s st;
#X obj 282 203 s st;
#X obj 330 203 s st;
#X obj 378 203 s st;
#X obj 426 203 s st;
#X obj 474 203 s st;
#X obj 522 203 s st;
#X obj 570 203 s st;
#X obj 618 203 s st;
#X obj 666 203 s st;
#X obj 715 203 s st;
#X obj 764 203 s st;
#X obj 812 203 s st;
#X connect 0 0 49 0;
#X connect 1 0 0 0;
#X connect 2 0 50 0;
#X connect 3 0 2 0;
#X connect 4 0 51 0;
#X connect 5 0 4 0;
#X connect 6 0 52 0;
#X connect 7 0 6 0;
#X connect 8 0 53 0;
#X connect 9 0 8 0;
#X connect 10 0 54 0;
#X connect 11 0 10 0;
#X connect 12 0 55 0;
#X connect 13 0 12 0;
#X connect 14 0 56 0;
#X connect 15 0 14 0;
#X connect 16 0 57 0;
#X connect 17 0 16 0;
#X connect 18 0 58 0;
#X connect 19 0 18 0;
#X connect 20 0 59 0;
#X connect 21 0 20 0;
#X connect 22 0 60 0;
#X connect 23 0 22 0;
#X connect 24 0 61 0;
#X connect 25 0 24 0;
#X connect 26 0 62 0;
#X connect 27 0 26 0;
#X connect 28 0 63 0;
#X connect 29 0 28 0;
#X connect 30 0 0 1;
#X connect 31 0 2 1;
#X connect 33 0 4 1;
#X connect 34 0 6 1;
#X connect 35 0 8 1;
#X connect 36 0 10 1;
#X connect 37 0 12 1;
#X connect 38 0 14 1;
#X connect 39 0 16 1;
#X connect 40 0 18 1;
#X connect 41 0 20 1;
#X connect 42 0 22 1;
#X connect 43 0 24 1;
#X connect 44 0 26 1;
#X connect 45 0 28 1;
#X connect 46 0 47 1;
#X connect 47 0 64 0;
#X connect 48 0 47 0;
#X restore 458 58 pd PlaySnare;
#X f 47;
#X obj 120 247 r st;
#N canvas -8 -8 1920 1037 PlaySeq 0;
#X obj 87 176 spigot;
#X obj 136 176 spigot;
#X obj 185 176 spigot;
#X obj 234 176 spigot;
#X obj 282 176 spigot;
#X obj 330 176 spigot;
#X obj 378 176 spigot;
#X obj 426 176 spigot;
#X obj 474 176 spigot;
#X obj 522 176 spigot;
#X obj 570 176 spigot;
#X obj 618 176 spigot;
#X obj 666 176 spigot;
#X obj 715 176 spigot;
#X obj 764 176 spigot;
#X obj 102 105 tgl 15 0 empty empty empty 17 7 0 10 -262144 -1 -1 1
1;
#X obj 119 105 tgl 15 0 empty empty empty 17 7 0 10 -262144 -1 -1 0
1;
#X obj 136 105 tgl 15 0 empty empty empty 17 7 0 10 -262144 -1 -1 1
1;
#X obj 153 105 tgl 15 0 empty empty empty 17 7 0 10 -262144 -1 -1 0
1;
#X obj 170 105 tgl 15 0 empty empty empty 17 7 0 10 -262144 -1 -1 1
1;
#X obj 187 105 tgl 15 0 empty empty empty 17 7 0 10 -262144 -1 -1 0
1;
#X obj 204 105 tgl 15 0 empty empty empty 17 7 0 10 -262144 -1 -1 1
1;
#X obj 221 105 tgl 15 0 empty empty empty 17 7 0 10 -262144 -1 -1 0
1;
#X obj 238 105 tgl 15 0 empty empty empty 17 7 0 10 -262144 -1 -1 1
1;
#X obj 255 105 tgl 15 0 empty empty empty 17 7 0 10 -262144 -1 -1 0
1;
#X obj 272 105 tgl 15 0 empty empty empty 17 7 0 10 -262144 -1 -1 0
1;
#X obj 289 105 tgl 15 0 empty empty empty 17 7 0 10 -262144 -1 -1 0
1;
#X obj 306 105 tgl 15 0 empty empty empty 17 7 0 10 -262144 -1 -1 0
1;
#X obj 324 105 tgl 15 0 empty empty empty 17 7 0 10 -262144 -1 -1 0
1;
#X obj 341 105 tgl 15 0 empty empty empty 17 7 0 10 -262144 -1 -1 0
1;
#X obj 358 105 tgl 15 0 empty empty empty 17 7 0 10 -262144 -1 -1 0
1;
#X obj 87 203 s kt;
#X obj 136 203 s kt;
#X obj 185 203 s kt;
#X obj 234 203 s kt;
#X obj 282 203 s kt;
#X obj 330 203 s kt;
#X obj 378 203 s kt;
#X obj 426 203 s kt;
#X obj 474 203 s kt;
#X obj 522 203 s kt;
#X obj 570 203 s kt;
#X obj 618 203 s kt;
#X obj 666 203 s kt;
#X obj 715 203 s kt;
#X obj 764 203 s kt;
#X obj 375 105 tgl 15 0 empty empty empty 17 7 0 10 -262144 -1 -1 0
1;
#X obj 812 176 spigot;
#X obj 812 203 s kt;
#X obj 77 233 spigot;
#X obj 126 233 spigot;
#X obj 175 233 spigot;
#X obj 224 233 spigot;
#X obj 272 233 spigot;
#X obj 320 233 spigot;
#X obj 368 233 spigot;
#X obj 416 233 spigot;
#X obj 464 233 spigot;
#X obj 512 233 spigot;
#X obj 560 233 spigot;
#X obj 608 233 spigot;
#X obj 656 233 spigot;
#X obj 705 233 spigot;
#X obj 754 233 spigot;
#X obj 102 122 tgl 15 0 empty empty empty 17 7 0 10 -262144 -1 -1 0
1;
#X obj 119 122 tgl 15 0 empty empty empty 17 7 0 10 -262144 -1 -1 0
1;
#X obj 136 122 tgl 15 0 empty empty empty 17 7 0 10 -262144 -1 -1 0
1;
#X obj 153 122 tgl 15 0 empty empty empty 17 7 0 10 -262144 -1 -1 0
1;
#X obj 170 122 tgl 15 0 empty empty empty 17 7 0 10 -262144 -1 -1 0
1;
#X obj 187 122 tgl 15 0 empty empty empty 17 7 0 10 -262144 -1 -1 0
1;
#X obj 204 122 tgl 15 0 empty empty empty 17 7 0 10 -262144 -1 -1 0
1;
#X obj 221 122 tgl 15 0 empty empty empty 17 7 0 10 -262144 -1 -1 0
1;
#X obj 238 122 tgl 15 0 empty empty empty 17 7 0 10 -262144 -1 -1 0
1;
#X obj 255 122 tgl 15 0 empty empty empty 17 7 0 10 -262144 -1 -1 0
1;
#X obj 272 122 tgl 15 0 empty empty empty 17 7 0 10 -262144 -1 -1 1
1;
#X obj 289 122 tgl 15 0 empty empty empty 17 7 0 10 -262144 -1 -1 0
1;
#X obj 306 122 tgl 15 0 empty empty empty 17 7 0 10 -262144 -1 -1 1
1;
#X obj 324 122 tgl 15 0 empty empty empty 17 7 0 10 -262144 -1 -1 0
1;
#X obj 341 122 tgl 15 0 empty empty empty 17 7 0 10 -262144 -1 -1 1
1;
#X obj 358 122 tgl 15 0 empty empty empty 17 7 0 10 -262144 -1 -1 0
1;
#X obj 375 122 tgl 15 0 empty empty empty 17 7 0 10 -262144 -1 -1 0
1;
#X obj 802 233 spigot;
#X obj 77 260 s st;
#X obj 126 260 s st;
#X obj 175 260 s st;
#X obj 224 260 s st;
#X obj 272 260 s st;
#X obj 320 260 s st;
#X obj 368 260 s st;
#X obj 416 260 s st;
#X obj 464 260 s st;
#X obj 512 260 s st;
#X obj 560 260 s st;
#X obj 608 260 s st;
#X obj 656 260 s st;
#X obj 705 260 s st;
#X obj 754 260 s st;
#X obj 802 260 s st;
#X obj 69 281 spigot;
#X obj 69 33 inlet;
#X obj 118 281 spigot;
#X obj 118 33 inlet;
#X obj 167 281 spigot;
#X obj 167 33 inlet;
#X obj 216 281 spigot;
#X obj 216 33 inlet;
#X obj 264 281 spigot;
#X obj 264 33 inlet;
#X obj 312 281 spigot;
#X obj 312 33 inlet;
#X obj 360 281 spigot;
#X obj 360 33 inlet;
#X obj 408 281 spigot;
#X obj 408 33 inlet;
#X obj 456 281 spigot;
#X obj 456 33 inlet;
#X obj 504 281 spigot;
#X obj 504 33 inlet;
#X obj 552 281 spigot;
#X obj 552 33 inlet;
#X obj 600 281 spigot;
#X obj 600 33 inlet;
#X obj 648 281 spigot;
#X obj 648 33 inlet;
#X obj 697 281 spigot;
#X obj 697 33 inlet;
#X obj 746 281 spigot;
#X obj 746 33 inlet;
#X obj 102 139 tgl 15 0 empty empty empty 17 7 0 10 -262144 -1 -1 1
1;
#X obj 119 139 tgl 15 0 empty empty empty 17 7 0 10 -262144 -1 -1 1
1;
#X obj 136 139 tgl 15 0 empty empty empty 17 7 0 10 -262144 -1 -1 1
1;
#X obj 153 139 tgl 15 0 empty empty empty 17 7 0 10 -262144 -1 -1 1
1;
#X obj 170 139 tgl 15 0 empty empty empty 17 7 0 10 -262144 -1 -1 1
1;
#X obj 187 139 tgl 15 0 empty empty empty 17 7 0 10 -262144 -1 -1 1
1;
#X obj 204 139 tgl 15 0 empty empty empty 17 7 0 10 -262144 -1 -1 1
1;
#X obj 221 139 tgl 15 0 empty empty empty 17 7 0 10 -262144 -1 -1 1
1;
#X obj 238 139 tgl 15 0 empty empty empty 17 7 0 10 -262144 -1 -1 1
1;
#X obj 255 139 tgl 15 0 empty empty empty 17 7 0 10 -262144 -1 -1 1
1;
#X obj 272 139 tgl 15 0 empty empty empty 17 7 0 10 -262144 -1 -1 1
1;
#X obj 289 139 tgl 15 0 empty empty empty 17 7 0 10 -262144 -1 -1 1
1;
#X obj 306 139 tgl 15 0 empty empty empty 17 7 0 10 -262144 -1 -1 1
1;
#X obj 324 139 tgl 15 0 empty empty empty 17 7 0 10 -262144 -1 -1 1
1;
#X obj 341 139 tgl 15 0 empty empty empty 17 7 0 10 -262144 -1 -1 1
1;
#X obj 358 139 tgl 15 0 empty empty empty 17 7 0 10 -262144 -1 -1 1
1;
#X obj 375 139 tgl 15 0 empty empty empty 17 7 0 10 -262144 -1 -1 1
1;
#X obj 794 281 spigot;
#X obj 794 33 inlet;
#X obj 69 308 s sh;
#X obj 118 308 s sh;
#X obj 167 308 s sh;
#X obj 216 308 s sh;
#X obj 264 308 s sh;
#X obj 312 308 s sh;
#X obj 360 308 s sh;
#X obj 408 308 s sh;
#X obj 456 308 s sh;
#X obj 504 308 s sh;
#X obj 552 308 s sh;
#X obj 600 308 s sh;
#X obj 648 308 s sh;
#X obj 697 308 s sh;
#X obj 746 308 s sh;
#X obj 794 308 s sh;
#X connect 0 0 31 0;
#X connect 1 0 32 0;
#X connect 2 0 33 0;
#X connect 3 0 34 0;
#X connect 4 0 35 0;
#X connect 5 0 36 0;
#X connect 6 0 37 0;
#X connect 7 0 38 0;
#X connect 8 0 39 0;
#X connect 9 0 40 0;
#X connect 10 0 41 0;
#X connect 11 0 42 0;
#X connect 12 0 43 0;
#X connect 13 0 44 0;
#X connect 14 0 45 0;
#X connect 15 0 0 1;
#X connect 16 0 1 1;
#X connect 18 0 2 1;
#X connect 19 0 3 1;
#X connect 20 0 4 1;
#X connect 21 0 5 1;
#X connect 22 0 6 1;
#X connect 23 0 7 1;
#X connect 24 0 8 1;
#X connect 25 0 9 1;
#X connect 26 0 10 1;
#X connect 27 0 11 1;
#X connect 28 0 12 1;
#X connect 29 0 13 1;
#X connect 30 0 14 1;
#X connect 46 0 47 1;
#X connect 47 0 48 0;
#X connect 49 0 82 0;
#X connect 50 0 83 0;
#X connect 51 0 84 0;
#X connect 52 0 85 0;
#X connect 53 0 86 0;
#X connect 54 0 87 0;
#X connect 55 0 88 0;
#X connect 56 0 89 0;
#X connect 57 0 90 0;
#X connect 58 0 91 0;
#X connect 59 0 92 0;
#X connect 60 0 93 0;
#X connect 61 0 94 0;
#X connect 62 0 95 0;
#X connect 63 0 96 0;
#X connect 64 0 49 1;
#X connect 65 0 50 1;
#X connect 67 0 51 1;
#X connect 68 0 52 1;
#X connect 69 0 53 1;
#X connect 70 0 54 1;
#X connect 71 0 55 1;
#X connect 72 0 56 1;
#X connect 73 0 57 1;
#X connect 74 0 58 1;
#X connect 75 0 59 1;
#X connect 76 0 60 1;
#X connect 77 0 61 1;
#X connect 78 0 62 1;
#X connect 79 0 63 1;
#X connect 80 0 81 1;
#X connect 81 0 97 0;
#X connect 98 0 147 0;
#X connect 99 0 98 0;
#X connect 99 0 49 0;
#X connect 99 0 0 0;
#X connect 100 0 148 0;
#X connect 101 0 1 0;
#X connect 101 0 50 0;
#X connect 101 0 100 1;
#X connect 102 0 149 0;
#X connect 103 0 2 0;
#X connect 103 0 51 0;
#X connect 103 0 102 0;
#X connect 104 0 150 0;
#X connect 105 0 3 0;
#X connect 105 0 52 0;
#X connect 105 0 104 0;
#X connect 106 0 151 0;
#X connect 107 0 4 0;
#X connect 107 0 53 0;
#X connect 107 0 106 0;
#X connect 108 0 152 0;
#X connect 109 0 5 0;
#X connect 109 0 54 0;
#X connect 109 0 108 0;
#X connect 110 0 153 0;
#X connect 111 0 6 0;
#X connect 111 0 55 0;
#X connect 111 0 110 0;
#X connect 112 0 154 0;
#X connect 113 0 7 0;
#X connect 113 0 56 0;
#X connect 113 0 112 0;
#X connect 114 0 155 0;
#X connect 115 0 8 0;
#X connect 115 0 57 0;
#X connect 115 0 114 0;
#X connect 116 0 156 0;
#X connect 117 0 9 0;
#X connect 117 0 58 0;
#X connect 117 0 116 0;
#X connect 118 0 157 0;
#X connect 119 0 10 0;
#X connect 119 0 59 0;
#X connect 119 0 118 0;
#X connect 120 0 158 0;
#X connect 121 0 11 0;
#X connect 121 0 60 0;
#X connect 121 0 120 0;
#X connect 122 0 159 0;
#X connect 123 0 12 0;
#X connect 123 0 61 0;
#X connect 123 0 122 0;
#X connect 124 0 160 0;
#X connect 125 0 13 0;
#X connect 125 0 62 0;
#X connect 125 0 124 0;
#X connect 126 0 161 0;
#X connect 127 0 14 0;
#X connect 127 0 63 0;
#X connect 127 0 126 0;
#X connect 128 0 98 1;
#X connect 129 0 100 1;
#X connect 131 0 102 1;
#X connect 132 0 104 1;
#X connect 133 0 106 1;
#X connect 134 0 108 1;
#X connect 135 0 110 1;
#X connect 136 0 112 1;
#X connect 137 0 114 1;
#X connect 138 0 116 1;
#X connect 139 0 118 1;
#X connect 140 0 120 1;
#X connect 141 0 122 1;
#X connect 142 0 124 1;
#X connect 143 0 126 1;
#X connect 144 0 145 1;
#X connect 145 0 162 0;
#X connect 146 0 47 0;
#X connect 146 0 81 0;
#X connect 146 0 145 0;
#X coords 0 -1 1 1 292 60 2 100 100;
#X restore 67 147 pd PlaySeq;
#X f 63;
#X obj 223 255 r sh;
#X connect 0 0 6 0;
#X connect 1 0 0 0;
#X connect 2 0 1 0;
#X connect 3 0 1 1;
#X connect 4 0 3 0;
#X connect 5 0 4 0;
#X connect 6 0 22 0;
#X connect 6 1 22 1;
#X connect 6 2 22 2;
#X connect 6 3 22 3;
#X connect 6 4 22 4;
#X connect 6 5 22 5;
#X connect 6 6 22 6;
#X connect 6 7 22 7;
#X connect 6 8 22 8;
#X connect 6 9 22 9;
#X connect 6 10 22 10;
#X connect 6 11 22 11;
#X connect 6 12 22 12;
#X connect 6 13 22 13;
#X connect 6 14 22 14;
#X connect 6 15 22 15;
#X connect 7 0 8 1;
#X connect 8 0 17 0;
#X connect 9 0 17 0;
#X connect 10 0 9 1;
#X connect 11 0 12 1;
#X connect 12 0 17 0;
#X connect 13 0 9 0;
#X connect 14 0 12 0;
#X connect 15 0 8 0;
#X connect 17 0 16 0;
#X connect 17 0 16 1;
#X connect 19 0 15 0;
#X connect 21 0 13 0;
#X connect 23 0 14 0;
