#N canvas -1928 -8 1920 1037 12;
#X obj 11 95 hradio 15 1 0 32 empty empty empty 0 -8 0 10 -262144 -1
-1 7;
#N canvas -8 -8 1920 1037 counter 0;
#X msg 508 160 tempo \$1 permin;
#X obj 370 273 f;
#X obj 399 273 + 1;
#X obj 370 341 mod 16;
#X floatatom 370 367 5 0 0 0 - - -;
#X obj 370 173 t f b;
#X msg 624 192 0;
#X obj 370 209 metro 0.25 120 permin;
#X obj 370 393 outlet;
#X obj 110 125 hradio 15 1 0 2 empty empty empty 0 -8 0 10 -262144
-1 -1 0;
#X text 142 123 16/32 steps;
#X floatatom 149 300 5 0 0 0 - - -;
#X obj 149 321 sel 0 1;
#X msg 149 344 16;
#X msg 185 345 32;
#X obj 46 19 loadbang;
#X msg 110 41 0;
#X obj 149 369 t f;
#X floatatom 149 390 5 0 0 0 - - -;
#X obj 149 411 s setSteps;
#X obj 409 302 r setSteps;
#X text 144 106 on/off;
#X obj 125 108 tgl 15 0 empty empty empty 17 7 0 10 -262144 -1 -1 0
1;
#X floatatom 245 306 5 0 0 0 - - -;
#X obj 245 334 s pwrOnOff;
#X obj 370 81 r pwrOnOff;
#X floatatom 103 142 5 0 900 0 - - -;
#X obj 21 298 s setBPM;
#X obj 508 128 r setBPM;
#X msg 46 61 120;
#X text 142 141 BPM;
#X obj 235 34 key;
#X obj 313 37 sel 32;
#X obj 323 70 bng 15 250 50 0 empty empty empty 17 7 0 10 -262144 -1
-1;
#X obj 793 63 keyname;
#X obj 840 112 sel Left Right;
#X obj 840 182 bng 15 250 50 0 empty empty empty 17 7 0 10 -262144
-1 -1;
#X obj 887 183 bng 15 250 50 0 empty empty empty 17 7 0 10 -262144
-1 -1;
#X obj 846 136 r currBPMn;
#X floatatom 876 221 5 0 0 0 - - -;
#X obj 876 251 t f b;
#X floatatom 876 293 5 0 0 0 - - -;
#X obj 877 318 spigot;
#X obj 877 347 + 1;
#X floatatom 877 371 5 0 0 0 - - -;
#X obj 877 395 s setBPMn;
#X obj 5 87 r setBPMn;
#X floatatom 800 219 5 0 0 0 - - -;
#X obj 800 249 t f b;
#X floatatom 800 291 5 0 0 0 - - -;
#X obj 801 316 spigot;
#X floatatom 801 369 5 0 0 0 - - -;
#X obj 801 393 s setBPMn;
#X obj 801 345 - 1;
#X obj 850 277 bng 15 250 50 0 empty empty empty 17 7 0 10 -262144
-1 -1;
#X obj 916 275 bng 15 250 50 0 empty empty empty 17 7 0 10 -262144
-1 -1;
#X obj 144 -10 keyname;
#X obj 144 34 bng 15 250 50 0 empty empty empty 17 7 0 10 -262144 -1
-1;
#X obj 181 34 bng 15 250 50 0 empty empty empty 17 7 0 10 -262144 -1
-1;
#X obj 144 13 sel Up Down;
#X msg 144 52 0;
#X msg 176 52 1;
#X obj 144 77 hradio 15 1 0 2 empty empty empty 0 -8 0 10 -262144 -1
-1 0;
#X connect 0 0 7 0;
#X connect 1 0 2 0;
#X connect 1 0 3 0;
#X connect 2 0 1 1;
#X connect 3 0 4 0;
#X connect 4 0 8 0;
#X connect 5 0 7 0;
#X connect 5 1 6 0;
#X connect 6 0 1 1;
#X connect 7 0 1 0;
#X connect 9 0 11 0;
#X connect 11 0 12 0;
#X connect 12 0 13 0;
#X connect 12 1 14 0;
#X connect 13 0 17 0;
#X connect 14 0 17 0;
#X connect 15 0 16 0;
#X connect 15 0 29 0;
#X connect 16 0 9 0;
#X connect 16 0 22 0;
#X connect 17 0 18 0;
#X connect 18 0 19 0;
#X connect 20 0 3 1;
#X connect 22 0 23 0;
#X connect 23 0 24 0;
#X connect 25 0 5 0;
#X connect 26 0 27 0;
#X connect 28 0 0 0;
#X connect 29 0 26 0;
#X connect 31 0 32 0;
#X connect 32 0 33 0;
#X connect 33 0 22 0;
#X connect 34 1 35 0;
#X connect 35 0 36 0;
#X connect 35 1 37 0;
#X connect 39 0 40 0;
#X connect 40 0 41 0;
#X connect 40 1 55 0;
#X connect 41 0 42 0;
#X connect 42 0 43 0;
#X connect 43 0 44 0;
#X connect 44 0 45 0;
#X connect 46 0 26 0;
#X connect 47 0 48 0;
#X connect 48 0 49 0;
#X connect 48 1 54 0;
#X connect 49 0 50 0;
#X connect 50 0 53 0;
#X connect 51 0 52 0;
#X connect 53 0 51 0;
#X connect 54 0 50 1;
#X connect 55 0 42 1;
#X connect 56 1 59 0;
#X connect 57 0 60 0;
#X connect 58 0 61 0;
#X connect 59 0 57 0;
#X connect 59 1 58 0;
#X connect 60 0 62 0;
#X connect 61 0 62 0;
#X connect 62 0 9 0;
#X coords 0 -1 1 1 140 65 2 100 100;
#X restore 11 15 pd counter;
#N canvas -8 -8 1920 1037 16steps 0;
#X obj 94 -142 spigot;
#X obj 94 -121 s kt;
#X obj 94 -100 spigot;
#X obj 94 -79 s st;
#X obj 94 -58 spigot;
#X obj 94 -199 inlet;
#X obj 94 -37 s sh;
#X obj 94 -168 t b b b;
#X obj 102 104 tgl 15 0 empty empty empty 17 7 0 10 -262144 -1 -1 1
1;
#X obj 102 -13 t f, f 1;
#X obj 102 138 tgl 15 0 empty empty empty 17 7 0 10 -262144 -1 -1 0
1;
#X obj 102 57 t f, f 1;
#X obj 102 121 tgl 15 0 empty empty empty 17 7 0 10 -262144 -1 -1 0
1;
#X obj 102 22 t f, f 1;
#X obj 149 -142 spigot;
#X obj 149 -121 s kt;
#X obj 149 -100 spigot;
#X obj 149 -79 s st;
#X obj 149 -58 spigot;
#X obj 149 -199 inlet;
#X obj 149 -37 s sh;
#X obj 149 -168 t b b b;
#X obj 119 104 tgl 15 0 empty empty empty 17 7 0 10 -262144 -1 -1 0
1;
#X obj 119 -13 t f, f 1;
#X obj 119 138 tgl 15 0 empty empty empty 17 7 0 10 -262144 -1 -1 0
1;
#X obj 119 57 t f, f 1;
#X obj 119 121 tgl 15 0 empty empty empty 17 7 0 10 -262144 -1 -1 0
1;
#X obj 119 22 t f, f 1;
#X obj 204 -142 spigot;
#X obj 204 -121 s kt;
#X obj 204 -100 spigot;
#X obj 204 -79 s st;
#X obj 204 -58 spigot;
#X obj 204 -199 inlet;
#X obj 204 -37 s sh;
#X obj 204 -168 t b b b;
#X obj 136 104 tgl 15 0 empty empty empty 17 7 0 10 -262144 -1 -1 1
1;
#X obj 136 -13 t f, f 1;
#X obj 136 138 tgl 15 0 empty empty empty 17 7 0 10 -262144 -1 -1 0
1;
#X obj 136 57 t f, f 1;
#X obj 136 121 tgl 15 0 empty empty empty 17 7 0 10 -262144 -1 -1 0
1;
#X obj 136 22 t f, f 1;
#X obj 259 -142 spigot;
#X obj 259 -121 s kt;
#X obj 259 -100 spigot;
#X obj 259 -79 s st;
#X obj 259 -58 spigot;
#X obj 259 -199 inlet;
#X obj 259 -37 s sh;
#X obj 259 -168 t b b b;
#X obj 153 104 tgl 15 0 empty empty empty 17 7 0 10 -262144 -1 -1 0
1;
#X obj 153 -13 t f, f 1;
#X obj 153 138 tgl 15 0 empty empty empty 17 7 0 10 -262144 -1 -1 0
1;
#X obj 153 57 t f, f 1;
#X obj 153 121 tgl 15 0 empty empty empty 17 7 0 10 -262144 -1 -1 0
1;
#X obj 153 22 t f, f 1;
#X obj 314 -142 spigot;
#X obj 314 -121 s kt;
#X obj 314 -100 spigot;
#X obj 314 -79 s st;
#X obj 314 -58 spigot;
#X obj 314 -199 inlet;
#X obj 314 -37 s sh;
#X obj 314 -168 t b b b;
#X obj 170 104 tgl 15 0 empty empty empty 17 7 0 10 -262144 -1 -1 0
1;
#X obj 170 -13 t f, f 1;
#X obj 170 138 tgl 15 0 empty empty empty 17 7 0 10 -262144 -1 -1 0
1;
#X obj 170 57 t f, f 1;
#X obj 170 121 tgl 15 0 empty empty empty 17 7 0 10 -262144 -1 -1 0
1;
#X obj 170 22 t f, f 1;
#X obj 369 -142 spigot;
#X obj 369 -121 s kt;
#X obj 369 -100 spigot;
#X obj 369 -79 s st;
#X obj 369 -58 spigot;
#X obj 369 -199 inlet;
#X obj 369 -37 s sh;
#X obj 369 -168 t b b b;
#X obj 187 104 tgl 15 0 empty empty empty 17 7 0 10 -262144 -1 -1 0
1;
#X obj 187 -13 t f, f 1;
#X obj 187 138 tgl 15 0 empty empty empty 17 7 0 10 -262144 -1 -1 0
1;
#X obj 187 57 t f, f 1;
#X obj 187 121 tgl 15 0 empty empty empty 17 7 0 10 -262144 -1 -1 0
1;
#X obj 187 22 t f, f 1;
#X obj 424 -142 spigot;
#X obj 424 -121 s kt;
#X obj 424 -100 spigot;
#X obj 424 -79 s st;
#X obj 424 -58 spigot;
#X obj 424 -199 inlet;
#X obj 424 -37 s sh;
#X obj 424 -168 t b b b;
#X obj 204 104 tgl 15 0 empty empty empty 17 7 0 10 -262144 -1 -1 0
1;
#X obj 204 -13 t f, f 1;
#X obj 204 138 tgl 15 0 empty empty empty 17 7 0 10 -262144 -1 -1 0
1;
#X obj 204 57 t f, f 1;
#X obj 204 121 tgl 15 0 empty empty empty 17 7 0 10 -262144 -1 -1 0
1;
#X obj 204 22 t f, f 1;
#X obj 479 -142 spigot;
#X obj 479 -121 s kt;
#X obj 479 -100 spigot;
#X obj 479 -79 s st;
#X obj 479 -58 spigot;
#X obj 479 -199 inlet;
#X obj 479 -37 s sh;
#X obj 479 -168 t b b b;
#X obj 221 104 tgl 15 0 empty empty empty 17 7 0 10 -262144 -1 -1 0
1;
#X obj 221 -13 t f, f 1;
#X obj 221 138 tgl 15 0 empty empty empty 17 7 0 10 -262144 -1 -1 0
1;
#X obj 221 57 t f, f 1;
#X obj 221 121 tgl 15 0 empty empty empty 17 7 0 10 -262144 -1 -1 0
1;
#X obj 221 22 t f, f 1;
#X obj 534 -142 spigot;
#X obj 534 -121 s kt;
#X obj 534 -100 spigot;
#X obj 534 -79 s st;
#X obj 534 -58 spigot;
#X obj 534 -199 inlet;
#X obj 534 -37 s sh;
#X obj 534 -168 t b b b;
#X obj 238 104 tgl 15 0 empty empty empty 17 7 0 10 -262144 -1 -1 0
1;
#X obj 238 -13 t f, f 1;
#X obj 238 138 tgl 15 0 empty empty empty 17 7 0 10 -262144 -1 -1 0
1;
#X obj 238 57 t f, f 1;
#X obj 238 121 tgl 15 0 empty empty empty 17 7 0 10 -262144 -1 -1 0
1;
#X obj 238 22 t f, f 1;
#X obj 589 -142 spigot;
#X obj 589 -121 s kt;
#X obj 589 -100 spigot;
#X obj 589 -79 s st;
#X obj 589 -58 spigot;
#X obj 589 -199 inlet;
#X obj 589 -37 s sh;
#X obj 589 -168 t b b b;
#X obj 255 104 tgl 15 0 empty empty empty 17 7 0 10 -262144 -1 -1 0
1;
#X obj 255 -13 t f, f 1;
#X obj 255 138 tgl 15 0 empty empty empty 17 7 0 10 -262144 -1 -1 0
1;
#X obj 255 57 t f, f 1;
#X obj 255 121 tgl 15 0 empty empty empty 17 7 0 10 -262144 -1 -1 0
1;
#X obj 255 22 t f, f 1;
#X obj 644 -142 spigot;
#X obj 644 -121 s kt;
#X obj 644 -100 spigot;
#X obj 644 -79 s st;
#X obj 644 -58 spigot;
#X obj 644 -199 inlet;
#X obj 644 -37 s sh;
#X obj 644 -168 t b b b;
#X obj 272 104 tgl 15 0 empty empty empty 17 7 0 10 -262144 -1 -1 0
1;
#X obj 272 -13 t f, f 1;
#X obj 272 138 tgl 15 0 empty empty empty 17 7 0 10 -262144 -1 -1 0
1;
#X obj 272 57 t f, f 1;
#X obj 272 121 tgl 15 0 empty empty empty 17 7 0 10 -262144 -1 -1 0
1;
#X obj 272 22 t f, f 1;
#X obj 699 -142 spigot;
#X obj 699 -121 s kt;
#X obj 699 -100 spigot;
#X obj 699 -79 s st;
#X obj 699 -58 spigot;
#X obj 699 -199 inlet;
#X obj 699 -37 s sh;
#X obj 699 -168 t b b b;
#X obj 289 104 tgl 15 0 empty empty empty 17 7 0 10 -262144 -1 -1 0
1;
#X obj 289 -13 t f, f 1;
#X obj 289 138 tgl 15 0 empty empty empty 17 7 0 10 -262144 -1 -1 0
1;
#X obj 289 57 t f, f 1;
#X obj 289 121 tgl 15 0 empty empty empty 17 7 0 10 -262144 -1 -1 0
1;
#X obj 289 22 t f, f 1;
#X obj 754 -142 spigot;
#X obj 754 -121 s kt;
#X obj 754 -100 spigot;
#X obj 754 -79 s st;
#X obj 754 -58 spigot;
#X obj 754 -199 inlet;
#X obj 754 -37 s sh;
#X obj 754 -168 t b b b;
#X obj 306 104 tgl 15 0 empty empty empty 17 7 0 10 -262144 -1 -1 0
1;
#X obj 306 -13 t f, f 1;
#X obj 306 138 tgl 15 0 empty empty empty 17 7 0 10 -262144 -1 -1 0
1;
#X obj 306 57 t f, f 1;
#X obj 306 121 tgl 15 0 empty empty empty 17 7 0 10 -262144 -1 -1 0
1;
#X obj 306 22 t f, f 1;
#X obj 809 -142 spigot;
#X obj 809 -121 s kt;
#X obj 809 -100 spigot;
#X obj 809 -79 s st;
#X obj 809 -58 spigot;
#X obj 809 -199 inlet;
#X obj 809 -37 s sh;
#X obj 809 -168 t b b b;
#X obj 323 104 tgl 15 0 empty empty empty 17 7 0 10 -262144 -1 -1 0
1;
#X obj 323 -13 t f, f 1;
#X obj 323 138 tgl 15 0 empty empty empty 17 7 0 10 -262144 -1 -1 0
1;
#X obj 323 57 t f, f 1;
#X obj 323 121 tgl 15 0 empty empty empty 17 7 0 10 -262144 -1 -1 0
1;
#X obj 323 22 t f, f 1;
#X obj 864 -142 spigot;
#X obj 864 -121 s kt;
#X obj 864 -100 spigot;
#X obj 864 -79 s st;
#X obj 864 -58 spigot;
#X obj 864 -199 inlet;
#X obj 864 -37 s sh;
#X obj 864 -168 t b b b;
#X obj 340 104 tgl 15 0 empty empty empty 17 7 0 10 -262144 -1 -1 0
1;
#X obj 340 -13 t f, f 1;
#X obj 340 138 tgl 15 0 empty empty empty 17 7 0 10 -262144 -1 -1 0
1;
#X obj 340 57 t f, f 1;
#X obj 340 121 tgl 15 0 empty empty empty 17 7 0 10 -262144 -1 -1 0
1;
#X obj 340 22 t f, f 1;
#X obj 919 -142 spigot;
#X obj 919 -121 s kt;
#X obj 919 -100 spigot;
#X obj 919 -79 s st;
#X obj 919 -58 spigot;
#X obj 919 -199 inlet;
#X obj 919 -37 s sh;
#X obj 919 -168 t b b b;
#X obj 357 104 tgl 15 0 empty empty empty 17 7 0 10 -262144 -1 -1 0
1;
#X obj 357 -13 t f, f 1;
#X obj 357 138 tgl 15 0 empty empty empty 17 7 0 10 -262144 -1 -1 0
1;
#X obj 357 57 t f, f 1;
#X obj 357 121 tgl 15 0 empty empty empty 17 7 0 10 -262144 -1 -1 0
1;
#X obj 357 22 t f, f 1;
#X connect 0 0 1 0;
#X connect 2 0 3 0;
#X connect 4 0 6 0;
#X connect 5 0 7 0;
#X connect 7 0 0 0;
#X connect 7 1 2 0;
#X connect 7 2 4 0;
#X connect 8 0 9 0;
#X connect 9 0 0 1;
#X connect 10 0 11 0;
#X connect 11 0 4 1;
#X connect 12 0 13 0;
#X connect 13 0 2 1;
#X connect 14 0 15 0;
#X connect 16 0 17 0;
#X connect 18 0 20 0;
#X connect 19 0 21 0;
#X connect 21 0 14 0;
#X connect 21 1 16 0;
#X connect 21 2 18 0;
#X connect 22 0 23 0;
#X connect 23 0 14 1;
#X connect 24 0 25 0;
#X connect 25 0 18 1;
#X connect 26 0 27 0;
#X connect 27 0 16 1;
#X connect 28 0 29 0;
#X connect 30 0 31 0;
#X connect 32 0 34 0;
#X connect 33 0 35 0;
#X connect 35 0 28 0;
#X connect 35 1 30 0;
#X connect 35 2 32 0;
#X connect 36 0 37 0;
#X connect 37 0 28 1;
#X connect 38 0 39 0;
#X connect 39 0 32 1;
#X connect 40 0 41 0;
#X connect 41 0 30 1;
#X connect 42 0 43 0;
#X connect 44 0 45 0;
#X connect 46 0 48 0;
#X connect 47 0 49 0;
#X connect 49 0 42 0;
#X connect 49 1 44 0;
#X connect 49 2 46 0;
#X connect 50 0 51 0;
#X connect 51 0 42 1;
#X connect 52 0 53 0;
#X connect 53 0 46 1;
#X connect 54 0 55 0;
#X connect 55 0 44 1;
#X connect 56 0 57 0;
#X connect 58 0 59 0;
#X connect 60 0 62 0;
#X connect 61 0 63 0;
#X connect 63 0 56 0;
#X connect 63 1 58 0;
#X connect 63 2 60 0;
#X connect 64 0 65 0;
#X connect 65 0 56 1;
#X connect 66 0 67 0;
#X connect 67 0 60 1;
#X connect 68 0 69 0;
#X connect 69 0 58 1;
#X connect 70 0 71 0;
#X connect 72 0 73 0;
#X connect 74 0 76 0;
#X connect 75 0 77 0;
#X connect 77 0 70 0;
#X connect 77 1 72 0;
#X connect 77 2 74 0;
#X connect 78 0 79 0;
#X connect 79 0 70 1;
#X connect 80 0 81 0;
#X connect 81 0 74 1;
#X connect 82 0 83 0;
#X connect 83 0 72 1;
#X connect 84 0 85 0;
#X connect 86 0 87 0;
#X connect 88 0 90 0;
#X connect 89 0 91 0;
#X connect 91 0 84 0;
#X connect 91 1 86 0;
#X connect 91 2 88 0;
#X connect 92 0 93 0;
#X connect 93 0 84 1;
#X connect 94 0 95 0;
#X connect 95 0 88 1;
#X connect 96 0 97 0;
#X connect 97 0 86 1;
#X connect 98 0 99 0;
#X connect 100 0 101 0;
#X connect 102 0 104 0;
#X connect 103 0 105 0;
#X connect 105 0 98 0;
#X connect 105 1 100 0;
#X connect 105 2 102 0;
#X connect 106 0 107 0;
#X connect 107 0 98 1;
#X connect 108 0 109 0;
#X connect 109 0 102 1;
#X connect 110 0 111 0;
#X connect 111 0 100 1;
#X connect 112 0 113 0;
#X connect 114 0 115 0;
#X connect 116 0 118 0;
#X connect 117 0 119 0;
#X connect 119 0 112 0;
#X connect 119 1 114 0;
#X connect 119 2 116 0;
#X connect 120 0 121 0;
#X connect 121 0 112 1;
#X connect 122 0 123 0;
#X connect 123 0 116 1;
#X connect 124 0 125 0;
#X connect 125 0 114 1;
#X connect 126 0 127 0;
#X connect 128 0 129 0;
#X connect 130 0 132 0;
#X connect 131 0 133 0;
#X connect 133 0 126 0;
#X connect 133 1 128 0;
#X connect 133 2 130 0;
#X connect 134 0 135 0;
#X connect 135 0 126 1;
#X connect 136 0 137 0;
#X connect 137 0 130 1;
#X connect 138 0 139 0;
#X connect 139 0 128 1;
#X connect 140 0 141 0;
#X connect 142 0 143 0;
#X connect 144 0 146 0;
#X connect 145 0 147 0;
#X connect 147 0 140 0;
#X connect 147 1 142 0;
#X connect 147 2 144 0;
#X connect 148 0 149 0;
#X connect 149 0 140 1;
#X connect 150 0 151 0;
#X connect 151 0 144 1;
#X connect 152 0 153 0;
#X connect 153 0 142 1;
#X connect 154 0 155 0;
#X connect 156 0 157 0;
#X connect 158 0 160 0;
#X connect 159 0 161 0;
#X connect 161 0 154 0;
#X connect 161 1 156 0;
#X connect 161 2 158 0;
#X connect 162 0 163 0;
#X connect 163 0 154 1;
#X connect 164 0 165 0;
#X connect 165 0 158 1;
#X connect 166 0 167 0;
#X connect 167 0 156 1;
#X connect 168 0 169 0;
#X connect 170 0 171 0;
#X connect 172 0 174 0;
#X connect 173 0 175 0;
#X connect 175 0 168 0;
#X connect 175 1 170 0;
#X connect 175 2 172 0;
#X connect 176 0 177 0;
#X connect 177 0 168 1;
#X connect 178 0 179 0;
#X connect 179 0 172 1;
#X connect 180 0 181 0;
#X connect 181 0 170 1;
#X connect 182 0 183 0;
#X connect 184 0 185 0;
#X connect 186 0 188 0;
#X connect 187 0 189 0;
#X connect 189 0 182 0;
#X connect 189 1 184 0;
#X connect 189 2 186 0;
#X connect 190 0 191 0;
#X connect 191 0 182 1;
#X connect 192 0 193 0;
#X connect 193 0 186 1;
#X connect 194 0 195 0;
#X connect 195 0 184 1;
#X connect 196 0 197 0;
#X connect 198 0 199 0;
#X connect 200 0 202 0;
#X connect 201 0 203 0;
#X connect 203 0 196 0;
#X connect 203 1 198 0;
#X connect 203 2 200 0;
#X connect 204 0 205 0;
#X connect 205 0 196 1;
#X connect 206 0 207 0;
#X connect 207 0 200 1;
#X connect 208 0 209 0;
#X connect 209 0 198 1;
#X connect 210 0 211 0;
#X connect 212 0 213 0;
#X connect 214 0 216 0;
#X connect 215 0 217 0;
#X connect 217 0 210 0;
#X connect 217 1 212 0;
#X connect 217 2 214 0;
#X connect 218 0 219 0;
#X connect 219 0 210 1;
#X connect 220 0 221 0;
#X connect 221 0 214 1;
#X connect 222 0 223 0;
#X connect 223 0 212 1;
#X coords 0 -1 1 1 274 55 2 100 100;
#X restore 11 151 pd 16steps;
#X f 32;
#X obj 365 38 bng 15 250 50 0 empty empty empty 17 7 0 10 -262144 -1
-1;
#N canvas -8 -8 1920 1037 1step 0;
#X obj 20 65 spigot;
#X obj 20 86 s kt;
#X obj 20 107 spigot;
#X obj 20 128 s st;
#X obj 20 149 spigot;
#X obj 20 8 inlet;
#X obj 20 170 s sh;
#X obj 20 39 t b b b;
#X obj 28 309 tgl 15 0 empty empty empty 17 7 0 10 -262144 -1 -1 0
1;
#X obj 28 194 t f, f 1;
#X obj 28 344 tgl 15 0 empty empty empty 17 7 0 10 -262144 -1 -1 0
1;
#X obj 28 264 t f, f 1;
#X obj 28 327 tgl 15 0 empty empty empty 17 7 0 10 -262144 -1 -1 0
1;
#X obj 28 229 t f, f 1;
#X connect 0 0 1 0;
#X connect 2 0 3 0;
#X connect 4 0 6 0;
#X connect 5 0 7 0;
#X connect 7 0 0 0;
#X connect 7 1 2 0;
#X connect 7 2 4 0;
#X connect 8 0 9 0;
#X connect 9 0 0 1;
#X connect 10 0 11 0;
#X connect 11 0 4 1;
#X connect 12 0 13 0;
#X connect 13 0 2 1;
#X restore 365 59 pd 1step;
#N canvas -8 -8 1920 1037 16steps 0;
#X obj 94 -142 spigot;
#X obj 94 -121 s kt;
#X obj 94 -100 spigot;
#X obj 94 -79 s st;
#X obj 94 -58 spigot;
#X obj 94 -199 inlet;
#X obj 94 -37 s sh;
#X obj 94 -168 t b b b;
#X obj 102 104 tgl 15 0 empty empty empty 17 7 0 10 -262144 -1 -1 0
1;
#X obj 102 -13 t f, f 1;
#X obj 102 138 tgl 15 0 empty empty empty 17 7 0 10 -262144 -1 -1 0
1;
#X obj 102 57 t f, f 1;
#X obj 102 121 tgl 15 0 empty empty empty 17 7 0 10 -262144 -1 -1 0
1;
#X obj 102 22 t f, f 1;
#X obj 149 -142 spigot;
#X obj 149 -121 s kt;
#X obj 149 -100 spigot;
#X obj 149 -79 s st;
#X obj 149 -58 spigot;
#X obj 149 -199 inlet;
#X obj 149 -37 s sh;
#X obj 149 -168 t b b b;
#X obj 119 104 tgl 15 0 empty empty empty 17 7 0 10 -262144 -1 -1 0
1;
#X obj 119 -13 t f, f 1;
#X obj 119 138 tgl 15 0 empty empty empty 17 7 0 10 -262144 -1 -1 0
1;
#X obj 119 57 t f, f 1;
#X obj 119 121 tgl 15 0 empty empty empty 17 7 0 10 -262144 -1 -1 0
1;
#X obj 119 22 t f, f 1;
#X obj 204 -142 spigot;
#X obj 204 -121 s kt;
#X obj 204 -100 spigot;
#X obj 204 -79 s st;
#X obj 204 -58 spigot;
#X obj 204 -199 inlet;
#X obj 204 -37 s sh;
#X obj 204 -168 t b b b;
#X obj 136 104 tgl 15 0 empty empty empty 17 7 0 10 -262144 -1 -1 0
1;
#X obj 136 -13 t f, f 1;
#X obj 136 138 tgl 15 0 empty empty empty 17 7 0 10 -262144 -1 -1 0
1;
#X obj 136 57 t f, f 1;
#X obj 136 121 tgl 15 0 empty empty empty 17 7 0 10 -262144 -1 -1 0
1;
#X obj 136 22 t f, f 1;
#X obj 259 -142 spigot;
#X obj 259 -121 s kt;
#X obj 259 -100 spigot;
#X obj 259 -79 s st;
#X obj 259 -58 spigot;
#X obj 259 -199 inlet;
#X obj 259 -37 s sh;
#X obj 259 -168 t b b b;
#X obj 153 104 tgl 15 0 empty empty empty 17 7 0 10 -262144 -1 -1 0
1;
#X obj 153 -13 t f, f 1;
#X obj 153 138 tgl 15 0 empty empty empty 17 7 0 10 -262144 -1 -1 0
1;
#X obj 153 57 t f, f 1;
#X obj 153 121 tgl 15 0 empty empty empty 17 7 0 10 -262144 -1 -1 0
1;
#X obj 153 22 t f, f 1;
#X obj 314 -142 spigot;
#X obj 314 -121 s kt;
#X obj 314 -100 spigot;
#X obj 314 -79 s st;
#X obj 314 -58 spigot;
#X obj 314 -199 inlet;
#X obj 314 -37 s sh;
#X obj 314 -168 t b b b;
#X obj 170 104 tgl 15 0 empty empty empty 17 7 0 10 -262144 -1 -1 0
1;
#X obj 170 -13 t f, f 1;
#X obj 170 138 tgl 15 0 empty empty empty 17 7 0 10 -262144 -1 -1 0
1;
#X obj 170 57 t f, f 1;
#X obj 170 121 tgl 15 0 empty empty empty 17 7 0 10 -262144 -1 -1 0
1;
#X obj 170 22 t f, f 1;
#X obj 369 -142 spigot;
#X obj 369 -121 s kt;
#X obj 369 -100 spigot;
#X obj 369 -79 s st;
#X obj 369 -58 spigot;
#X obj 369 -199 inlet;
#X obj 369 -37 s sh;
#X obj 369 -168 t b b b;
#X obj 187 104 tgl 15 0 empty empty empty 17 7 0 10 -262144 -1 -1 0
1;
#X obj 187 -13 t f, f 1;
#X obj 187 138 tgl 15 0 empty empty empty 17 7 0 10 -262144 -1 -1 0
1;
#X obj 187 57 t f, f 1;
#X obj 187 121 tgl 15 0 empty empty empty 17 7 0 10 -262144 -1 -1 0
1;
#X obj 187 22 t f, f 1;
#X obj 424 -142 spigot;
#X obj 424 -121 s kt;
#X obj 424 -100 spigot;
#X obj 424 -79 s st;
#X obj 424 -58 spigot;
#X obj 424 -199 inlet;
#X obj 424 -37 s sh;
#X obj 424 -168 t b b b;
#X obj 204 104 tgl 15 0 empty empty empty 17 7 0 10 -262144 -1 -1 0
1;
#X obj 204 -13 t f, f 1;
#X obj 204 138 tgl 15 0 empty empty empty 17 7 0 10 -262144 -1 -1 0
1;
#X obj 204 57 t f, f 1;
#X obj 204 121 tgl 15 0 empty empty empty 17 7 0 10 -262144 -1 -1 0
1;
#X obj 204 22 t f, f 1;
#X obj 479 -142 spigot;
#X obj 479 -121 s kt;
#X obj 479 -100 spigot;
#X obj 479 -79 s st;
#X obj 479 -58 spigot;
#X obj 479 -199 inlet;
#X obj 479 -37 s sh;
#X obj 479 -168 t b b b;
#X obj 221 104 tgl 15 0 empty empty empty 17 7 0 10 -262144 -1 -1 0
1;
#X obj 221 -13 t f, f 1;
#X obj 221 138 tgl 15 0 empty empty empty 17 7 0 10 -262144 -1 -1 0
1;
#X obj 221 57 t f, f 1;
#X obj 221 121 tgl 15 0 empty empty empty 17 7 0 10 -262144 -1 -1 0
1;
#X obj 221 22 t f, f 1;
#X obj 534 -142 spigot;
#X obj 534 -121 s kt;
#X obj 534 -100 spigot;
#X obj 534 -79 s st;
#X obj 534 -58 spigot;
#X obj 534 -199 inlet;
#X obj 534 -37 s sh;
#X obj 534 -168 t b b b;
#X obj 238 104 tgl 15 0 empty empty empty 17 7 0 10 -262144 -1 -1 0
1;
#X obj 238 -13 t f, f 1;
#X obj 238 138 tgl 15 0 empty empty empty 17 7 0 10 -262144 -1 -1 0
1;
#X obj 238 57 t f, f 1;
#X obj 238 121 tgl 15 0 empty empty empty 17 7 0 10 -262144 -1 -1 0
1;
#X obj 238 22 t f, f 1;
#X obj 589 -142 spigot;
#X obj 589 -121 s kt;
#X obj 589 -100 spigot;
#X obj 589 -79 s st;
#X obj 589 -58 spigot;
#X obj 589 -199 inlet;
#X obj 589 -37 s sh;
#X obj 589 -168 t b b b;
#X obj 255 104 tgl 15 0 empty empty empty 17 7 0 10 -262144 -1 -1 0
1;
#X obj 255 -13 t f, f 1;
#X obj 255 138 tgl 15 0 empty empty empty 17 7 0 10 -262144 -1 -1 0
1;
#X obj 255 57 t f, f 1;
#X obj 255 121 tgl 15 0 empty empty empty 17 7 0 10 -262144 -1 -1 0
1;
#X obj 255 22 t f, f 1;
#X obj 644 -142 spigot;
#X obj 644 -121 s kt;
#X obj 644 -100 spigot;
#X obj 644 -79 s st;
#X obj 644 -58 spigot;
#X obj 644 -199 inlet;
#X obj 644 -37 s sh;
#X obj 644 -168 t b b b;
#X obj 272 104 tgl 15 0 empty empty empty 17 7 0 10 -262144 -1 -1 0
1;
#X obj 272 -13 t f, f 1;
#X obj 272 138 tgl 15 0 empty empty empty 17 7 0 10 -262144 -1 -1 0
1;
#X obj 272 57 t f, f 1;
#X obj 272 121 tgl 15 0 empty empty empty 17 7 0 10 -262144 -1 -1 0
1;
#X obj 272 22 t f, f 1;
#X obj 699 -142 spigot;
#X obj 699 -121 s kt;
#X obj 699 -100 spigot;
#X obj 699 -79 s st;
#X obj 699 -58 spigot;
#X obj 699 -199 inlet;
#X obj 699 -37 s sh;
#X obj 699 -168 t b b b;
#X obj 289 104 tgl 15 0 empty empty empty 17 7 0 10 -262144 -1 -1 0
1;
#X obj 289 -13 t f, f 1;
#X obj 289 138 tgl 15 0 empty empty empty 17 7 0 10 -262144 -1 -1 0
1;
#X obj 289 57 t f, f 1;
#X obj 289 121 tgl 15 0 empty empty empty 17 7 0 10 -262144 -1 -1 0
1;
#X obj 289 22 t f, f 1;
#X obj 754 -142 spigot;
#X obj 754 -121 s kt;
#X obj 754 -100 spigot;
#X obj 754 -79 s st;
#X obj 754 -58 spigot;
#X obj 754 -199 inlet;
#X obj 754 -37 s sh;
#X obj 754 -168 t b b b;
#X obj 306 104 tgl 15 0 empty empty empty 17 7 0 10 -262144 -1 -1 0
1;
#X obj 306 -13 t f, f 1;
#X obj 306 138 tgl 15 0 empty empty empty 17 7 0 10 -262144 -1 -1 0
1;
#X obj 306 57 t f, f 1;
#X obj 306 121 tgl 15 0 empty empty empty 17 7 0 10 -262144 -1 -1 0
1;
#X obj 306 22 t f, f 1;
#X obj 809 -142 spigot;
#X obj 809 -121 s kt;
#X obj 809 -100 spigot;
#X obj 809 -79 s st;
#X obj 809 -58 spigot;
#X obj 809 -199 inlet;
#X obj 809 -37 s sh;
#X obj 809 -168 t b b b;
#X obj 323 104 tgl 15 0 empty empty empty 17 7 0 10 -262144 -1 -1 0
1;
#X obj 323 -13 t f, f 1;
#X obj 323 138 tgl 15 0 empty empty empty 17 7 0 10 -262144 -1 -1 0
1;
#X obj 323 57 t f, f 1;
#X obj 323 121 tgl 15 0 empty empty empty 17 7 0 10 -262144 -1 -1 0
1;
#X obj 323 22 t f, f 1;
#X obj 864 -142 spigot;
#X obj 864 -121 s kt;
#X obj 864 -100 spigot;
#X obj 864 -79 s st;
#X obj 864 -58 spigot;
#X obj 864 -199 inlet;
#X obj 864 -37 s sh;
#X obj 864 -168 t b b b;
#X obj 340 104 tgl 15 0 empty empty empty 17 7 0 10 -262144 -1 -1 0
1;
#X obj 340 -13 t f, f 1;
#X obj 340 138 tgl 15 0 empty empty empty 17 7 0 10 -262144 -1 -1 0
1;
#X obj 340 57 t f, f 1;
#X obj 340 121 tgl 15 0 empty empty empty 17 7 0 10 -262144 -1 -1 0
1;
#X obj 340 22 t f, f 1;
#X obj 919 -142 spigot;
#X obj 919 -121 s kt;
#X obj 919 -100 spigot;
#X obj 919 -79 s st;
#X obj 919 -58 spigot;
#X obj 919 -199 inlet;
#X obj 919 -37 s sh;
#X obj 919 -168 t b b b;
#X obj 357 104 tgl 15 0 empty empty empty 17 7 0 10 -262144 -1 -1 0
1;
#X obj 357 -13 t f, f 1;
#X obj 357 138 tgl 15 0 empty empty empty 17 7 0 10 -262144 -1 -1 0
1;
#X obj 357 57 t f, f 1;
#X obj 357 121 tgl 15 0 empty empty empty 17 7 0 10 -262144 -1 -1 0
1;
#X obj 357 22 t f, f 1;
#X connect 0 0 1 0;
#X connect 2 0 3 0;
#X connect 4 0 6 0;
#X connect 5 0 7 0;
#X connect 7 0 0 0;
#X connect 7 1 2 0;
#X connect 7 2 4 0;
#X connect 8 0 9 0;
#X connect 9 0 0 1;
#X connect 10 0 11 0;
#X connect 11 0 4 1;
#X connect 12 0 13 0;
#X connect 13 0 2 1;
#X connect 14 0 15 0;
#X connect 16 0 17 0;
#X connect 18 0 20 0;
#X connect 19 0 21 0;
#X connect 21 0 14 0;
#X connect 21 1 16 0;
#X connect 21 2 18 0;
#X connect 22 0 23 0;
#X connect 23 0 14 1;
#X connect 24 0 25 0;
#X connect 25 0 18 1;
#X connect 26 0 27 0;
#X connect 27 0 16 1;
#X connect 28 0 29 0;
#X connect 30 0 31 0;
#X connect 32 0 34 0;
#X connect 33 0 35 0;
#X connect 35 0 28 0;
#X connect 35 1 30 0;
#X connect 35 2 32 0;
#X connect 36 0 37 0;
#X connect 37 0 28 1;
#X connect 38 0 39 0;
#X connect 39 0 32 1;
#X connect 40 0 41 0;
#X connect 41 0 30 1;
#X connect 42 0 43 0;
#X connect 44 0 45 0;
#X connect 46 0 48 0;
#X connect 47 0 49 0;
#X connect 49 0 42 0;
#X connect 49 1 44 0;
#X connect 49 2 46 0;
#X connect 50 0 51 0;
#X connect 51 0 42 1;
#X connect 52 0 53 0;
#X connect 53 0 46 1;
#X connect 54 0 55 0;
#X connect 55 0 44 1;
#X connect 56 0 57 0;
#X connect 58 0 59 0;
#X connect 60 0 62 0;
#X connect 61 0 63 0;
#X connect 63 0 56 0;
#X connect 63 1 58 0;
#X connect 63 2 60 0;
#X connect 64 0 65 0;
#X connect 65 0 56 1;
#X connect 66 0 67 0;
#X connect 67 0 60 1;
#X connect 68 0 69 0;
#X connect 69 0 58 1;
#X connect 70 0 71 0;
#X connect 72 0 73 0;
#X connect 74 0 76 0;
#X connect 75 0 77 0;
#X connect 77 0 70 0;
#X connect 77 1 72 0;
#X connect 77 2 74 0;
#X connect 78 0 79 0;
#X connect 79 0 70 1;
#X connect 80 0 81 0;
#X connect 81 0 74 1;
#X connect 82 0 83 0;
#X connect 83 0 72 1;
#X connect 84 0 85 0;
#X connect 86 0 87 0;
#X connect 88 0 90 0;
#X connect 89 0 91 0;
#X connect 91 0 84 0;
#X connect 91 1 86 0;
#X connect 91 2 88 0;
#X connect 92 0 93 0;
#X connect 93 0 84 1;
#X connect 94 0 95 0;
#X connect 95 0 88 1;
#X connect 96 0 97 0;
#X connect 97 0 86 1;
#X connect 98 0 99 0;
#X connect 100 0 101 0;
#X connect 102 0 104 0;
#X connect 103 0 105 0;
#X connect 105 0 98 0;
#X connect 105 1 100 0;
#X connect 105 2 102 0;
#X connect 106 0 107 0;
#X connect 107 0 98 1;
#X connect 108 0 109 0;
#X connect 109 0 102 1;
#X connect 110 0 111 0;
#X connect 111 0 100 1;
#X connect 112 0 113 0;
#X connect 114 0 115 0;
#X connect 116 0 118 0;
#X connect 117 0 119 0;
#X connect 119 0 112 0;
#X connect 119 1 114 0;
#X connect 119 2 116 0;
#X connect 120 0 121 0;
#X connect 121 0 112 1;
#X connect 122 0 123 0;
#X connect 123 0 116 1;
#X connect 124 0 125 0;
#X connect 125 0 114 1;
#X connect 126 0 127 0;
#X connect 128 0 129 0;
#X connect 130 0 132 0;
#X connect 131 0 133 0;
#X connect 133 0 126 0;
#X connect 133 1 128 0;
#X connect 133 2 130 0;
#X connect 134 0 135 0;
#X connect 135 0 126 1;
#X connect 136 0 137 0;
#X connect 137 0 130 1;
#X connect 138 0 139 0;
#X connect 139 0 128 1;
#X connect 140 0 141 0;
#X connect 142 0 143 0;
#X connect 144 0 146 0;
#X connect 145 0 147 0;
#X connect 147 0 140 0;
#X connect 147 1 142 0;
#X connect 147 2 144 0;
#X connect 148 0 149 0;
#X connect 149 0 140 1;
#X connect 150 0 151 0;
#X connect 151 0 144 1;
#X connect 152 0 153 0;
#X connect 153 0 142 1;
#X connect 154 0 155 0;
#X connect 156 0 157 0;
#X connect 158 0 160 0;
#X connect 159 0 161 0;
#X connect 161 0 154 0;
#X connect 161 1 156 0;
#X connect 161 2 158 0;
#X connect 162 0 163 0;
#X connect 163 0 154 1;
#X connect 164 0 165 0;
#X connect 165 0 158 1;
#X connect 166 0 167 0;
#X connect 167 0 156 1;
#X connect 168 0 169 0;
#X connect 170 0 171 0;
#X connect 172 0 174 0;
#X connect 173 0 175 0;
#X connect 175 0 168 0;
#X connect 175 1 170 0;
#X connect 175 2 172 0;
#X connect 176 0 177 0;
#X connect 177 0 168 1;
#X connect 178 0 179 0;
#X connect 179 0 172 1;
#X connect 180 0 181 0;
#X connect 181 0 170 1;
#X connect 182 0 183 0;
#X connect 184 0 185 0;
#X connect 186 0 188 0;
#X connect 187 0 189 0;
#X connect 189 0 182 0;
#X connect 189 1 184 0;
#X connect 189 2 186 0;
#X connect 190 0 191 0;
#X connect 191 0 182 1;
#X connect 192 0 193 0;
#X connect 193 0 186 1;
#X connect 194 0 195 0;
#X connect 195 0 184 1;
#X connect 196 0 197 0;
#X connect 198 0 199 0;
#X connect 200 0 202 0;
#X connect 201 0 203 0;
#X connect 203 0 196 0;
#X connect 203 1 198 0;
#X connect 203 2 200 0;
#X connect 204 0 205 0;
#X connect 205 0 196 1;
#X connect 206 0 207 0;
#X connect 207 0 200 1;
#X connect 208 0 209 0;
#X connect 209 0 198 1;
#X connect 210 0 211 0;
#X connect 212 0 213 0;
#X connect 214 0 216 0;
#X connect 215 0 217 0;
#X connect 217 0 210 0;
#X connect 217 1 212 0;
#X connect 217 2 214 0;
#X connect 218 0 219 0;
#X connect 219 0 210 1;
#X connect 220 0 221 0;
#X connect 221 0 214 1;
#X connect 222 0 223 0;
#X connect 223 0 212 1;
#X coords 0 -1 1 1 274 55 2 100 100;
#X restore 288 151 pd 16steps;
#X f 32;
#N canvas -8 -8 1920 1037 DrumkKits 0;
#N canvas -1267 204 578 454 kickst1 0;
#X obj 22 5 inlet;
#X obj 24 106 vline~;
#X obj 24 130 osc~;
#X obj 24 154 *~;
#X obj 24 178 outlet~;
#X obj 138 6 inlet;
#X obj 157 71 f;
#X msg 103 128 \$1 1 0 \, 0 100 1;
#X obj 103 152 vline~;
#X obj 22 37 bng 15 250 50 0 empty empty empty 17 7 0 10 -262144 -1
-1;
#X msg 22 76 150 \, 50 70 0;
#X connect 0 0 9 0;
#X connect 1 0 2 0;
#X connect 2 0 3 0;
#X connect 3 0 4 0;
#X connect 5 0 6 1;
#X connect 6 0 7 0;
#X connect 7 0 8 0;
#X connect 8 0 3 1;
#X connect 9 0 6 0;
#X connect 9 0 10 0;
#X connect 10 0 1 0;
#X coords 0 454 1 453 85 60 0;
#X restore 75 246 pd kickst1;
#N canvas -1512 104 687 573 snarest1 0;
#X obj 48 54 noise~;
#X obj 48 78 lop~ 3000;
#X obj 48 102 hip~ 1000;
#X obj 48 174 *~;
#X obj 71 124 osc~ 180;
#X obj 71 148 *~ 0.5;
#X obj 118 15 inlet;
#X obj 170 15 inlet;
#X obj 124 50 f;
#X obj 162 134 vline~;
#X obj 162 158 *~;
#X obj 48 202 outlet~;
#X msg 210 70 \$1 1 0 \, 0 150 1;
#X connect 0 0 1 0;
#X connect 1 0 2 0;
#X connect 2 0 3 0;
#X connect 3 0 11 0;
#X connect 4 0 5 0;
#X connect 5 0 3 0;
#X connect 6 0 8 0;
#X connect 7 0 8 1;
#X connect 8 0 12 0;
#X connect 9 0 10 0;
#X connect 9 0 10 1;
#X connect 10 0 3 1;
#X connect 12 0 9 0;
#X restore 163 246 pd snarest1;
#N canvas -1317 157 768 554 hhatsst1 0;
#X obj 18 41 noise~;
#X obj 18 65 hip~ 20000;
#X obj 18 89 hip~ 10000;
#X obj 18 157 *~;
#X msg 98 64 \$1 \, 0 40 1;
#X obj 98 88 vline~;
#X obj 207 17 inlet;
#X obj 288 15 inlet;
#X obj 199 60 bng 15 250 50 0 empty empty empty 17 7 0 10 -262144 -1
-1;
#X obj 199 80 f;
#X obj 199 104 t f b;
#X obj 199 200 *;
#X obj 217 127 random 10;
#X obj 217 175 + 0.7;
#X obj 217 151 / 20;
#X obj 18 181 outlet~;
#X connect 0 0 1 0;
#X connect 1 0 2 0;
#X connect 2 0 3 0;
#X connect 3 0 15 0;
#X connect 4 0 5 0;
#X connect 5 0 3 1;
#X connect 6 0 8 0;
#X connect 7 0 9 1;
#X connect 8 0 9 0;
#X connect 9 0 10 0;
#X connect 10 0 11 0;
#X connect 10 1 12 0;
#X connect 11 0 4 0;
#X connect 12 0 14 0;
#X connect 13 0 11 1;
#X connect 14 0 13 0;
#X restore 249 246 pd hhatsst1;
#X obj 179 328 dac~;
#X obj 124 -48 r kt;
#X obj 174 -48 r st;
#X obj 226 -48 r sh;
#X obj 124 115 bng 30 250 50 0 empty empty empty 17 7 0 10 -262144
-1 -1;
#X obj 190 299 +~;
#X obj 307 347 s~ volPrev;
#X obj 341 297 r~ volPrev;
#X obj 157 117 vsl 15 50 0 1 0 0 empty empty empty 0 -9 0 10 -262144
-1 -1 9604 1;
#X text 122 149 Kick;
#X obj 175 115 bng 30 250 50 0 empty empty empty 17 7 0 10 -262144
-1 -1;
#X obj 208 117 vsl 15 50 0 1 0 0 empty empty empty 0 -9 0 10 -262144
-1 -1 9604 1;
#X obj 226 115 bng 30 250 50 0 empty empty empty 17 7 0 10 -262144
-1 -1;
#X obj 259 117 vsl 15 50 0 1 0 0 empty empty empty 0 -9 0 10 -262144
-1 -1 9604 1;
#X text 224 148 Hhat;
#X msg 138 60 0.98;
#X obj 139 35 loadbang;
#X text 177 149 Snr;
#X obj 298 0 key;
#X obj 298 24 sel 109;
#X obj 299 46 tgl 15 0 empty empty empty 17 7 0 10 -262144 -1 -1 1
1;
#X obj 124 5 spigot;
#X obj 174 5 spigot;
#X obj 226 5 spigot;
#X obj 299 66 s muteStatus;
#X obj 103 -119 key;
#X obj 103 -95 sel 97 115 100, f 23;
#X msg 355 37 1;
#X obj 355 12 loadbang;
#X connect 0 0 8 0;
#X connect 1 0 8 0;
#X connect 2 0 8 0;
#X connect 4 0 24 0;
#X connect 5 0 25 0;
#X connect 6 0 26 0;
#X connect 7 0 0 0;
#X connect 8 0 3 0;
#X connect 8 0 3 1;
#X connect 8 0 9 0;
#X connect 11 0 0 1;
#X connect 13 0 1 0;
#X connect 14 0 1 1;
#X connect 15 0 2 0;
#X connect 16 0 2 1;
#X connect 18 0 11 0;
#X connect 18 0 14 0;
#X connect 18 0 16 0;
#X connect 19 0 18 0;
#X connect 21 0 22 0;
#X connect 22 0 23 0;
#X connect 23 0 24 1;
#X connect 23 0 27 0;
#X connect 23 0 25 1;
#X connect 23 0 26 1;
#X connect 24 0 7 0;
#X connect 25 0 13 0;
#X connect 26 0 15 0;
#X connect 28 0 29 0;
#X connect 29 0 24 0;
#X connect 29 1 25 0;
#X connect 29 2 26 0;
#X connect 30 0 23 0;
#X connect 31 0 30 0;
#X coords 0 -1 1 1 200 80 2 100 100;
#X restore 156 9 pd DrumkKits;
#X msg 427 45 \; pd dsp 1;
#X obj 427 22 loadbang;
#X text 361 21 debug;
#N canvas -8 -8 1920 1037 stepSelector32 0;
#X obj 88 84 sel 0 1 2 3 4 5 6 7 8 9 10 11 12 13 14 15 16 17 18 19
20 21 22 23 24 25 26 27 28 29 30 31 32, f 92;
#X obj 88 42 inlet;
#X obj 88 136 outlet;
#X obj 107 157 outlet;
#X obj 127 178 outlet;
#X obj 146 199 outlet;
#X obj 166 136 outlet;
#X obj 185 157 outlet;
#X obj 205 178 outlet;
#X obj 224 199 outlet;
#X obj 243 136 outlet;
#X obj 262 157 outlet;
#X obj 282 178 outlet;
#X obj 301 199 outlet;
#X obj 321 136 outlet;
#X obj 340 157 outlet;
#X obj 360 178 outlet;
#X obj 379 199 outlet;
#X obj 399 135 outlet;
#X obj 418 156 outlet;
#X obj 438 177 outlet;
#X obj 457 198 outlet;
#X obj 476 135 outlet;
#X obj 496 156 outlet;
#X obj 516 177 outlet;
#X obj 535 198 outlet;
#X obj 554 135 outlet;
#X obj 573 156 outlet;
#X obj 593 177 outlet;
#X obj 612 198 outlet;
#X obj 632 135 outlet;
#X obj 651 156 outlet;
#X obj 671 177 outlet;
#X obj 690 198 outlet;
#X connect 0 0 2 0;
#X connect 0 1 3 0;
#X connect 0 2 4 0;
#X connect 0 3 5 0;
#X connect 0 4 6 0;
#X connect 0 5 7 0;
#X connect 0 6 8 0;
#X connect 0 7 9 0;
#X connect 0 8 10 0;
#X connect 0 9 11 0;
#X connect 0 10 12 0;
#X connect 0 11 13 0;
#X connect 0 12 14 0;
#X connect 0 13 15 0;
#X connect 0 14 16 0;
#X connect 0 15 17 0;
#X connect 0 16 18 0;
#X connect 0 17 19 0;
#X connect 0 18 20 0;
#X connect 0 19 21 0;
#X connect 0 20 22 0;
#X connect 0 21 23 0;
#X connect 0 22 24 0;
#X connect 0 23 25 0;
#X connect 0 24 26 0;
#X connect 0 25 27 0;
#X connect 0 26 28 0;
#X connect 0 27 29 0;
#X connect 0 28 30 0;
#X connect 0 29 31 0;
#X connect 0 30 32 0;
#X connect 0 31 33 0;
#X connect 1 0 0 0;
#X restore 11 123 pd stepSelector32;
#X f 78;
#X connect 0 0 10 0;
#X connect 1 0 0 0;
#X connect 3 0 4 0;
#X connect 8 0 7 0;
#X connect 10 0 2 0;
#X connect 10 1 2 1;
#X connect 10 2 2 2;
#X connect 10 3 2 3;
#X connect 10 4 2 4;
#X connect 10 5 2 5;
#X connect 10 6 2 6;
#X connect 10 7 2 7;
#X connect 10 8 2 8;
#X connect 10 9 2 9;
#X connect 10 10 2 10;
#X connect 10 11 2 11;
#X connect 10 12 2 12;
#X connect 10 13 2 13;
#X connect 10 14 2 14;
#X connect 10 15 2 15;
#X connect 10 16 5 0;
#X connect 10 17 5 1;
#X connect 10 18 5 2;
#X connect 10 19 5 3;
#X connect 10 20 5 4;
#X connect 10 21 5 5;
#X connect 10 22 5 6;
#X connect 10 23 5 7;
#X connect 10 24 5 8;
#X connect 10 25 5 9;
#X connect 10 26 5 10;
#X connect 10 27 5 11;
#X connect 10 28 5 12;
#X connect 10 29 5 13;
#X connect 10 30 5 14;
#X connect 10 31 5 15;
