#N canvas -1928 -8 1920 1037 12;
#X obj 11 95 hradio 15 1 0 32 empty empty empty 0 -8 0 10 -262144 -1
-1 1;
#N canvas -8 -8 1920 1037 counter 0;
#X msg 508 160 tempo \$1 permin;
#X obj 370 273 f;
#X obj 399 273 + 1;
#X obj 370 341 mod 16;
#X floatatom 370 367 5 0 0 0 - - -;
#X obj 370 173 t f b;
#X msg 624 192 0;
#X obj 370 209 metro 0.25 120 permin;
#X obj 370 393 outlet;
#X obj 110 125 hradio 15 1 0 2 empty empty empty 0 -8 0 10 -262144
-1 -1 0;
#X text 142 123 16/32 steps;
#X floatatom 111 323 5 0 0 0 - - -;
#X obj 111 344 sel 0 1;
#X msg 111 367 16;
#X msg 147 368 32;
#X obj -29 55 loadbang;
#X msg -23 -62 0;
#X obj 111 392 t f;
#X floatatom 111 413 5 0 0 0 - - -;
#X obj 111 434 s setSteps;
#X obj 409 302 r setSteps;
#X text 144 106 on/off;
#X obj 125 108 tgl 15 0 empty empty empty 17 7 0 10 -262144 -1 -1 0
1;
#X floatatom 244 324 5 0 0 0 - - -;
#X obj 244 352 s pwrOnOff;
#X obj 370 81 r pwrOnOff;
#X floatatom 103 142 5 0 900 0 - - -;
#X obj -82 155 s setBPM;
#X obj 508 128 r setBPM;
#X msg -29 80 120;
#X text 142 141 BPM;
#X obj 286 -115 key;
#X obj 286 -93 sel 32;
#X obj 286 -50 bng 15 250 50 0 empty empty empty 17 7 0 10 -262144
-1 -1;
#X obj 793 63 keyname;
#X obj 840 112 sel Left Right;
#X obj 840 182 bng 15 250 50 0 empty empty empty 17 7 0 10 -262144
-1 -1;
#X obj 887 183 bng 15 250 50 0 empty empty empty 17 7 0 10 -262144
-1 -1;
#X obj 846 136 r currBPMn;
#X floatatom 876 221 5 0 0 0 - - -;
#X obj 876 251 t f b;
#X floatatom 876 293 5 0 0 0 - - -;
#X obj 877 318 spigot;
#X obj 877 347 + 1;
#X floatatom 877 371 5 0 0 0 - - -;
#X obj 877 395 s setBPMn;
#X obj -110 81 r setBPMn;
#X floatatom 800 219 5 0 0 0 - - -;
#X obj 800 249 t f b;
#X floatatom 800 291 5 0 0 0 - - -;
#X obj 801 316 spigot;
#X floatatom 801 369 5 0 0 0 - - -;
#X obj 801 393 s setBPMn;
#X obj 801 345 - 1;
#X obj 850 277 bng 15 250 50 0 empty empty empty 17 7 0 10 -262144
-1 -1;
#X obj 916 275 bng 15 250 50 0 empty empty empty 17 7 0 10 -262144
-1 -1;
#X obj -76 -202 keyname;
#X obj -76 -126 bng 15 250 50 0 empty empty empty 17 7 0 10 -262144
-1 -1;
#X obj -44 -126 bng 15 250 50 0 empty empty empty 17 7 0 10 -262144
-1 -1;
#X obj -76 -179 sel Up Down, f 14;
#X msg -76 -108 0;
#X msg -44 -108 1;
#X obj -76 -83 hradio 15 1 0 2 empty empty empty 0 -8 0 10 -262144
-1 -1 0;
#X obj 589 283 r enableKeys;
#X floatatom 589 304 5 0 0 0 - - -;
#X obj 582 337 spigot;
#X obj 29 -199 r enableKeys;
#X floatatom 29 -178 5 0 0 0 - - -;
#X obj -76 -150 spigot;
#X obj -28 -150 spigot;
#X obj 338 -113 r enableKeys;
#X floatatom 338 -92 5 0 0 0 - - -;
#X obj 286 -71 spigot;
#X obj -220 -387 receive fromGUI;
#X obj -220 -362 list trim;
#X obj -217 -337 route /bpmDisplay /setBpmKnob /OnOffGui, f 74;
#X obj -217 362 send toGUI;
#X msg -217 335 list /bpmDisplay BPM: \$1;
#X floatatom -187 286 5 0 0 0 - - -;
#X obj -23 -86 loadbang;
#X msg 217 -53 0;
#X obj 217 -77 loadbang;
#X obj -163 -280 f;
#X obj -163 93 f;
#X obj 450 394 s euclidTempo;
#X connect 0 0 7 0;
#X connect 1 0 2 0;
#X connect 1 0 3 0;
#X connect 2 0 1 1;
#X connect 3 0 4 0;
#X connect 4 0 8 0;
#X connect 4 0 84 0;
#X connect 5 0 7 0;
#X connect 5 1 6 0;
#X connect 6 0 1 1;
#X connect 7 0 1 0;
#X connect 9 0 11 0;
#X connect 11 0 12 0;
#X connect 12 0 13 0;
#X connect 12 1 14 0;
#X connect 13 0 17 0;
#X connect 14 0 17 0;
#X connect 15 0 29 0;
#X connect 16 0 9 0;
#X connect 17 0 18 0;
#X connect 18 0 19 0;
#X connect 20 0 3 1;
#X connect 22 0 23 0;
#X connect 23 0 24 0;
#X connect 25 0 5 0;
#X connect 26 0 27 0;
#X connect 26 0 78 0;
#X connect 28 0 0 0;
#X connect 29 0 26 0;
#X connect 31 0 32 0;
#X connect 32 0 72 0;
#X connect 33 0 22 0;
#X connect 34 1 35 0;
#X connect 35 0 36 0;
#X connect 35 1 37 0;
#X connect 39 0 40 0;
#X connect 40 0 41 0;
#X connect 40 1 55 0;
#X connect 41 0 42 0;
#X connect 42 0 43 0;
#X connect 43 0 44 0;
#X connect 44 0 45 0;
#X connect 46 0 26 0;
#X connect 47 0 48 0;
#X connect 48 0 49 0;
#X connect 48 1 54 0;
#X connect 49 0 50 0;
#X connect 50 0 53 0;
#X connect 51 0 52 0;
#X connect 53 0 51 0;
#X connect 54 0 50 1;
#X connect 55 0 42 1;
#X connect 56 1 59 0;
#X connect 57 0 60 0;
#X connect 58 0 61 0;
#X connect 59 0 68 0;
#X connect 59 1 69 0;
#X connect 60 0 62 0;
#X connect 61 0 62 0;
#X connect 62 0 9 0;
#X connect 63 0 64 0;
#X connect 64 0 65 1;
#X connect 66 0 67 0;
#X connect 67 0 68 1;
#X connect 67 0 69 1;
#X connect 68 0 57 0;
#X connect 69 0 58 0;
#X connect 70 0 71 0;
#X connect 71 0 72 1;
#X connect 72 0 33 0;
#X connect 73 0 74 0;
#X connect 74 0 75 0;
#X connect 75 0 77 0;
#X connect 75 1 82 0;
#X connect 75 2 22 0;
#X connect 77 0 76 0;
#X connect 78 0 77 0;
#X connect 79 0 16 0;
#X connect 80 0 22 0;
#X connect 81 0 80 0;
#X connect 82 0 83 0;
#X connect 83 0 26 0;
#X coords 0 -1 1 1 140 65 2 100 100;
#X restore 11 15 pd counter;
#N canvas -8 -8 1920 1037 16steps 0;
#X obj 94 -142 spigot;
#X obj 94 -121 s kt;
#X obj 94 -100 spigot;
#X obj 94 -79 s st;
#X obj 94 -58 spigot;
#X obj 94 -199 inlet;
#X obj 94 -37 s sh;
#X obj 94 -168 t b b b;
#X obj 102 104 tgl 15 0 empty empty empty 17 7 0 10 -262144 -1 -1 0
1;
#X obj 102 -13 t f, f 1;
#X obj 102 138 tgl 15 0 empty empty empty 17 7 0 10 -262144 -1 -1 0
1;
#X obj 102 57 t f, f 1;
#X obj 102 121 tgl 15 0 empty empty empty 17 7 0 10 -262144 -1 -1 0
1;
#X obj 102 22 t f, f 1;
#X obj 149 -142 spigot;
#X obj 149 -121 s kt;
#X obj 149 -100 spigot;
#X obj 149 -79 s st;
#X obj 149 -58 spigot;
#X obj 149 -199 inlet;
#X obj 149 -37 s sh;
#X obj 149 -168 t b b b;
#X obj 119 104 tgl 15 0 empty empty empty 17 7 0 10 -262144 -1 -1 0
1;
#X obj 119 -13 t f, f 1;
#X obj 119 138 tgl 15 0 empty empty empty 17 7 0 10 -262144 -1 -1 0
1;
#X obj 119 57 t f, f 1;
#X obj 119 121 tgl 15 0 empty empty empty 17 7 0 10 -262144 -1 -1 0
1;
#X obj 119 22 t f, f 1;
#X obj 204 -142 spigot;
#X obj 204 -121 s kt;
#X obj 204 -100 spigot;
#X obj 204 -79 s st;
#X obj 204 -58 spigot;
#X obj 204 -199 inlet;
#X obj 204 -37 s sh;
#X obj 204 -168 t b b b;
#X obj 136 104 tgl 15 0 empty empty empty 17 7 0 10 -262144 -1 -1 0
1;
#X obj 136 -13 t f, f 1;
#X obj 136 138 tgl 15 0 empty empty empty 17 7 0 10 -262144 -1 -1 0
1;
#X obj 136 57 t f, f 1;
#X obj 136 121 tgl 15 0 empty empty empty 17 7 0 10 -262144 -1 -1 0
1;
#X obj 136 22 t f, f 1;
#X obj 259 -142 spigot;
#X obj 259 -121 s kt;
#X obj 259 -100 spigot;
#X obj 259 -79 s st;
#X obj 259 -58 spigot;
#X obj 259 -199 inlet;
#X obj 259 -37 s sh;
#X obj 259 -168 t b b b;
#X obj 153 104 tgl 15 0 empty empty empty 17 7 0 10 -262144 -1 -1 0
1;
#X obj 153 -13 t f, f 1;
#X obj 153 138 tgl 15 0 empty empty empty 17 7 0 10 -262144 -1 -1 0
1;
#X obj 153 57 t f, f 1;
#X obj 153 121 tgl 15 0 empty empty empty 17 7 0 10 -262144 -1 -1 0
1;
#X obj 153 22 t f, f 1;
#X obj 314 -142 spigot;
#X obj 314 -121 s kt;
#X obj 314 -100 spigot;
#X obj 314 -79 s st;
#X obj 314 -58 spigot;
#X obj 314 -199 inlet;
#X obj 314 -37 s sh;
#X obj 314 -168 t b b b;
#X obj 170 104 tgl 15 0 empty empty empty 17 7 0 10 -262144 -1 -1 0
1;
#X obj 170 -13 t f, f 1;
#X obj 170 138 tgl 15 0 empty empty empty 17 7 0 10 -262144 -1 -1 0
1;
#X obj 170 57 t f, f 1;
#X obj 170 121 tgl 15 0 empty empty empty 17 7 0 10 -262144 -1 -1 0
1;
#X obj 170 22 t f, f 1;
#X obj 369 -142 spigot;
#X obj 369 -121 s kt;
#X obj 369 -100 spigot;
#X obj 369 -79 s st;
#X obj 369 -58 spigot;
#X obj 369 -199 inlet;
#X obj 369 -37 s sh;
#X obj 369 -168 t b b b;
#X obj 187 104 tgl 15 0 empty empty empty 17 7 0 10 -262144 -1 -1 0
1;
#X obj 187 -13 t f, f 1;
#X obj 187 138 tgl 15 0 empty empty empty 17 7 0 10 -262144 -1 -1 0
1;
#X obj 187 57 t f, f 1;
#X obj 187 121 tgl 15 0 empty empty empty 17 7 0 10 -262144 -1 -1 0
1;
#X obj 187 22 t f, f 1;
#X obj 424 -142 spigot;
#X obj 424 -121 s kt;
#X obj 424 -100 spigot;
#X obj 424 -79 s st;
#X obj 424 -58 spigot;
#X obj 424 -199 inlet;
#X obj 424 -37 s sh;
#X obj 424 -168 t b b b;
#X obj 204 104 tgl 15 0 empty empty empty 17 7 0 10 -262144 -1 -1 0
1;
#X obj 204 -13 t f, f 1;
#X obj 204 138 tgl 15 0 empty empty empty 17 7 0 10 -262144 -1 -1 0
1;
#X obj 204 57 t f, f 1;
#X obj 204 121 tgl 15 0 empty empty empty 17 7 0 10 -262144 -1 -1 0
1;
#X obj 204 22 t f, f 1;
#X obj 479 -142 spigot;
#X obj 479 -121 s kt;
#X obj 479 -100 spigot;
#X obj 479 -79 s st;
#X obj 479 -58 spigot;
#X obj 479 -199 inlet;
#X obj 479 -37 s sh;
#X obj 479 -168 t b b b;
#X obj 221 104 tgl 15 0 empty empty empty 17 7 0 10 -262144 -1 -1 0
1;
#X obj 221 -13 t f, f 1;
#X obj 221 138 tgl 15 0 empty empty empty 17 7 0 10 -262144 -1 -1 0
1;
#X obj 221 57 t f, f 1;
#X obj 221 121 tgl 15 0 empty empty empty 17 7 0 10 -262144 -1 -1 0
1;
#X obj 221 22 t f, f 1;
#X obj 534 -142 spigot;
#X obj 534 -121 s kt;
#X obj 534 -100 spigot;
#X obj 534 -79 s st;
#X obj 534 -58 spigot;
#X obj 534 -199 inlet;
#X obj 534 -37 s sh;
#X obj 534 -168 t b b b;
#X obj 238 104 tgl 15 0 empty empty empty 17 7 0 10 -262144 -1 -1 0
1;
#X obj 238 -13 t f, f 1;
#X obj 238 138 tgl 15 0 empty empty empty 17 7 0 10 -262144 -1 -1 0
1;
#X obj 238 57 t f, f 1;
#X obj 238 121 tgl 15 0 empty empty empty 17 7 0 10 -262144 -1 -1 0
1;
#X obj 238 22 t f, f 1;
#X obj 589 -142 spigot;
#X obj 589 -121 s kt;
#X obj 589 -100 spigot;
#X obj 589 -79 s st;
#X obj 589 -58 spigot;
#X obj 589 -199 inlet;
#X obj 589 -37 s sh;
#X obj 589 -168 t b b b;
#X obj 255 104 tgl 15 0 empty empty empty 17 7 0 10 -262144 -1 -1 0
1;
#X obj 255 -13 t f, f 1;
#X obj 255 138 tgl 15 0 empty empty empty 17 7 0 10 -262144 -1 -1 0
1;
#X obj 255 57 t f, f 1;
#X obj 255 121 tgl 15 0 empty empty empty 17 7 0 10 -262144 -1 -1 0
1;
#X obj 255 22 t f, f 1;
#X obj 644 -142 spigot;
#X obj 644 -121 s kt;
#X obj 644 -100 spigot;
#X obj 644 -79 s st;
#X obj 644 -58 spigot;
#X obj 644 -199 inlet;
#X obj 644 -37 s sh;
#X obj 644 -168 t b b b;
#X obj 272 104 tgl 15 0 empty empty empty 17 7 0 10 -262144 -1 -1 0
1;
#X obj 272 -13 t f, f 1;
#X obj 272 138 tgl 15 0 empty empty empty 17 7 0 10 -262144 -1 -1 0
1;
#X obj 272 57 t f, f 1;
#X obj 272 121 tgl 15 0 empty empty empty 17 7 0 10 -262144 -1 -1 0
1;
#X obj 272 22 t f, f 1;
#X obj 699 -142 spigot;
#X obj 699 -121 s kt;
#X obj 699 -100 spigot;
#X obj 699 -79 s st;
#X obj 699 -58 spigot;
#X obj 699 -199 inlet;
#X obj 699 -37 s sh;
#X obj 699 -168 t b b b;
#X obj 289 104 tgl 15 0 empty empty empty 17 7 0 10 -262144 -1 -1 0
1;
#X obj 289 -13 t f, f 1;
#X obj 289 138 tgl 15 0 empty empty empty 17 7 0 10 -262144 -1 -1 0
1;
#X obj 289 57 t f, f 1;
#X obj 289 121 tgl 15 0 empty empty empty 17 7 0 10 -262144 -1 -1 0
1;
#X obj 289 22 t f, f 1;
#X obj 754 -142 spigot;
#X obj 754 -121 s kt;
#X obj 754 -100 spigot;
#X obj 754 -79 s st;
#X obj 754 -58 spigot;
#X obj 754 -199 inlet;
#X obj 754 -37 s sh;
#X obj 754 -168 t b b b;
#X obj 306 104 tgl 15 0 empty empty empty 17 7 0 10 -262144 -1 -1 0
1;
#X obj 306 -13 t f, f 1;
#X obj 306 138 tgl 15 0 empty empty empty 17 7 0 10 -262144 -1 -1 0
1;
#X obj 306 57 t f, f 1;
#X obj 306 121 tgl 15 0 empty empty empty 17 7 0 10 -262144 -1 -1 0
1;
#X obj 306 22 t f, f 1;
#X obj 809 -142 spigot;
#X obj 809 -121 s kt;
#X obj 809 -100 spigot;
#X obj 809 -79 s st;
#X obj 809 -58 spigot;
#X obj 809 -199 inlet;
#X obj 809 -37 s sh;
#X obj 809 -168 t b b b;
#X obj 323 104 tgl 15 0 empty empty empty 17 7 0 10 -262144 -1 -1 0
1;
#X obj 323 -13 t f, f 1;
#X obj 323 138 tgl 15 0 empty empty empty 17 7 0 10 -262144 -1 -1 0
1;
#X obj 323 57 t f, f 1;
#X obj 323 121 tgl 15 0 empty empty empty 17 7 0 10 -262144 -1 -1 0
1;
#X obj 323 22 t f, f 1;
#X obj 864 -142 spigot;
#X obj 864 -121 s kt;
#X obj 864 -100 spigot;
#X obj 864 -79 s st;
#X obj 864 -58 spigot;
#X obj 864 -199 inlet;
#X obj 864 -37 s sh;
#X obj 864 -168 t b b b;
#X obj 340 104 tgl 15 0 empty empty empty 17 7 0 10 -262144 -1 -1 0
1;
#X obj 340 -13 t f, f 1;
#X obj 340 138 tgl 15 0 empty empty empty 17 7 0 10 -262144 -1 -1 0
1;
#X obj 340 57 t f, f 1;
#X obj 340 121 tgl 15 0 empty empty empty 17 7 0 10 -262144 -1 -1 0
1;
#X obj 340 22 t f, f 1;
#X obj 919 -142 spigot;
#X obj 919 -121 s kt;
#X obj 919 -100 spigot;
#X obj 919 -79 s st;
#X obj 919 -58 spigot;
#X obj 919 -199 inlet;
#X obj 919 -37 s sh;
#X obj 919 -168 t b b b;
#X obj 357 104 tgl 15 0 empty empty empty 17 7 0 10 -262144 -1 -1 0
1;
#X obj 357 -13 t f, f 1;
#X obj 357 138 tgl 15 0 empty empty empty 17 7 0 10 -262144 -1 -1 0
1;
#X obj 357 57 t f, f 1;
#X obj 357 121 tgl 15 0 empty empty empty 17 7 0 10 -262144 -1 -1 0
1;
#X obj 357 22 t f, f 1;
#X connect 0 0 1 0;
#X connect 2 0 3 0;
#X connect 4 0 6 0;
#X connect 5 0 7 0;
#X connect 7 0 0 0;
#X connect 7 1 2 0;
#X connect 7 2 4 0;
#X connect 8 0 9 0;
#X connect 9 0 0 1;
#X connect 10 0 11 0;
#X connect 11 0 4 1;
#X connect 12 0 13 0;
#X connect 13 0 2 1;
#X connect 14 0 15 0;
#X connect 16 0 17 0;
#X connect 18 0 20 0;
#X connect 19 0 21 0;
#X connect 21 0 14 0;
#X connect 21 1 16 0;
#X connect 21 2 18 0;
#X connect 22 0 23 0;
#X connect 23 0 14 1;
#X connect 24 0 25 0;
#X connect 25 0 18 1;
#X connect 26 0 27 0;
#X connect 27 0 16 1;
#X connect 28 0 29 0;
#X connect 30 0 31 0;
#X connect 32 0 34 0;
#X connect 33 0 35 0;
#X connect 35 0 28 0;
#X connect 35 1 30 0;
#X connect 35 2 32 0;
#X connect 36 0 37 0;
#X connect 37 0 28 1;
#X connect 38 0 39 0;
#X connect 39 0 32 1;
#X connect 40 0 41 0;
#X connect 41 0 30 1;
#X connect 42 0 43 0;
#X connect 44 0 45 0;
#X connect 46 0 48 0;
#X connect 47 0 49 0;
#X connect 49 0 42 0;
#X connect 49 1 44 0;
#X connect 49 2 46 0;
#X connect 50 0 51 0;
#X connect 51 0 42 1;
#X connect 52 0 53 0;
#X connect 53 0 46 1;
#X connect 54 0 55 0;
#X connect 55 0 44 1;
#X connect 56 0 57 0;
#X connect 58 0 59 0;
#X connect 60 0 62 0;
#X connect 61 0 63 0;
#X connect 63 0 56 0;
#X connect 63 1 58 0;
#X connect 63 2 60 0;
#X connect 64 0 65 0;
#X connect 65 0 56 1;
#X connect 66 0 67 0;
#X connect 67 0 60 1;
#X connect 68 0 69 0;
#X connect 69 0 58 1;
#X connect 70 0 71 0;
#X connect 72 0 73 0;
#X connect 74 0 76 0;
#X connect 75 0 77 0;
#X connect 77 0 70 0;
#X connect 77 1 72 0;
#X connect 77 2 74 0;
#X connect 78 0 79 0;
#X connect 79 0 70 1;
#X connect 80 0 81 0;
#X connect 81 0 74 1;
#X connect 82 0 83 0;
#X connect 83 0 72 1;
#X connect 84 0 85 0;
#X connect 86 0 87 0;
#X connect 88 0 90 0;
#X connect 89 0 91 0;
#X connect 91 0 84 0;
#X connect 91 1 86 0;
#X connect 91 2 88 0;
#X connect 92 0 93 0;
#X connect 93 0 84 1;
#X connect 94 0 95 0;
#X connect 95 0 88 1;
#X connect 96 0 97 0;
#X connect 97 0 86 1;
#X connect 98 0 99 0;
#X connect 100 0 101 0;
#X connect 102 0 104 0;
#X connect 103 0 105 0;
#X connect 105 0 98 0;
#X connect 105 1 100 0;
#X connect 105 2 102 0;
#X connect 106 0 107 0;
#X connect 107 0 98 1;
#X connect 108 0 109 0;
#X connect 109 0 102 1;
#X connect 110 0 111 0;
#X connect 111 0 100 1;
#X connect 112 0 113 0;
#X connect 114 0 115 0;
#X connect 116 0 118 0;
#X connect 117 0 119 0;
#X connect 119 0 112 0;
#X connect 119 1 114 0;
#X connect 119 2 116 0;
#X connect 120 0 121 0;
#X connect 121 0 112 1;
#X connect 122 0 123 0;
#X connect 123 0 116 1;
#X connect 124 0 125 0;
#X connect 125 0 114 1;
#X connect 126 0 127 0;
#X connect 128 0 129 0;
#X connect 130 0 132 0;
#X connect 131 0 133 0;
#X connect 133 0 126 0;
#X connect 133 1 128 0;
#X connect 133 2 130 0;
#X connect 134 0 135 0;
#X connect 135 0 126 1;
#X connect 136 0 137 0;
#X connect 137 0 130 1;
#X connect 138 0 139 0;
#X connect 139 0 128 1;
#X connect 140 0 141 0;
#X connect 142 0 143 0;
#X connect 144 0 146 0;
#X connect 145 0 147 0;
#X connect 147 0 140 0;
#X connect 147 1 142 0;
#X connect 147 2 144 0;
#X connect 148 0 149 0;
#X connect 149 0 140 1;
#X connect 150 0 151 0;
#X connect 151 0 144 1;
#X connect 152 0 153 0;
#X connect 153 0 142 1;
#X connect 154 0 155 0;
#X connect 156 0 157 0;
#X connect 158 0 160 0;
#X connect 159 0 161 0;
#X connect 161 0 154 0;
#X connect 161 1 156 0;
#X connect 161 2 158 0;
#X connect 162 0 163 0;
#X connect 163 0 154 1;
#X connect 164 0 165 0;
#X connect 165 0 158 1;
#X connect 166 0 167 0;
#X connect 167 0 156 1;
#X connect 168 0 169 0;
#X connect 170 0 171 0;
#X connect 172 0 174 0;
#X connect 173 0 175 0;
#X connect 175 0 168 0;
#X connect 175 1 170 0;
#X connect 175 2 172 0;
#X connect 176 0 177 0;
#X connect 177 0 168 1;
#X connect 178 0 179 0;
#X connect 179 0 172 1;
#X connect 180 0 181 0;
#X connect 181 0 170 1;
#X connect 182 0 183 0;
#X connect 184 0 185 0;
#X connect 186 0 188 0;
#X connect 187 0 189 0;
#X connect 189 0 182 0;
#X connect 189 1 184 0;
#X connect 189 2 186 0;
#X connect 190 0 191 0;
#X connect 191 0 182 1;
#X connect 192 0 193 0;
#X connect 193 0 186 1;
#X connect 194 0 195 0;
#X connect 195 0 184 1;
#X connect 196 0 197 0;
#X connect 198 0 199 0;
#X connect 200 0 202 0;
#X connect 201 0 203 0;
#X connect 203 0 196 0;
#X connect 203 1 198 0;
#X connect 203 2 200 0;
#X connect 204 0 205 0;
#X connect 205 0 196 1;
#X connect 206 0 207 0;
#X connect 207 0 200 1;
#X connect 208 0 209 0;
#X connect 209 0 198 1;
#X connect 210 0 211 0;
#X connect 212 0 213 0;
#X connect 214 0 216 0;
#X connect 215 0 217 0;
#X connect 217 0 210 0;
#X connect 217 1 212 0;
#X connect 217 2 214 0;
#X connect 218 0 219 0;
#X connect 219 0 210 1;
#X connect 220 0 221 0;
#X connect 221 0 214 1;
#X connect 222 0 223 0;
#X connect 223 0 212 1;
#X coords 0 -1 1 1 274 55 2 100 100;
#X restore 11 151 pd 16steps;
#X f 32;
#X obj 362 39 bng 15 250 50 0 empty empty empty 17 7 0 10 -262144 -1
-1;
#N canvas -8 -8 1920 1037 1step 0;
#X obj 20 65 spigot;
#X obj 20 86 s kt;
#X obj 20 107 spigot;
#X obj 20 128 s st;
#X obj 20 149 spigot;
#X obj 20 8 inlet;
#X obj 20 170 s sh;
#X obj 20 39 t b b b;
#X obj 246 75 tgl 15 0 empty empty empty 17 7 0 10 -262144 -1 -1 0
1;
#X obj 154 74 t f;
#X obj 241 321 tgl 15 0 empty empty empty 17 7 0 10 -262144 -1 -1 0
1;
#X obj 154 144 t f;
#X obj 246 166 tgl 15 0 empty empty empty 17 7 0 10 -262144 -1 -1 0
1;
#X obj 154 109 t f;
#X obj 450 -94 receive fromGUI;
#X obj 450 -71 list trim;
#X obj 658 416 spigot;
#X obj 697 396 tgl 15 0 empty empty empty 17 7 0 10 -262144 -1 -1 1
1;
#X obj 697 314 del 1;
#X obj 658 266 t b b, f 6;
#X msg 669 359 1;
#X obj 669 336 loadbang;
#X obj 741 416 spigot;
#X obj 780 396 tgl 15 0 empty empty empty 17 7 0 10 -262144 -1 -1 1
1;
#X obj 780 314 del 1;
#X obj 741 266 t b b, f 6;
#X msg 752 359 1;
#X obj 752 336 loadbang;
#X obj 824 416 spigot;
#X obj 863 396 tgl 15 0 empty empty empty 17 7 0 10 -262144 -1 -1 1
1;
#X obj 863 314 del 1;
#X obj 824 266 t b b, f 6;
#X msg 835 359 1;
#X obj 835 336 loadbang;
#X obj 658 464 b;
#X obj 741 464 b;
#X obj 824 464 b;
#X obj 450 -49 route /16step1;
#X obj 311 68 b;
#X obj 450 -7 route 0 1 1;
#X obj 293 172 b;
#X obj 304 323 b;
#X obj 533 -7 route 0 2 1;
#X obj 373 65 bng 15 250 50 0 empty empty empty 17 7 0 10 -262144 -1
-1;
#X obj 475 56 bng 15 250 50 0 empty empty empty 17 7 0 10 -262144 -1
-1;
#X obj 569 48 bng 15 250 50 0 empty empty empty 17 7 0 10 -262144 -1
-1;
#X obj 367 -7 route 0 0 0;
#X obj 384 266 spigot;
#X obj 423 246 tgl 15 0 empty empty empty 17 7 0 10 -262144 -1 -1 1
1;
#X obj 423 164 del 1;
#X obj 384 116 t b b, f 6;
#X msg 395 209 1;
#X obj 395 186 loadbang;
#X obj 384 314 b;
#X connect 0 0 1 0;
#X connect 2 0 3 0;
#X connect 4 0 6 0;
#X connect 5 0 7 0;
#X connect 7 0 0 0;
#X connect 7 1 2 0;
#X connect 7 2 4 0;
#X connect 8 0 9 0;
#X connect 9 0 0 1;
#X connect 10 0 11 0;
#X connect 11 0 4 1;
#X connect 12 0 13 0;
#X connect 13 0 2 1;
#X connect 14 0 15 0;
#X connect 15 0 37 0;
#X connect 16 0 34 0;
#X connect 17 0 16 1;
#X connect 18 0 17 0;
#X connect 19 0 16 0;
#X connect 19 1 18 0;
#X connect 20 0 17 0;
#X connect 21 0 20 0;
#X connect 22 0 35 0;
#X connect 23 0 22 1;
#X connect 24 0 23 0;
#X connect 25 0 22 0;
#X connect 25 1 24 0;
#X connect 26 0 23 0;
#X connect 27 0 26 0;
#X connect 28 0 36 0;
#X connect 29 0 28 1;
#X connect 30 0 29 0;
#X connect 31 0 28 0;
#X connect 31 1 30 0;
#X connect 32 0 29 0;
#X connect 33 0 32 0;
#X connect 37 0 39 0;
#X connect 37 0 42 0;
#X connect 37 0 46 0;
#X connect 38 0 8 0;
#X connect 40 0 12 0;
#X connect 41 0 10 0;
#X connect 43 0 50 0;
#X connect 46 0 43 0;
#X connect 46 1 44 0;
#X connect 46 2 45 0;
#X connect 47 0 53 0;
#X connect 48 0 47 1;
#X connect 49 0 48 0;
#X connect 50 0 47 0;
#X connect 50 1 49 0;
#X connect 51 0 48 0;
#X connect 52 0 51 0;
#X restore 362 60 pd 1step;
#N canvas -8 -8 1920 1037 16steps 0;
#X obj 94 -142 spigot;
#X obj 94 -121 s kt;
#X obj 94 -100 spigot;
#X obj 94 -79 s st;
#X obj 94 -58 spigot;
#X obj 94 -199 inlet;
#X obj 94 -37 s sh;
#X obj 94 -168 t b b b;
#X obj 102 104 tgl 15 0 empty empty empty 17 7 0 10 -262144 -1 -1 0
1;
#X obj 102 -13 t f, f 1;
#X obj 102 138 tgl 15 0 empty empty empty 17 7 0 10 -262144 -1 -1 0
1;
#X obj 102 57 t f, f 1;
#X obj 102 121 tgl 15 0 empty empty empty 17 7 0 10 -262144 -1 -1 0
1;
#X obj 102 22 t f, f 1;
#X obj 149 -142 spigot;
#X obj 149 -121 s kt;
#X obj 149 -100 spigot;
#X obj 149 -79 s st;
#X obj 149 -58 spigot;
#X obj 149 -199 inlet;
#X obj 149 -37 s sh;
#X obj 149 -168 t b b b;
#X obj 119 104 tgl 15 0 empty empty empty 17 7 0 10 -262144 -1 -1 0
1;
#X obj 119 -13 t f, f 1;
#X obj 119 138 tgl 15 0 empty empty empty 17 7 0 10 -262144 -1 -1 0
1;
#X obj 119 57 t f, f 1;
#X obj 119 121 tgl 15 0 empty empty empty 17 7 0 10 -262144 -1 -1 0
1;
#X obj 119 22 t f, f 1;
#X obj 204 -142 spigot;
#X obj 204 -121 s kt;
#X obj 204 -100 spigot;
#X obj 204 -79 s st;
#X obj 204 -58 spigot;
#X obj 204 -199 inlet;
#X obj 204 -37 s sh;
#X obj 204 -168 t b b b;
#X obj 136 104 tgl 15 0 empty empty empty 17 7 0 10 -262144 -1 -1 0
1;
#X obj 136 -13 t f, f 1;
#X obj 136 138 tgl 15 0 empty empty empty 17 7 0 10 -262144 -1 -1 0
1;
#X obj 136 57 t f, f 1;
#X obj 136 121 tgl 15 0 empty empty empty 17 7 0 10 -262144 -1 -1 0
1;
#X obj 136 22 t f, f 1;
#X obj 259 -142 spigot;
#X obj 259 -121 s kt;
#X obj 259 -100 spigot;
#X obj 259 -79 s st;
#X obj 259 -58 spigot;
#X obj 259 -199 inlet;
#X obj 259 -37 s sh;
#X obj 259 -168 t b b b;
#X obj 153 104 tgl 15 0 empty empty empty 17 7 0 10 -262144 -1 -1 0
1;
#X obj 153 -13 t f, f 1;
#X obj 153 138 tgl 15 0 empty empty empty 17 7 0 10 -262144 -1 -1 0
1;
#X obj 153 57 t f, f 1;
#X obj 153 121 tgl 15 0 empty empty empty 17 7 0 10 -262144 -1 -1 0
1;
#X obj 153 22 t f, f 1;
#X obj 314 -142 spigot;
#X obj 314 -121 s kt;
#X obj 314 -100 spigot;
#X obj 314 -79 s st;
#X obj 314 -58 spigot;
#X obj 314 -199 inlet;
#X obj 314 -37 s sh;
#X obj 314 -168 t b b b;
#X obj 170 104 tgl 15 0 empty empty empty 17 7 0 10 -262144 -1 -1 0
1;
#X obj 170 -13 t f, f 1;
#X obj 170 138 tgl 15 0 empty empty empty 17 7 0 10 -262144 -1 -1 0
1;
#X obj 170 57 t f, f 1;
#X obj 170 121 tgl 15 0 empty empty empty 17 7 0 10 -262144 -1 -1 0
1;
#X obj 170 22 t f, f 1;
#X obj 369 -142 spigot;
#X obj 369 -121 s kt;
#X obj 369 -100 spigot;
#X obj 369 -79 s st;
#X obj 369 -58 spigot;
#X obj 369 -199 inlet;
#X obj 369 -37 s sh;
#X obj 369 -168 t b b b;
#X obj 187 104 tgl 15 0 empty empty empty 17 7 0 10 -262144 -1 -1 0
1;
#X obj 187 -13 t f, f 1;
#X obj 187 138 tgl 15 0 empty empty empty 17 7 0 10 -262144 -1 -1 0
1;
#X obj 187 57 t f, f 1;
#X obj 187 121 tgl 15 0 empty empty empty 17 7 0 10 -262144 -1 -1 0
1;
#X obj 187 22 t f, f 1;
#X obj 424 -142 spigot;
#X obj 424 -121 s kt;
#X obj 424 -100 spigot;
#X obj 424 -79 s st;
#X obj 424 -58 spigot;
#X obj 424 -199 inlet;
#X obj 424 -37 s sh;
#X obj 424 -168 t b b b;
#X obj 204 104 tgl 15 0 empty empty empty 17 7 0 10 -262144 -1 -1 0
1;
#X obj 204 -13 t f, f 1;
#X obj 204 138 tgl 15 0 empty empty empty 17 7 0 10 -262144 -1 -1 0
1;
#X obj 204 57 t f, f 1;
#X obj 204 121 tgl 15 0 empty empty empty 17 7 0 10 -262144 -1 -1 0
1;
#X obj 204 22 t f, f 1;
#X obj 479 -142 spigot;
#X obj 479 -121 s kt;
#X obj 479 -100 spigot;
#X obj 479 -79 s st;
#X obj 479 -58 spigot;
#X obj 479 -199 inlet;
#X obj 479 -37 s sh;
#X obj 479 -168 t b b b;
#X obj 221 104 tgl 15 0 empty empty empty 17 7 0 10 -262144 -1 -1 0
1;
#X obj 221 -13 t f, f 1;
#X obj 221 138 tgl 15 0 empty empty empty 17 7 0 10 -262144 -1 -1 0
1;
#X obj 221 57 t f, f 1;
#X obj 221 121 tgl 15 0 empty empty empty 17 7 0 10 -262144 -1 -1 0
1;
#X obj 221 22 t f, f 1;
#X obj 534 -142 spigot;
#X obj 534 -121 s kt;
#X obj 534 -100 spigot;
#X obj 534 -79 s st;
#X obj 534 -58 spigot;
#X obj 534 -199 inlet;
#X obj 534 -37 s sh;
#X obj 534 -168 t b b b;
#X obj 238 104 tgl 15 0 empty empty empty 17 7 0 10 -262144 -1 -1 0
1;
#X obj 238 -13 t f, f 1;
#X obj 238 138 tgl 15 0 empty empty empty 17 7 0 10 -262144 -1 -1 0
1;
#X obj 238 57 t f, f 1;
#X obj 238 121 tgl 15 0 empty empty empty 17 7 0 10 -262144 -1 -1 0
1;
#X obj 238 22 t f, f 1;
#X obj 589 -142 spigot;
#X obj 589 -121 s kt;
#X obj 589 -100 spigot;
#X obj 589 -79 s st;
#X obj 589 -58 spigot;
#X obj 589 -199 inlet;
#X obj 589 -37 s sh;
#X obj 589 -168 t b b b;
#X obj 255 104 tgl 15 0 empty empty empty 17 7 0 10 -262144 -1 -1 0
1;
#X obj 255 -13 t f, f 1;
#X obj 255 138 tgl 15 0 empty empty empty 17 7 0 10 -262144 -1 -1 0
1;
#X obj 255 57 t f, f 1;
#X obj 255 121 tgl 15 0 empty empty empty 17 7 0 10 -262144 -1 -1 0
1;
#X obj 255 22 t f, f 1;
#X obj 644 -142 spigot;
#X obj 644 -121 s kt;
#X obj 644 -100 spigot;
#X obj 644 -79 s st;
#X obj 644 -58 spigot;
#X obj 644 -199 inlet;
#X obj 644 -37 s sh;
#X obj 644 -168 t b b b;
#X obj 272 104 tgl 15 0 empty empty empty 17 7 0 10 -262144 -1 -1 0
1;
#X obj 272 -13 t f, f 1;
#X obj 272 138 tgl 15 0 empty empty empty 17 7 0 10 -262144 -1 -1 0
1;
#X obj 272 57 t f, f 1;
#X obj 272 121 tgl 15 0 empty empty empty 17 7 0 10 -262144 -1 -1 0
1;
#X obj 272 22 t f, f 1;
#X obj 699 -142 spigot;
#X obj 699 -121 s kt;
#X obj 699 -100 spigot;
#X obj 699 -79 s st;
#X obj 699 -58 spigot;
#X obj 699 -199 inlet;
#X obj 699 -37 s sh;
#X obj 699 -168 t b b b;
#X obj 289 104 tgl 15 0 empty empty empty 17 7 0 10 -262144 -1 -1 0
1;
#X obj 289 -13 t f, f 1;
#X obj 289 138 tgl 15 0 empty empty empty 17 7 0 10 -262144 -1 -1 0
1;
#X obj 289 57 t f, f 1;
#X obj 289 121 tgl 15 0 empty empty empty 17 7 0 10 -262144 -1 -1 0
1;
#X obj 289 22 t f, f 1;
#X obj 754 -142 spigot;
#X obj 754 -121 s kt;
#X obj 754 -100 spigot;
#X obj 754 -79 s st;
#X obj 754 -58 spigot;
#X obj 754 -199 inlet;
#X obj 754 -37 s sh;
#X obj 754 -168 t b b b;
#X obj 306 104 tgl 15 0 empty empty empty 17 7 0 10 -262144 -1 -1 0
1;
#X obj 306 -13 t f, f 1;
#X obj 306 138 tgl 15 0 empty empty empty 17 7 0 10 -262144 -1 -1 0
1;
#X obj 306 57 t f, f 1;
#X obj 306 121 tgl 15 0 empty empty empty 17 7 0 10 -262144 -1 -1 0
1;
#X obj 306 22 t f, f 1;
#X obj 809 -142 spigot;
#X obj 809 -121 s kt;
#X obj 809 -100 spigot;
#X obj 809 -79 s st;
#X obj 809 -58 spigot;
#X obj 809 -199 inlet;
#X obj 809 -37 s sh;
#X obj 809 -168 t b b b;
#X obj 323 104 tgl 15 0 empty empty empty 17 7 0 10 -262144 -1 -1 0
1;
#X obj 323 -13 t f, f 1;
#X obj 323 138 tgl 15 0 empty empty empty 17 7 0 10 -262144 -1 -1 0
1;
#X obj 323 57 t f, f 1;
#X obj 323 121 tgl 15 0 empty empty empty 17 7 0 10 -262144 -1 -1 0
1;
#X obj 323 22 t f, f 1;
#X obj 864 -142 spigot;
#X obj 864 -121 s kt;
#X obj 864 -100 spigot;
#X obj 864 -79 s st;
#X obj 864 -58 spigot;
#X obj 864 -199 inlet;
#X obj 864 -37 s sh;
#X obj 864 -168 t b b b;
#X obj 340 104 tgl 15 0 empty empty empty 17 7 0 10 -262144 -1 -1 0
1;
#X obj 340 -13 t f, f 1;
#X obj 340 138 tgl 15 0 empty empty empty 17 7 0 10 -262144 -1 -1 0
1;
#X obj 340 57 t f, f 1;
#X obj 340 121 tgl 15 0 empty empty empty 17 7 0 10 -262144 -1 -1 0
1;
#X obj 340 22 t f, f 1;
#X obj 919 -142 spigot;
#X obj 919 -121 s kt;
#X obj 919 -100 spigot;
#X obj 919 -79 s st;
#X obj 919 -58 spigot;
#X obj 919 -199 inlet;
#X obj 919 -37 s sh;
#X obj 919 -168 t b b b;
#X obj 357 104 tgl 15 0 empty empty empty 17 7 0 10 -262144 -1 -1 0
1;
#X obj 357 -13 t f, f 1;
#X obj 357 138 tgl 15 0 empty empty empty 17 7 0 10 -262144 -1 -1 0
1;
#X obj 357 57 t f, f 1;
#X obj 357 121 tgl 15 0 empty empty empty 17 7 0 10 -262144 -1 -1 0
1;
#X obj 357 22 t f, f 1;
#X connect 0 0 1 0;
#X connect 2 0 3 0;
#X connect 4 0 6 0;
#X connect 5 0 7 0;
#X connect 7 0 0 0;
#X connect 7 1 2 0;
#X connect 7 2 4 0;
#X connect 8 0 9 0;
#X connect 9 0 0 1;
#X connect 10 0 11 0;
#X connect 11 0 4 1;
#X connect 12 0 13 0;
#X connect 13 0 2 1;
#X connect 14 0 15 0;
#X connect 16 0 17 0;
#X connect 18 0 20 0;
#X connect 19 0 21 0;
#X connect 21 0 14 0;
#X connect 21 1 16 0;
#X connect 21 2 18 0;
#X connect 22 0 23 0;
#X connect 23 0 14 1;
#X connect 24 0 25 0;
#X connect 25 0 18 1;
#X connect 26 0 27 0;
#X connect 27 0 16 1;
#X connect 28 0 29 0;
#X connect 30 0 31 0;
#X connect 32 0 34 0;
#X connect 33 0 35 0;
#X connect 35 0 28 0;
#X connect 35 1 30 0;
#X connect 35 2 32 0;
#X connect 36 0 37 0;
#X connect 37 0 28 1;
#X connect 38 0 39 0;
#X connect 39 0 32 1;
#X connect 40 0 41 0;
#X connect 41 0 30 1;
#X connect 42 0 43 0;
#X connect 44 0 45 0;
#X connect 46 0 48 0;
#X connect 47 0 49 0;
#X connect 49 0 42 0;
#X connect 49 1 44 0;
#X connect 49 2 46 0;
#X connect 50 0 51 0;
#X connect 51 0 42 1;
#X connect 52 0 53 0;
#X connect 53 0 46 1;
#X connect 54 0 55 0;
#X connect 55 0 44 1;
#X connect 56 0 57 0;
#X connect 58 0 59 0;
#X connect 60 0 62 0;
#X connect 61 0 63 0;
#X connect 63 0 56 0;
#X connect 63 1 58 0;
#X connect 63 2 60 0;
#X connect 64 0 65 0;
#X connect 65 0 56 1;
#X connect 66 0 67 0;
#X connect 67 0 60 1;
#X connect 68 0 69 0;
#X connect 69 0 58 1;
#X connect 70 0 71 0;
#X connect 72 0 73 0;
#X connect 74 0 76 0;
#X connect 75 0 77 0;
#X connect 77 0 70 0;
#X connect 77 1 72 0;
#X connect 77 2 74 0;
#X connect 78 0 79 0;
#X connect 79 0 70 1;
#X connect 80 0 81 0;
#X connect 81 0 74 1;
#X connect 82 0 83 0;
#X connect 83 0 72 1;
#X connect 84 0 85 0;
#X connect 86 0 87 0;
#X connect 88 0 90 0;
#X connect 89 0 91 0;
#X connect 91 0 84 0;
#X connect 91 1 86 0;
#X connect 91 2 88 0;
#X connect 92 0 93 0;
#X connect 93 0 84 1;
#X connect 94 0 95 0;
#X connect 95 0 88 1;
#X connect 96 0 97 0;
#X connect 97 0 86 1;
#X connect 98 0 99 0;
#X connect 100 0 101 0;
#X connect 102 0 104 0;
#X connect 103 0 105 0;
#X connect 105 0 98 0;
#X connect 105 1 100 0;
#X connect 105 2 102 0;
#X connect 106 0 107 0;
#X connect 107 0 98 1;
#X connect 108 0 109 0;
#X connect 109 0 102 1;
#X connect 110 0 111 0;
#X connect 111 0 100 1;
#X connect 112 0 113 0;
#X connect 114 0 115 0;
#X connect 116 0 118 0;
#X connect 117 0 119 0;
#X connect 119 0 112 0;
#X connect 119 1 114 0;
#X connect 119 2 116 0;
#X connect 120 0 121 0;
#X connect 121 0 112 1;
#X connect 122 0 123 0;
#X connect 123 0 116 1;
#X connect 124 0 125 0;
#X connect 125 0 114 1;
#X connect 126 0 127 0;
#X connect 128 0 129 0;
#X connect 130 0 132 0;
#X connect 131 0 133 0;
#X connect 133 0 126 0;
#X connect 133 1 128 0;
#X connect 133 2 130 0;
#X connect 134 0 135 0;
#X connect 135 0 126 1;
#X connect 136 0 137 0;
#X connect 137 0 130 1;
#X connect 138 0 139 0;
#X connect 139 0 128 1;
#X connect 140 0 141 0;
#X connect 142 0 143 0;
#X connect 144 0 146 0;
#X connect 145 0 147 0;
#X connect 147 0 140 0;
#X connect 147 1 142 0;
#X connect 147 2 144 0;
#X connect 148 0 149 0;
#X connect 149 0 140 1;
#X connect 150 0 151 0;
#X connect 151 0 144 1;
#X connect 152 0 153 0;
#X connect 153 0 142 1;
#X connect 154 0 155 0;
#X connect 156 0 157 0;
#X connect 158 0 160 0;
#X connect 159 0 161 0;
#X connect 161 0 154 0;
#X connect 161 1 156 0;
#X connect 161 2 158 0;
#X connect 162 0 163 0;
#X connect 163 0 154 1;
#X connect 164 0 165 0;
#X connect 165 0 158 1;
#X connect 166 0 167 0;
#X connect 167 0 156 1;
#X connect 168 0 169 0;
#X connect 170 0 171 0;
#X connect 172 0 174 0;
#X connect 173 0 175 0;
#X connect 175 0 168 0;
#X connect 175 1 170 0;
#X connect 175 2 172 0;
#X connect 176 0 177 0;
#X connect 177 0 168 1;
#X connect 178 0 179 0;
#X connect 179 0 172 1;
#X connect 180 0 181 0;
#X connect 181 0 170 1;
#X connect 182 0 183 0;
#X connect 184 0 185 0;
#X connect 186 0 188 0;
#X connect 187 0 189 0;
#X connect 189 0 182 0;
#X connect 189 1 184 0;
#X connect 189 2 186 0;
#X connect 190 0 191 0;
#X connect 191 0 182 1;
#X connect 192 0 193 0;
#X connect 193 0 186 1;
#X connect 194 0 195 0;
#X connect 195 0 184 1;
#X connect 196 0 197 0;
#X connect 198 0 199 0;
#X connect 200 0 202 0;
#X connect 201 0 203 0;
#X connect 203 0 196 0;
#X connect 203 1 198 0;
#X connect 203 2 200 0;
#X connect 204 0 205 0;
#X connect 205 0 196 1;
#X connect 206 0 207 0;
#X connect 207 0 200 1;
#X connect 208 0 209 0;
#X connect 209 0 198 1;
#X connect 210 0 211 0;
#X connect 212 0 213 0;
#X connect 214 0 216 0;
#X connect 215 0 217 0;
#X connect 217 0 210 0;
#X connect 217 1 212 0;
#X connect 217 2 214 0;
#X connect 218 0 219 0;
#X connect 219 0 210 1;
#X connect 220 0 221 0;
#X connect 221 0 214 1;
#X connect 222 0 223 0;
#X connect 223 0 212 1;
#X coords 0 -1 1 1 274 55 2 100 100;
#X restore 288 151 pd 16steps;
#X f 32;
#N canvas -8 -8 1920 1037 DrumkKits 0;
#N canvas -1267 204 578 454 kickst1 0;
#X obj 22 5 inlet;
#X obj 24 106 vline~;
#X obj 24 130 osc~;
#X obj 24 154 *~;
#X obj 24 178 outlet~;
#X obj 138 6 inlet;
#X obj 157 71 f;
#X msg 103 128 \$1 1 0 \, 0 100 1;
#X obj 103 152 vline~;
#X obj 22 37 bng 15 250 50 0 empty empty empty 17 7 0 10 -262144 -1
-1;
#X msg 22 76 150 \, 50 70 0;
#X connect 0 0 9 0;
#X connect 1 0 2 0;
#X connect 2 0 3 0;
#X connect 3 0 4 0;
#X connect 5 0 6 1;
#X connect 6 0 7 0;
#X connect 7 0 8 0;
#X connect 8 0 3 1;
#X connect 9 0 6 0;
#X connect 9 0 10 0;
#X connect 10 0 1 0;
#X coords 0 227 1 226 85 60 0;
#X restore 75 246 pd kickst1;
#N canvas -1512 104 687 573 snarest1 0;
#X obj 48 54 noise~;
#X obj 48 78 lop~ 3000;
#X obj 48 102 hip~ 1000;
#X obj 48 174 *~;
#X obj 71 124 osc~ 180;
#X obj 71 148 *~ 0.5;
#X obj 118 15 inlet;
#X obj 170 15 inlet;
#X obj 124 50 f;
#X obj 162 134 vline~;
#X obj 162 158 *~;
#X obj 48 202 outlet~;
#X msg 210 70 \$1 1 0 \, 0 150 1;
#X connect 0 0 1 0;
#X connect 1 0 2 0;
#X connect 2 0 3 0;
#X connect 3 0 11 0;
#X connect 4 0 5 0;
#X connect 5 0 3 0;
#X connect 6 0 8 0;
#X connect 7 0 8 1;
#X connect 8 0 12 0;
#X connect 9 0 10 0;
#X connect 9 0 10 1;
#X connect 10 0 3 1;
#X connect 12 0 9 0;
#X restore 163 246 pd snarest1;
#N canvas -1317 157 768 554 hhatsst1 0;
#X obj 18 41 noise~;
#X obj 18 65 hip~ 20000;
#X obj 18 89 hip~ 10000;
#X obj 18 157 *~;
#X msg 98 64 \$1 \, 0 40 1;
#X obj 98 88 vline~;
#X obj 207 17 inlet;
#X obj 288 15 inlet;
#X obj 199 60 bng 15 250 50 0 empty empty empty 17 7 0 10 -262144 -1
-1;
#X obj 199 80 f;
#X obj 199 104 t f b;
#X obj 199 200 *;
#X obj 217 127 random 10;
#X obj 217 175 + 0.7;
#X obj 217 151 / 20;
#X obj 18 181 outlet~;
#X connect 0 0 1 0;
#X connect 1 0 2 0;
#X connect 2 0 3 0;
#X connect 3 0 15 0;
#X connect 4 0 5 0;
#X connect 5 0 3 1;
#X connect 6 0 8 0;
#X connect 7 0 9 1;
#X connect 8 0 9 0;
#X connect 9 0 10 0;
#X connect 10 0 11 0;
#X connect 10 1 12 0;
#X connect 11 0 4 0;
#X connect 12 0 14 0;
#X connect 13 0 11 1;
#X connect 14 0 13 0;
#X restore 249 246 pd hhatsst1;
#X obj 179 328 dac~;
#X obj 124 115 bng 30 250 50 0 empty empty empty 17 7 0 10 -262144
-1 -1;
#X obj 190 299 +~;
#X obj 307 347 s~ volPrev;
#X obj 341 297 r~ volPrev;
#X obj 157 117 vsl 15 50 0 1 0 0 empty empty empty 0 -9 0 10 -262144
-1 -1 5704 1;
#X text 122 149 Kick;
#X obj 175 115 bng 30 250 50 0 empty empty empty 17 7 0 10 -262144
-1 -1;
#X obj 208 117 vsl 15 50 0 1 0 0 empty empty empty 0 -9 0 10 -262144
-1 -1 2904 1;
#X obj 226 115 bng 30 250 50 0 empty empty empty 17 7 0 10 -262144
-1 -1;
#X obj 259 117 vsl 15 50 0 1 0 0 empty empty empty 0 -9 0 10 -262144
-1 -1 4304 1;
#X text 224 148 Hhat;
#X text 177 149 Snr;
#X obj 67 -628 r enableKeys;
#X floatatom 87 -601 5 0 0 0 - - -;
#X obj 48 -554 r kt;
#X obj 175 -554 r st;
#X obj 302 -554 r sh;
#X msg 157 0 0.98;
#X obj 157 -22 loadbang;
#X obj 449 -658 key;
#X obj 449 -634 sel 109;
#X obj 449 -574 tgl 15 0 empty empty empty 17 7 0 10 -262144 -1 -1
1 1;
#X obj 48 -531 spigot;
#X obj 175 -531 spigot;
#X obj 302 -531 spigot;
#X obj 449 -554 s muteStatus;
#X obj 48 -706 key;
#X obj 48 -682 sel 97 115 100, f 55;
#X msg 505 -583 1;
#X obj 505 -608 loadbang;
#X obj 302 -576 spigot;
#X obj 175 -576 spigot;
#X obj 48 -576 spigot;
#X obj 449 -610 spigot;
#X obj 488 -679 r enableKeys;
#X floatatom 488 -658 5 0 0 0 - - -;
#X obj 350 -432 receive fromGUI;
#X obj 350 -409 list trim;
#X obj 433 -345 route 2 0 1;
#X obj 267 -345 route 0 0 1;
#X obj 350 -345 route 1 0 1;
#X obj 350 -387 route /drumPads;
#X obj 124 74 bng 15 250 50 0 empty empty empty 17 7 0 10 -262144 -1
-1;
#X obj 175 74 bng 15 250 50 0 empty empty empty 17 7 0 10 -262144 -1
-1;
#X obj 226 74 bng 15 250 50 0 empty empty empty 17 7 0 10 -262144 -1
-1;
#X floatatom 214 -601 5 0 0 0 - - -;
#X floatatom 328 -601 5 0 0 0 - - -;
#X obj 180 -628 r enableKeys;
#X obj 307 -628 r enableKeys;
#X obj 84 -554 r muteStatus;
#X obj 209 -555 r muteStatus;
#X obj 340 -554 r muteStatus;
#X msg 208 21 0.98;
#X obj 208 -1 loadbang;
#X msg 259 42 0.98;
#X obj 259 20 loadbang;
#X obj -319 142 bng 15 250 50 0 empty empty empty 17 7 0 10 -262144
-1 -1;
#X obj 124 -483 b;
#X obj 175 -483 b;
#X obj 226 -483 b;
#X obj 124 -51 b;
#X obj 175 -51 b;
#X obj 226 -51 b;
#X obj 267 -140 spigot;
#X obj 306 -160 tgl 15 0 empty empty empty 17 7 0 10 -262144 -1 -1
1 1;
#X obj 306 -242 del 1;
#X obj 267 -290 t b b, f 6;
#X msg 278 -197 1;
#X obj 278 -220 loadbang;
#X obj 350 -140 spigot;
#X obj 389 -160 tgl 15 0 empty empty empty 17 7 0 10 -262144 -1 -1
1 1;
#X obj 389 -242 del 1;
#X obj 350 -290 t b b, f 6;
#X msg 361 -197 1;
#X obj 361 -220 loadbang;
#X obj 433 -140 spigot;
#X obj 472 -160 tgl 15 0 empty empty empty 17 7 0 10 -262144 -1 -1
1 1;
#X obj 472 -242 del 1;
#X obj 433 -290 t b b, f 6;
#X msg 444 -197 1;
#X obj 444 -220 loadbang;
#X obj 267 -92 b;
#X obj 350 -92 b;
#X obj 433 -92 b;
#X connect 0 0 5 0;
#X connect 1 0 5 0;
#X connect 2 0 5 0;
#X connect 4 0 0 0;
#X connect 5 0 3 0;
#X connect 5 0 3 1;
#X connect 5 0 6 0;
#X connect 8 0 0 1;
#X connect 10 0 1 0;
#X connect 11 0 1 1;
#X connect 12 0 2 0;
#X connect 13 0 2 1;
#X connect 16 0 17 0;
#X connect 17 0 36 1;
#X connect 18 0 26 0;
#X connect 19 0 27 0;
#X connect 20 0 28 0;
#X connect 21 0 8 0;
#X connect 22 0 21 0;
#X connect 23 0 24 0;
#X connect 24 0 37 0;
#X connect 25 0 29 0;
#X connect 26 0 61 0;
#X connect 27 0 62 0;
#X connect 28 0 63 0;
#X connect 30 0 31 0;
#X connect 31 0 36 0;
#X connect 31 1 35 0;
#X connect 31 2 34 0;
#X connect 32 0 25 0;
#X connect 33 0 32 0;
#X connect 34 0 28 0;
#X connect 35 0 27 0;
#X connect 36 0 26 0;
#X connect 37 0 25 0;
#X connect 38 0 39 0;
#X connect 39 0 37 1;
#X connect 40 0 41 0;
#X connect 41 0 45 0;
#X connect 42 0 82 0;
#X connect 43 0 70 0;
#X connect 44 0 76 0;
#X connect 45 0 42 0;
#X connect 45 0 43 0;
#X connect 45 0 44 0;
#X connect 46 0 4 0;
#X connect 47 0 10 0;
#X connect 48 0 12 0;
#X connect 49 0 35 1;
#X connect 50 0 34 1;
#X connect 51 0 49 0;
#X connect 52 0 50 0;
#X connect 53 0 26 1;
#X connect 54 0 27 1;
#X connect 55 0 28 1;
#X connect 56 0 11 0;
#X connect 57 0 56 0;
#X connect 58 0 13 0;
#X connect 59 0 58 0;
#X connect 61 0 64 0;
#X connect 62 0 65 0;
#X connect 63 0 66 0;
#X connect 64 0 46 0;
#X connect 65 0 47 0;
#X connect 66 0 48 0;
#X connect 67 0 85 0;
#X connect 68 0 67 1;
#X connect 69 0 68 0;
#X connect 70 0 67 0;
#X connect 70 1 69 0;
#X connect 71 0 68 0;
#X connect 72 0 71 0;
#X connect 73 0 86 0;
#X connect 74 0 73 1;
#X connect 75 0 74 0;
#X connect 76 0 73 0;
#X connect 76 1 75 0;
#X connect 77 0 74 0;
#X connect 78 0 77 0;
#X connect 79 0 87 0;
#X connect 80 0 79 1;
#X connect 81 0 80 0;
#X connect 82 0 79 0;
#X connect 82 1 81 0;
#X connect 83 0 80 0;
#X connect 84 0 83 0;
#X connect 85 0 64 0;
#X connect 86 0 65 0;
#X connect 87 0 66 0;
#X coords 0 -1 1 1 200 80 2 100 100;
#X restore 154 9 pd DrumkKits;
#X msg 427 50 \; pd dsp 1;
#X obj 427 19 loadbang;
#X text 358 22 debug;
#N canvas -8 -8 1920 1037 stepSelector32 0;
#X obj 88 84 sel 0 1 2 3 4 5 6 7 8 9 10 11 12 13 14 15 16 17 18 19
20 21 22 23 24 25 26 27 28 29 30 31 32, f 92;
#X obj 88 42 inlet;
#X obj 88 136 outlet;
#X obj 107 157 outlet;
#X obj 127 178 outlet;
#X obj 146 199 outlet;
#X obj 166 136 outlet;
#X obj 185 157 outlet;
#X obj 205 178 outlet;
#X obj 224 199 outlet;
#X obj 243 136 outlet;
#X obj 262 157 outlet;
#X obj 282 178 outlet;
#X obj 301 199 outlet;
#X obj 321 136 outlet;
#X obj 340 157 outlet;
#X obj 360 178 outlet;
#X obj 379 199 outlet;
#X obj 399 135 outlet;
#X obj 418 156 outlet;
#X obj 438 177 outlet;
#X obj 457 198 outlet;
#X obj 476 135 outlet;
#X obj 496 156 outlet;
#X obj 516 177 outlet;
#X obj 535 198 outlet;
#X obj 554 135 outlet;
#X obj 573 156 outlet;
#X obj 593 177 outlet;
#X obj 612 198 outlet;
#X obj 632 135 outlet;
#X obj 651 156 outlet;
#X obj 671 177 outlet;
#X obj 690 198 outlet;
#X connect 0 0 2 0;
#X connect 0 1 3 0;
#X connect 0 2 4 0;
#X connect 0 3 5 0;
#X connect 0 4 6 0;
#X connect 0 5 7 0;
#X connect 0 6 8 0;
#X connect 0 7 9 0;
#X connect 0 8 10 0;
#X connect 0 9 11 0;
#X connect 0 10 12 0;
#X connect 0 11 13 0;
#X connect 0 12 14 0;
#X connect 0 13 15 0;
#X connect 0 14 16 0;
#X connect 0 15 17 0;
#X connect 0 16 18 0;
#X connect 0 17 19 0;
#X connect 0 18 20 0;
#X connect 0 19 21 0;
#X connect 0 20 22 0;
#X connect 0 21 23 0;
#X connect 0 22 24 0;
#X connect 0 23 25 0;
#X connect 0 24 26 0;
#X connect 0 25 27 0;
#X connect 0 26 28 0;
#X connect 0 27 29 0;
#X connect 0 28 30 0;
#X connect 0 29 31 0;
#X connect 0 30 32 0;
#X connect 0 31 33 0;
#X connect 1 0 0 0;
#X restore 11 123 pd stepSelector32;
#X f 78;
#X obj 507 49 tgl 15 0 empty empty empty 17 7 0 10 -262144 -1 -1 0
1;
#X obj 507 64 s enableKeys;
#X obj 638 19 r enableKeys;
#X floatatom 638 40 5 0 0 0 - - -;
#X obj 631 73 spigot;
#X msg 507 25 0;
#N canvas -8 -8 1920 1037 euclidMasterClockSimple 0;
#X obj 146 167 metro 200;
#X obj 154 139 tgl 15 0 empty empty empty 17 7 0 10 -262144 -1 -1 0
1;
#X obj 146 196 f;
#X obj 183 196 + 1;
#X obj 107 167 == 0;
#X obj 146 230 % 16;
#X text 135 104 ecuclid;
#X text 111 117 master clock 1;
#X obj 146 266 outlet;
#X connect 0 0 2 0;
#X connect 1 0 0 0;
#X connect 1 0 4 0;
#X connect 2 0 3 0;
#X connect 2 0 5 0;
#X connect 3 0 2 1;
#X connect 4 0 2 1;
#X connect 5 0 8 0;
#X coords 0 -1 1 1 120 60 2 100 100;
#X restore 795 81 pd euclidMasterClockSimple;
#N canvas -899 679 1920 1037 euclidRythm1 0;
#X obj 17 210 + 0;
#X obj 17 374 *;
#X floatatom 113 167 5 0 16 1 notes - -;
#X obj 17 398 % 16;
#X obj 17 422 <, f 13;
#X obj 17 446 sel 1;
#X obj 70 473 bng 15 250 50 0 empty empty empty 17 7 0 10 -262144 -1
-1;
#X obj 17 472 bng 15 250 50 0 empty empty empty 17 7 0 10 -262144 -1
-1;
#X obj 17 492 f, f 9;
#X obj 17 0 t f f, f 9;
#X floatatom 17 516 5 0 0 0 - - -;
#X obj 359 210 + 0;
#X obj 359 374 *;
#X floatatom 278 167 5 0 16 1 notes - -;
#X obj 359 398 % 16;
#X obj 359 422 <, f 13;
#X obj 359 446 sel 1;
#X obj 412 473 bng 15 250 50 0 empty empty empty 17 7 0 10 -262144
-1 -1;
#X obj 359 472 bng 15 250 50 0 empty empty empty 17 7 0 10 -262144
-1 -1;
#X obj 359 492 f, f 9;
#X obj 359 0 t f f, f 9;
#X floatatom 359 516 5 0 0 0 - - -;
#X obj 869 210 + 0;
#X obj 869 374 *;
#X floatatom 526 167 5 0 16 1 notes - -;
#X obj 869 398 % 16;
#X obj 869 422 <, f 13;
#X obj 869 446 sel 1;
#X obj 922 473 bng 15 250 50 0 empty empty empty 17 7 0 10 -262144
-1 -1;
#X obj 869 472 bng 15 250 50 0 empty empty empty 17 7 0 10 -262144
-1 -1;
#X obj 869 492 f, f 9;
#X obj 869 0 t f f, f 9;
#X floatatom 869 516 5 0 0 0 - - -;
#X obj 17 -34 spigot;
#X obj 112 127 tgl 15 0 empty empty empty 17 7 0 10 -262144 -1 -1 0
1;
#X obj 359 -34 spigot;
#X obj 278 125 tgl 15 0 empty empty empty 17 7 0 10 -262144 -1 -1 0
1;
#X obj 869 -34 spigot;
#X obj 527 124 tgl 15 0 empty empty empty 17 7 0 10 -262144 -1 -1 0
1;
#X floatatom 113 145 5 0 16 1 offset - -;
#X floatatom 278 145 5 0 16 1 offset - -;
#X floatatom 526 145 5 0 16 1 offset - -;
#X obj 187 210 + 0;
#X obj 187 374 *;
#X floatatom 195 167 5 0 16 1 notes - -;
#X obj 187 398 % 16;
#X obj 187 422 <, f 13;
#X obj 187 446 sel 1;
#X obj 240 473 bng 15 250 50 0 empty empty empty 17 7 0 10 -262144
-1 -1;
#X obj 187 472 bng 15 250 50 0 empty empty empty 17 7 0 10 -262144
-1 -1;
#X obj 187 492 f, f 9;
#X obj 187 1 t f f, f 9;
#X floatatom 187 516 5 0 0 0 - - -;
#X obj 187 -34 spigot;
#X obj 195 126 tgl 15 0 empty empty empty 17 7 0 10 -262144 -1 -1 0
1;
#X floatatom 195 145 5 0 16 1 offset - -;
#X obj 529 210 + 0;
#X obj 529 374 *;
#X floatatom 361 167 5 0 16 1 notes - -;
#X obj 529 398 % 16;
#X obj 529 422 <, f 13;
#X obj 529 446 sel 1;
#X obj 582 473 bng 15 250 50 0 empty empty empty 17 7 0 10 -262144
-1 -1;
#X obj 529 472 bng 15 250 50 0 empty empty empty 17 7 0 10 -262144
-1 -1;
#X obj 529 492 f, f 9;
#X obj 529 0 t f f, f 9;
#X floatatom 529 516 5 0 0 0 - - -;
#X obj 529 -34 spigot;
#X obj 362 124 tgl 15 0 empty empty empty 17 7 0 10 -262144 -1 -1 0
1;
#X floatatom 361 145 5 0 16 1 offset - -;
#X obj 699 210 + 0;
#X obj 699 374 *;
#X floatatom 444 167 5 0 16 1 notes - -;
#X obj 699 398 % 16;
#X obj 699 422 <, f 13;
#X obj 699 446 sel 1;
#X obj 752 473 bng 15 250 50 0 empty empty empty 17 7 0 10 -262144
-1 -1;
#X obj 699 472 bng 15 250 50 0 empty empty empty 17 7 0 10 -262144
-1 -1;
#X obj 699 492 f, f 9;
#X obj 699 0 t f f, f 9;
#X floatatom 699 516 5 0 0 0 - - -;
#X obj 699 -34 spigot;
#X obj 446 125 tgl 15 0 empty empty empty 17 7 0 10 -262144 -1 -1 0
1;
#X floatatom 444 145 5 0 16 1 offset - -;
#X obj 105 549 s kt;
#X obj 445 555 s st;
#X obj 807 553 s sh;
#X obj 18 -119 inlet;
#X obj 193 -119 inlet;
#X obj 365 -119 inlet;
#X obj 538 -115 inlet;
#X obj 704 -119 inlet;
#X obj 873 -119 inlet;
#X text 109 106 <--------kicks-------->;
#X text 276 106 <--------snares-------->;
#X text 446 106 <--------hhats-------->;
#X connect 0 0 1 0;
#X connect 1 0 3 0;
#X connect 2 0 1 1;
#X connect 2 0 4 1;
#X connect 3 0 4 0;
#X connect 4 0 5 0;
#X connect 5 0 7 0;
#X connect 5 1 6 0;
#X connect 7 0 8 0;
#X connect 8 0 10 0;
#X connect 9 0 0 0;
#X connect 9 1 8 1;
#X connect 10 0 84 0;
#X connect 11 0 12 0;
#X connect 12 0 14 0;
#X connect 13 0 12 1;
#X connect 13 0 15 1;
#X connect 14 0 15 0;
#X connect 15 0 16 0;
#X connect 16 0 18 0;
#X connect 16 1 17 0;
#X connect 18 0 19 0;
#X connect 19 0 21 0;
#X connect 20 0 11 0;
#X connect 20 1 19 1;
#X connect 21 0 85 0;
#X connect 22 0 23 0;
#X connect 23 0 25 0;
#X connect 24 0 23 1;
#X connect 24 0 26 1;
#X connect 25 0 26 0;
#X connect 26 0 27 0;
#X connect 27 0 29 0;
#X connect 27 1 28 0;
#X connect 29 0 30 0;
#X connect 30 0 32 0;
#X connect 31 0 22 0;
#X connect 31 1 30 1;
#X connect 32 0 86 0;
#X connect 33 0 9 0;
#X connect 34 0 33 1;
#X connect 35 0 20 0;
#X connect 36 0 35 1;
#X connect 37 0 31 0;
#X connect 38 0 37 1;
#X connect 39 0 0 1;
#X connect 40 0 11 1;
#X connect 41 0 22 1;
#X connect 42 0 43 0;
#X connect 43 0 45 0;
#X connect 44 0 43 1;
#X connect 44 0 46 1;
#X connect 45 0 46 0;
#X connect 46 0 47 0;
#X connect 47 0 49 0;
#X connect 47 1 48 0;
#X connect 49 0 50 0;
#X connect 50 0 52 0;
#X connect 51 0 42 0;
#X connect 51 1 50 1;
#X connect 52 0 84 0;
#X connect 53 0 51 0;
#X connect 54 0 53 1;
#X connect 55 0 42 1;
#X connect 56 0 57 0;
#X connect 57 0 59 0;
#X connect 58 0 57 1;
#X connect 58 0 60 1;
#X connect 59 0 60 0;
#X connect 60 0 61 0;
#X connect 61 0 63 0;
#X connect 61 1 62 0;
#X connect 63 0 64 0;
#X connect 64 0 66 0;
#X connect 65 0 56 0;
#X connect 65 1 64 1;
#X connect 66 0 85 0;
#X connect 67 0 65 0;
#X connect 68 0 67 1;
#X connect 69 0 56 1;
#X connect 70 0 71 0;
#X connect 71 0 73 0;
#X connect 72 0 71 1;
#X connect 72 0 74 1;
#X connect 73 0 74 0;
#X connect 74 0 75 0;
#X connect 75 0 77 0;
#X connect 75 1 76 0;
#X connect 77 0 78 0;
#X connect 78 0 80 0;
#X connect 79 0 70 0;
#X connect 79 1 78 1;
#X connect 80 0 86 0;
#X connect 81 0 79 0;
#X connect 82 0 81 1;
#X connect 83 0 70 1;
#X connect 87 0 33 0;
#X connect 88 0 53 0;
#X connect 89 0 35 0;
#X connect 90 0 67 0;
#X connect 91 0 81 0;
#X connect 92 0 37 0;
#X coords 0 -1 1 1 520 100 2 100 100;
#X restore 416 237 pd euclidRythm1;
#X obj 652 172 r euclidTempo;
#N canvas -967 0 958 1028 euclidRythm2 0;
#X obj 17 286 + 0;
#X obj 17 340 *;
#X floatatom 113 233 5 0 64 1 notes - -;
#X obj 17 364 % 16;
#X obj 17 388 <, f 13;
#X obj 17 412 sel 1;
#X obj 70 439 bng 15 250 50 0 empty empty empty 17 7 0 10 -262144 -1
-1;
#X obj 17 438 bng 15 250 50 0 empty empty empty 17 7 0 10 -262144 -1
-1;
#X obj 17 458 f, f 9;
#X obj 17 -114 t f f, f 9;
#X floatatom 17 482 5 0 0 0 - - -;
#X obj 359 286 + 0;
#X obj 359 340 *;
#X floatatom 278 233 5 0 64 1 notes - -;
#X obj 359 364 % 16;
#X obj 359 388 <, f 13;
#X obj 359 412 sel 1;
#X obj 412 439 bng 15 250 50 0 empty empty empty 17 7 0 10 -262144
-1 -1;
#X obj 359 438 bng 15 250 50 0 empty empty empty 17 7 0 10 -262144
-1 -1;
#X obj 359 458 f, f 9;
#X obj 359 -114 t f f, f 9;
#X floatatom 359 482 5 0 0 0 - - -;
#X obj 869 286 + 0;
#X obj 869 340 *;
#X floatatom 526 233 5 0 64 1 notes - -;
#X obj 869 364 % 16;
#X obj 869 388 <, f 13;
#X obj 869 412 sel 1;
#X obj 922 439 bng 15 250 50 0 empty empty empty 17 7 0 10 -262144
-1 -1;
#X obj 869 438 bng 15 250 50 0 empty empty empty 17 7 0 10 -262144
-1 -1;
#X obj 869 458 f, f 9;
#X obj 869 -114 t f f, f 9;
#X floatatom 869 482 5 0 0 0 - - -;
#X obj 17 -148 spigot;
#X obj 112 193 tgl 15 0 empty empty empty 17 7 0 10 -262144 -1 -1 0
1;
#X obj 359 -148 spigot;
#X obj 278 191 tgl 15 0 empty empty empty 17 7 0 10 -262144 -1 -1 0
1;
#X obj 869 -148 spigot;
#X obj 527 192 tgl 15 0 empty empty empty 17 7 0 10 -262144 -1 -1 0
1;
#X floatatom 113 211 5 0 64 1 offset - -;
#X floatatom 278 211 5 0 64 1 offset - -;
#X floatatom 526 211 5 0 64 1 offset - -;
#X obj 187 286 + 0;
#X obj 187 340 *;
#X floatatom 195 233 5 0 64 1 notes - -;
#X obj 187 364 % 16;
#X obj 187 388 <, f 13;
#X obj 187 412 sel 1;
#X obj 240 439 bng 15 250 50 0 empty empty empty 17 7 0 10 -262144
-1 -1;
#X obj 187 438 bng 15 250 50 0 empty empty empty 17 7 0 10 -262144
-1 -1;
#X obj 187 458 f, f 9;
#X obj 187 -113 t f f, f 9;
#X floatatom 187 482 5 0 0 0 - - -;
#X obj 187 -148 spigot;
#X obj 195 192 tgl 15 0 empty empty empty 17 7 0 10 -262144 -1 -1 0
1;
#X floatatom 195 211 5 0 64 1 offset - -;
#X obj 529 286 + 0;
#X obj 529 340 *;
#X floatatom 361 233 5 0 64 1 notes - -;
#X obj 529 364 % 16;
#X obj 529 388 <, f 13;
#X obj 529 412 sel 1;
#X obj 582 439 bng 15 250 50 0 empty empty empty 17 7 0 10 -262144
-1 -1;
#X obj 529 438 bng 15 250 50 0 empty empty empty 17 7 0 10 -262144
-1 -1;
#X obj 529 458 f, f 9;
#X obj 529 -114 t f f, f 9;
#X floatatom 529 482 5 0 0 0 - - -;
#X obj 529 -148 spigot;
#X obj 362 190 tgl 15 0 empty empty empty 17 7 0 10 -262144 -1 -1 0
1;
#X floatatom 361 211 5 0 64 1 offset - -;
#X obj 699 286 + 0;
#X obj 699 340 *;
#X floatatom 444 233 5 0 64 1 notes - -;
#X obj 699 364 % 16;
#X obj 699 388 <, f 13;
#X obj 699 412 sel 1;
#X obj 752 439 bng 15 250 50 0 empty empty empty 17 7 0 10 -262144
-1 -1;
#X obj 699 438 bng 15 250 50 0 empty empty empty 17 7 0 10 -262144
-1 -1;
#X obj 699 458 f, f 9;
#X obj 699 -114 t f f, f 9;
#X floatatom 699 482 5 0 0 0 - - -;
#X obj 699 -148 spigot;
#X obj 446 191 tgl 15 0 empty empty empty 17 7 0 10 -262144 -1 -1 0
1;
#X floatatom 444 211 5 0 64 1 offset - -;
#X obj 105 515 s kt;
#X obj 445 521 s st;
#X obj 807 519 s sh;
#X text 109 172 <--------kicks-------->;
#X text 276 172 <--------snares-------->;
#X text 446 172 <--------hhats-------->;
#X msg 65 -349 tempo \$1 permin;
#X obj 18 -284 f;
#X obj 47 -284 + 1;
#X obj 18 -252 mod 16;
#X floatatom 18 -226 5 0 0 0 - - -;
#X obj 18 -350 t f b;
#X msg 176 -314 0;
#X obj 18 -314 metro 0.25 120 permin;
#X floatatom 112 121 5 0 900 0 - - -;
#X text 151 120 BPM;
#X obj 111 102 tgl 15 0 empty empty empty 17 7 0 10 -262144 -1 -1 0
1;
#X floatatom 112 146 5 1 64 1 steps - -;
#X msg 113 31 16;
#X obj 131 -15 loadbang;
#X msg 147 31 0;
#X msg 260 -348 tempo \$1 permin;
#X obj 213 -283 f;
#X obj 242 -283 + 1;
#X obj 213 -251 mod 16;
#X floatatom 213 -225 5 0 0 0 - - -;
#X obj 213 -349 t f b;
#X msg 371 -313 0;
#X obj 213 -313 metro 0.25 120 permin;
#X floatatom 193 122 5 0 900 0 - - -;
#X text 232 121 BPM;
#X obj 192 103 tgl 15 0 empty empty empty 17 7 0 10 -262144 -1 -1 0
1;
#X floatatom 193 147 5 1 64 1 steps - -;
#X msg 188 32 16;
#X obj 206 -14 loadbang;
#X msg 222 32 0;
#X msg 456 -347 tempo \$1 permin;
#X obj 409 -282 f;
#X obj 438 -282 + 1;
#X obj 409 -250 mod 16;
#X floatatom 409 -224 5 0 0 0 - - -;
#X obj 409 -348 t f b;
#X msg 567 -312 0;
#X obj 409 -312 metro 0.25 120 permin;
#X floatatom 277 123 5 0 900 0 - - -;
#X text 316 122 BPM;
#X obj 276 104 tgl 15 0 empty empty empty 17 7 0 10 -262144 -1 -1 0
1;
#X floatatom 277 148 5 1 64 1 steps - -;
#X msg 264 33 16;
#X obj 282 -13 loadbang;
#X msg 298 33 0;
#X msg 652 -347 tempo \$1 permin;
#X obj 605 -282 f;
#X obj 634 -282 + 1;
#X obj 605 -250 mod 16;
#X floatatom 605 -224 5 0 0 0 - - -;
#X obj 605 -348 t f b;
#X msg 763 -312 0;
#X obj 605 -312 metro 0.25 120 permin;
#X floatatom 363 123 5 0 900 0 - - -;
#X text 402 122 BPM;
#X obj 362 104 tgl 15 0 empty empty empty 17 7 0 10 -262144 -1 -1 0
1;
#X floatatom 363 148 5 1 64 1 steps - -;
#X msg 340 33 16;
#X obj 358 -13 loadbang;
#X msg 374 33 0;
#X msg 848 -347 tempo \$1 permin;
#X obj 801 -282 f;
#X obj 830 -282 + 1;
#X obj 801 -250 mod 16;
#X floatatom 801 -224 5 0 0 0 - - -;
#X obj 801 -348 t f b;
#X msg 959 -312 0;
#X obj 801 -312 metro 0.25 120 permin;
#X floatatom 443 123 5 0 900 0 - - -;
#X text 482 122 BPM;
#X obj 442 104 tgl 15 0 empty empty empty 17 7 0 10 -262144 -1 -1 0
1;
#X floatatom 443 148 5 1 64 1 steps - -;
#X msg 416 33 16;
#X obj 434 -13 loadbang;
#X msg 450 33 0;
#X msg 1048 -347 tempo \$1 permin;
#X obj 1001 -282 f;
#X obj 1030 -282 + 1;
#X obj 1001 -250 mod 16;
#X floatatom 1001 -224 5 0 0 0 - - -;
#X obj 1001 -348 t f b;
#X msg 1159 -312 0;
#X obj 1001 -312 metro 0.25 120 permin;
#X floatatom 523 123 5 0 900 0 - - -;
#X text 562 122 BPM;
#X obj 522 104 tgl 15 0 empty empty empty 17 7 0 10 -262144 -1 -1 0
1;
#X floatatom 523 148 5 1 64 1 steps - -;
#X msg 496 33 16;
#X obj 514 -13 loadbang;
#X msg 530 33 0;
#X msg 143 75 60;
#X msg 224 70 60;
#X msg 305 67 60;
#X msg 374 65 60;
#X msg 450 65 60;
#X msg 541 64 60;
#X obj 126 281 s tk1;
#X obj 126 311 s sk1;
#X obj 126 341 s ok1;
#X obj 126 371 s nk1;
#X obj 126 401 s ck1;
#X obj 126 431 s mk1;
#X connect 0 0 1 0;
#X connect 1 0 3 0;
#X connect 2 0 1 1;
#X connect 2 0 4 1;
#X connect 3 0 4 0;
#X connect 4 0 5 0;
#X connect 5 0 7 0;
#X connect 5 1 6 0;
#X connect 7 0 8 0;
#X connect 8 0 10 0;
#X connect 9 0 0 0;
#X connect 9 1 8 1;
#X connect 10 0 84 0;
#X connect 11 0 12 0;
#X connect 12 0 14 0;
#X connect 13 0 12 1;
#X connect 13 0 15 1;
#X connect 14 0 15 0;
#X connect 15 0 16 0;
#X connect 16 0 18 0;
#X connect 16 1 17 0;
#X connect 18 0 19 0;
#X connect 19 0 21 0;
#X connect 20 0 11 0;
#X connect 20 1 19 1;
#X connect 21 0 85 0;
#X connect 22 0 23 0;
#X connect 23 0 25 0;
#X connect 24 0 23 1;
#X connect 24 0 26 1;
#X connect 25 0 26 0;
#X connect 26 0 27 0;
#X connect 27 0 29 0;
#X connect 27 1 28 0;
#X connect 29 0 30 0;
#X connect 30 0 32 0;
#X connect 31 0 22 0;
#X connect 31 1 30 1;
#X connect 32 0 86 0;
#X connect 33 0 9 0;
#X connect 34 0 33 1;
#X connect 35 0 20 0;
#X connect 36 0 35 1;
#X connect 37 0 31 0;
#X connect 38 0 37 1;
#X connect 39 0 0 1;
#X connect 40 0 11 1;
#X connect 41 0 22 1;
#X connect 42 0 43 0;
#X connect 43 0 45 0;
#X connect 44 0 43 1;
#X connect 44 0 46 1;
#X connect 45 0 46 0;
#X connect 46 0 47 0;
#X connect 47 0 49 0;
#X connect 47 1 48 0;
#X connect 49 0 50 0;
#X connect 50 0 52 0;
#X connect 51 0 42 0;
#X connect 51 1 50 1;
#X connect 52 0 84 0;
#X connect 53 0 51 0;
#X connect 54 0 53 1;
#X connect 55 0 42 1;
#X connect 56 0 57 0;
#X connect 57 0 59 0;
#X connect 58 0 57 1;
#X connect 58 0 60 1;
#X connect 59 0 60 0;
#X connect 60 0 61 0;
#X connect 61 0 63 0;
#X connect 61 1 62 0;
#X connect 63 0 64 0;
#X connect 64 0 66 0;
#X connect 65 0 56 0;
#X connect 65 1 64 1;
#X connect 66 0 85 0;
#X connect 67 0 65 0;
#X connect 68 0 67 1;
#X connect 69 0 56 1;
#X connect 70 0 71 0;
#X connect 71 0 73 0;
#X connect 72 0 71 1;
#X connect 72 0 74 1;
#X connect 73 0 74 0;
#X connect 74 0 75 0;
#X connect 75 0 77 0;
#X connect 75 1 76 0;
#X connect 77 0 78 0;
#X connect 78 0 80 0;
#X connect 79 0 70 0;
#X connect 79 1 78 1;
#X connect 80 0 86 0;
#X connect 81 0 79 0;
#X connect 82 0 81 1;
#X connect 83 0 70 1;
#X connect 90 0 97 0;
#X connect 91 0 92 0;
#X connect 91 0 93 0;
#X connect 92 0 91 1;
#X connect 93 0 94 0;
#X connect 94 0 33 0;
#X connect 95 0 97 0;
#X connect 95 1 96 0;
#X connect 96 0 91 1;
#X connect 97 0 91 0;
#X connect 98 0 90 0;
#X connect 100 0 95 0;
#X connect 101 0 93 1;
#X connect 102 0 101 0;
#X connect 103 0 102 0;
#X connect 103 0 104 0;
#X connect 103 0 180 0;
#X connect 104 0 100 0;
#X connect 105 0 112 0;
#X connect 106 0 107 0;
#X connect 106 0 108 0;
#X connect 107 0 106 1;
#X connect 108 0 109 0;
#X connect 109 0 53 0;
#X connect 110 0 112 0;
#X connect 110 1 111 0;
#X connect 111 0 106 1;
#X connect 112 0 106 0;
#X connect 113 0 105 0;
#X connect 115 0 110 0;
#X connect 116 0 108 1;
#X connect 117 0 116 0;
#X connect 118 0 117 0;
#X connect 118 0 119 0;
#X connect 118 0 181 0;
#X connect 119 0 115 0;
#X connect 120 0 127 0;
#X connect 121 0 122 0;
#X connect 121 0 123 0;
#X connect 122 0 121 1;
#X connect 123 0 124 0;
#X connect 124 0 35 0;
#X connect 125 0 127 0;
#X connect 125 1 126 0;
#X connect 126 0 121 1;
#X connect 127 0 121 0;
#X connect 128 0 120 0;
#X connect 130 0 125 0;
#X connect 131 0 123 1;
#X connect 132 0 131 0;
#X connect 133 0 132 0;
#X connect 133 0 134 0;
#X connect 133 0 182 0;
#X connect 134 0 130 0;
#X connect 135 0 142 0;
#X connect 136 0 137 0;
#X connect 136 0 138 0;
#X connect 137 0 136 1;
#X connect 138 0 139 0;
#X connect 139 0 67 0;
#X connect 140 0 142 0;
#X connect 140 1 141 0;
#X connect 141 0 136 1;
#X connect 142 0 136 0;
#X connect 143 0 135 0;
#X connect 145 0 140 0;
#X connect 146 0 138 1;
#X connect 147 0 146 0;
#X connect 148 0 147 0;
#X connect 148 0 149 0;
#X connect 148 0 183 0;
#X connect 149 0 145 0;
#X connect 150 0 157 0;
#X connect 151 0 152 0;
#X connect 151 0 153 0;
#X connect 152 0 151 1;
#X connect 153 0 154 0;
#X connect 154 0 81 0;
#X connect 155 0 157 0;
#X connect 155 1 156 0;
#X connect 156 0 151 1;
#X connect 157 0 151 0;
#X connect 158 0 150 0;
#X connect 160 0 155 0;
#X connect 161 0 153 1;
#X connect 162 0 161 0;
#X connect 163 0 162 0;
#X connect 163 0 164 0;
#X connect 163 0 184 0;
#X connect 164 0 160 0;
#X connect 165 0 172 0;
#X connect 166 0 167 0;
#X connect 166 0 168 0;
#X connect 167 0 166 1;
#X connect 168 0 169 0;
#X connect 169 0 37 0;
#X connect 170 0 172 0;
#X connect 170 1 171 0;
#X connect 171 0 166 1;
#X connect 172 0 166 0;
#X connect 173 0 165 0;
#X connect 175 0 170 0;
#X connect 176 0 168 1;
#X connect 177 0 176 0;
#X connect 178 0 177 0;
#X connect 178 0 179 0;
#X connect 178 0 185 0;
#X connect 179 0 175 0;
#X connect 180 0 98 0;
#X connect 181 0 113 0;
#X connect 182 0 128 0;
#X connect 183 0 143 0;
#X connect 184 0 158 0;
#X connect 185 0 173 0;
#X coords 0 -1 1 1 520 160 2 100 100;
#X restore 10 513 pd euclidRythm2;
#X obj 590 439 vsl 15 50 0 1 0 0 empty empty empty 0 -9 0 10 -262144
-1 -1 0 1;
#X obj 636 419 tgl 15 0 empty empty empty 17 7 0 10 -262144 -1 -1 0
1;
#X text 625 402 clock;
#X obj 610 439 vsl 15 50 0 1 0 0 empty empty empty 0 -9 0 10 -262144
-1 -1 0 1;
#X obj 630 439 vsl 15 50 0 1 0 0 empty empty empty 0 -9 0 10 -262144
-1 -1 0 1;
#X obj 650 439 vsl 15 50 0 1 0 0 empty empty empty 0 -9 0 10 -262144
-1 -1 0 1;
#X obj 600 419 tgl 15 0 empty empty empty 17 7 0 10 -262144 -1 -1 0
1;
#X text 592 402 mute;
#X floatatom 590 512 5 0 0 0 - - -;
#X floatatom 590 532 5 0 0 0 - - -;
#X floatatom 630 512 5 0 0 0 - - -;
#X floatatom 630 532 5 0 0 0 - - -;
#X text 590 492 T;
#X text 610 492 S;
#X text 630 492 O;
#X text 650 492 N;
#X text 869 424 T tempo;
#X text 869 441 S steps;
#X text 869 458 O offset;
#X text 869 474 N notes;
#X text 608 380 Kick;
#X text 599 388 -------;
#X obj 680 439 vsl 15 50 0 1 0 0 empty empty empty 0 -9 0 10 -262144
-1 -1 0 1;
#X obj 726 419 tgl 15 0 empty empty empty 17 7 0 10 -262144 -1 -1 0
1;
#X text 715 402 clock;
#X obj 700 439 vsl 15 50 0 1 0 0 empty empty empty 0 -9 0 10 -262144
-1 -1 0 1;
#X obj 720 439 vsl 15 50 0 1 0 0 empty empty empty 0 -9 0 10 -262144
-1 -1 0 1;
#X obj 740 439 vsl 15 50 0 1 0 0 empty empty empty 0 -9 0 10 -262144
-1 -1 0 1;
#X obj 690 419 tgl 15 0 empty empty empty 17 7 0 10 -262144 -1 -1 0
1;
#X text 682 402 mute;
#X floatatom 680 512 5 0 0 0 - - -;
#X floatatom 680 532 5 0 0 0 - - -;
#X floatatom 720 512 5 0 0 0 - - -;
#X floatatom 720 532 5 0 0 0 - - -;
#X text 680 492 T;
#X text 700 492 S;
#X text 720 492 O;
#X text 740 492 N;
#X text 689 388 -------;
#X obj 770 439 vsl 15 50 0 1 0 0 empty empty empty 0 -9 0 10 -262144
-1 -1 0 1;
#X obj 816 419 tgl 15 0 empty empty empty 17 7 0 10 -262144 -1 -1 0
1;
#X text 805 402 clock;
#X obj 790 439 vsl 15 50 0 1 0 0 empty empty empty 0 -9 0 10 -262144
-1 -1 0 1;
#X obj 810 439 vsl 15 50 0 1 0 0 empty empty empty 0 -9 0 10 -262144
-1 -1 0 1;
#X obj 830 439 vsl 15 50 0 1 0 0 empty empty empty 0 -9 0 10 -262144
-1 -1 0 1;
#X obj 780 419 tgl 15 0 empty empty empty 17 7 0 10 -262144 -1 -1 0
1;
#X text 772 402 mute;
#X floatatom 770 512 5 0 0 0 - - -;
#X floatatom 770 532 5 0 0 0 - - -;
#X floatatom 810 512 5 0 0 0 - - -;
#X floatatom 810 532 5 0 0 0 - - -;
#X text 770 492 T;
#X text 790 492 S;
#X text 810 492 O;
#X text 830 492 N;
#X text 779 388 -------;
#X text 698 380 Snare;
#X text 790 380 Hhat;
#X obj 590 589 vsl 15 50 0 1 0 0 empty empty empty 0 -9 0 10 -262144
-1 -1 0 1;
#X obj 636 569 tgl 15 0 empty empty empty 17 7 0 10 -262144 -1 -1 0
1;
#X text 625 552 clock;
#X obj 610 589 vsl 15 50 0 1 0 0 empty empty empty 0 -9 0 10 -262144
-1 -1 0 1;
#X obj 630 589 vsl 15 50 0 1 0 0 empty empty empty 0 -9 0 10 -262144
-1 -1 0 1;
#X obj 650 589 vsl 15 50 0 1 0 0 empty empty empty 0 -9 0 10 -262144
-1 -1 0 1;
#X obj 600 569 tgl 15 0 empty empty empty 17 7 0 10 -262144 -1 -1 0
1;
#X text 592 552 mute;
#X floatatom 590 662 5 0 0 0 - - -;
#X floatatom 590 682 5 0 0 0 - - -;
#X floatatom 630 662 5 0 0 0 - - -;
#X floatatom 630 682 5 0 0 0 - - -;
#X text 590 642 T;
#X text 610 642 S;
#X text 630 642 O;
#X text 650 642 N;
#X obj 680 589 vsl 15 50 0 1 0 0 empty empty empty 0 -9 0 10 -262144
-1 -1 0 1;
#X obj 726 569 tgl 15 0 empty empty empty 17 7 0 10 -262144 -1 -1 0
1;
#X text 715 552 clock;
#X obj 700 589 vsl 15 50 0 1 0 0 empty empty empty 0 -9 0 10 -262144
-1 -1 0 1;
#X obj 720 589 vsl 15 50 0 1 0 0 empty empty empty 0 -9 0 10 -262144
-1 -1 0 1;
#X obj 740 589 vsl 15 50 0 1 0 0 empty empty empty 0 -9 0 10 -262144
-1 -1 0 1;
#X obj 690 569 tgl 15 0 empty empty empty 17 7 0 10 -262144 -1 -1 0
1;
#X text 682 552 mute;
#X floatatom 680 662 5 0 0 0 - - -;
#X floatatom 680 682 5 0 0 0 - - -;
#X floatatom 720 662 5 0 0 0 - - -;
#X floatatom 720 682 5 0 0 0 - - -;
#X text 680 642 T;
#X text 700 642 S;
#X text 720 642 O;
#X text 740 642 N;
#X obj 770 589 vsl 15 50 0 1 0 0 empty empty empty 0 -9 0 10 -262144
-1 -1 0 1;
#X obj 816 569 tgl 15 0 empty empty empty 17 7 0 10 -262144 -1 -1 0
1;
#X text 805 552 clock;
#X obj 790 589 vsl 15 50 0 1 0 0 empty empty empty 0 -9 0 10 -262144
-1 -1 0 1;
#X obj 810 589 vsl 15 50 0 1 0 0 empty empty empty 0 -9 0 10 -262144
-1 -1 0 1;
#X obj 830 589 vsl 15 50 0 1 0 0 empty empty empty 0 -9 0 10 -262144
-1 -1 0 1;
#X obj 780 569 tgl 15 0 empty empty empty 17 7 0 10 -262144 -1 -1 0
1;
#X text 772 552 mute;
#X floatatom 770 662 5 0 0 0 - - -;
#X floatatom 770 682 5 0 0 0 - - -;
#X floatatom 810 662 5 0 0 0 - - -;
#X floatatom 810 682 5 0 0 0 - - -;
#X text 770 642 T;
#X text 790 642 S;
#X text 810 642 O;
#X text 830 642 N;
#N canvas -1927 0 958 1028 euclidController 0;
#X obj 112 121 vsl 15 50 0 900 0 0 empty empty empty 0 -9 0 10 -262144
-1 -1 0 1;
#X obj 158 101 tgl 15 0 empty empty empty 17 7 0 10 -262144 -1 -1 0
1;
#X text 147 84 clock;
#X obj 132 121 vsl 15 50 1 64 0 0 empty empty empty 0 -9 0 10 -262144
-1 -1 0 1;
#X obj 152 121 vsl 15 50 0 64 0 0 empty empty empty 0 -9 0 10 -262144
-1 -1 0 1;
#X obj 172 121 vsl 15 50 0 64 0 0 empty empty empty 0 -9 0 10 -262144
-1 -1 0 1;
#X obj 122 101 tgl 15 0 empty empty empty 17 7 0 10 -262144 -1 -1 0
1;
#X text 114 84 mute;
#X floatatom 112 194 5 0 900 0 - - -;
#X floatatom 112 214 5 0 64 0 - - -;
#X floatatom 152 194 5 1 64 0 - - -;
#X floatatom 152 214 5 0 64 0 - - -;
#X text 112 174 T;
#X text 132 174 S;
#X text 152 174 O;
#X text 172 174 N;
#X text 130 62 Kick;
#X text 121 70 -------;
#X obj 50 194 s tk1;
#X obj 208 196 s sk1;
#X obj 49 226 s ok1;
#X obj 208 226 s nk1;
#X obj 265 127 s ck1;
#X obj 24 126 s mk1;
#X connect 1 0 22 0;
#X connect 6 0 23 0;
#X connect 8 0 18 0;
#X connect 9 0 20 0;
#X connect 10 0 19 0;
#X connect 11 0 21 0;
#X restore 219 345 pd euclidController;
#N canvas -967 0 958 1028 eculidianSeqencer 0;
#X obj 18 -151 + 0;
#X obj 18 -127 *;
#X floatatom 242 -140 5 0 64 1 notes - -;
#X obj 18 -103 % 16;
#X obj 18 -79 <, f 13;
#X obj 18 -55 sel 1;
#X obj 71 -28 bng 15 250 50 0 empty empty empty 17 7 0 10 -262144 -1
-1;
#X obj 18 -29 bng 15 250 50 0 empty empty empty 17 7 0 10 -262144 -1
-1;
#X obj 18 -9 f, f 9;
#X obj 18 -175 t f f, f 9;
#X floatatom 18 15 5 0 0 0 - - -;
#X obj 18 -198 spigot;
#X obj 243 -203 tgl 15 0 empty empty empty 17 7 0 10 -262144 -1 -1
0 1;
#X floatatom 244 -175 5 0 64 1 offset - -;
#X obj 18 39 s kt;
#X msg 65 -349 tempo \$1 permin;
#X obj 18 -284 f;
#X obj 47 -284 + 1;
#X obj 18 -252 mod 16, f 19;
#X floatatom 18 -226 5 0 0 0 - - -;
#X obj 18 -350 t f b;
#X msg 176 -314 0;
#X obj 18 -314 metro 0.25 120 permin;
#X floatatom 209 -375 5 0 900 0 - - -;
#X text 255 -376 BPM;
#X obj 166 -388 tgl 15 0 empty empty empty 17 7 0 10 -262144 -1 -1
0 1;
#X floatatom 250 -345 5 1 64 1 steps - -;
#X msg 250 -426 16;
#X obj 209 -472 loadbang;
#X msg 166 -426 0;
#X msg 209 -426 60;
#X obj 335 -399 r ck1;
#X obj 336 -373 r tk1;
#X obj 336 -345 r sk1;
#X obj 335 -208 r mk1;
#X obj 335 -171 r ok1;
#X obj 336 -136 r nk1;
#X connect 0 0 1 0;
#X connect 1 0 3 0;
#X connect 2 0 1 1;
#X connect 2 0 4 1;
#X connect 3 0 4 0;
#X connect 4 0 5 0;
#X connect 5 0 7 0;
#X connect 5 1 6 0;
#X connect 7 0 8 0;
#X connect 8 0 10 0;
#X connect 9 0 0 0;
#X connect 9 1 8 1;
#X connect 10 0 14 0;
#X connect 11 0 9 0;
#X connect 12 0 11 1;
#X connect 13 0 0 1;
#X connect 15 0 22 0;
#X connect 16 0 17 0;
#X connect 16 0 18 0;
#X connect 17 0 16 1;
#X connect 18 0 19 0;
#X connect 19 0 11 0;
#X connect 20 0 22 0;
#X connect 20 1 21 0;
#X connect 21 0 16 1;
#X connect 22 0 16 0;
#X connect 23 0 15 0;
#X connect 25 0 20 0;
#X connect 26 0 18 1;
#X connect 27 0 26 0;
#X connect 28 0 27 0;
#X connect 28 0 29 0;
#X connect 28 0 30 0;
#X connect 29 0 25 0;
#X connect 30 0 23 0;
#X connect 31 0 25 0;
#X connect 32 0 23 0;
#X connect 33 0 26 0;
#X connect 34 0 12 0;
#X connect 35 0 13 0;
#X connect 36 0 2 0;
#X restore 233 402 pd eculidianSeqencer;
#X connect 0 0 10 0;
#X connect 1 0 0 0;
#X connect 3 0 4 0;
#X connect 8 0 7 0;
#X connect 8 0 16 0;
#X connect 10 0 2 0;
#X connect 10 1 2 1;
#X connect 10 2 2 2;
#X connect 10 3 2 3;
#X connect 10 4 2 4;
#X connect 10 5 2 5;
#X connect 10 6 2 6;
#X connect 10 7 2 7;
#X connect 10 8 2 8;
#X connect 10 9 2 9;
#X connect 10 10 2 10;
#X connect 10 11 2 11;
#X connect 10 12 2 12;
#X connect 10 13 2 13;
#X connect 10 14 2 14;
#X connect 10 15 2 15;
#X connect 10 16 5 0;
#X connect 10 17 5 1;
#X connect 10 18 5 2;
#X connect 10 19 5 3;
#X connect 10 20 5 4;
#X connect 10 21 5 5;
#X connect 10 22 5 6;
#X connect 10 23 5 7;
#X connect 10 24 5 8;
#X connect 10 25 5 9;
#X connect 10 26 5 10;
#X connect 10 27 5 11;
#X connect 10 28 5 12;
#X connect 10 29 5 13;
#X connect 10 30 5 14;
#X connect 10 31 5 15;
#X connect 11 0 12 0;
#X connect 13 0 14 0;
#X connect 14 0 15 1;
#X connect 16 0 11 0;
#X connect 19 0 18 0;
#X connect 19 0 18 1;
#X connect 19 0 18 2;
#X connect 19 0 18 3;
#X connect 19 0 18 4;
#X connect 19 0 18 5;
